<?xml version="1.0" encoding="utf-8" standalone="no"?>
<!DOCTYPE svg PUBLIC "-//W3C//DTD SVG 1.1//EN"
  "http://www.w3.org/Graphics/SVG/1.1/DTD/svg11.dtd">
<svg xmlns:xlink="http://www.w3.org/1999/xlink" width="125.492031pt" height="103.988266pt" viewBox="0 0 125.492031 103.988266" xmlns="http://www.w3.org/2000/svg" version="1.1">
 <metadata>
  <rdf:RDF xmlns:dc="http://purl.org/dc/elements/1.1/" xmlns:cc="http://creativecommons.org/ns#" xmlns:rdf="http://www.w3.org/1999/02/22-rdf-syntax-ns#">
   <cc:Work>
    <dc:type rdf:resource="http://purl.org/dc/dcmitype/StillImage"/>
    <dc:date>2025-08-24T11:40:18.384247</dc:date>
    <dc:format>image/svg+xml</dc:format>
    <dc:creator>
     <cc:Agent>
      <dc:title>Matplotlib v3.7.2, https://matplotlib.org/</dc:title>
     </cc:Agent>
    </dc:creator>
   </cc:Work>
  </rdf:RDF>
 </metadata>
 <defs>
  <style type="text/css">*{stroke-linejoin: round; stroke-linecap: butt}</style>
 </defs>
 <g id="figure_1">
  <g id="patch_1">
   <path d="M 0 103.988266 
L 125.492031 103.988266 
L 125.492031 0 
L 0 0 
z
" style="fill: #ffffff"/>
  </g>
  <g id="axes_1">
   <g id="patch_2">
    <path d="M 20.651563 86.715609 
L 115.511562 86.715609 
L 115.511562 9.099609 
L 20.651563 9.099609 
z
" style="fill: #ffffff"/>
   </g>
   <g id="PolyCollection_1">
    <defs>
     <path id="m20c520d404" d="M 20.651563 -94.888656 
L 20.651563 -94.888656 
L 22.587481 -92.732759 
L 24.523399 -92.60715 
L 26.459318 -91.932409 
L 28.395236 -91.742994 
L 30.331154 -91.141209 
L 32.267073 -91.05689 
L 34.202991 -90.545884 
L 36.138909 -89.590203 
L 38.074828 -89.004581 
L 40.010746 -88.154832 
L 41.946665 -87.869153 
L 43.882583 -86.999782 
L 45.818501 -86.165733 
L 47.75442 -85.350961 
L 49.690338 -84.103953 
L 51.626256 -83.610116 
L 53.562175 -83.049976 
L 55.498093 -81.844166 
L 57.434011 -81.517499 
L 59.36993 -80.34742 
L 61.305848 -80.234119 
L 63.241767 -79.257114 
L 65.177685 -78.113739 
L 67.113603 -77.829297 
L 69.049522 -77.182989 
L 70.98544 -76.544313 
L 72.921358 -75.974812 
L 74.857277 -75.064342 
L 76.793195 -74.391104 
L 78.729114 -73.365152 
L 80.665032 -73.166083 
L 82.60095 -72.311248 
L 84.536869 -72.114235 
L 86.472787 -70.950538 
L 88.408705 -70.572813 
L 90.344624 -70.036222 
L 92.280542 -69.60553 
L 94.21646 -69.281051 
L 96.152379 -68.731673 
L 98.088297 -67.809621 
L 100.024216 -67.05298 
L 101.960134 -67.456661 
L 103.896052 -66.429922 
L 105.831971 -65.341462 
L 107.767889 -65.296927 
L 109.703807 -64.888027 
L 111.639726 -64.312842 
L 113.575644 -64.332367 
L 113.575644 -76.932011 
L 113.575644 -76.932011 
L 111.639726 -76.841682 
L 109.703807 -77.185599 
L 107.767889 -77.448105 
L 105.831971 -77.619776 
L 103.896052 -78.478243 
L 101.960134 -79.114387 
L 100.024216 -79.06605 
L 98.088297 -79.638636 
L 96.152379 -80.254192 
L 94.21646 -80.599793 
L 92.280542 -80.886784 
L 90.344624 -81.282622 
L 88.408705 -81.450592 
L 86.472787 -81.785421 
L 84.536869 -82.230002 
L 82.60095 -82.437207 
L 80.665032 -83.375783 
L 78.729114 -83.837911 
L 76.793195 -84.43443 
L 74.857277 -84.420765 
L 72.921358 -84.10237 
L 70.98544 -84.258429 
L 69.049522 -85.370386 
L 67.113603 -84.858421 
L 65.177685 -86.244546 
L 63.241767 -86.767226 
L 61.305848 -86.451799 
L 59.36993 -87.420882 
L 57.434011 -87.279383 
L 55.498093 -87.954695 
L 53.562175 -87.840634 
L 51.626256 -88.121808 
L 49.690338 -88.884256 
L 47.75442 -88.53291 
L 45.818501 -89.113062 
L 43.882583 -89.290558 
L 41.946665 -90.140538 
L 40.010746 -90.346858 
L 38.074828 -90.776273 
L 36.138909 -90.192065 
L 34.202991 -91.250381 
L 32.267073 -91.786096 
L 30.331154 -91.499166 
L 28.395236 -92.247466 
L 26.459318 -92.428415 
L 24.523399 -92.856958 
L 22.587481 -93.457587 
L 20.651563 -94.888656 
z
"/>
    </defs>
    <g clip-path="url(#pacdf72e9ea)">
     <use xlink:href="#m20c520d404" x="0" y="103.988266" style="fill: #e6a5f1; fill-opacity: 0.15"/>
    </g>
   </g>
   <g id="PolyCollection_2">
    <defs>
     <path id="me8e1edbbac" d="M 20.651563 -94.888656 
L 20.651563 -94.888656 
L 22.587481 -91.912073 
L 24.523399 -90.449115 
L 26.459318 -90.137608 
L 28.395236 -89.168257 
L 30.331154 -88.481712 
L 32.267073 -87.858904 
L 34.202991 -86.812443 
L 36.138909 -86.311716 
L 38.074828 -85.149005 
L 40.010746 -84.976173 
L 41.946665 -83.649529 
L 43.882583 -83.169984 
L 45.818501 -82.054508 
L 47.75442 -81.378917 
L 49.690338 -80.608067 
L 51.626256 -79.804505 
L 53.562175 -78.760288 
L 55.498093 -77.954564 
L 57.434011 -77.519092 
L 59.36993 -76.770634 
L 61.305848 -75.849613 
L 63.241767 -75.048998 
L 65.177685 -74.483393 
L 67.113603 -73.457208 
L 69.049522 -72.961085 
L 70.98544 -72.602999 
L 72.921358 -72.155227 
L 74.857277 -71.393853 
L 74.857277 -80.892791 
L 74.857277 -80.892791 
L 72.921358 -81.577566 
L 70.98544 -81.973669 
L 69.049522 -82.236093 
L 67.113603 -82.916734 
L 65.177685 -83.450213 
L 63.241767 -83.655017 
L 61.305848 -84.204083 
L 59.36993 -85.263582 
L 57.434011 -85.546133 
L 55.498093 -85.889657 
L 53.562175 -86.786587 
L 51.626256 -87.285001 
L 49.690338 -87.843865 
L 47.75442 -88.68136 
L 45.818501 -88.62838 
L 43.882583 -88.995667 
L 41.946665 -89.842163 
L 40.010746 -90.385448 
L 38.074828 -91.016995 
L 36.138909 -91.291341 
L 34.202991 -91.631599 
L 32.267073 -92.095795 
L 30.331154 -92.763027 
L 28.395236 -92.962497 
L 26.459318 -93.753696 
L 24.523399 -94.380523 
L 22.587481 -94.687889 
L 20.651563 -94.888656 
z
"/>
    </defs>
    <g clip-path="url(#pacdf72e9ea)">
     <use xlink:href="#me8e1edbbac" x="0" y="103.988266" style="fill: #df79f1; fill-opacity: 0.15"/>
    </g>
   </g>
   <g id="PolyCollection_3">
    <defs>
     <path id="md6b8a161c2" d="M 20.651563 -94.888656 
L 20.651563 -94.888656 
L 22.587481 -90.963234 
L 24.523399 -88.46809 
L 26.459318 -85.434868 
L 28.395236 -81.827809 
L 30.331154 -77.588562 
L 32.267073 -74.738708 
L 34.202991 -71.747097 
L 36.138909 -68.74859 
L 38.074828 -65.941605 
L 40.010746 -63.053298 
L 41.946665 -60.789484 
L 43.882583 -58.438705 
L 45.818501 -56.298194 
L 47.75442 -54.290161 
L 49.690338 -52.571665 
L 51.626256 -50.403 
L 53.562175 -48.892989 
L 55.498093 -47.009121 
L 57.434011 -45.577632 
L 59.36993 -44.18461 
L 61.305848 -42.989486 
L 63.241767 -41.735227 
L 65.177685 -40.115754 
L 67.113603 -39.279585 
L 67.113603 -65.18514 
L 67.113603 -65.18514 
L 65.177685 -65.809418 
L 63.241767 -66.885897 
L 61.305848 -67.714907 
L 59.36993 -69.188299 
L 57.434011 -69.689033 
L 55.498093 -71.123799 
L 53.562175 -71.876163 
L 51.626256 -73.676304 
L 49.690338 -74.769365 
L 47.75442 -75.986661 
L 45.818501 -77.701917 
L 43.882583 -79.106699 
L 41.946665 -80.542556 
L 40.010746 -81.979694 
L 38.074828 -83.57688 
L 36.138909 -84.259892 
L 34.202991 -86.871892 
L 32.267073 -88.84683 
L 30.331154 -89.913213 
L 28.395236 -90.96337 
L 26.459318 -91.968022 
L 24.523399 -93.518605 
L 22.587481 -94.320772 
L 20.651563 -94.888656 
z
"/>
    </defs>
    <g clip-path="url(#pacdf72e9ea)">
     <use xlink:href="#md6b8a161c2" x="0" y="103.988266" style="fill: #e026ec; fill-opacity: 0.2"/>
    </g>
   </g>
   <g id="PolyCollection_4">
    <defs>
     <path id="m33cf6a9d25" d="M 20.651563 -94.888656 
L 20.651563 -94.888656 
L 22.587481 -84.825773 
L 24.523399 -79.82203 
L 26.459318 -75.74292 
L 28.395236 -70.855278 
L 30.331154 -65.73117 
L 32.267073 -61.402023 
L 34.202991 -57.618031 
L 36.138909 -53.368961 
L 38.074828 -49.986251 
L 40.010746 -46.4818 
L 41.946665 -43.223309 
L 43.882583 -40.682502 
L 45.818501 -38.064423 
L 47.75442 -35.813859 
L 49.690338 -33.675774 
L 51.626256 -32.061504 
L 53.562175 -30.363558 
L 55.498093 -28.776061 
L 55.498093 -57.139808 
L 55.498093 -57.139808 
L 53.562175 -57.67945 
L 51.626256 -58.73524 
L 49.690338 -60.11544 
L 47.75442 -61.01938 
L 45.818501 -62.752288 
L 43.882583 -64.151381 
L 41.946665 -66.007209 
L 40.010746 -67.760457 
L 38.074828 -69.737092 
L 36.138909 -72.211733 
L 34.202991 -74.704161 
L 32.267073 -76.836558 
L 30.331154 -79.448804 
L 28.395236 -82.873178 
L 26.459318 -85.961211 
L 24.523399 -89.285111 
L 22.587481 -91.925148 
L 20.651563 -94.888656 
z
"/>
    </defs>
    <g clip-path="url(#pacdf72e9ea)">
     <use xlink:href="#m33cf6a9d25" x="0" y="103.988266" style="fill: #ad10b8; fill-opacity: 0.25"/>
    </g>
   </g>
   <g id="matplotlib.axis_1">
    <g id="xtick_1">
     <g id="line2d_1">
      <defs>
       <path id="m7e75e4db79" d="M 0 0 
L 0 2 
" style="stroke: #000000; stroke-width: 0.5"/>
      </defs>
      <g>
       <use xlink:href="#m7e75e4db79" x="20.651563" y="86.715609" style="stroke: #000000; stroke-width: 0.5"/>
      </g>
     </g>
     <g id="text_1">
      <!-- 1 -->
      <g transform="translate(19.261328 95.794516) scale(0.05 -0.05)">
       <defs>
        <path id="ArialMT-31" d="M 2384 0 
L 1822 0 
L 1822 3584 
Q 1619 3391 1289 3197 
Q 959 3003 697 2906 
L 697 3450 
Q 1169 3672 1522 3987 
Q 1875 4303 2022 4600 
L 2384 4600 
L 2384 0 
z
" transform="scale(0.015625)"/>
       </defs>
       <use xlink:href="#ArialMT-31"/>
      </g>
     </g>
    </g>
    <g id="xtick_2">
     <g id="line2d_2">
      <g>
       <use xlink:href="#m7e75e4db79" x="67.113603" y="86.715609" style="stroke: #000000; stroke-width: 0.5"/>
      </g>
     </g>
     <g id="text_2">
      <!-- 25 -->
      <g transform="translate(64.333135 95.794516) scale(0.05 -0.05)">
       <defs>
        <path id="ArialMT-32" d="M 3222 541 
L 3222 0 
L 194 0 
Q 188 203 259 391 
Q 375 700 629 1000 
Q 884 1300 1366 1694 
Q 2113 2306 2375 2664 
Q 2638 3022 2638 3341 
Q 2638 3675 2398 3904 
Q 2159 4134 1775 4134 
Q 1369 4134 1125 3890 
Q 881 3647 878 3216 
L 300 3275 
Q 359 3922 746 4261 
Q 1134 4600 1788 4600 
Q 2447 4600 2831 4234 
Q 3216 3869 3216 3328 
Q 3216 3053 3103 2787 
Q 2991 2522 2730 2228 
Q 2469 1934 1863 1422 
Q 1356 997 1212 845 
Q 1069 694 975 541 
L 3222 541 
z
" transform="scale(0.015625)"/>
        <path id="ArialMT-35" d="M 266 1200 
L 856 1250 
Q 922 819 1161 601 
Q 1400 384 1738 384 
Q 2144 384 2425 690 
Q 2706 997 2706 1503 
Q 2706 1984 2436 2262 
Q 2166 2541 1728 2541 
Q 1456 2541 1237 2417 
Q 1019 2294 894 2097 
L 366 2166 
L 809 4519 
L 3088 4519 
L 3088 3981 
L 1259 3981 
L 1013 2750 
Q 1425 3038 1878 3038 
Q 2478 3038 2890 2622 
Q 3303 2206 3303 1553 
Q 3303 931 2941 478 
Q 2500 -78 1738 -78 
Q 1113 -78 717 272 
Q 322 622 266 1200 
z
" transform="scale(0.015625)"/>
       </defs>
       <use xlink:href="#ArialMT-32"/>
       <use xlink:href="#ArialMT-35" x="55.615234"/>
      </g>
     </g>
    </g>
    <g id="xtick_3">
     <g id="line2d_3">
      <g>
       <use xlink:href="#m7e75e4db79" x="115.511562" y="86.715609" style="stroke: #000000; stroke-width: 0.5"/>
      </g>
     </g>
     <g id="text_3">
      <!-- 50 -->
      <g transform="translate(112.731094 95.794516) scale(0.05 -0.05)">
       <defs>
        <path id="ArialMT-30" d="M 266 2259 
Q 266 3072 433 3567 
Q 600 4063 929 4331 
Q 1259 4600 1759 4600 
Q 2128 4600 2406 4451 
Q 2684 4303 2865 4023 
Q 3047 3744 3150 3342 
Q 3253 2941 3253 2259 
Q 3253 1453 3087 958 
Q 2922 463 2592 192 
Q 2263 -78 1759 -78 
Q 1097 -78 719 397 
Q 266 969 266 2259 
z
M 844 2259 
Q 844 1131 1108 757 
Q 1372 384 1759 384 
Q 2147 384 2411 759 
Q 2675 1134 2675 2259 
Q 2675 3391 2411 3762 
Q 2147 4134 1753 4134 
Q 1366 4134 1134 3806 
Q 844 3388 844 2259 
z
" transform="scale(0.015625)"/>
       </defs>
       <use xlink:href="#ArialMT-35"/>
       <use xlink:href="#ArialMT-30" x="55.615234"/>
      </g>
     </g>
    </g>
   </g>
   <g id="matplotlib.axis_2">
    <g id="ytick_1">
     <g id="line2d_4">
      <defs>
       <path id="m73b9b89b04" d="M 0 0 
L -2 0 
" style="stroke: #000000; stroke-width: 0.5"/>
      </defs>
      <g>
       <use xlink:href="#m73b9b89b04" x="20.651563" y="86.715609" style="stroke: #000000; stroke-width: 0.5"/>
      </g>
     </g>
     <g id="text_4">
      <!-- 0.4 -->
      <g transform="translate(7.2 88.615219) scale(0.05 -0.05)">
       <defs>
        <path id="DejaVuSans-30" d="M 2034 4250 
Q 1547 4250 1301 3770 
Q 1056 3291 1056 2328 
Q 1056 1369 1301 889 
Q 1547 409 2034 409 
Q 2525 409 2770 889 
Q 3016 1369 3016 2328 
Q 3016 3291 2770 3770 
Q 2525 4250 2034 4250 
z
M 2034 4750 
Q 2819 4750 3233 4129 
Q 3647 3509 3647 2328 
Q 3647 1150 3233 529 
Q 2819 -91 2034 -91 
Q 1250 -91 836 529 
Q 422 1150 422 2328 
Q 422 3509 836 4129 
Q 1250 4750 2034 4750 
z
" transform="scale(0.015625)"/>
        <path id="DejaVuSans-2e" d="M 684 794 
L 1344 794 
L 1344 0 
L 684 0 
L 684 794 
z
" transform="scale(0.015625)"/>
        <path id="DejaVuSans-34" d="M 2419 4116 
L 825 1625 
L 2419 1625 
L 2419 4116 
z
M 2253 4666 
L 3047 4666 
L 3047 1625 
L 3713 1625 
L 3713 1100 
L 3047 1100 
L 3047 0 
L 2419 0 
L 2419 1100 
L 313 1100 
L 313 1709 
L 2253 4666 
z
" transform="scale(0.015625)"/>
       </defs>
       <use xlink:href="#DejaVuSans-30"/>
       <use xlink:href="#DejaVuSans-2e" x="63.623047"/>
       <use xlink:href="#DejaVuSans-34" x="95.410156"/>
      </g>
     </g>
    </g>
    <g id="ytick_2">
     <g id="line2d_5">
      <g>
       <use xlink:href="#m73b9b89b04" x="20.651563" y="60.843609" style="stroke: #000000; stroke-width: 0.5"/>
      </g>
     </g>
     <g id="text_5">
      <!-- 0.6 -->
      <g transform="translate(7.2 62.743219) scale(0.05 -0.05)">
       <defs>
        <path id="DejaVuSans-36" d="M 2113 2584 
Q 1688 2584 1439 2293 
Q 1191 2003 1191 1497 
Q 1191 994 1439 701 
Q 1688 409 2113 409 
Q 2538 409 2786 701 
Q 3034 994 3034 1497 
Q 3034 2003 2786 2293 
Q 2538 2584 2113 2584 
z
M 3366 4563 
L 3366 3988 
Q 3128 4100 2886 4159 
Q 2644 4219 2406 4219 
Q 1781 4219 1451 3797 
Q 1122 3375 1075 2522 
Q 1259 2794 1537 2939 
Q 1816 3084 2150 3084 
Q 2853 3084 3261 2657 
Q 3669 2231 3669 1497 
Q 3669 778 3244 343 
Q 2819 -91 2113 -91 
Q 1303 -91 875 529 
Q 447 1150 447 2328 
Q 447 3434 972 4092 
Q 1497 4750 2381 4750 
Q 2619 4750 2861 4703 
Q 3103 4656 3366 4563 
z
" transform="scale(0.015625)"/>
       </defs>
       <use xlink:href="#DejaVuSans-30"/>
       <use xlink:href="#DejaVuSans-2e" x="63.623047"/>
       <use xlink:href="#DejaVuSans-36" x="95.410156"/>
      </g>
     </g>
    </g>
    <g id="ytick_3">
     <g id="line2d_6">
      <g>
       <use xlink:href="#m73b9b89b04" x="20.651563" y="34.971609" style="stroke: #000000; stroke-width: 0.5"/>
      </g>
     </g>
     <g id="text_6">
      <!-- 0.8 -->
      <g transform="translate(7.2 36.871219) scale(0.05 -0.05)">
       <defs>
        <path id="DejaVuSans-38" d="M 2034 2216 
Q 1584 2216 1326 1975 
Q 1069 1734 1069 1313 
Q 1069 891 1326 650 
Q 1584 409 2034 409 
Q 2484 409 2743 651 
Q 3003 894 3003 1313 
Q 3003 1734 2745 1975 
Q 2488 2216 2034 2216 
z
M 1403 2484 
Q 997 2584 770 2862 
Q 544 3141 544 3541 
Q 544 4100 942 4425 
Q 1341 4750 2034 4750 
Q 2731 4750 3128 4425 
Q 3525 4100 3525 3541 
Q 3525 3141 3298 2862 
Q 3072 2584 2669 2484 
Q 3125 2378 3379 2068 
Q 3634 1759 3634 1313 
Q 3634 634 3220 271 
Q 2806 -91 2034 -91 
Q 1263 -91 848 271 
Q 434 634 434 1313 
Q 434 1759 690 2068 
Q 947 2378 1403 2484 
z
M 1172 3481 
Q 1172 3119 1398 2916 
Q 1625 2713 2034 2713 
Q 2441 2713 2670 2916 
Q 2900 3119 2900 3481 
Q 2900 3844 2670 4047 
Q 2441 4250 2034 4250 
Q 1625 4250 1398 4047 
Q 1172 3844 1172 3481 
z
" transform="scale(0.015625)"/>
       </defs>
       <use xlink:href="#DejaVuSans-30"/>
       <use xlink:href="#DejaVuSans-2e" x="63.623047"/>
       <use xlink:href="#DejaVuSans-38" x="95.410156"/>
      </g>
     </g>
    </g>
    <g id="ytick_4">
     <g id="line2d_7">
      <g>
       <use xlink:href="#m73b9b89b04" x="20.651563" y="9.099609" style="stroke: #000000; stroke-width: 0.5"/>
      </g>
     </g>
     <g id="text_7">
      <!-- 1.0 -->
      <g transform="translate(7.2 10.999219) scale(0.05 -0.05)">
       <defs>
        <path id="DejaVuSans-31" d="M 794 531 
L 1825 531 
L 1825 4091 
L 703 3866 
L 703 4441 
L 1819 4666 
L 2450 4666 
L 2450 531 
L 3481 531 
L 3481 0 
L 794 0 
L 794 531 
z
" transform="scale(0.015625)"/>
       </defs>
       <use xlink:href="#DejaVuSans-31"/>
       <use xlink:href="#DejaVuSans-2e" x="63.623047"/>
       <use xlink:href="#DejaVuSans-30" x="95.410156"/>
      </g>
     </g>
    </g>
   </g>
   <g id="line2d_8">
    <path d="M 20.651563 9.099609 
L 22.587481 10.893092 
L 24.523399 11.256211 
L 26.459318 11.807853 
L 28.395236 11.993035 
L 30.331154 12.668078 
L 32.267073 12.566773 
L 34.202991 13.090133 
L 36.138909 14.097132 
L 38.074828 14.097838 
L 40.010746 14.737421 
L 41.946665 14.98342 
L 43.882583 15.843095 
L 45.818501 16.348868 
L 47.75442 17.04633 
L 49.690338 17.494161 
L 51.626256 18.122304 
L 53.562175 18.542961 
L 55.498093 19.088835 
L 57.434011 19.589825 
L 59.36993 20.104115 
L 61.305848 20.645307 
L 63.241767 20.976095 
L 65.177685 21.809123 
L 67.113603 22.644407 
L 69.049522 22.711578 
L 70.98544 23.586895 
L 72.921358 23.949674 
L 74.857277 24.245712 
L 76.793195 24.575499 
L 78.729114 25.386734 
L 80.665032 25.717332 
L 82.60095 26.614038 
L 84.536869 26.816147 
L 86.472787 27.620286 
L 88.408705 27.976563 
L 90.344624 28.328844 
L 92.280542 28.742109 
L 94.21646 29.047844 
L 96.152379 29.495333 
L 98.088297 30.264137 
L 100.024216 30.928751 
L 101.960134 30.702742 
L 103.896052 31.534183 
L 105.831971 32.507647 
L 107.767889 32.61575 
L 109.703807 32.951453 
L 111.639726 33.411004 
L 113.575644 33.356077 
" clip-path="url(#pacdf72e9ea)" style="fill: none; stroke: #e6a5f1; stroke-width: 0.8; stroke-linecap: square"/>
   </g>
   <g id="line2d_9">
    <path d="M 20.651563 9.099609 
L 22.587481 10.688284 
L 24.523399 11.573446 
L 26.459318 12.042614 
L 28.395236 12.922889 
L 30.331154 13.365896 
L 32.267073 14.010916 
L 34.202991 14.766245 
L 36.138909 15.186737 
L 38.074828 15.905266 
L 40.010746 16.307455 
L 41.946665 17.242419 
L 43.882583 17.90544 
L 45.818501 18.646822 
L 47.75442 18.958127 
L 49.690338 19.7623 
L 51.626256 20.443513 
L 53.562175 21.214828 
L 55.498093 22.066155 
L 57.434011 22.455653 
L 59.36993 22.971158 
L 61.305848 23.961418 
L 63.241767 24.636259 
L 65.177685 25.021462 
L 67.113603 25.801295 
L 69.049522 26.389677 
L 70.98544 26.699932 
L 72.921358 27.121869 
L 74.857277 27.844944 
" clip-path="url(#pacdf72e9ea)" style="fill: none; stroke: #df79f1; stroke-width: 0.8; stroke-linecap: square"/>
   </g>
   <g id="line2d_10">
    <path d="M 20.651563 9.099609 
L 22.587481 11.346262 
L 24.523399 12.994918 
L 26.459318 15.286821 
L 28.395236 17.592676 
L 30.331154 20.237378 
L 32.267073 22.195496 
L 34.202991 24.678771 
L 36.138909 27.484025 
L 38.074828 29.229023 
L 40.010746 31.47177 
L 41.946665 33.322246 
L 43.882583 35.215564 
L 45.818501 36.98821 
L 47.75442 38.849855 
L 49.690338 40.31775 
L 51.626256 41.948614 
L 53.562175 43.603689 
L 55.498093 44.921806 
L 57.434011 46.354933 
L 59.36993 47.301811 
L 61.305848 48.636069 
L 63.241767 49.677704 
L 65.177685 51.02568 
L 67.113603 51.755903 
" clip-path="url(#pacdf72e9ea)" style="fill: none; stroke: #e026ec; stroke-width: 0.8; stroke-linecap: square"/>
   </g>
   <g id="line2d_11">
    <path d="M 20.651563 9.099609 
L 22.587481 15.612805 
L 24.523399 19.434695 
L 26.459318 23.1362 
L 28.395236 27.124037 
L 30.331154 31.398278 
L 32.267073 34.868975 
L 34.202991 37.827169 
L 36.138909 41.197919 
L 38.074828 44.126594 
L 40.010746 46.867137 
L 41.946665 49.373006 
L 43.882583 51.571324 
L 45.818501 53.57991 
L 47.75442 55.571646 
L 49.690338 57.092659 
L 51.626256 58.589894 
L 53.562175 59.966762 
L 55.498093 61.030331 
" clip-path="url(#pacdf72e9ea)" style="fill: none; stroke: #ad10b8; stroke-width: 0.8; stroke-linecap: square"/>
   </g>
   <g id="patch_3">
    <path d="M 20.651563 86.715609 
L 20.651563 9.099609 
" style="fill: none; stroke: #000000; stroke-width: 0.5; stroke-linejoin: miter; stroke-linecap: square"/>
   </g>
   <g id="patch_4">
    <path d="M 20.651563 86.715609 
L 115.511562 86.715609 
" style="fill: none; stroke: #000000; stroke-width: 0.5; stroke-linejoin: miter; stroke-linecap: square"/>
   </g>
  </g>
 </g>
 <defs>
  <clipPath id="pacdf72e9ea">
   <rect x="20.651563" y="9.099609" width="94.86" height="77.616"/>
  </clipPath>
 </defs>
</svg>
