<?xml version="1.0" encoding="utf-8" standalone="no"?>
<!DOCTYPE svg PUBLIC "-//W3C//DTD SVG 1.1//EN"
  "http://www.w3.org/Graphics/SVG/1.1/DTD/svg11.dtd">
<svg xmlns:xlink="http://www.w3.org/1999/xlink" width="475.4625pt" height="355.852344pt" viewBox="0 0 475.4625 355.852344" xmlns="http://www.w3.org/2000/svg" version="1.1">
 <metadata>
  <rdf:RDF xmlns:dc="http://purl.org/dc/elements/1.1/" xmlns:cc="http://creativecommons.org/ns#" xmlns:rdf="http://www.w3.org/1999/02/22-rdf-syntax-ns#">
   <cc:Work>
    <dc:type rdf:resource="http://purl.org/dc/dcmitype/StillImage"/>
    <dc:date>2025-08-07T15:11:16.665379</dc:date>
    <dc:format>image/svg+xml</dc:format>
    <dc:creator>
     <cc:Agent>
      <dc:title>Matplotlib v3.7.2, https://matplotlib.org/</dc:title>
     </cc:Agent>
    </dc:creator>
   </cc:Work>
  </rdf:RDF>
 </metadata>
 <defs>
  <style type="text/css">*{stroke-linejoin: round; stroke-linecap: butt}</style>
 </defs>
 <g id="figure_1">
  <g id="patch_1">
   <path d="M 0 355.852344 
L 475.4625 355.852344 
L 475.4625 0 
L 0 0 
z
" style="fill: #ffffff"/>
  </g>
  <g id="axes_1">
   <g id="patch_2">
    <path d="M 77.6625 291.998437 
L 468.2625 291.998437 
L 468.2625 14.798437 
L 77.6625 14.798437 
z
" style="fill: #ffffff"/>
   </g>
   <g id="PolyCollection_1">
    <defs>
     <path id="m2c950d3d73" d="M 95.417045 -341.053906 
L 95.417045 -341.053906 
L 98.169688 -265.126922 
L 100.922331 -248.431378 
L 103.674974 -235.086747 
L 106.427616 -225.452997 
L 109.180259 -223.641993 
L 111.932902 -219.522741 
L 114.685544 -218.666765 
L 117.438187 -218.215585 
L 120.19083 -211.845633 
L 122.943473 -210.581773 
L 125.696115 -208.286926 
L 128.448758 -207.873378 
L 131.201401 -202.530955 
L 133.954043 -200.528009 
L 136.706686 -200.191165 
L 139.459329 -199.547839 
L 142.211971 -199.522465 
L 144.964614 -199.163386 
L 147.717257 -196.389696 
L 150.4699 -195.087817 
L 153.222542 -193.686283 
L 155.975185 -190.974402 
L 158.727828 -189.700041 
L 161.48047 -188.402545 
L 164.233113 -189.632429 
L 166.985756 -183.090005 
L 169.738399 -182.28807 
L 172.491041 -180.69073 
L 175.243684 -180.768853 
L 177.996327 -177.135785 
L 180.748969 -174.830851 
L 183.501612 -172.004381 
L 186.254255 -167.290064 
L 189.006897 -168.503151 
L 191.75954 -168.360664 
L 194.512183 -165.993326 
L 197.264826 -165.758425 
L 200.017468 -167.097715 
L 202.770111 -165.670169 
L 205.522754 -163.834739 
L 208.275396 -164.621651 
L 211.028039 -161.847709 
L 213.780682 -161.914328 
L 216.533325 -159.716429 
L 219.285967 -159.201666 
L 222.03861 -158.711957 
L 224.791253 -157.50768 
L 227.543895 -155.311879 
L 230.296538 -157.679328 
L 233.049181 -157.591573 
L 235.801823 -156.97589 
L 238.554466 -152.979979 
L 241.307109 -151.82699 
L 244.059752 -150.797373 
L 246.812394 -146.698613 
L 249.565037 -149.043883 
L 252.31768 -144.815857 
L 255.070322 -146.170547 
L 257.822965 -146.309907 
L 260.575608 -146.071797 
L 263.328251 -147.164345 
L 266.080893 -146.102456 
L 268.833536 -146.926838 
L 271.586179 -143.891485 
L 274.338821 -141.997281 
L 277.091464 -144.202865 
L 279.844107 -143.645069 
L 282.596749 -142.00126 
L 285.349392 -140.013269 
L 288.102035 -140.183878 
L 290.854678 -138.632801 
L 293.60732 -138.78376 
L 296.359963 -136.745925 
L 299.112606 -137.602486 
L 301.865248 -139.153576 
L 304.617891 -136.429044 
L 307.370534 -135.722923 
L 310.123177 -137.486705 
L 312.875819 -136.563861 
L 315.628462 -133.128949 
L 318.381105 -133.908583 
L 321.133747 -131.243683 
L 323.88639 -131.378075 
L 326.639033 -132.321346 
L 329.391675 -129.295569 
L 332.144318 -131.177137 
L 334.896961 -127.541487 
L 337.649604 -128.244512 
L 340.402246 -127.46385 
L 343.154889 -126.556307 
L 345.907532 -126.773751 
L 348.660174 -124.409761 
L 351.412817 -126.589827 
L 354.16546 -125.003659 
L 356.918103 -125.270277 
L 359.670745 -126.58826 
L 362.423388 -124.402245 
L 365.176031 -121.859729 
L 367.928673 -123.248888 
L 370.681316 -118.982138 
L 373.433959 -121.014344 
L 376.186601 -119.568677 
L 378.939244 -118.576063 
L 381.691887 -117.778564 
L 384.44453 -120.269142 
L 387.197172 -119.092418 
L 389.949815 -117.320267 
L 392.702458 -115.529907 
L 395.4551 -114.986694 
L 398.207743 -115.645406 
L 400.960386 -111.16994 
L 403.713029 -113.205923 
L 406.465671 -111.607017 
L 409.218314 -111.495667 
L 411.970957 -111.59596 
L 414.723599 -111.051314 
L 417.476242 -109.854593 
L 420.228885 -109.484682 
L 422.981527 -108.647332 
L 425.73417 -106.044146 
L 428.486813 -105.391388 
L 431.239456 -105.399945 
L 433.992098 -104.885949 
L 436.744741 -103.867456 
L 439.497384 -102.666132 
L 442.250026 -104.864144 
L 445.002669 -101.520825 
L 447.755312 -100.071524 
L 450.507955 -102.995878 
L 450.507955 -157.470595 
L 450.507955 -157.470595 
L 447.755312 -158.374401 
L 445.002669 -162.180843 
L 442.250026 -161.674896 
L 439.497384 -163.963496 
L 436.744741 -164.437961 
L 433.992098 -168.024177 
L 431.239456 -164.752622 
L 428.486813 -166.644621 
L 425.73417 -168.821123 
L 422.981527 -169.521442 
L 420.228885 -174.480872 
L 417.476242 -167.777136 
L 414.723599 -171.869465 
L 411.970957 -173.685734 
L 409.218314 -175.896389 
L 406.465671 -175.928086 
L 403.713029 -174.324702 
L 400.960386 -174.610628 
L 398.207743 -176.441278 
L 395.4551 -177.311549 
L 392.702458 -182.243331 
L 389.949815 -178.835499 
L 387.197172 -182.687256 
L 384.44453 -186.496454 
L 381.691887 -184.203383 
L 378.939244 -184.511523 
L 376.186601 -186.03487 
L 373.433959 -186.051753 
L 370.681316 -184.358061 
L 367.928673 -185.433779 
L 365.176031 -186.072865 
L 362.423388 -190.861726 
L 359.670745 -193.94383 
L 356.918103 -196.747466 
L 354.16546 -197.840884 
L 351.412817 -192.845704 
L 348.660174 -194.011975 
L 345.907532 -197.652437 
L 343.154889 -196.747965 
L 340.402246 -198.16603 
L 337.649604 -201.288377 
L 334.896961 -198.487507 
L 332.144318 -197.672994 
L 329.391675 -197.74828 
L 326.639033 -198.913469 
L 323.88639 -201.115483 
L 321.133747 -200.697112 
L 318.381105 -203.197629 
L 315.628462 -201.225389 
L 312.875819 -206.482103 
L 310.123177 -207.246915 
L 307.370534 -207.377109 
L 304.617891 -210.700674 
L 301.865248 -207.661046 
L 299.112606 -201.816923 
L 296.359963 -203.174278 
L 293.60732 -206.931776 
L 290.854678 -206.489799 
L 288.102035 -208.564529 
L 285.349392 -209.565278 
L 282.596749 -212.234162 
L 279.844107 -214.042616 
L 277.091464 -215.143218 
L 274.338821 -215.094862 
L 271.586179 -216.252884 
L 268.833536 -214.452181 
L 266.080893 -209.715171 
L 263.328251 -210.075567 
L 260.575608 -208.481988 
L 257.822965 -205.549686 
L 255.070322 -209.947729 
L 252.31768 -205.078142 
L 249.565037 -210.313955 
L 246.812394 -211.34449 
L 244.059752 -214.594416 
L 241.307109 -217.233181 
L 238.554466 -217.0186 
L 235.801823 -220.052536 
L 233.049181 -218.920876 
L 230.296538 -224.724891 
L 227.543895 -220.145477 
L 224.791253 -220.984047 
L 222.03861 -227.304995 
L 219.285967 -218.650019 
L 216.533325 -218.250073 
L 213.780682 -221.346483 
L 211.028039 -220.292342 
L 208.275396 -227.794545 
L 205.522754 -223.764887 
L 202.770111 -223.687191 
L 200.017468 -225.051262 
L 197.264826 -226.555238 
L 194.512183 -229.767504 
L 191.75954 -230.69005 
L 189.006897 -232.477637 
L 186.254255 -233.632243 
L 183.501612 -233.497505 
L 180.748969 -235.176711 
L 177.996327 -236.924891 
L 175.243684 -241.522093 
L 172.491041 -246.225606 
L 169.738399 -246.900046 
L 166.985756 -246.339882 
L 164.233113 -250.464421 
L 161.48047 -253.065179 
L 158.727828 -256.188646 
L 155.975185 -255.490281 
L 153.222542 -259.028016 
L 150.4699 -258.236459 
L 147.717257 -255.364694 
L 144.964614 -260.181747 
L 142.211971 -257.636776 
L 139.459329 -264.141935 
L 136.706686 -262.310647 
L 133.954043 -263.037801 
L 131.201401 -268.287258 
L 128.448758 -269.228588 
L 125.696115 -270.898084 
L 122.943473 -272.512655 
L 120.19083 -272.69938 
L 117.438187 -279.560251 
L 114.685544 -282.004089 
L 111.932902 -284.408921 
L 109.180259 -285.61222 
L 106.427616 -291.021852 
L 103.674974 -301.658168 
L 100.922331 -315.250625 
L 98.169688 -318.750742 
L 95.417045 -341.053906 
z
"/>
    </defs>
    <g clip-path="url(#p048b52ad23)">
     <use xlink:href="#m2c950d3d73" x="0" y="355.852344" style="fill: #e6a5f1; fill-opacity: 0.3"/>
    </g>
   </g>
   <g id="PolyCollection_2">
    <defs>
     <path id="m4110d4d234" d="M 95.417045 -341.053906 
L 95.417045 -341.053906 
L 98.169688 -307.062827 
L 100.922331 -293.28753 
L 103.674974 -284.798542 
L 106.427616 -275.088016 
L 109.180259 -273.55472 
L 111.932902 -267.811406 
L 114.685544 -264.240364 
L 117.438187 -254.486138 
L 120.19083 -248.67225 
L 122.943473 -242.533127 
L 125.696115 -232.508344 
L 128.448758 -230.54604 
L 131.201401 -222.877726 
L 133.954043 -223.641052 
L 136.706686 -217.488076 
L 139.459329 -210.717806 
L 142.211971 -205.619641 
L 144.964614 -200.46211 
L 147.717257 -197.017576 
L 150.4699 -191.093327 
L 153.222542 -187.412018 
L 155.975185 -184.702182 
L 158.727828 -177.469498 
L 161.48047 -174.790633 
L 164.233113 -172.672947 
L 166.985756 -166.45558 
L 169.738399 -162.206735 
L 172.491041 -157.848587 
L 175.243684 -155.152251 
L 175.243684 -163.543225 
L 175.243684 -163.543225 
L 172.491041 -168.054186 
L 169.738399 -176.41778 
L 166.985756 -178.661971 
L 164.233113 -181.192996 
L 161.48047 -190.996543 
L 158.727828 -194.794248 
L 155.975185 -194.989422 
L 153.222542 -198.578788 
L 150.4699 -206.763107 
L 147.717257 -213.22794 
L 144.964614 -216.034459 
L 142.211971 -225.906422 
L 139.459329 -230.482436 
L 136.706686 -235.203768 
L 133.954043 -244.728706 
L 131.201401 -247.356023 
L 128.448758 -254.963175 
L 125.696115 -260.13218 
L 122.943473 -263.10296 
L 120.19083 -269.498217 
L 117.438187 -282.07682 
L 114.685544 -294.631737 
L 111.932902 -292.040486 
L 109.180259 -303.852156 
L 106.427616 -302.812733 
L 103.674974 -304.688889 
L 100.922331 -310.277083 
L 98.169688 -318.602629 
L 95.417045 -341.053906 
z
"/>
    </defs>
    <g clip-path="url(#p048b52ad23)">
     <use xlink:href="#m4110d4d234" x="0" y="355.852344" style="fill: #ad10b8; fill-opacity: 0.3"/>
    </g>
   </g>
   <g id="matplotlib.axis_1">
    <g id="xtick_1">
     <g id="line2d_1">
      <defs>
       <path id="m4bd8aeebd1" d="M 0 0 
L 0 8 
" style="stroke: #000000; stroke-width: 2"/>
      </defs>
      <g>
       <use xlink:href="#m4bd8aeebd1" x="92.664403" y="291.998437" style="stroke: #000000; stroke-width: 2"/>
      </g>
     </g>
     <g id="text_1">
      <!-- 0 -->
      <g transform="translate(87.103465 317.814062) scale(0.2 -0.2)">
       <defs>
        <path id="ArialMT-30" d="M 266 2259 
Q 266 3072 433 3567 
Q 600 4063 929 4331 
Q 1259 4600 1759 4600 
Q 2128 4600 2406 4451 
Q 2684 4303 2865 4023 
Q 3047 3744 3150 3342 
Q 3253 2941 3253 2259 
Q 3253 1453 3087 958 
Q 2922 463 2592 192 
Q 2263 -78 1759 -78 
Q 1097 -78 719 397 
Q 266 969 266 2259 
z
M 844 2259 
Q 844 1131 1108 757 
Q 1372 384 1759 384 
Q 2147 384 2411 759 
Q 2675 1134 2675 2259 
Q 2675 3391 2411 3762 
Q 2147 4134 1753 4134 
Q 1366 4134 1134 3806 
Q 844 3388 844 2259 
z
" transform="scale(0.015625)"/>
       </defs>
       <use xlink:href="#ArialMT-30"/>
      </g>
     </g>
    </g>
    <g id="xtick_2">
     <g id="line2d_2">
      <g>
       <use xlink:href="#m4bd8aeebd1" x="161.48047" y="291.998437" style="stroke: #000000; stroke-width: 2"/>
      </g>
     </g>
     <g id="text_2">
      <!-- 25 -->
      <g transform="translate(150.358595 317.814062) scale(0.2 -0.2)">
       <defs>
        <path id="ArialMT-32" d="M 3222 541 
L 3222 0 
L 194 0 
Q 188 203 259 391 
Q 375 700 629 1000 
Q 884 1300 1366 1694 
Q 2113 2306 2375 2664 
Q 2638 3022 2638 3341 
Q 2638 3675 2398 3904 
Q 2159 4134 1775 4134 
Q 1369 4134 1125 3890 
Q 881 3647 878 3216 
L 300 3275 
Q 359 3922 746 4261 
Q 1134 4600 1788 4600 
Q 2447 4600 2831 4234 
Q 3216 3869 3216 3328 
Q 3216 3053 3103 2787 
Q 2991 2522 2730 2228 
Q 2469 1934 1863 1422 
Q 1356 997 1212 845 
Q 1069 694 975 541 
L 3222 541 
z
" transform="scale(0.015625)"/>
        <path id="ArialMT-35" d="M 266 1200 
L 856 1250 
Q 922 819 1161 601 
Q 1400 384 1738 384 
Q 2144 384 2425 690 
Q 2706 997 2706 1503 
Q 2706 1984 2436 2262 
Q 2166 2541 1728 2541 
Q 1456 2541 1237 2417 
Q 1019 2294 894 2097 
L 366 2166 
L 809 4519 
L 3088 4519 
L 3088 3981 
L 1259 3981 
L 1013 2750 
Q 1425 3038 1878 3038 
Q 2478 3038 2890 2622 
Q 3303 2206 3303 1553 
Q 3303 931 2941 478 
Q 2500 -78 1738 -78 
Q 1113 -78 717 272 
Q 322 622 266 1200 
z
" transform="scale(0.015625)"/>
       </defs>
       <use xlink:href="#ArialMT-32"/>
       <use xlink:href="#ArialMT-35" x="55.615234"/>
      </g>
     </g>
    </g>
    <g id="xtick_3">
     <g id="line2d_3">
      <g>
       <use xlink:href="#m4bd8aeebd1" x="230.296538" y="291.998437" style="stroke: #000000; stroke-width: 2"/>
      </g>
     </g>
     <g id="text_3">
      <!-- 50 -->
      <g transform="translate(219.174663 317.814062) scale(0.2 -0.2)">
       <use xlink:href="#ArialMT-35"/>
       <use xlink:href="#ArialMT-30" x="55.615234"/>
      </g>
     </g>
    </g>
    <g id="xtick_4">
     <g id="line2d_4">
      <g>
       <use xlink:href="#m4bd8aeebd1" x="299.112606" y="291.998437" style="stroke: #000000; stroke-width: 2"/>
      </g>
     </g>
     <g id="text_4">
      <!-- 75 -->
      <g transform="translate(287.990731 317.814062) scale(0.2 -0.2)">
       <defs>
        <path id="ArialMT-37" d="M 303 3981 
L 303 4522 
L 3269 4522 
L 3269 4084 
Q 2831 3619 2401 2847 
Q 1972 2075 1738 1259 
Q 1569 684 1522 0 
L 944 0 
Q 953 541 1156 1306 
Q 1359 2072 1739 2783 
Q 2119 3494 2547 3981 
L 303 3981 
z
" transform="scale(0.015625)"/>
       </defs>
       <use xlink:href="#ArialMT-37"/>
       <use xlink:href="#ArialMT-35" x="55.615234"/>
      </g>
     </g>
    </g>
    <g id="xtick_5">
     <g id="line2d_5">
      <g>
       <use xlink:href="#m4bd8aeebd1" x="367.928673" y="291.998437" style="stroke: #000000; stroke-width: 2"/>
      </g>
     </g>
     <g id="text_5">
      <!-- 100 -->
      <g transform="translate(351.245861 317.814062) scale(0.2 -0.2)">
       <defs>
        <path id="ArialMT-31" d="M 2384 0 
L 1822 0 
L 1822 3584 
Q 1619 3391 1289 3197 
Q 959 3003 697 2906 
L 697 3450 
Q 1169 3672 1522 3987 
Q 1875 4303 2022 4600 
L 2384 4600 
L 2384 0 
z
" transform="scale(0.015625)"/>
       </defs>
       <use xlink:href="#ArialMT-31"/>
       <use xlink:href="#ArialMT-30" x="55.615234"/>
       <use xlink:href="#ArialMT-30" x="111.230469"/>
      </g>
     </g>
    </g>
    <g id="xtick_6">
     <g id="line2d_6">
      <g>
       <use xlink:href="#m4bd8aeebd1" x="436.744741" y="291.998437" style="stroke: #000000; stroke-width: 2"/>
      </g>
     </g>
     <g id="text_6">
      <!-- 125 -->
      <g transform="translate(420.061929 317.814062) scale(0.2 -0.2)">
       <use xlink:href="#ArialMT-31"/>
       <use xlink:href="#ArialMT-32" x="55.615234"/>
       <use xlink:href="#ArialMT-35" x="111.230469"/>
      </g>
     </g>
    </g>
    <g id="text_7">
     <!-- Frame number -->
     <g transform="translate(190.999609 343.683594) scale(0.25 -0.25)">
      <defs>
       <path id="ArialMT-46" d="M 525 0 
L 525 4581 
L 3616 4581 
L 3616 4041 
L 1131 4041 
L 1131 2622 
L 3281 2622 
L 3281 2081 
L 1131 2081 
L 1131 0 
L 525 0 
z
" transform="scale(0.015625)"/>
       <path id="ArialMT-72" d="M 416 0 
L 416 3319 
L 922 3319 
L 922 2816 
Q 1116 3169 1280 3281 
Q 1444 3394 1641 3394 
Q 1925 3394 2219 3213 
L 2025 2691 
Q 1819 2813 1613 2813 
Q 1428 2813 1281 2702 
Q 1134 2591 1072 2394 
Q 978 2094 978 1738 
L 978 0 
L 416 0 
z
" transform="scale(0.015625)"/>
       <path id="ArialMT-61" d="M 2588 409 
Q 2275 144 1986 34 
Q 1697 -75 1366 -75 
Q 819 -75 525 192 
Q 231 459 231 875 
Q 231 1119 342 1320 
Q 453 1522 633 1644 
Q 813 1766 1038 1828 
Q 1203 1872 1538 1913 
Q 2219 1994 2541 2106 
Q 2544 2222 2544 2253 
Q 2544 2597 2384 2738 
Q 2169 2928 1744 2928 
Q 1347 2928 1158 2789 
Q 969 2650 878 2297 
L 328 2372 
Q 403 2725 575 2942 
Q 747 3159 1072 3276 
Q 1397 3394 1825 3394 
Q 2250 3394 2515 3294 
Q 2781 3194 2906 3042 
Q 3031 2891 3081 2659 
Q 3109 2516 3109 2141 
L 3109 1391 
Q 3109 606 3145 398 
Q 3181 191 3288 0 
L 2700 0 
Q 2613 175 2588 409 
z
M 2541 1666 
Q 2234 1541 1622 1453 
Q 1275 1403 1131 1340 
Q 988 1278 909 1158 
Q 831 1038 831 891 
Q 831 666 1001 516 
Q 1172 366 1500 366 
Q 1825 366 2078 508 
Q 2331 650 2450 897 
Q 2541 1088 2541 1459 
L 2541 1666 
z
" transform="scale(0.015625)"/>
       <path id="ArialMT-6d" d="M 422 0 
L 422 3319 
L 925 3319 
L 925 2853 
Q 1081 3097 1340 3245 
Q 1600 3394 1931 3394 
Q 2300 3394 2536 3241 
Q 2772 3088 2869 2813 
Q 3263 3394 3894 3394 
Q 4388 3394 4653 3120 
Q 4919 2847 4919 2278 
L 4919 0 
L 4359 0 
L 4359 2091 
Q 4359 2428 4304 2576 
Q 4250 2725 4106 2815 
Q 3963 2906 3769 2906 
Q 3419 2906 3187 2673 
Q 2956 2441 2956 1928 
L 2956 0 
L 2394 0 
L 2394 2156 
Q 2394 2531 2256 2718 
Q 2119 2906 1806 2906 
Q 1569 2906 1367 2781 
Q 1166 2656 1075 2415 
Q 984 2175 984 1722 
L 984 0 
L 422 0 
z
" transform="scale(0.015625)"/>
       <path id="ArialMT-65" d="M 2694 1069 
L 3275 997 
Q 3138 488 2766 206 
Q 2394 -75 1816 -75 
Q 1088 -75 661 373 
Q 234 822 234 1631 
Q 234 2469 665 2931 
Q 1097 3394 1784 3394 
Q 2450 3394 2872 2941 
Q 3294 2488 3294 1666 
Q 3294 1616 3291 1516 
L 816 1516 
Q 847 969 1125 678 
Q 1403 388 1819 388 
Q 2128 388 2347 550 
Q 2566 713 2694 1069 
z
M 847 1978 
L 2700 1978 
Q 2663 2397 2488 2606 
Q 2219 2931 1791 2931 
Q 1403 2931 1139 2672 
Q 875 2413 847 1978 
z
" transform="scale(0.015625)"/>
       <path id="ArialMT-20" transform="scale(0.015625)"/>
       <path id="ArialMT-6e" d="M 422 0 
L 422 3319 
L 928 3319 
L 928 2847 
Q 1294 3394 1984 3394 
Q 2284 3394 2536 3286 
Q 2788 3178 2913 3003 
Q 3038 2828 3088 2588 
Q 3119 2431 3119 2041 
L 3119 0 
L 2556 0 
L 2556 2019 
Q 2556 2363 2490 2533 
Q 2425 2703 2258 2804 
Q 2091 2906 1866 2906 
Q 1506 2906 1245 2678 
Q 984 2450 984 1813 
L 984 0 
L 422 0 
z
" transform="scale(0.015625)"/>
       <path id="ArialMT-75" d="M 2597 0 
L 2597 488 
Q 2209 -75 1544 -75 
Q 1250 -75 995 37 
Q 741 150 617 320 
Q 494 491 444 738 
Q 409 903 409 1263 
L 409 3319 
L 972 3319 
L 972 1478 
Q 972 1038 1006 884 
Q 1059 663 1231 536 
Q 1403 409 1656 409 
Q 1909 409 2131 539 
Q 2353 669 2445 892 
Q 2538 1116 2538 1541 
L 2538 3319 
L 3100 3319 
L 3100 0 
L 2597 0 
z
" transform="scale(0.015625)"/>
       <path id="ArialMT-62" d="M 941 0 
L 419 0 
L 419 4581 
L 981 4581 
L 981 2947 
Q 1338 3394 1891 3394 
Q 2197 3394 2470 3270 
Q 2744 3147 2920 2923 
Q 3097 2700 3197 2384 
Q 3297 2069 3297 1709 
Q 3297 856 2875 390 
Q 2453 -75 1863 -75 
Q 1275 -75 941 416 
L 941 0 
z
M 934 1684 
Q 934 1088 1097 822 
Q 1363 388 1816 388 
Q 2184 388 2453 708 
Q 2722 1028 2722 1663 
Q 2722 2313 2464 2622 
Q 2206 2931 1841 2931 
Q 1472 2931 1203 2611 
Q 934 2291 934 1684 
z
" transform="scale(0.015625)"/>
      </defs>
      <use xlink:href="#ArialMT-46"/>
      <use xlink:href="#ArialMT-72" x="61.083984"/>
      <use xlink:href="#ArialMT-61" x="94.384766"/>
      <use xlink:href="#ArialMT-6d" x="150"/>
      <use xlink:href="#ArialMT-65" x="233.300781"/>
      <use xlink:href="#ArialMT-20" x="288.916016"/>
      <use xlink:href="#ArialMT-6e" x="316.699219"/>
      <use xlink:href="#ArialMT-75" x="372.314453"/>
      <use xlink:href="#ArialMT-6d" x="427.929688"/>
      <use xlink:href="#ArialMT-62" x="511.230469"/>
      <use xlink:href="#ArialMT-65" x="566.845703"/>
      <use xlink:href="#ArialMT-72" x="622.460938"/>
     </g>
    </g>
   </g>
   <g id="matplotlib.axis_2">
    <g id="ytick_1">
     <g id="line2d_7">
      <defs>
       <path id="m54d18475c6" d="M 0 0 
L -8 0 
" style="stroke: #000000; stroke-width: 2"/>
      </defs>
      <g>
       <use xlink:href="#m54d18475c6" x="77.6625" y="291.998437" style="stroke: #000000; stroke-width: 2"/>
      </g>
     </g>
     <g id="text_8">
      <!-- 0.0 -->
      <g transform="translate(34.35625 299.596875) scale(0.2 -0.2)">
       <defs>
        <path id="DejaVuSans-30" d="M 2034 4250 
Q 1547 4250 1301 3770 
Q 1056 3291 1056 2328 
Q 1056 1369 1301 889 
Q 1547 409 2034 409 
Q 2525 409 2770 889 
Q 3016 1369 3016 2328 
Q 3016 3291 2770 3770 
Q 2525 4250 2034 4250 
z
M 2034 4750 
Q 2819 4750 3233 4129 
Q 3647 3509 3647 2328 
Q 3647 1150 3233 529 
Q 2819 -91 2034 -91 
Q 1250 -91 836 529 
Q 422 1150 422 2328 
Q 422 3509 836 4129 
Q 1250 4750 2034 4750 
z
" transform="scale(0.015625)"/>
        <path id="DejaVuSans-2e" d="M 684 794 
L 1344 794 
L 1344 0 
L 684 0 
L 684 794 
z
" transform="scale(0.015625)"/>
       </defs>
       <use xlink:href="#DejaVuSans-30"/>
       <use xlink:href="#DejaVuSans-2e" x="63.623047"/>
       <use xlink:href="#DejaVuSans-30" x="95.410156"/>
      </g>
     </g>
    </g>
    <g id="ytick_2">
     <g id="line2d_8">
      <g>
       <use xlink:href="#m54d18475c6" x="77.6625" y="236.558437" style="stroke: #000000; stroke-width: 2"/>
      </g>
     </g>
     <g id="text_9">
      <!-- 0.2 -->
      <g transform="translate(34.35625 244.156875) scale(0.2 -0.2)">
       <defs>
        <path id="DejaVuSans-32" d="M 1228 531 
L 3431 531 
L 3431 0 
L 469 0 
L 469 531 
Q 828 903 1448 1529 
Q 2069 2156 2228 2338 
Q 2531 2678 2651 2914 
Q 2772 3150 2772 3378 
Q 2772 3750 2511 3984 
Q 2250 4219 1831 4219 
Q 1534 4219 1204 4116 
Q 875 4013 500 3803 
L 500 4441 
Q 881 4594 1212 4672 
Q 1544 4750 1819 4750 
Q 2544 4750 2975 4387 
Q 3406 4025 3406 3419 
Q 3406 3131 3298 2873 
Q 3191 2616 2906 2266 
Q 2828 2175 2409 1742 
Q 1991 1309 1228 531 
z
" transform="scale(0.015625)"/>
       </defs>
       <use xlink:href="#DejaVuSans-30"/>
       <use xlink:href="#DejaVuSans-2e" x="63.623047"/>
       <use xlink:href="#DejaVuSans-32" x="95.410156"/>
      </g>
     </g>
    </g>
    <g id="ytick_3">
     <g id="line2d_9">
      <g>
       <use xlink:href="#m54d18475c6" x="77.6625" y="181.118437" style="stroke: #000000; stroke-width: 2"/>
      </g>
     </g>
     <g id="text_10">
      <!-- 0.4 -->
      <g transform="translate(34.35625 188.716875) scale(0.2 -0.2)">
       <defs>
        <path id="DejaVuSans-34" d="M 2419 4116 
L 825 1625 
L 2419 1625 
L 2419 4116 
z
M 2253 4666 
L 3047 4666 
L 3047 1625 
L 3713 1625 
L 3713 1100 
L 3047 1100 
L 3047 0 
L 2419 0 
L 2419 1100 
L 313 1100 
L 313 1709 
L 2253 4666 
z
" transform="scale(0.015625)"/>
       </defs>
       <use xlink:href="#DejaVuSans-30"/>
       <use xlink:href="#DejaVuSans-2e" x="63.623047"/>
       <use xlink:href="#DejaVuSans-34" x="95.410156"/>
      </g>
     </g>
    </g>
    <g id="ytick_4">
     <g id="line2d_10">
      <g>
       <use xlink:href="#m54d18475c6" x="77.6625" y="125.678437" style="stroke: #000000; stroke-width: 2"/>
      </g>
     </g>
     <g id="text_11">
      <!-- 0.6 -->
      <g transform="translate(34.35625 133.276875) scale(0.2 -0.2)">
       <defs>
        <path id="DejaVuSans-36" d="M 2113 2584 
Q 1688 2584 1439 2293 
Q 1191 2003 1191 1497 
Q 1191 994 1439 701 
Q 1688 409 2113 409 
Q 2538 409 2786 701 
Q 3034 994 3034 1497 
Q 3034 2003 2786 2293 
Q 2538 2584 2113 2584 
z
M 3366 4563 
L 3366 3988 
Q 3128 4100 2886 4159 
Q 2644 4219 2406 4219 
Q 1781 4219 1451 3797 
Q 1122 3375 1075 2522 
Q 1259 2794 1537 2939 
Q 1816 3084 2150 3084 
Q 2853 3084 3261 2657 
Q 3669 2231 3669 1497 
Q 3669 778 3244 343 
Q 2819 -91 2113 -91 
Q 1303 -91 875 529 
Q 447 1150 447 2328 
Q 447 3434 972 4092 
Q 1497 4750 2381 4750 
Q 2619 4750 2861 4703 
Q 3103 4656 3366 4563 
z
" transform="scale(0.015625)"/>
       </defs>
       <use xlink:href="#DejaVuSans-30"/>
       <use xlink:href="#DejaVuSans-2e" x="63.623047"/>
       <use xlink:href="#DejaVuSans-36" x="95.410156"/>
      </g>
     </g>
    </g>
    <g id="ytick_5">
     <g id="line2d_11">
      <g>
       <use xlink:href="#m54d18475c6" x="77.6625" y="70.238437" style="stroke: #000000; stroke-width: 2"/>
      </g>
     </g>
     <g id="text_12">
      <!-- 0.8 -->
      <g transform="translate(34.35625 77.836875) scale(0.2 -0.2)">
       <defs>
        <path id="DejaVuSans-38" d="M 2034 2216 
Q 1584 2216 1326 1975 
Q 1069 1734 1069 1313 
Q 1069 891 1326 650 
Q 1584 409 2034 409 
Q 2484 409 2743 651 
Q 3003 894 3003 1313 
Q 3003 1734 2745 1975 
Q 2488 2216 2034 2216 
z
M 1403 2484 
Q 997 2584 770 2862 
Q 544 3141 544 3541 
Q 544 4100 942 4425 
Q 1341 4750 2034 4750 
Q 2731 4750 3128 4425 
Q 3525 4100 3525 3541 
Q 3525 3141 3298 2862 
Q 3072 2584 2669 2484 
Q 3125 2378 3379 2068 
Q 3634 1759 3634 1313 
Q 3634 634 3220 271 
Q 2806 -91 2034 -91 
Q 1263 -91 848 271 
Q 434 634 434 1313 
Q 434 1759 690 2068 
Q 947 2378 1403 2484 
z
M 1172 3481 
Q 1172 3119 1398 2916 
Q 1625 2713 2034 2713 
Q 2441 2713 2670 2916 
Q 2900 3119 2900 3481 
Q 2900 3844 2670 4047 
Q 2441 4250 2034 4250 
Q 1625 4250 1398 4047 
Q 1172 3844 1172 3481 
z
" transform="scale(0.015625)"/>
       </defs>
       <use xlink:href="#DejaVuSans-30"/>
       <use xlink:href="#DejaVuSans-2e" x="63.623047"/>
       <use xlink:href="#DejaVuSans-38" x="95.410156"/>
      </g>
     </g>
    </g>
    <g id="ytick_6">
     <g id="line2d_12">
      <g>
       <use xlink:href="#m54d18475c6" x="77.6625" y="14.798437" style="stroke: #000000; stroke-width: 2"/>
      </g>
     </g>
     <g id="text_13">
      <!-- 1.0 -->
      <g transform="translate(34.35625 22.396875) scale(0.2 -0.2)">
       <defs>
        <path id="DejaVuSans-31" d="M 794 531 
L 1825 531 
L 1825 4091 
L 703 3866 
L 703 4441 
L 1819 4666 
L 2450 4666 
L 2450 531 
L 3481 531 
L 3481 0 
L 794 0 
L 794 531 
z
" transform="scale(0.015625)"/>
       </defs>
       <use xlink:href="#DejaVuSans-31"/>
       <use xlink:href="#DejaVuSans-2e" x="63.623047"/>
       <use xlink:href="#DejaVuSans-30" x="95.410156"/>
      </g>
     </g>
    </g>
    <g id="text_14">
     <!-- Norm. Intensity -->
     <g transform="translate(25.094531 237.445312) rotate(-90) scale(0.25 -0.25)">
      <defs>
       <path id="ArialMT-4e" d="M 488 0 
L 488 4581 
L 1109 4581 
L 3516 984 
L 3516 4581 
L 4097 4581 
L 4097 0 
L 3475 0 
L 1069 3600 
L 1069 0 
L 488 0 
z
" transform="scale(0.015625)"/>
       <path id="ArialMT-6f" d="M 213 1659 
Q 213 2581 725 3025 
Q 1153 3394 1769 3394 
Q 2453 3394 2887 2945 
Q 3322 2497 3322 1706 
Q 3322 1066 3130 698 
Q 2938 331 2570 128 
Q 2203 -75 1769 -75 
Q 1072 -75 642 372 
Q 213 819 213 1659 
z
M 791 1659 
Q 791 1022 1069 705 
Q 1347 388 1769 388 
Q 2188 388 2466 706 
Q 2744 1025 2744 1678 
Q 2744 2294 2464 2611 
Q 2184 2928 1769 2928 
Q 1347 2928 1069 2612 
Q 791 2297 791 1659 
z
" transform="scale(0.015625)"/>
       <path id="ArialMT-2e" d="M 581 0 
L 581 641 
L 1222 641 
L 1222 0 
L 581 0 
z
" transform="scale(0.015625)"/>
       <path id="ArialMT-49" d="M 597 0 
L 597 4581 
L 1203 4581 
L 1203 0 
L 597 0 
z
" transform="scale(0.015625)"/>
       <path id="ArialMT-74" d="M 1650 503 
L 1731 6 
Q 1494 -44 1306 -44 
Q 1000 -44 831 53 
Q 663 150 594 308 
Q 525 466 525 972 
L 525 2881 
L 113 2881 
L 113 3319 
L 525 3319 
L 525 4141 
L 1084 4478 
L 1084 3319 
L 1650 3319 
L 1650 2881 
L 1084 2881 
L 1084 941 
Q 1084 700 1114 631 
Q 1144 563 1211 522 
Q 1278 481 1403 481 
Q 1497 481 1650 503 
z
" transform="scale(0.015625)"/>
       <path id="ArialMT-73" d="M 197 991 
L 753 1078 
Q 800 744 1014 566 
Q 1228 388 1613 388 
Q 2000 388 2187 545 
Q 2375 703 2375 916 
Q 2375 1106 2209 1216 
Q 2094 1291 1634 1406 
Q 1016 1563 777 1677 
Q 538 1791 414 1992 
Q 291 2194 291 2438 
Q 291 2659 392 2848 
Q 494 3038 669 3163 
Q 800 3259 1026 3326 
Q 1253 3394 1513 3394 
Q 1903 3394 2198 3281 
Q 2494 3169 2634 2976 
Q 2775 2784 2828 2463 
L 2278 2388 
Q 2241 2644 2061 2787 
Q 1881 2931 1553 2931 
Q 1166 2931 1000 2803 
Q 834 2675 834 2503 
Q 834 2394 903 2306 
Q 972 2216 1119 2156 
Q 1203 2125 1616 2013 
Q 2213 1853 2448 1751 
Q 2684 1650 2818 1456 
Q 2953 1263 2953 975 
Q 2953 694 2789 445 
Q 2625 197 2315 61 
Q 2006 -75 1616 -75 
Q 969 -75 630 194 
Q 291 463 197 991 
z
" transform="scale(0.015625)"/>
       <path id="ArialMT-69" d="M 425 3934 
L 425 4581 
L 988 4581 
L 988 3934 
L 425 3934 
z
M 425 0 
L 425 3319 
L 988 3319 
L 988 0 
L 425 0 
z
" transform="scale(0.015625)"/>
       <path id="ArialMT-79" d="M 397 -1278 
L 334 -750 
Q 519 -800 656 -800 
Q 844 -800 956 -737 
Q 1069 -675 1141 -563 
Q 1194 -478 1313 -144 
Q 1328 -97 1363 -6 
L 103 3319 
L 709 3319 
L 1400 1397 
Q 1534 1031 1641 628 
Q 1738 1016 1872 1384 
L 2581 3319 
L 3144 3319 
L 1881 -56 
Q 1678 -603 1566 -809 
Q 1416 -1088 1222 -1217 
Q 1028 -1347 759 -1347 
Q 597 -1347 397 -1278 
z
" transform="scale(0.015625)"/>
      </defs>
      <use xlink:href="#ArialMT-4e"/>
      <use xlink:href="#ArialMT-6f" x="72.216797"/>
      <use xlink:href="#ArialMT-72" x="127.832031"/>
      <use xlink:href="#ArialMT-6d" x="161.132812"/>
      <use xlink:href="#ArialMT-2e" x="244.433594"/>
      <use xlink:href="#ArialMT-20" x="272.216797"/>
      <use xlink:href="#ArialMT-49" x="300"/>
      <use xlink:href="#ArialMT-6e" x="327.783203"/>
      <use xlink:href="#ArialMT-74" x="383.398438"/>
      <use xlink:href="#ArialMT-65" x="411.181641"/>
      <use xlink:href="#ArialMT-6e" x="466.796875"/>
      <use xlink:href="#ArialMT-73" x="522.412109"/>
      <use xlink:href="#ArialMT-69" x="572.412109"/>
      <use xlink:href="#ArialMT-74" x="594.628906"/>
      <use xlink:href="#ArialMT-79" x="622.412109"/>
     </g>
    </g>
   </g>
   <g id="line2d_13">
    <path d="M 95.417045 14.798437 
L 98.169688 63.913512 
L 100.922331 74.011342 
L 103.674974 87.479886 
L 106.427616 97.61492 
L 109.180259 101.225237 
L 111.932902 103.886513 
L 114.685544 105.516917 
L 117.438187 106.964426 
L 120.19083 113.579837 
L 122.943473 114.30513 
L 125.696115 116.259838 
L 128.448758 117.301361 
L 131.201401 120.443237 
L 133.954043 124.069439 
L 136.706686 124.601438 
L 139.459329 124.007456 
L 142.211971 127.272723 
L 144.964614 126.179777 
L 147.717257 129.975149 
L 150.4699 129.190206 
L 153.222542 129.495194 
L 155.975185 132.620002 
L 158.727828 132.908 
L 161.48047 135.118482 
L 164.233113 135.803919 
L 166.985756 141.1374 
L 169.738399 141.258286 
L 172.491041 142.394176 
L 175.243684 144.706871 
L 177.996327 148.822006 
L 180.748969 150.848563 
L 186.254255 155.39119 
L 189.006897 155.36195 
L 191.75954 156.326987 
L 197.264826 159.695512 
L 200.017468 159.777855 
L 202.770111 161.173663 
L 205.522754 162.052531 
L 208.275396 159.644246 
L 211.028039 164.782318 
L 213.780682 164.221938 
L 216.533325 166.869093 
L 219.285967 166.926501 
L 222.03861 162.843868 
L 224.791253 166.60648 
L 227.543895 168.123666 
L 230.296538 164.650234 
L 233.049181 167.596119 
L 235.801823 167.338131 
L 238.554466 170.853054 
L 241.307109 171.322258 
L 244.059752 173.156449 
L 246.812394 176.830792 
L 249.565037 176.173425 
L 252.31768 180.905344 
L 255.070322 177.793206 
L 257.822965 179.922547 
L 263.328251 177.232388 
L 266.080893 177.94353 
L 268.833536 175.162834 
L 271.586179 175.780159 
L 274.338821 177.306272 
L 277.091464 176.179302 
L 279.844107 177.008502 
L 282.596749 178.734633 
L 285.349392 181.06307 
L 288.102035 181.47814 
L 290.854678 183.291044 
L 293.60732 182.994576 
L 296.359963 185.892242 
L 299.112606 186.142639 
L 301.865248 182.445033 
L 304.617891 182.287485 
L 307.370534 184.302327 
L 310.123177 183.485533 
L 312.875819 184.329362 
L 315.628462 188.675175 
L 318.381105 187.299238 
L 321.133747 189.881947 
L 323.88639 189.605565 
L 326.639033 190.234937 
L 329.391675 192.330419 
L 332.144318 191.427278 
L 334.896961 192.837846 
L 337.649604 191.085899 
L 340.402246 193.037404 
L 343.154889 194.200207 
L 345.907532 193.63925 
L 348.660174 196.641476 
L 351.412817 196.134578 
L 354.16546 194.430072 
L 356.918103 194.843472 
L 359.670745 195.586298 
L 362.423388 198.220358 
L 365.176031 201.886047 
L 367.928673 201.51101 
L 370.681316 204.182244 
L 373.433959 202.319295 
L 376.186601 203.05057 
L 378.939244 204.308551 
L 381.691887 204.86137 
L 384.44453 202.469546 
L 387.197172 204.962507 
L 389.949815 207.774461 
L 392.702458 206.965725 
L 395.4551 209.703222 
L 398.207743 209.809002 
L 400.960386 212.96206 
L 403.713029 212.087031 
L 409.218314 212.156316 
L 411.970957 213.211497 
L 414.723599 214.391954 
L 417.476242 217.036479 
L 420.228885 213.869567 
L 422.981527 216.767957 
L 425.73417 218.419709 
L 428.486813 219.834339 
L 431.239456 220.77606 
L 433.992098 219.397281 
L 436.744741 221.699635 
L 439.497384 222.53753 
L 442.250026 222.582823 
L 445.002669 224.00151 
L 447.755312 226.629381 
L 450.507955 225.619107 
L 450.507955 225.619107 
" clip-path="url(#p048b52ad23)" style="fill: none; stroke: #e6a5f1; stroke-width: 1.5; stroke-linecap: square"/>
   </g>
   <g id="line2d_14">
    <path d="M 95.417045 14.798437 
L 98.169688 43.019616 
L 100.922331 54.070037 
L 103.674974 61.108628 
L 106.427616 66.901969 
L 109.180259 67.148906 
L 111.932902 75.926398 
L 114.685544 76.416293 
L 117.438187 87.570865 
L 120.19083 96.76711 
L 122.943473 103.0343 
L 125.696115 109.532082 
L 128.448758 113.097737 
L 131.201401 120.735469 
L 133.954043 121.667464 
L 136.706686 129.506422 
L 139.459329 135.252223 
L 142.211971 140.089313 
L 144.964614 147.604059 
L 147.717257 150.729586 
L 150.4699 156.924127 
L 153.222542 162.856941 
L 155.975185 166.006542 
L 158.727828 169.720471 
L 161.48047 172.958756 
L 164.233113 178.919372 
L 166.985756 183.293568 
L 169.738399 186.540086 
L 172.491041 192.900957 
L 175.243684 196.504605 
" clip-path="url(#p048b52ad23)" style="fill: none; stroke: #ad10b8; stroke-width: 1.5; stroke-linecap: square"/>
   </g>
   <g id="patch_3">
    <path d="M 77.6625 291.998437 
L 77.6625 14.798437 
" style="fill: none; stroke: #000000; stroke-width: 2; stroke-linejoin: miter; stroke-linecap: square"/>
   </g>
   <g id="patch_4">
    <path d="M 77.6625 291.998437 
L 468.2625 291.998437 
" style="fill: none; stroke: #000000; stroke-width: 2; stroke-linejoin: miter; stroke-linecap: square"/>
   </g>
  </g>
 </g>
 <defs>
  <clipPath id="p048b52ad23">
   <rect x="77.6625" y="14.798437" width="390.6" height="277.2"/>
  </clipPath>
 </defs>
</svg>
