<?xml version="1.0" encoding="utf-8" standalone="no"?>
<!DOCTYPE svg PUBLIC "-//W3C//DTD SVG 1.1//EN"
  "http://www.w3.org/Graphics/SVG/1.1/DTD/svg11.dtd">
<svg xmlns:xlink="http://www.w3.org/1999/xlink" width="460.8pt" height="345.6pt" viewBox="0 0 460.8 345.6" xmlns="http://www.w3.org/2000/svg" version="1.1">
 <metadata>
  <rdf:RDF xmlns:dc="http://purl.org/dc/elements/1.1/" xmlns:cc="http://creativecommons.org/ns#" xmlns:rdf="http://www.w3.org/1999/02/22-rdf-syntax-ns#">
   <cc:Work>
    <dc:type rdf:resource="http://purl.org/dc/dcmitype/StillImage"/>
    <dc:date>2025-07-22T13:28:14.790719</dc:date>
    <dc:format>image/svg+xml</dc:format>
    <dc:creator>
     <cc:Agent>
      <dc:title>Matplotlib v3.7.2, https://matplotlib.org/</dc:title>
     </cc:Agent>
    </dc:creator>
   </cc:Work>
  </rdf:RDF>
 </metadata>
 <defs>
  <style type="text/css">*{stroke-linejoin: round; stroke-linecap: butt}</style>
 </defs>
 <g id="figure_1">
  <g id="patch_1">
   <path d="M 0 345.6 
L 460.8 345.6 
L 460.8 0 
L 0 0 
z
" style="fill: #ffffff"/>
  </g>
  <g id="axes_1">
   <g id="patch_2">
    <path d="M 57.6 307.584 
L 414.72 307.584 
L 414.72 41.472 
L 57.6 41.472 
z
" style="fill: #ffffff"/>
   </g>
   <g id="PathCollection_1">
    <defs>
     <path id="C0_0_83670d5cc5" d="M 0 2.738613 
C 0.726289 2.738613 1.422928 2.450055 1.936492 1.936492 
C 2.450055 1.422928 2.738613 0.726289 2.738613 -0 
C 2.738613 -0.726289 2.450055 -1.422928 1.936492 -1.936492 
C 1.422928 -2.450055 0.726289 -2.738613 0 -2.738613 
C -0.726289 -2.738613 -1.422928 -2.450055 -1.936492 -1.936492 
C -2.450055 -1.422928 -2.738613 -0.726289 -2.738613 0 
C -2.738613 0.726289 -2.450055 1.422928 -1.936492 1.936492 
C -1.422928 2.450055 -0.726289 2.738613 0 2.738613 
z
"/>
    </defs>
    <g clip-path="url(#pcd7eb69f59)">
     <use xlink:href="#C0_0_83670d5cc5" x="107.867291" y="182.001782" style="fill: #8b0000"/>
    </g>
    <g clip-path="url(#pcd7eb69f59)">
     <use xlink:href="#C0_0_83670d5cc5" x="108.204241" y="204.368019" style="fill: #8b0000"/>
    </g>
    <g clip-path="url(#pcd7eb69f59)">
     <use xlink:href="#C0_0_83670d5cc5" x="108.616923" y="218.248541" style="fill: #8b0000"/>
    </g>
    <g clip-path="url(#pcd7eb69f59)">
     <use xlink:href="#C0_0_83670d5cc5" x="110.671677" y="187.715834" style="fill: #8b0000"/>
    </g>
    <g clip-path="url(#pcd7eb69f59)">
     <use xlink:href="#C0_0_83670d5cc5" x="109.674742" y="98.218453" style="fill: #8b0000"/>
    </g>
    <g clip-path="url(#pcd7eb69f59)">
     <use xlink:href="#C0_0_83670d5cc5" x="108.086921" y="152.550132" style="fill: #8b0000"/>
    </g>
    <g clip-path="url(#pcd7eb69f59)">
     <use xlink:href="#C0_0_83670d5cc5" x="110.196704" y="175.940403" style="fill: #8b0000"/>
    </g>
    <g clip-path="url(#pcd7eb69f59)">
     <use xlink:href="#C0_0_83670d5cc5" x="110.152438" y="68.765538" style="fill: #8b0000"/>
    </g>
    <g clip-path="url(#pcd7eb69f59)">
     <use xlink:href="#C0_0_83670d5cc5" x="107.504235" y="191.409302" style="fill: #8b0000"/>
    </g>
    <g clip-path="url(#pcd7eb69f59)">
     <use xlink:href="#C0_0_83670d5cc5" x="109.98462" y="168.872502" style="fill: #8b0000"/>
    </g>
    <g clip-path="url(#pcd7eb69f59)">
     <use xlink:href="#C0_0_83670d5cc5" x="106.537295" y="94.748422" style="fill: #8b0000"/>
    </g>
    <g clip-path="url(#pcd7eb69f59)">
     <use xlink:href="#C0_0_83670d5cc5" x="106.447323" y="210.812688" style="fill: #8b0000"/>
    </g>
    <g clip-path="url(#pcd7eb69f59)">
     <use xlink:href="#C0_0_83670d5cc5" x="110.594625" y="152.168789" style="fill: #8b0000"/>
    </g>
    <g clip-path="url(#pcd7eb69f59)">
     <use xlink:href="#C0_0_83670d5cc5" x="108.891826" y="160.782769" style="fill: #8b0000"/>
    </g>
    <g clip-path="url(#pcd7eb69f59)">
     <use xlink:href="#C0_0_83670d5cc5" x="107.694193" y="155.708841" style="fill: #8b0000"/>
    </g>
    <g clip-path="url(#pcd7eb69f59)">
     <use xlink:href="#C0_0_83670d5cc5" x="108.733284" y="174.764587" style="fill: #8b0000"/>
    </g>
    <g clip-path="url(#pcd7eb69f59)">
     <use xlink:href="#C0_0_83670d5cc5" x="110.477159" y="178.989949" style="fill: #8b0000"/>
    </g>
    <g clip-path="url(#pcd7eb69f59)">
     <use xlink:href="#C0_0_83670d5cc5" x="110.39531" y="193.41918" style="fill: #8b0000"/>
    </g>
    <g clip-path="url(#pcd7eb69f59)">
     <use xlink:href="#C0_0_83670d5cc5" x="109.322297" y="231.760661" style="fill: #8b0000"/>
    </g>
    <g clip-path="url(#pcd7eb69f59)">
     <use xlink:href="#C0_0_83670d5cc5" x="107.815585" y="208.951447" style="fill: #8b0000"/>
    </g>
   </g>
   <g id="PathCollection_2">
    <defs>
     <path id="C1_0_d828cf7c89" d="M 0 2.738613 
C 0.726289 2.738613 1.422928 2.450055 1.936492 1.936492 
C 2.450055 1.422928 2.738613 0.726289 2.738613 -0 
C 2.738613 -0.726289 2.450055 -1.422928 1.936492 -1.936492 
C 1.422928 -2.450055 0.726289 -2.738613 0 -2.738613 
C -0.726289 -2.738613 -1.422928 -2.450055 -1.936492 -1.936492 
C -2.450055 -1.422928 -2.738613 -0.726289 -2.738613 0 
C -2.738613 0.726289 -2.450055 1.422928 -1.936492 1.936492 
C -1.422928 2.450055 -0.726289 2.738613 0 2.738613 
z
"/>
    </defs>
    <g clip-path="url(#pcd7eb69f59)">
     <use xlink:href="#C1_0_d828cf7c89" x="250.019406" y="193.668775" style="fill: #8b0000"/>
    </g>
    <g clip-path="url(#pcd7eb69f59)">
     <use xlink:href="#C1_0_d828cf7c89" x="249.083956" y="184.091341" style="fill: #8b0000"/>
    </g>
    <g clip-path="url(#pcd7eb69f59)">
     <use xlink:href="#C1_0_d828cf7c89" x="247.916048" y="180.184161" style="fill: #8b0000"/>
    </g>
    <g clip-path="url(#pcd7eb69f59)">
     <use xlink:href="#C1_0_d828cf7c89" x="246.950467" y="214.829142" style="fill: #8b0000"/>
    </g>
    <g clip-path="url(#pcd7eb69f59)">
     <use xlink:href="#C1_0_d828cf7c89" x="248.64581" y="160.861098" style="fill: #8b0000"/>
    </g>
    <g clip-path="url(#pcd7eb69f59)">
     <use xlink:href="#C1_0_d828cf7c89" x="248.294825" y="212.559268" style="fill: #8b0000"/>
    </g>
    <g clip-path="url(#pcd7eb69f59)">
     <use xlink:href="#C1_0_d828cf7c89" x="249.806311" y="183.560914" style="fill: #8b0000"/>
    </g>
    <g clip-path="url(#pcd7eb69f59)">
     <use xlink:href="#C1_0_d828cf7c89" x="246.221858" y="187.141756" style="fill: #8b0000"/>
    </g>
    <g clip-path="url(#pcd7eb69f59)">
     <use xlink:href="#C1_0_d828cf7c89" x="249.643942" y="214.862886" style="fill: #8b0000"/>
    </g>
    <g clip-path="url(#pcd7eb69f59)">
     <use xlink:href="#C1_0_d828cf7c89" x="248.668636" y="193.431347" style="fill: #8b0000"/>
    </g>
    <g clip-path="url(#pcd7eb69f59)">
     <use xlink:href="#C1_0_d828cf7c89" x="249.579309" y="178.446098" style="fill: #8b0000"/>
    </g>
    <g clip-path="url(#pcd7eb69f59)">
     <use xlink:href="#C1_0_d828cf7c89" x="246.472641" y="189.721432" style="fill: #8b0000"/>
    </g>
    <g clip-path="url(#pcd7eb69f59)">
     <use xlink:href="#C1_0_d828cf7c89" x="246.843606" y="176.587803" style="fill: #8b0000"/>
    </g>
    <g clip-path="url(#pcd7eb69f59)">
     <use xlink:href="#C1_0_d828cf7c89" x="250.041081" y="204.610869" style="fill: #8b0000"/>
    </g>
    <g clip-path="url(#pcd7eb69f59)">
     <use xlink:href="#C1_0_d828cf7c89" x="249.872383" y="187.365404" style="fill: #8b0000"/>
    </g>
    <g clip-path="url(#pcd7eb69f59)">
     <use xlink:href="#C1_0_d828cf7c89" x="248.646614" y="232.747576" style="fill: #8b0000"/>
    </g>
    <g clip-path="url(#pcd7eb69f59)">
     <use xlink:href="#C1_0_d828cf7c89" x="247.050619" y="197.496099" style="fill: #8b0000"/>
    </g>
    <g clip-path="url(#pcd7eb69f59)">
     <use xlink:href="#C1_0_d828cf7c89" x="249.41118" y="241.441164" style="fill: #8b0000"/>
    </g>
    <g clip-path="url(#pcd7eb69f59)">
     <use xlink:href="#C1_0_d828cf7c89" x="246.048875" y="201.540395" style="fill: #8b0000"/>
    </g>
    <g clip-path="url(#pcd7eb69f59)">
     <use xlink:href="#C1_0_d828cf7c89" x="249.772695" y="231.874567" style="fill: #8b0000"/>
    </g>
    <g clip-path="url(#pcd7eb69f59)">
     <use xlink:href="#C1_0_d828cf7c89" x="248.709238" y="205.611854" style="fill: #8b0000"/>
    </g>
   </g>
   <g id="PathCollection_3">
    <defs>
     <path id="C2_0_1a5005a014" d="M 0 2.738613 
C 0.726289 2.738613 1.422928 2.450055 1.936492 1.936492 
C 2.450055 1.422928 2.738613 0.726289 2.738613 -0 
C 2.738613 -0.726289 2.450055 -1.422928 1.936492 -1.936492 
C 1.422928 -2.450055 0.726289 -2.738613 0 -2.738613 
C -0.726289 -2.738613 -1.422928 -2.450055 -1.936492 -1.936492 
C -2.450055 -1.422928 -2.738613 -0.726289 -2.738613 0 
C -2.738613 0.726289 -2.450055 1.422928 -1.936492 1.936492 
C -1.422928 2.450055 -0.726289 2.738613 0 2.738613 
z
"/>
    </defs>
    <g clip-path="url(#pcd7eb69f59)">
     <use xlink:href="#C2_0_1a5005a014" x="362.069685" y="251.594016" style="fill: #8b0000"/>
    </g>
    <g clip-path="url(#pcd7eb69f59)">
     <use xlink:href="#C2_0_1a5005a014" x="363.095703" y="195.781253" style="fill: #8b0000"/>
    </g>
    <g clip-path="url(#pcd7eb69f59)">
     <use xlink:href="#C2_0_1a5005a014" x="362.625056" y="296.211692" style="fill: #8b0000"/>
    </g>
    <g clip-path="url(#pcd7eb69f59)">
     <use xlink:href="#C2_0_1a5005a014" x="364.770389" y="248.281274" style="fill: #8b0000"/>
    </g>
    <g clip-path="url(#pcd7eb69f59)">
     <use xlink:href="#C2_0_1a5005a014" x="365.542987" y="259.118353" style="fill: #8b0000"/>
    </g>
    <g clip-path="url(#pcd7eb69f59)">
     <use xlink:href="#C2_0_1a5005a014" x="361.528317" y="186.950136" style="fill: #8b0000"/>
    </g>
    <g clip-path="url(#pcd7eb69f59)">
     <use xlink:href="#C2_0_1a5005a014" x="361.442253" y="239.298472" style="fill: #8b0000"/>
    </g>
    <g clip-path="url(#pcd7eb69f59)">
     <use xlink:href="#C2_0_1a5005a014" x="362.737767" y="201.14355" style="fill: #8b0000"/>
    </g>
    <g clip-path="url(#pcd7eb69f59)">
     <use xlink:href="#C2_0_1a5005a014" x="362.525447" y="250.460947" style="fill: #8b0000"/>
    </g>
    <g clip-path="url(#pcd7eb69f59)">
     <use xlink:href="#C2_0_1a5005a014" x="365.878717" y="178.257892" style="fill: #8b0000"/>
    </g>
    <g clip-path="url(#pcd7eb69f59)">
     <use xlink:href="#C2_0_1a5005a014" x="361.695995" y="246.934983" style="fill: #8b0000"/>
    </g>
    <g clip-path="url(#pcd7eb69f59)">
     <use xlink:href="#C2_0_1a5005a014" x="363.690377" y="85.004424" style="fill: #8b0000"/>
    </g>
    <g clip-path="url(#pcd7eb69f59)">
     <use xlink:href="#C2_0_1a5005a014" x="364.878553" y="232.797986" style="fill: #8b0000"/>
    </g>
    <g clip-path="url(#pcd7eb69f59)">
     <use xlink:href="#C2_0_1a5005a014" x="362.77643" y="261.989484" style="fill: #8b0000"/>
    </g>
    <g clip-path="url(#pcd7eb69f59)">
     <use xlink:href="#C2_0_1a5005a014" x="362.10367" y="248.169204" style="fill: #8b0000"/>
    </g>
    <g clip-path="url(#pcd7eb69f59)">
     <use xlink:href="#C2_0_1a5005a014" x="365.196258" y="274.352243" style="fill: #8b0000"/>
    </g>
    <g clip-path="url(#pcd7eb69f59)">
     <use xlink:href="#C2_0_1a5005a014" x="363.65191" y="256.382289" style="fill: #8b0000"/>
    </g>
    <g clip-path="url(#pcd7eb69f59)">
     <use xlink:href="#C2_0_1a5005a014" x="365.473422" y="259.194463" style="fill: #8b0000"/>
    </g>
    <g clip-path="url(#pcd7eb69f59)">
     <use xlink:href="#C2_0_1a5005a014" x="362.729257" y="231.564869" style="fill: #8b0000"/>
    </g>
    <g clip-path="url(#pcd7eb69f59)">
     <use xlink:href="#C2_0_1a5005a014" x="365.381681" y="227.807582" style="fill: #8b0000"/>
    </g>
   </g>
   <g id="matplotlib.axis_1">
    <g id="xtick_1">
     <g id="line2d_1">
      <defs>
       <path id="m42ff3fca45" d="M 0 0 
L 0 3.5 
" style="stroke: #000000; stroke-width: 0.8"/>
      </defs>
      <g>
       <use xlink:href="#m42ff3fca45" x="108.617143" y="307.584" style="stroke: #000000; stroke-width: 0.8"/>
      </g>
     </g>
     <g id="text_1">
      <!-- High -->
      <g transform="translate(97.124955 322.182437) scale(0.1 -0.1)">
       <defs>
        <path id="DejaVuSans-48" d="M 628 4666 
L 1259 4666 
L 1259 2753 
L 3553 2753 
L 3553 4666 
L 4184 4666 
L 4184 0 
L 3553 0 
L 3553 2222 
L 1259 2222 
L 1259 0 
L 628 0 
L 628 4666 
z
" transform="scale(0.015625)"/>
        <path id="DejaVuSans-69" d="M 603 3500 
L 1178 3500 
L 1178 0 
L 603 0 
L 603 3500 
z
M 603 4863 
L 1178 4863 
L 1178 4134 
L 603 4134 
L 603 4863 
z
" transform="scale(0.015625)"/>
        <path id="DejaVuSans-67" d="M 2906 1791 
Q 2906 2416 2648 2759 
Q 2391 3103 1925 3103 
Q 1463 3103 1205 2759 
Q 947 2416 947 1791 
Q 947 1169 1205 825 
Q 1463 481 1925 481 
Q 2391 481 2648 825 
Q 2906 1169 2906 1791 
z
M 3481 434 
Q 3481 -459 3084 -895 
Q 2688 -1331 1869 -1331 
Q 1566 -1331 1297 -1286 
Q 1028 -1241 775 -1147 
L 775 -588 
Q 1028 -725 1275 -790 
Q 1522 -856 1778 -856 
Q 2344 -856 2625 -561 
Q 2906 -266 2906 331 
L 2906 616 
Q 2728 306 2450 153 
Q 2172 0 1784 0 
Q 1141 0 747 490 
Q 353 981 353 1791 
Q 353 2603 747 3093 
Q 1141 3584 1784 3584 
Q 2172 3584 2450 3431 
Q 2728 3278 2906 2969 
L 2906 3500 
L 3481 3500 
L 3481 434 
z
" transform="scale(0.015625)"/>
        <path id="DejaVuSans-68" d="M 3513 2113 
L 3513 0 
L 2938 0 
L 2938 2094 
Q 2938 2591 2744 2837 
Q 2550 3084 2163 3084 
Q 1697 3084 1428 2787 
Q 1159 2491 1159 1978 
L 1159 0 
L 581 0 
L 581 4863 
L 1159 4863 
L 1159 2956 
Q 1366 3272 1645 3428 
Q 1925 3584 2291 3584 
Q 2894 3584 3203 3211 
Q 3513 2838 3513 2113 
z
" transform="scale(0.015625)"/>
       </defs>
       <use xlink:href="#DejaVuSans-48"/>
       <use xlink:href="#DejaVuSans-69" x="75.195312"/>
       <use xlink:href="#DejaVuSans-67" x="102.978516"/>
       <use xlink:href="#DejaVuSans-68" x="166.455078"/>
      </g>
     </g>
    </g>
    <g id="xtick_2">
     <g id="line2d_2">
      <g>
       <use xlink:href="#m42ff3fca45" x="247.754805" y="307.584" style="stroke: #000000; stroke-width: 0.8"/>
      </g>
     </g>
     <g id="text_2">
      <!-- Medium -->
      <g transform="translate(227.761836 322.182437) scale(0.1 -0.1)">
       <defs>
        <path id="DejaVuSans-4d" d="M 628 4666 
L 1569 4666 
L 2759 1491 
L 3956 4666 
L 4897 4666 
L 4897 0 
L 4281 0 
L 4281 4097 
L 3078 897 
L 2444 897 
L 1241 4097 
L 1241 0 
L 628 0 
L 628 4666 
z
" transform="scale(0.015625)"/>
        <path id="DejaVuSans-65" d="M 3597 1894 
L 3597 1613 
L 953 1613 
Q 991 1019 1311 708 
Q 1631 397 2203 397 
Q 2534 397 2845 478 
Q 3156 559 3463 722 
L 3463 178 
Q 3153 47 2828 -22 
Q 2503 -91 2169 -91 
Q 1331 -91 842 396 
Q 353 884 353 1716 
Q 353 2575 817 3079 
Q 1281 3584 2069 3584 
Q 2775 3584 3186 3129 
Q 3597 2675 3597 1894 
z
M 3022 2063 
Q 3016 2534 2758 2815 
Q 2500 3097 2075 3097 
Q 1594 3097 1305 2825 
Q 1016 2553 972 2059 
L 3022 2063 
z
" transform="scale(0.015625)"/>
        <path id="DejaVuSans-64" d="M 2906 2969 
L 2906 4863 
L 3481 4863 
L 3481 0 
L 2906 0 
L 2906 525 
Q 2725 213 2448 61 
Q 2172 -91 1784 -91 
Q 1150 -91 751 415 
Q 353 922 353 1747 
Q 353 2572 751 3078 
Q 1150 3584 1784 3584 
Q 2172 3584 2448 3432 
Q 2725 3281 2906 2969 
z
M 947 1747 
Q 947 1113 1208 752 
Q 1469 391 1925 391 
Q 2381 391 2643 752 
Q 2906 1113 2906 1747 
Q 2906 2381 2643 2742 
Q 2381 3103 1925 3103 
Q 1469 3103 1208 2742 
Q 947 2381 947 1747 
z
" transform="scale(0.015625)"/>
        <path id="DejaVuSans-75" d="M 544 1381 
L 544 3500 
L 1119 3500 
L 1119 1403 
Q 1119 906 1312 657 
Q 1506 409 1894 409 
Q 2359 409 2629 706 
Q 2900 1003 2900 1516 
L 2900 3500 
L 3475 3500 
L 3475 0 
L 2900 0 
L 2900 538 
Q 2691 219 2414 64 
Q 2138 -91 1772 -91 
Q 1169 -91 856 284 
Q 544 659 544 1381 
z
M 1991 3584 
L 1991 3584 
z
" transform="scale(0.015625)"/>
        <path id="DejaVuSans-6d" d="M 3328 2828 
Q 3544 3216 3844 3400 
Q 4144 3584 4550 3584 
Q 5097 3584 5394 3201 
Q 5691 2819 5691 2113 
L 5691 0 
L 5113 0 
L 5113 2094 
Q 5113 2597 4934 2840 
Q 4756 3084 4391 3084 
Q 3944 3084 3684 2787 
Q 3425 2491 3425 1978 
L 3425 0 
L 2847 0 
L 2847 2094 
Q 2847 2600 2669 2842 
Q 2491 3084 2119 3084 
Q 1678 3084 1418 2786 
Q 1159 2488 1159 1978 
L 1159 0 
L 581 0 
L 581 3500 
L 1159 3500 
L 1159 2956 
Q 1356 3278 1631 3431 
Q 1906 3584 2284 3584 
Q 2666 3584 2933 3390 
Q 3200 3197 3328 2828 
z
" transform="scale(0.015625)"/>
       </defs>
       <use xlink:href="#DejaVuSans-4d"/>
       <use xlink:href="#DejaVuSans-65" x="86.279297"/>
       <use xlink:href="#DejaVuSans-64" x="147.802734"/>
       <use xlink:href="#DejaVuSans-69" x="211.279297"/>
       <use xlink:href="#DejaVuSans-75" x="239.0625"/>
       <use xlink:href="#DejaVuSans-6d" x="302.441406"/>
      </g>
     </g>
    </g>
    <g id="xtick_3">
     <g id="line2d_3">
      <g>
       <use xlink:href="#m42ff3fca45" x="363.702857" y="307.584" style="stroke: #000000; stroke-width: 0.8"/>
      </g>
     </g>
     <g id="text_3">
      <!-- Low -->
      <g transform="translate(353.855982 322.182437) scale(0.1 -0.1)">
       <defs>
        <path id="DejaVuSans-4c" d="M 628 4666 
L 1259 4666 
L 1259 531 
L 3531 531 
L 3531 0 
L 628 0 
L 628 4666 
z
" transform="scale(0.015625)"/>
        <path id="DejaVuSans-6f" d="M 1959 3097 
Q 1497 3097 1228 2736 
Q 959 2375 959 1747 
Q 959 1119 1226 758 
Q 1494 397 1959 397 
Q 2419 397 2687 759 
Q 2956 1122 2956 1747 
Q 2956 2369 2687 2733 
Q 2419 3097 1959 3097 
z
M 1959 3584 
Q 2709 3584 3137 3096 
Q 3566 2609 3566 1747 
Q 3566 888 3137 398 
Q 2709 -91 1959 -91 
Q 1206 -91 779 398 
Q 353 888 353 1747 
Q 353 2609 779 3096 
Q 1206 3584 1959 3584 
z
" transform="scale(0.015625)"/>
        <path id="DejaVuSans-77" d="M 269 3500 
L 844 3500 
L 1563 769 
L 2278 3500 
L 2956 3500 
L 3675 769 
L 4391 3500 
L 4966 3500 
L 4050 0 
L 3372 0 
L 2619 2869 
L 1863 0 
L 1184 0 
L 269 3500 
z
" transform="scale(0.015625)"/>
       </defs>
       <use xlink:href="#DejaVuSans-4c"/>
       <use xlink:href="#DejaVuSans-6f" x="53.962891"/>
       <use xlink:href="#DejaVuSans-77" x="115.144531"/>
      </g>
     </g>
    </g>
    <g id="text_4">
     <!-- SNR level -->
     <g transform="translate(212.29125 335.860562) scale(0.1 -0.1)">
      <defs>
       <path id="DejaVuSans-53" d="M 3425 4513 
L 3425 3897 
Q 3066 4069 2747 4153 
Q 2428 4238 2131 4238 
Q 1616 4238 1336 4038 
Q 1056 3838 1056 3469 
Q 1056 3159 1242 3001 
Q 1428 2844 1947 2747 
L 2328 2669 
Q 3034 2534 3370 2195 
Q 3706 1856 3706 1288 
Q 3706 609 3251 259 
Q 2797 -91 1919 -91 
Q 1588 -91 1214 -16 
Q 841 59 441 206 
L 441 856 
Q 825 641 1194 531 
Q 1563 422 1919 422 
Q 2459 422 2753 634 
Q 3047 847 3047 1241 
Q 3047 1584 2836 1778 
Q 2625 1972 2144 2069 
L 1759 2144 
Q 1053 2284 737 2584 
Q 422 2884 422 3419 
Q 422 4038 858 4394 
Q 1294 4750 2059 4750 
Q 2388 4750 2728 4690 
Q 3069 4631 3425 4513 
z
" transform="scale(0.015625)"/>
       <path id="DejaVuSans-4e" d="M 628 4666 
L 1478 4666 
L 3547 763 
L 3547 4666 
L 4159 4666 
L 4159 0 
L 3309 0 
L 1241 3903 
L 1241 0 
L 628 0 
L 628 4666 
z
" transform="scale(0.015625)"/>
       <path id="DejaVuSans-52" d="M 2841 2188 
Q 3044 2119 3236 1894 
Q 3428 1669 3622 1275 
L 4263 0 
L 3584 0 
L 2988 1197 
Q 2756 1666 2539 1819 
Q 2322 1972 1947 1972 
L 1259 1972 
L 1259 0 
L 628 0 
L 628 4666 
L 2053 4666 
Q 2853 4666 3247 4331 
Q 3641 3997 3641 3322 
Q 3641 2881 3436 2590 
Q 3231 2300 2841 2188 
z
M 1259 4147 
L 1259 2491 
L 2053 2491 
Q 2509 2491 2742 2702 
Q 2975 2913 2975 3322 
Q 2975 3731 2742 3939 
Q 2509 4147 2053 4147 
L 1259 4147 
z
" transform="scale(0.015625)"/>
       <path id="DejaVuSans-20" transform="scale(0.015625)"/>
       <path id="DejaVuSans-6c" d="M 603 4863 
L 1178 4863 
L 1178 0 
L 603 0 
L 603 4863 
z
" transform="scale(0.015625)"/>
       <path id="DejaVuSans-76" d="M 191 3500 
L 800 3500 
L 1894 563 
L 2988 3500 
L 3597 3500 
L 2284 0 
L 1503 0 
L 191 3500 
z
" transform="scale(0.015625)"/>
      </defs>
      <use xlink:href="#DejaVuSans-53"/>
      <use xlink:href="#DejaVuSans-4e" x="63.476562"/>
      <use xlink:href="#DejaVuSans-52" x="138.28125"/>
      <use xlink:href="#DejaVuSans-20" x="207.763672"/>
      <use xlink:href="#DejaVuSans-6c" x="239.550781"/>
      <use xlink:href="#DejaVuSans-65" x="267.333984"/>
      <use xlink:href="#DejaVuSans-76" x="328.857422"/>
      <use xlink:href="#DejaVuSans-65" x="388.037109"/>
      <use xlink:href="#DejaVuSans-6c" x="449.560547"/>
     </g>
    </g>
   </g>
   <g id="matplotlib.axis_2">
    <g id="ytick_1">
     <g id="line2d_4">
      <defs>
       <path id="mf0cb216cc6" d="M 0 0 
L -3.5 0 
" style="stroke: #000000; stroke-width: 0.8"/>
      </defs>
      <g>
       <use xlink:href="#mf0cb216cc6" x="57.6" y="296.253027" style="stroke: #000000; stroke-width: 0.8"/>
      </g>
     </g>
     <g id="text_5">
      <!-- 2 -->
      <g transform="translate(44.2375 300.052246) scale(0.1 -0.1)">
       <defs>
        <path id="DejaVuSans-32" d="M 1228 531 
L 3431 531 
L 3431 0 
L 469 0 
L 469 531 
Q 828 903 1448 1529 
Q 2069 2156 2228 2338 
Q 2531 2678 2651 2914 
Q 2772 3150 2772 3378 
Q 2772 3750 2511 3984 
Q 2250 4219 1831 4219 
Q 1534 4219 1204 4116 
Q 875 4013 500 3803 
L 500 4441 
Q 881 4594 1212 4672 
Q 1544 4750 1819 4750 
Q 2544 4750 2975 4387 
Q 3406 4025 3406 3419 
Q 3406 3131 3298 2873 
Q 3191 2616 2906 2266 
Q 2828 2175 2409 1742 
Q 1991 1309 1228 531 
z
" transform="scale(0.015625)"/>
       </defs>
       <use xlink:href="#DejaVuSans-32"/>
      </g>
     </g>
    </g>
    <g id="ytick_2">
     <g id="line2d_5">
      <g>
       <use xlink:href="#mf0cb216cc6" x="57.6" y="254.440671" style="stroke: #000000; stroke-width: 0.8"/>
      </g>
     </g>
     <g id="text_6">
      <!-- 4 -->
      <g transform="translate(44.2375 258.239889) scale(0.1 -0.1)">
       <defs>
        <path id="DejaVuSans-34" d="M 2419 4116 
L 825 1625 
L 2419 1625 
L 2419 4116 
z
M 2253 4666 
L 3047 4666 
L 3047 1625 
L 3713 1625 
L 3713 1100 
L 3047 1100 
L 3047 0 
L 2419 0 
L 2419 1100 
L 313 1100 
L 313 1709 
L 2253 4666 
z
" transform="scale(0.015625)"/>
       </defs>
       <use xlink:href="#DejaVuSans-34"/>
      </g>
     </g>
    </g>
    <g id="ytick_3">
     <g id="line2d_6">
      <g>
       <use xlink:href="#mf0cb216cc6" x="57.6" y="212.628314" style="stroke: #000000; stroke-width: 0.8"/>
      </g>
     </g>
     <g id="text_7">
      <!-- 6 -->
      <g transform="translate(44.2375 216.427533) scale(0.1 -0.1)">
       <defs>
        <path id="DejaVuSans-36" d="M 2113 2584 
Q 1688 2584 1439 2293 
Q 1191 2003 1191 1497 
Q 1191 994 1439 701 
Q 1688 409 2113 409 
Q 2538 409 2786 701 
Q 3034 994 3034 1497 
Q 3034 2003 2786 2293 
Q 2538 2584 2113 2584 
z
M 3366 4563 
L 3366 3988 
Q 3128 4100 2886 4159 
Q 2644 4219 2406 4219 
Q 1781 4219 1451 3797 
Q 1122 3375 1075 2522 
Q 1259 2794 1537 2939 
Q 1816 3084 2150 3084 
Q 2853 3084 3261 2657 
Q 3669 2231 3669 1497 
Q 3669 778 3244 343 
Q 2819 -91 2113 -91 
Q 1303 -91 875 529 
Q 447 1150 447 2328 
Q 447 3434 972 4092 
Q 1497 4750 2381 4750 
Q 2619 4750 2861 4703 
Q 3103 4656 3366 4563 
z
" transform="scale(0.015625)"/>
       </defs>
       <use xlink:href="#DejaVuSans-36"/>
      </g>
     </g>
    </g>
    <g id="ytick_4">
     <g id="line2d_7">
      <g>
       <use xlink:href="#mf0cb216cc6" x="57.6" y="170.815957" style="stroke: #000000; stroke-width: 0.8"/>
      </g>
     </g>
     <g id="text_8">
      <!-- 8 -->
      <g transform="translate(44.2375 174.615176) scale(0.1 -0.1)">
       <defs>
        <path id="DejaVuSans-38" d="M 2034 2216 
Q 1584 2216 1326 1975 
Q 1069 1734 1069 1313 
Q 1069 891 1326 650 
Q 1584 409 2034 409 
Q 2484 409 2743 651 
Q 3003 894 3003 1313 
Q 3003 1734 2745 1975 
Q 2488 2216 2034 2216 
z
M 1403 2484 
Q 997 2584 770 2862 
Q 544 3141 544 3541 
Q 544 4100 942 4425 
Q 1341 4750 2034 4750 
Q 2731 4750 3128 4425 
Q 3525 4100 3525 3541 
Q 3525 3141 3298 2862 
Q 3072 2584 2669 2484 
Q 3125 2378 3379 2068 
Q 3634 1759 3634 1313 
Q 3634 634 3220 271 
Q 2806 -91 2034 -91 
Q 1263 -91 848 271 
Q 434 634 434 1313 
Q 434 1759 690 2068 
Q 947 2378 1403 2484 
z
M 1172 3481 
Q 1172 3119 1398 2916 
Q 1625 2713 2034 2713 
Q 2441 2713 2670 2916 
Q 2900 3119 2900 3481 
Q 2900 3844 2670 4047 
Q 2441 4250 2034 4250 
Q 1625 4250 1398 4047 
Q 1172 3844 1172 3481 
z
" transform="scale(0.015625)"/>
       </defs>
       <use xlink:href="#DejaVuSans-38"/>
      </g>
     </g>
    </g>
    <g id="ytick_5">
     <g id="line2d_8">
      <g>
       <use xlink:href="#mf0cb216cc6" x="57.6" y="129.003601" style="stroke: #000000; stroke-width: 0.8"/>
      </g>
     </g>
     <g id="text_9">
      <!-- 10 -->
      <g transform="translate(37.875 132.802819) scale(0.1 -0.1)">
       <defs>
        <path id="DejaVuSans-31" d="M 794 531 
L 1825 531 
L 1825 4091 
L 703 3866 
L 703 4441 
L 1819 4666 
L 2450 4666 
L 2450 531 
L 3481 531 
L 3481 0 
L 794 0 
L 794 531 
z
" transform="scale(0.015625)"/>
        <path id="DejaVuSans-30" d="M 2034 4250 
Q 1547 4250 1301 3770 
Q 1056 3291 1056 2328 
Q 1056 1369 1301 889 
Q 1547 409 2034 409 
Q 2525 409 2770 889 
Q 3016 1369 3016 2328 
Q 3016 3291 2770 3770 
Q 2525 4250 2034 4250 
z
M 2034 4750 
Q 2819 4750 3233 4129 
Q 3647 3509 3647 2328 
Q 3647 1150 3233 529 
Q 2819 -91 2034 -91 
Q 1250 -91 836 529 
Q 422 1150 422 2328 
Q 422 3509 836 4129 
Q 1250 4750 2034 4750 
z
" transform="scale(0.015625)"/>
       </defs>
       <use xlink:href="#DejaVuSans-31"/>
       <use xlink:href="#DejaVuSans-30" x="63.623047"/>
      </g>
     </g>
    </g>
    <g id="ytick_6">
     <g id="line2d_9">
      <g>
       <use xlink:href="#mf0cb216cc6" x="57.6" y="87.191244" style="stroke: #000000; stroke-width: 0.8"/>
      </g>
     </g>
     <g id="text_10">
      <!-- 12 -->
      <g transform="translate(37.875 90.990463) scale(0.1 -0.1)">
       <use xlink:href="#DejaVuSans-31"/>
       <use xlink:href="#DejaVuSans-32" x="63.623047"/>
      </g>
     </g>
    </g>
    <g id="ytick_7">
     <g id="line2d_10">
      <g>
       <use xlink:href="#mf0cb216cc6" x="57.6" y="45.378887" style="stroke: #000000; stroke-width: 0.8"/>
      </g>
     </g>
     <g id="text_11">
      <!-- 14 -->
      <g transform="translate(37.875 49.178106) scale(0.1 -0.1)">
       <use xlink:href="#DejaVuSans-31"/>
       <use xlink:href="#DejaVuSans-34" x="63.623047"/>
      </g>
     </g>
    </g>
    <g id="text_12">
     <!-- Measured SNR -->
     <g transform="translate(31.795312 210.928) rotate(-90) scale(0.1 -0.1)">
      <defs>
       <path id="DejaVuSans-61" d="M 2194 1759 
Q 1497 1759 1228 1600 
Q 959 1441 959 1056 
Q 959 750 1161 570 
Q 1363 391 1709 391 
Q 2188 391 2477 730 
Q 2766 1069 2766 1631 
L 2766 1759 
L 2194 1759 
z
M 3341 1997 
L 3341 0 
L 2766 0 
L 2766 531 
Q 2569 213 2275 61 
Q 1981 -91 1556 -91 
Q 1019 -91 701 211 
Q 384 513 384 1019 
Q 384 1609 779 1909 
Q 1175 2209 1959 2209 
L 2766 2209 
L 2766 2266 
Q 2766 2663 2505 2880 
Q 2244 3097 1772 3097 
Q 1472 3097 1187 3025 
Q 903 2953 641 2809 
L 641 3341 
Q 956 3463 1253 3523 
Q 1550 3584 1831 3584 
Q 2591 3584 2966 3190 
Q 3341 2797 3341 1997 
z
" transform="scale(0.015625)"/>
       <path id="DejaVuSans-73" d="M 2834 3397 
L 2834 2853 
Q 2591 2978 2328 3040 
Q 2066 3103 1784 3103 
Q 1356 3103 1142 2972 
Q 928 2841 928 2578 
Q 928 2378 1081 2264 
Q 1234 2150 1697 2047 
L 1894 2003 
Q 2506 1872 2764 1633 
Q 3022 1394 3022 966 
Q 3022 478 2636 193 
Q 2250 -91 1575 -91 
Q 1294 -91 989 -36 
Q 684 19 347 128 
L 347 722 
Q 666 556 975 473 
Q 1284 391 1588 391 
Q 1994 391 2212 530 
Q 2431 669 2431 922 
Q 2431 1156 2273 1281 
Q 2116 1406 1581 1522 
L 1381 1569 
Q 847 1681 609 1914 
Q 372 2147 372 2553 
Q 372 3047 722 3315 
Q 1072 3584 1716 3584 
Q 2034 3584 2315 3537 
Q 2597 3491 2834 3397 
z
" transform="scale(0.015625)"/>
       <path id="DejaVuSans-72" d="M 2631 2963 
Q 2534 3019 2420 3045 
Q 2306 3072 2169 3072 
Q 1681 3072 1420 2755 
Q 1159 2438 1159 1844 
L 1159 0 
L 581 0 
L 581 3500 
L 1159 3500 
L 1159 2956 
Q 1341 3275 1631 3429 
Q 1922 3584 2338 3584 
Q 2397 3584 2469 3576 
Q 2541 3569 2628 3553 
L 2631 2963 
z
" transform="scale(0.015625)"/>
      </defs>
      <use xlink:href="#DejaVuSans-4d"/>
      <use xlink:href="#DejaVuSans-65" x="86.279297"/>
      <use xlink:href="#DejaVuSans-61" x="147.802734"/>
      <use xlink:href="#DejaVuSans-73" x="209.082031"/>
      <use xlink:href="#DejaVuSans-75" x="261.181641"/>
      <use xlink:href="#DejaVuSans-72" x="324.560547"/>
      <use xlink:href="#DejaVuSans-65" x="363.423828"/>
      <use xlink:href="#DejaVuSans-64" x="424.947266"/>
      <use xlink:href="#DejaVuSans-20" x="488.423828"/>
      <use xlink:href="#DejaVuSans-53" x="520.210938"/>
      <use xlink:href="#DejaVuSans-4e" x="583.6875"/>
      <use xlink:href="#DejaVuSans-52" x="658.492188"/>
     </g>
    </g>
   </g>
   <g id="patch_3">
    <path d="M 73.832727 196.15639 
L 143.401558 196.15639 
L 143.401558 154.919164 
L 73.832727 154.919164 
L 73.832727 196.15639 
L 73.832727 196.15639 
z
" clip-path="url(#pcd7eb69f59)" style="fill: none; stroke: #000000; stroke-width: 2; stroke-linejoin: miter"/>
   </g>
   <g id="line2d_11">
    <path d="M 108.617143 196.15639 
L 108.617143 231.760661 
" clip-path="url(#pcd7eb69f59)" style="fill: none; stroke-dasharray: 4.2,4.2; stroke-dashoffset: 0; stroke: #000000; stroke-width: 1.4"/>
   </g>
   <g id="line2d_12">
    <path d="M 108.617143 154.919164 
L 108.617143 94.748422 
" clip-path="url(#pcd7eb69f59)" style="fill: none; stroke-dasharray: 4.2,4.2; stroke-dashoffset: 0; stroke: #000000; stroke-width: 1.4"/>
   </g>
   <g id="line2d_13">
    <path d="M 91.224935 231.760661 
L 126.009351 231.760661 
" clip-path="url(#pcd7eb69f59)" style="fill: none; stroke: #000000; stroke-width: 2; stroke-linecap: square"/>
   </g>
   <g id="line2d_14">
    <path d="M 91.224935 94.748422 
L 126.009351 94.748422 
" clip-path="url(#pcd7eb69f59)" style="fill: none; stroke: #000000; stroke-width: 2; stroke-linecap: square"/>
   </g>
   <g id="patch_4">
    <path d="M 212.97039 212.559268 
L 282.539221 212.559268 
L 282.539221 184.091341 
L 212.97039 184.091341 
L 212.97039 212.559268 
L 212.97039 212.559268 
z
" clip-path="url(#pcd7eb69f59)" style="fill: none; stroke: #000000; stroke-width: 2; stroke-linejoin: miter"/>
   </g>
   <g id="line2d_15">
    <path d="M 247.754805 212.559268 
L 247.754805 241.441164 
" clip-path="url(#pcd7eb69f59)" style="fill: none; stroke-dasharray: 4.2,4.2; stroke-dashoffset: 0; stroke: #000000; stroke-width: 1.4"/>
   </g>
   <g id="line2d_16">
    <path d="M 247.754805 184.091341 
L 247.754805 160.861098 
" clip-path="url(#pcd7eb69f59)" style="fill: none; stroke-dasharray: 4.2,4.2; stroke-dashoffset: 0; stroke: #000000; stroke-width: 1.4"/>
   </g>
   <g id="line2d_17">
    <path d="M 230.362597 241.441164 
L 265.147013 241.441164 
" clip-path="url(#pcd7eb69f59)" style="fill: none; stroke: #000000; stroke-width: 2; stroke-linecap: square"/>
   </g>
   <g id="line2d_18">
    <path d="M 230.362597 160.861098 
L 265.147013 160.861098 
" clip-path="url(#pcd7eb69f59)" style="fill: none; stroke: #000000; stroke-width: 2; stroke-linecap: square"/>
   </g>
   <g id="patch_5">
    <path d="M 328.918442 257.066305 
L 398.487273 257.066305 
L 398.487273 221.141574 
L 328.918442 221.141574 
L 328.918442 257.066305 
L 328.918442 257.066305 
z
" clip-path="url(#pcd7eb69f59)" style="fill: none; stroke: #000000; stroke-width: 2; stroke-linejoin: miter"/>
   </g>
   <g id="line2d_19">
    <path d="M 363.702857 257.066305 
L 363.702857 296.211692 
" clip-path="url(#pcd7eb69f59)" style="fill: none; stroke-dasharray: 4.2,4.2; stroke-dashoffset: 0; stroke: #000000; stroke-width: 1.4"/>
   </g>
   <g id="line2d_20">
    <path d="M 363.702857 221.141574 
L 363.702857 178.257892 
" clip-path="url(#pcd7eb69f59)" style="fill: none; stroke-dasharray: 4.2,4.2; stroke-dashoffset: 0; stroke: #000000; stroke-width: 1.4"/>
   </g>
   <g id="line2d_21">
    <path d="M 346.310649 296.211692 
L 381.095065 296.211692 
" clip-path="url(#pcd7eb69f59)" style="fill: none; stroke: #000000; stroke-width: 2; stroke-linecap: square"/>
   </g>
   <g id="line2d_22">
    <path d="M 346.310649 178.257892 
L 381.095065 178.257892 
" clip-path="url(#pcd7eb69f59)" style="fill: none; stroke: #000000; stroke-width: 2; stroke-linecap: square"/>
   </g>
   <g id="line2d_23">
    <path d="M 73.832727 177.465176 
L 143.401558 177.465176 
" clip-path="url(#pcd7eb69f59)" style="fill: none; stroke: #000000; stroke-opacity: 0; stroke-linecap: square"/>
   </g>
   <g id="line2d_24">
    <path d="M 212.97039 193.668775 
L 282.539221 193.668775 
" clip-path="url(#pcd7eb69f59)" style="fill: none; stroke: #000000; stroke-opacity: 0; stroke-linecap: square"/>
   </g>
   <g id="line2d_25">
    <path d="M 328.918442 247.552093 
L 398.487273 247.552093 
" clip-path="url(#pcd7eb69f59)" style="fill: none; stroke: #000000; stroke-opacity: 0; stroke-linecap: square"/>
   </g>
   <g id="patch_6">
    <path d="M 57.6 307.584 
L 57.6 41.472 
" style="fill: none; stroke: #000000; stroke-width: 0.8; stroke-linejoin: miter; stroke-linecap: square"/>
   </g>
   <g id="patch_7">
    <path d="M 414.72 307.584 
L 414.72 41.472 
" style="fill: none; stroke: #000000; stroke-width: 0.8; stroke-linejoin: miter; stroke-linecap: square"/>
   </g>
   <g id="patch_8">
    <path d="M 57.6 307.584 
L 414.72 307.584 
" style="fill: none; stroke: #000000; stroke-width: 0.8; stroke-linejoin: miter; stroke-linecap: square"/>
   </g>
   <g id="patch_9">
    <path d="M 57.6 41.472 
L 414.72 41.472 
" style="fill: none; stroke: #000000; stroke-width: 0.8; stroke-linejoin: miter; stroke-linecap: square"/>
   </g>
   <g id="line2d_26">
    <path d="M 73.832727 170.509892 
L 143.401558 170.509892 
" clip-path="url(#pcd7eb69f59)" style="fill: none; stroke: #000000; stroke-width: 2; stroke-linecap: square"/>
   </g>
   <g id="line2d_27">
    <path d="M 212.97039 198.696855 
L 282.539221 198.696855 
" clip-path="url(#pcd7eb69f59)" style="fill: none; stroke: #000000; stroke-width: 2; stroke-linecap: square"/>
   </g>
   <g id="line2d_28">
    <path d="M 328.918442 231.564756 
L 398.487273 231.564756 
" clip-path="url(#pcd7eb69f59)" style="fill: none; stroke: #000000; stroke-width: 2; stroke-linecap: square"/>
   </g>
   <g id="text_13">
    <!-- 8.0 ± 2.0 -->
    <g transform="translate(83.231987 55.313543) scale(0.1 -0.1)">
     <defs>
      <path id="DejaVuSans-Bold-38" d="M 2228 2088 
Q 1891 2088 1709 1903 
Q 1528 1719 1528 1375 
Q 1528 1031 1709 848 
Q 1891 666 2228 666 
Q 2563 666 2741 848 
Q 2919 1031 2919 1375 
Q 2919 1722 2741 1905 
Q 2563 2088 2228 2088 
z
M 1350 2484 
Q 925 2613 709 2878 
Q 494 3144 494 3541 
Q 494 4131 934 4440 
Q 1375 4750 2228 4750 
Q 3075 4750 3515 4442 
Q 3956 4134 3956 3541 
Q 3956 3144 3739 2878 
Q 3522 2613 3097 2484 
Q 3572 2353 3814 2058 
Q 4056 1763 4056 1313 
Q 4056 619 3595 264 
Q 3134 -91 2228 -91 
Q 1319 -91 855 264 
Q 391 619 391 1313 
Q 391 1763 633 2058 
Q 875 2353 1350 2484 
z
M 1631 3419 
Q 1631 3141 1786 2991 
Q 1941 2841 2228 2841 
Q 2509 2841 2662 2991 
Q 2816 3141 2816 3419 
Q 2816 3697 2662 3845 
Q 2509 3994 2228 3994 
Q 1941 3994 1786 3844 
Q 1631 3694 1631 3419 
z
" transform="scale(0.015625)"/>
      <path id="DejaVuSans-Bold-2e" d="M 653 1209 
L 1778 1209 
L 1778 0 
L 653 0 
L 653 1209 
z
" transform="scale(0.015625)"/>
      <path id="DejaVuSans-Bold-30" d="M 2944 2338 
Q 2944 3213 2780 3570 
Q 2616 3928 2228 3928 
Q 1841 3928 1675 3570 
Q 1509 3213 1509 2338 
Q 1509 1453 1675 1090 
Q 1841 728 2228 728 
Q 2613 728 2778 1090 
Q 2944 1453 2944 2338 
z
M 4147 2328 
Q 4147 1169 3647 539 
Q 3147 -91 2228 -91 
Q 1306 -91 806 539 
Q 306 1169 306 2328 
Q 306 3491 806 4120 
Q 1306 4750 2228 4750 
Q 3147 4750 3647 4120 
Q 4147 3491 4147 2328 
z
" transform="scale(0.015625)"/>
      <path id="DejaVuSans-Bold-20" transform="scale(0.015625)"/>
      <path id="DejaVuSans-Bold-b1" d="M 3053 4013 
L 3053 2906 
L 4684 2906 
L 4684 2169 
L 3053 2169 
L 3053 1063 
L 2309 1063 
L 2309 2169 
L 678 2169 
L 678 2906 
L 2309 2906 
L 2309 4013 
L 3053 4013 
z
M 678 744 
L 4684 744 
L 4684 0 
L 678 0 
L 678 744 
z
" transform="scale(0.015625)"/>
      <path id="DejaVuSans-Bold-32" d="M 1844 884 
L 3897 884 
L 3897 0 
L 506 0 
L 506 884 
L 2209 2388 
Q 2438 2594 2547 2791 
Q 2656 2988 2656 3200 
Q 2656 3528 2436 3728 
Q 2216 3928 1850 3928 
Q 1569 3928 1234 3808 
Q 900 3688 519 3450 
L 519 4475 
Q 925 4609 1322 4679 
Q 1719 4750 2100 4750 
Q 2938 4750 3402 4381 
Q 3866 4013 3866 3353 
Q 3866 2972 3669 2642 
Q 3472 2313 2841 1759 
L 1844 884 
z
" transform="scale(0.015625)"/>
     </defs>
     <use xlink:href="#DejaVuSans-Bold-38"/>
     <use xlink:href="#DejaVuSans-Bold-2e" x="69.580078"/>
     <use xlink:href="#DejaVuSans-Bold-30" x="107.568359"/>
     <use xlink:href="#DejaVuSans-Bold-20" x="177.148438"/>
     <use xlink:href="#DejaVuSans-Bold-b1" x="211.962891"/>
     <use xlink:href="#DejaVuSans-Bold-20" x="295.751953"/>
     <use xlink:href="#DejaVuSans-Bold-32" x="330.566406"/>
     <use xlink:href="#DejaVuSans-Bold-2e" x="400.146484"/>
     <use xlink:href="#DejaVuSans-Bold-30" x="438.134766"/>
    </g>
   </g>
   <g id="text_14">
    <!-- 6.7 ± 1.0 -->
    <g transform="translate(222.369649 55.313543) scale(0.1 -0.1)">
     <defs>
      <path id="DejaVuSans-Bold-36" d="M 2316 2303 
Q 2000 2303 1842 2098 
Q 1684 1894 1684 1484 
Q 1684 1075 1842 870 
Q 2000 666 2316 666 
Q 2634 666 2792 870 
Q 2950 1075 2950 1484 
Q 2950 1894 2792 2098 
Q 2634 2303 2316 2303 
z
M 3803 4544 
L 3803 3681 
Q 3506 3822 3243 3889 
Q 2981 3956 2731 3956 
Q 2194 3956 1894 3657 
Q 1594 3359 1544 2772 
Q 1750 2925 1990 3001 
Q 2231 3078 2516 3078 
Q 3231 3078 3670 2659 
Q 4109 2241 4109 1563 
Q 4109 813 3618 361 
Q 3128 -91 2303 -91 
Q 1394 -91 895 523 
Q 397 1138 397 2266 
Q 397 3422 980 4083 
Q 1563 4744 2578 4744 
Q 2900 4744 3203 4694 
Q 3506 4644 3803 4544 
z
" transform="scale(0.015625)"/>
      <path id="DejaVuSans-Bold-37" d="M 428 4666 
L 3944 4666 
L 3944 3988 
L 2125 0 
L 953 0 
L 2675 3781 
L 428 3781 
L 428 4666 
z
" transform="scale(0.015625)"/>
      <path id="DejaVuSans-Bold-31" d="M 750 831 
L 1813 831 
L 1813 3847 
L 722 3622 
L 722 4441 
L 1806 4666 
L 2950 4666 
L 2950 831 
L 4013 831 
L 4013 0 
L 750 0 
L 750 831 
z
" transform="scale(0.015625)"/>
     </defs>
     <use xlink:href="#DejaVuSans-Bold-36"/>
     <use xlink:href="#DejaVuSans-Bold-2e" x="69.580078"/>
     <use xlink:href="#DejaVuSans-Bold-37" x="107.568359"/>
     <use xlink:href="#DejaVuSans-Bold-20" x="177.148438"/>
     <use xlink:href="#DejaVuSans-Bold-b1" x="211.962891"/>
     <use xlink:href="#DejaVuSans-Bold-20" x="295.751953"/>
     <use xlink:href="#DejaVuSans-Bold-31" x="330.566406"/>
     <use xlink:href="#DejaVuSans-Bold-2e" x="400.146484"/>
     <use xlink:href="#DejaVuSans-Bold-30" x="438.134766"/>
    </g>
   </g>
   <g id="text_15">
    <!-- 5.1 ± 2.1 -->
    <g transform="translate(338.317701 55.313543) scale(0.1 -0.1)">
     <defs>
      <path id="DejaVuSans-Bold-35" d="M 678 4666 
L 3669 4666 
L 3669 3781 
L 1638 3781 
L 1638 3059 
Q 1775 3097 1914 3117 
Q 2053 3138 2203 3138 
Q 3056 3138 3531 2711 
Q 4006 2284 4006 1522 
Q 4006 766 3489 337 
Q 2972 -91 2053 -91 
Q 1656 -91 1267 -14 
Q 878 63 494 219 
L 494 1166 
Q 875 947 1217 837 
Q 1559 728 1863 728 
Q 2300 728 2551 942 
Q 2803 1156 2803 1522 
Q 2803 1891 2551 2103 
Q 2300 2316 1863 2316 
Q 1603 2316 1309 2248 
Q 1016 2181 678 2041 
L 678 4666 
z
" transform="scale(0.015625)"/>
     </defs>
     <use xlink:href="#DejaVuSans-Bold-35"/>
     <use xlink:href="#DejaVuSans-Bold-2e" x="69.580078"/>
     <use xlink:href="#DejaVuSans-Bold-31" x="107.568359"/>
     <use xlink:href="#DejaVuSans-Bold-20" x="177.148438"/>
     <use xlink:href="#DejaVuSans-Bold-b1" x="211.962891"/>
     <use xlink:href="#DejaVuSans-Bold-20" x="295.751953"/>
     <use xlink:href="#DejaVuSans-Bold-32" x="330.566406"/>
     <use xlink:href="#DejaVuSans-Bold-2e" x="400.146484"/>
     <use xlink:href="#DejaVuSans-Bold-31" x="438.134766"/>
    </g>
   </g>
   <g id="text_16">
    <!-- SNR measurements (w/ line profiles) -->
    <g transform="translate(126.570937 35.472) scale(0.12 -0.12)">
     <defs>
      <path id="DejaVuSans-6e" d="M 3513 2113 
L 3513 0 
L 2938 0 
L 2938 2094 
Q 2938 2591 2744 2837 
Q 2550 3084 2163 3084 
Q 1697 3084 1428 2787 
Q 1159 2491 1159 1978 
L 1159 0 
L 581 0 
L 581 3500 
L 1159 3500 
L 1159 2956 
Q 1366 3272 1645 3428 
Q 1925 3584 2291 3584 
Q 2894 3584 3203 3211 
Q 3513 2838 3513 2113 
z
" transform="scale(0.015625)"/>
      <path id="DejaVuSans-74" d="M 1172 4494 
L 1172 3500 
L 2356 3500 
L 2356 3053 
L 1172 3053 
L 1172 1153 
Q 1172 725 1289 603 
Q 1406 481 1766 481 
L 2356 481 
L 2356 0 
L 1766 0 
Q 1100 0 847 248 
Q 594 497 594 1153 
L 594 3053 
L 172 3053 
L 172 3500 
L 594 3500 
L 594 4494 
L 1172 4494 
z
" transform="scale(0.015625)"/>
      <path id="DejaVuSans-28" d="M 1984 4856 
Q 1566 4138 1362 3434 
Q 1159 2731 1159 2009 
Q 1159 1288 1364 580 
Q 1569 -128 1984 -844 
L 1484 -844 
Q 1016 -109 783 600 
Q 550 1309 550 2009 
Q 550 2706 781 3412 
Q 1013 4119 1484 4856 
L 1984 4856 
z
" transform="scale(0.015625)"/>
      <path id="DejaVuSans-2f" d="M 1625 4666 
L 2156 4666 
L 531 -594 
L 0 -594 
L 1625 4666 
z
" transform="scale(0.015625)"/>
      <path id="DejaVuSans-70" d="M 1159 525 
L 1159 -1331 
L 581 -1331 
L 581 3500 
L 1159 3500 
L 1159 2969 
Q 1341 3281 1617 3432 
Q 1894 3584 2278 3584 
Q 2916 3584 3314 3078 
Q 3713 2572 3713 1747 
Q 3713 922 3314 415 
Q 2916 -91 2278 -91 
Q 1894 -91 1617 61 
Q 1341 213 1159 525 
z
M 3116 1747 
Q 3116 2381 2855 2742 
Q 2594 3103 2138 3103 
Q 1681 3103 1420 2742 
Q 1159 2381 1159 1747 
Q 1159 1113 1420 752 
Q 1681 391 2138 391 
Q 2594 391 2855 752 
Q 3116 1113 3116 1747 
z
" transform="scale(0.015625)"/>
      <path id="DejaVuSans-66" d="M 2375 4863 
L 2375 4384 
L 1825 4384 
Q 1516 4384 1395 4259 
Q 1275 4134 1275 3809 
L 1275 3500 
L 2222 3500 
L 2222 3053 
L 1275 3053 
L 1275 0 
L 697 0 
L 697 3053 
L 147 3053 
L 147 3500 
L 697 3500 
L 697 3744 
Q 697 4328 969 4595 
Q 1241 4863 1831 4863 
L 2375 4863 
z
" transform="scale(0.015625)"/>
      <path id="DejaVuSans-29" d="M 513 4856 
L 1013 4856 
Q 1481 4119 1714 3412 
Q 1947 2706 1947 2009 
Q 1947 1309 1714 600 
Q 1481 -109 1013 -844 
L 513 -844 
Q 928 -128 1133 580 
Q 1338 1288 1338 2009 
Q 1338 2731 1133 3434 
Q 928 4138 513 4856 
z
" transform="scale(0.015625)"/>
     </defs>
     <use xlink:href="#DejaVuSans-53"/>
     <use xlink:href="#DejaVuSans-4e" x="63.476562"/>
     <use xlink:href="#DejaVuSans-52" x="138.28125"/>
     <use xlink:href="#DejaVuSans-20" x="207.763672"/>
     <use xlink:href="#DejaVuSans-6d" x="239.550781"/>
     <use xlink:href="#DejaVuSans-65" x="336.962891"/>
     <use xlink:href="#DejaVuSans-61" x="398.486328"/>
     <use xlink:href="#DejaVuSans-73" x="459.765625"/>
     <use xlink:href="#DejaVuSans-75" x="511.865234"/>
     <use xlink:href="#DejaVuSans-72" x="575.244141"/>
     <use xlink:href="#DejaVuSans-65" x="614.107422"/>
     <use xlink:href="#DejaVuSans-6d" x="675.630859"/>
     <use xlink:href="#DejaVuSans-65" x="773.042969"/>
     <use xlink:href="#DejaVuSans-6e" x="834.566406"/>
     <use xlink:href="#DejaVuSans-74" x="897.945312"/>
     <use xlink:href="#DejaVuSans-73" x="937.154297"/>
     <use xlink:href="#DejaVuSans-20" x="989.253906"/>
     <use xlink:href="#DejaVuSans-28" x="1021.041016"/>
     <use xlink:href="#DejaVuSans-77" x="1060.054688"/>
     <use xlink:href="#DejaVuSans-2f" x="1141.841797"/>
     <use xlink:href="#DejaVuSans-20" x="1175.533203"/>
     <use xlink:href="#DejaVuSans-6c" x="1207.320312"/>
     <use xlink:href="#DejaVuSans-69" x="1235.103516"/>
     <use xlink:href="#DejaVuSans-6e" x="1262.886719"/>
     <use xlink:href="#DejaVuSans-65" x="1326.265625"/>
     <use xlink:href="#DejaVuSans-20" x="1387.789062"/>
     <use xlink:href="#DejaVuSans-70" x="1419.576172"/>
     <use xlink:href="#DejaVuSans-72" x="1483.052734"/>
     <use xlink:href="#DejaVuSans-6f" x="1521.916016"/>
     <use xlink:href="#DejaVuSans-66" x="1583.097656"/>
     <use xlink:href="#DejaVuSans-69" x="1618.302734"/>
     <use xlink:href="#DejaVuSans-6c" x="1646.085938"/>
     <use xlink:href="#DejaVuSans-65" x="1673.869141"/>
     <use xlink:href="#DejaVuSans-73" x="1735.392578"/>
     <use xlink:href="#DejaVuSans-29" x="1787.492188"/>
    </g>
   </g>
  </g>
 </g>
 <defs>
  <clipPath id="pcd7eb69f59">
   <rect x="57.6" y="41.472" width="357.12" height="266.112"/>
  </clipPath>
 </defs>
</svg>
