<?xml version="1.0" encoding="utf-8" standalone="no"?>
<!DOCTYPE svg PUBLIC "-//W3C//DTD SVG 1.1//EN"
  "http://www.w3.org/Graphics/SVG/1.1/DTD/svg11.dtd">
<svg xmlns:xlink="http://www.w3.org/1999/xlink" width="468pt" height="612pt" viewBox="0 0 468 612" xmlns="http://www.w3.org/2000/svg" version="1.1">
 <metadata>
  <rdf:RDF xmlns:dc="http://purl.org/dc/elements/1.1/" xmlns:cc="http://creativecommons.org/ns#" xmlns:rdf="http://www.w3.org/1999/02/22-rdf-syntax-ns#">
   <cc:Work>
    <dc:type rdf:resource="http://purl.org/dc/dcmitype/StillImage"/>
    <dc:date>2025-07-29T16:58:23.563598</dc:date>
    <dc:format>image/svg+xml</dc:format>
    <dc:creator>
     <cc:Agent>
      <dc:title>Matplotlib v3.7.2, https://matplotlib.org/</dc:title>
     </cc:Agent>
    </dc:creator>
   </cc:Work>
  </rdf:RDF>
 </metadata>
 <defs>
  <style type="text/css">*{stroke-linejoin: round; stroke-linecap: butt}</style>
 </defs>
 <g id="figure_1">
  <g id="patch_1">
   <path d="M 0 612 
L 468 612 
L 468 0 
L 0 0 
z
" style="fill: #ffffff"/>
  </g>
  <g id="axes_1">
   <g id="patch_2">
    <path d="M 58.5 544.68 
L 421.2 544.68 
L 421.2 73.44 
L 58.5 73.44 
z
" style="fill: #ffffff"/>
   </g>
   <g id="PathCollection_1">
    <defs>
     <path id="C0_0_c5fe6f903b" d="M 0 2.738613 
C 0.726289 2.738613 1.422928 2.450055 1.936492 1.936492 
C 2.450055 1.422928 2.738613 0.726289 2.738613 -0 
C 2.738613 -0.726289 2.450055 -1.422928 1.936492 -1.936492 
C 1.422928 -2.450055 0.726289 -2.738613 0 -2.738613 
C -0.726289 -2.738613 -1.422928 -2.450055 -1.936492 -1.936492 
C -2.450055 -1.422928 -2.738613 -0.726289 -2.738613 0 
C -2.738613 0.726289 -2.450055 1.422928 -1.936492 1.936492 
C -1.422928 2.450055 -0.726289 2.738613 0 2.738613 
z
"/>
    </defs>
    <g clip-path="url(#p4c82ab433d)">
     <use xlink:href="#C0_0_c5fe6f903b" x="118.585099" y="445.298752" style="fill: #8b0000"/>
    </g>
    <g clip-path="url(#p4c82ab433d)">
     <use xlink:href="#C0_0_c5fe6f903b" x="120.558769" y="344.654029" style="fill: #8b0000"/>
    </g>
    <g clip-path="url(#p4c82ab433d)">
     <use xlink:href="#C0_0_c5fe6f903b" x="120.75975" y="525.755863" style="fill: #8b0000"/>
    </g>
    <g clip-path="url(#p4c82ab433d)">
     <use xlink:href="#C0_0_c5fe6f903b" x="122.127449" y="439.325028" style="fill: #8b0000"/>
    </g>
    <g clip-path="url(#p4c82ab433d)">
     <use xlink:href="#C0_0_c5fe6f903b" x="119.226965" y="458.867061" style="fill: #8b0000"/>
    </g>
    <g clip-path="url(#p4c82ab433d)">
     <use xlink:href="#C0_0_c5fe6f903b" x="118.685281" y="328.729261" style="fill: #8b0000"/>
    </g>
    <g clip-path="url(#p4c82ab433d)">
     <use xlink:href="#C0_0_c5fe6f903b" x="119.444452" y="423.126733" style="fill: #8b0000"/>
    </g>
    <g clip-path="url(#p4c82ab433d)">
     <use xlink:href="#C0_0_c5fe6f903b" x="122.088913" y="354.323625" style="fill: #8b0000"/>
    </g>
    <g clip-path="url(#p4c82ab433d)">
     <use xlink:href="#C0_0_c5fe6f903b" x="122.631237" y="443.255538" style="fill: #8b0000"/>
    </g>
    <g clip-path="url(#p4c82ab433d)">
     <use xlink:href="#C0_0_c5fe6f903b" x="121.814761" y="313.054917" style="fill: #8b0000"/>
    </g>
    <g clip-path="url(#p4c82ab433d)">
     <use xlink:href="#C0_0_c5fe6f903b" x="117.269831" y="436.897321" style="fill: #8b0000"/>
    </g>
    <g clip-path="url(#p4c82ab433d)">
     <use xlink:href="#C0_0_c5fe6f903b" x="119.99758" y="144.895004" style="fill: #8b0000"/>
    </g>
    <g clip-path="url(#p4c82ab433d)">
     <use xlink:href="#C0_0_c5fe6f903b" x="121.859663" y="411.40469" style="fill: #8b0000"/>
    </g>
    <g clip-path="url(#p4c82ab433d)">
     <use xlink:href="#C0_0_c5fe6f903b" x="117.774122" y="464.044446" style="fill: #8b0000"/>
    </g>
    <g clip-path="url(#p4c82ab433d)">
     <use xlink:href="#C0_0_c5fe6f903b" x="119.863386" y="439.122937" style="fill: #8b0000"/>
    </g>
    <g clip-path="url(#p4c82ab433d)">
     <use xlink:href="#C0_0_c5fe6f903b" x="118.155716" y="486.337671" style="fill: #8b0000"/>
    </g>
    <g clip-path="url(#p4c82ab433d)">
     <use xlink:href="#C0_0_c5fe6f903b" x="121.960172" y="453.933236" style="fill: #8b0000"/>
    </g>
    <g clip-path="url(#p4c82ab433d)">
     <use xlink:href="#C0_0_c5fe6f903b" x="119.022418" y="459.004307" style="fill: #8b0000"/>
    </g>
    <g clip-path="url(#p4c82ab433d)">
     <use xlink:href="#C0_0_c5fe6f903b" x="121.29482" y="409.181064" style="fill: #8b0000"/>
    </g>
    <g clip-path="url(#p4c82ab433d)">
     <use xlink:href="#C0_0_c5fe6f903b" x="117.433469" y="402.405712" style="fill: #8b0000"/>
    </g>
   </g>
   <g id="PathCollection_2">
    <defs>
     <path id="C1_0_8011cddc8a" d="M 0 2.738613 
C 0.726289 2.738613 1.422928 2.450055 1.936492 1.936492 
C 2.450055 1.422928 2.738613 0.726289 2.738613 -0 
C 2.738613 -0.726289 2.450055 -1.422928 1.936492 -1.936492 
C 1.422928 -2.450055 0.726289 -2.738613 0 -2.738613 
C -0.726289 -2.738613 -1.422928 -2.450055 -1.936492 -1.936492 
C -2.450055 -1.422928 -2.738613 -0.726289 -2.738613 0 
C -2.738613 0.726289 -2.450055 1.422928 -1.936492 1.936492 
C -1.422928 2.450055 -0.726289 2.738613 0 2.738613 
z
"/>
    </defs>
    <g clip-path="url(#p4c82ab433d)">
     <use xlink:href="#C1_0_8011cddc8a" x="238.338188" y="340.84469" style="fill: #8b0000"/>
    </g>
    <g clip-path="url(#p4c82ab433d)">
     <use xlink:href="#C1_0_8011cddc8a" x="239.072355" y="323.574121" style="fill: #8b0000"/>
    </g>
    <g clip-path="url(#p4c82ab433d)">
     <use xlink:href="#C1_0_8011cddc8a" x="241.575297" y="316.528474" style="fill: #8b0000"/>
    </g>
    <g clip-path="url(#p4c82ab433d)">
     <use xlink:href="#C1_0_8011cddc8a" x="237.563241" y="379.002257" style="fill: #8b0000"/>
    </g>
    <g clip-path="url(#p4c82ab433d)">
     <use xlink:href="#C1_0_8011cddc8a" x="239.121215" y="281.684037" style="fill: #8b0000"/>
    </g>
    <g clip-path="url(#p4c82ab433d)">
     <use xlink:href="#C1_0_8011cddc8a" x="238.790964" y="374.909093" style="fill: #8b0000"/>
    </g>
    <g clip-path="url(#p4c82ab433d)">
     <use xlink:href="#C1_0_8011cddc8a" x="238.860535" y="322.617625" style="fill: #8b0000"/>
    </g>
    <g clip-path="url(#p4c82ab433d)">
     <use xlink:href="#C1_0_8011cddc8a" x="241.973094" y="329.074802" style="fill: #8b0000"/>
    </g>
    <g clip-path="url(#p4c82ab433d)">
     <use xlink:href="#C1_0_8011cddc8a" x="239.402195" y="379.063106" style="fill: #8b0000"/>
    </g>
    <g clip-path="url(#p4c82ab433d)">
     <use xlink:href="#C1_0_8011cddc8a" x="238.138078" y="340.416547" style="fill: #8b0000"/>
    </g>
    <g clip-path="url(#p4c82ab433d)">
     <use xlink:href="#C1_0_8011cddc8a" x="242.651259" y="313.3943" style="fill: #8b0000"/>
    </g>
    <g clip-path="url(#p4c82ab433d)">
     <use xlink:href="#C1_0_8011cddc8a" x="237.572646" y="333.726618" style="fill: #8b0000"/>
    </g>
    <g clip-path="url(#p4c82ab433d)">
     <use xlink:href="#C1_0_8011cddc8a" x="242.603337" y="310.043317" style="fill: #8b0000"/>
    </g>
    <g clip-path="url(#p4c82ab433d)">
     <use xlink:href="#C1_0_8011cddc8a" x="237.136064" y="360.576092" style="fill: #8b0000"/>
    </g>
    <g clip-path="url(#p4c82ab433d)">
     <use xlink:href="#C1_0_8011cddc8a" x="238.633336" y="329.478096" style="fill: #8b0000"/>
    </g>
    <g clip-path="url(#p4c82ab433d)">
     <use xlink:href="#C1_0_8011cddc8a" x="240.246554" y="411.313787" style="fill: #8b0000"/>
    </g>
    <g clip-path="url(#p4c82ab433d)">
     <use xlink:href="#C1_0_8011cddc8a" x="242.408959" y="347.746336" style="fill: #8b0000"/>
    </g>
    <g clip-path="url(#p4c82ab433d)">
     <use xlink:href="#C1_0_8011cddc8a" x="239.15182" y="426.990557" style="fill: #8b0000"/>
    </g>
    <g clip-path="url(#p4c82ab433d)">
     <use xlink:href="#C1_0_8011cddc8a" x="239.381322" y="355.039239" style="fill: #8b0000"/>
    </g>
    <g clip-path="url(#p4c82ab433d)">
     <use xlink:href="#C1_0_8011cddc8a" x="242.791435" y="409.73953" style="fill: #8b0000"/>
    </g>
    <g clip-path="url(#p4c82ab433d)">
     <use xlink:href="#C1_0_8011cddc8a" x="237.98397" y="362.381124" style="fill: #8b0000"/>
    </g>
   </g>
   <g id="PathCollection_3">
    <defs>
     <path id="C2_0_28eef1a3a5" d="M 0 2.738613 
C 0.726289 2.738613 1.422928 2.450055 1.936492 1.936492 
C 2.450055 1.422928 2.738613 0.726289 2.738613 -0 
C 2.738613 -0.726289 2.450055 -1.422928 1.936492 -1.936492 
C 1.422928 -2.450055 0.726289 -2.738613 0 -2.738613 
C -0.726289 -2.738613 -1.422928 -2.450055 -1.936492 -1.936492 
C -2.450055 -1.422928 -2.738613 -0.726289 -2.738613 0 
C -2.738613 0.726289 -2.450055 1.422928 -1.936492 1.936492 
C -1.422928 2.450055 -0.726289 2.738613 0 2.738613 
z
"/>
    </defs>
    <g clip-path="url(#p4c82ab433d)">
     <use xlink:href="#C2_0_28eef1a3a5" x="360.260434" y="319.80611" style="fill: #8b0000"/>
    </g>
    <g clip-path="url(#p4c82ab433d)">
     <use xlink:href="#C2_0_28eef1a3a5" x="359.688734" y="360.13817" style="fill: #8b0000"/>
    </g>
    <g clip-path="url(#p4c82ab433d)">
     <use xlink:href="#C2_0_28eef1a3a5" x="359.540856" y="385.168311" style="fill: #8b0000"/>
    </g>
    <g clip-path="url(#p4c82ab433d)">
     <use xlink:href="#C2_0_28eef1a3a5" x="357.16983" y="330.110012" style="fill: #8b0000"/>
    </g>
    <g clip-path="url(#p4c82ab433d)">
     <use xlink:href="#C2_0_28eef1a3a5" x="358.258382" y="168.723285" style="fill: #8b0000"/>
    </g>
    <g clip-path="url(#p4c82ab433d)">
     <use xlink:href="#C2_0_28eef1a3a5" x="357.099041" y="266.697233" style="fill: #8b0000"/>
    </g>
    <g clip-path="url(#p4c82ab433d)">
     <use xlink:href="#C2_0_28eef1a3a5" x="359.877841" y="308.87589" style="fill: #8b0000"/>
    </g>
    <g clip-path="url(#p4c82ab433d)">
     <use xlink:href="#C2_0_28eef1a3a5" x="361.358612" y="115.612129" style="fill: #8b0000"/>
    </g>
    <g clip-path="url(#p4c82ab433d)">
     <use xlink:href="#C2_0_28eef1a3a5" x="361.759271" y="336.77028" style="fill: #8b0000"/>
    </g>
    <g clip-path="url(#p4c82ab433d)">
     <use xlink:href="#C2_0_28eef1a3a5" x="358.315486" y="296.130652" style="fill: #8b0000"/>
    </g>
    <g clip-path="url(#p4c82ab433d)">
     <use xlink:href="#C2_0_28eef1a3a5" x="361.398634" y="162.46593" style="fill: #8b0000"/>
    </g>
    <g clip-path="url(#p4c82ab433d)">
     <use xlink:href="#C2_0_28eef1a3a5" x="360.393893" y="371.75956" style="fill: #8b0000"/>
    </g>
    <g clip-path="url(#p4c82ab433d)">
     <use xlink:href="#C2_0_28eef1a3a5" x="361.765295" y="266.009574" style="fill: #8b0000"/>
    </g>
    <g clip-path="url(#p4c82ab433d)">
     <use xlink:href="#C2_0_28eef1a3a5" x="361.399755" y="281.54279" style="fill: #8b0000"/>
    </g>
    <g clip-path="url(#p4c82ab433d)">
     <use xlink:href="#C2_0_28eef1a3a5" x="358.661858" y="272.393195" style="fill: #8b0000"/>
    </g>
    <g clip-path="url(#p4c82ab433d)">
     <use xlink:href="#C2_0_28eef1a3a5" x="359.032043" y="306.755591" style="fill: #8b0000"/>
    </g>
    <g clip-path="url(#p4c82ab433d)">
     <use xlink:href="#C2_0_28eef1a3a5" x="362.532811" y="314.375002" style="fill: #8b0000"/>
    </g>
    <g clip-path="url(#p4c82ab433d)">
     <use xlink:href="#C2_0_28eef1a3a5" x="358.902681" y="340.394607" style="fill: #8b0000"/>
    </g>
    <g clip-path="url(#p4c82ab433d)">
     <use xlink:href="#C2_0_28eef1a3a5" x="361.997912" y="409.534128" style="fill: #8b0000"/>
    </g>
    <g clip-path="url(#p4c82ab433d)">
     <use xlink:href="#C2_0_28eef1a3a5" x="357.254831" y="368.403266" style="fill: #8b0000"/>
    </g>
   </g>
   <g id="matplotlib.axis_1">
    <g id="xtick_1">
     <g id="line2d_1">
      <defs>
       <path id="m6ad369c196" d="M 0 0 
L 0 8 
" style="stroke: #000000; stroke-width: 2"/>
      </defs>
      <g>
       <use xlink:href="#m6ad369c196" x="119.949174" y="544.68" style="stroke: #000000; stroke-width: 2"/>
      </g>
     </g>
     <g id="text_1">
      <!-- Low -->
      <g transform="translate(100.255424 571.376875) scale(0.2 -0.2)">
       <defs>
        <path id="DejaVuSans-4c" d="M 628 4666 
L 1259 4666 
L 1259 531 
L 3531 531 
L 3531 0 
L 628 0 
L 628 4666 
z
" transform="scale(0.015625)"/>
        <path id="DejaVuSans-6f" d="M 1959 3097 
Q 1497 3097 1228 2736 
Q 959 2375 959 1747 
Q 959 1119 1226 758 
Q 1494 397 1959 397 
Q 2419 397 2687 759 
Q 2956 1122 2956 1747 
Q 2956 2369 2687 2733 
Q 2419 3097 1959 3097 
z
M 1959 3584 
Q 2709 3584 3137 3096 
Q 3566 2609 3566 1747 
Q 3566 888 3137 398 
Q 2709 -91 1959 -91 
Q 1206 -91 779 398 
Q 353 888 353 1747 
Q 353 2609 779 3096 
Q 1206 3584 1959 3584 
z
" transform="scale(0.015625)"/>
        <path id="DejaVuSans-77" d="M 269 3500 
L 844 3500 
L 1563 769 
L 2278 3500 
L 2956 3500 
L 3675 769 
L 4391 3500 
L 4966 3500 
L 4050 0 
L 3372 0 
L 2619 2869 
L 1863 0 
L 1184 0 
L 269 3500 
z
" transform="scale(0.015625)"/>
       </defs>
       <use xlink:href="#DejaVuSans-4c"/>
       <use xlink:href="#DejaVuSans-6f" x="53.962891"/>
       <use xlink:href="#DejaVuSans-77" x="115.144531"/>
      </g>
     </g>
    </g>
    <g id="xtick_2">
     <g id="line2d_2">
      <g>
       <use xlink:href="#m6ad369c196" x="239.85" y="544.68" style="stroke: #000000; stroke-width: 2"/>
      </g>
     </g>
     <g id="text_2">
      <!-- Medium -->
      <g transform="translate(199.864062 571.376875) scale(0.2 -0.2)">
       <defs>
        <path id="DejaVuSans-4d" d="M 628 4666 
L 1569 4666 
L 2759 1491 
L 3956 4666 
L 4897 4666 
L 4897 0 
L 4281 0 
L 4281 4097 
L 3078 897 
L 2444 897 
L 1241 4097 
L 1241 0 
L 628 0 
L 628 4666 
z
" transform="scale(0.015625)"/>
        <path id="DejaVuSans-65" d="M 3597 1894 
L 3597 1613 
L 953 1613 
Q 991 1019 1311 708 
Q 1631 397 2203 397 
Q 2534 397 2845 478 
Q 3156 559 3463 722 
L 3463 178 
Q 3153 47 2828 -22 
Q 2503 -91 2169 -91 
Q 1331 -91 842 396 
Q 353 884 353 1716 
Q 353 2575 817 3079 
Q 1281 3584 2069 3584 
Q 2775 3584 3186 3129 
Q 3597 2675 3597 1894 
z
M 3022 2063 
Q 3016 2534 2758 2815 
Q 2500 3097 2075 3097 
Q 1594 3097 1305 2825 
Q 1016 2553 972 2059 
L 3022 2063 
z
" transform="scale(0.015625)"/>
        <path id="DejaVuSans-64" d="M 2906 2969 
L 2906 4863 
L 3481 4863 
L 3481 0 
L 2906 0 
L 2906 525 
Q 2725 213 2448 61 
Q 2172 -91 1784 -91 
Q 1150 -91 751 415 
Q 353 922 353 1747 
Q 353 2572 751 3078 
Q 1150 3584 1784 3584 
Q 2172 3584 2448 3432 
Q 2725 3281 2906 2969 
z
M 947 1747 
Q 947 1113 1208 752 
Q 1469 391 1925 391 
Q 2381 391 2643 752 
Q 2906 1113 2906 1747 
Q 2906 2381 2643 2742 
Q 2381 3103 1925 3103 
Q 1469 3103 1208 2742 
Q 947 2381 947 1747 
z
" transform="scale(0.015625)"/>
        <path id="DejaVuSans-69" d="M 603 3500 
L 1178 3500 
L 1178 0 
L 603 0 
L 603 3500 
z
M 603 4863 
L 1178 4863 
L 1178 4134 
L 603 4134 
L 603 4863 
z
" transform="scale(0.015625)"/>
        <path id="DejaVuSans-75" d="M 544 1381 
L 544 3500 
L 1119 3500 
L 1119 1403 
Q 1119 906 1312 657 
Q 1506 409 1894 409 
Q 2359 409 2629 706 
Q 2900 1003 2900 1516 
L 2900 3500 
L 3475 3500 
L 3475 0 
L 2900 0 
L 2900 538 
Q 2691 219 2414 64 
Q 2138 -91 1772 -91 
Q 1169 -91 856 284 
Q 544 659 544 1381 
z
M 1991 3584 
L 1991 3584 
z
" transform="scale(0.015625)"/>
        <path id="DejaVuSans-6d" d="M 3328 2828 
Q 3544 3216 3844 3400 
Q 4144 3584 4550 3584 
Q 5097 3584 5394 3201 
Q 5691 2819 5691 2113 
L 5691 0 
L 5113 0 
L 5113 2094 
Q 5113 2597 4934 2840 
Q 4756 3084 4391 3084 
Q 3944 3084 3684 2787 
Q 3425 2491 3425 1978 
L 3425 0 
L 2847 0 
L 2847 2094 
Q 2847 2600 2669 2842 
Q 2491 3084 2119 3084 
Q 1678 3084 1418 2786 
Q 1159 2488 1159 1978 
L 1159 0 
L 581 0 
L 581 3500 
L 1159 3500 
L 1159 2956 
Q 1356 3278 1631 3431 
Q 1906 3584 2284 3584 
Q 2666 3584 2933 3390 
Q 3200 3197 3328 2828 
z
" transform="scale(0.015625)"/>
       </defs>
       <use xlink:href="#DejaVuSans-4d"/>
       <use xlink:href="#DejaVuSans-65" x="86.279297"/>
       <use xlink:href="#DejaVuSans-64" x="147.802734"/>
       <use xlink:href="#DejaVuSans-69" x="211.279297"/>
       <use xlink:href="#DejaVuSans-75" x="239.0625"/>
       <use xlink:href="#DejaVuSans-6d" x="302.441406"/>
      </g>
     </g>
    </g>
    <g id="xtick_3">
     <g id="line2d_3">
      <g>
       <use xlink:href="#m6ad369c196" x="359.750826" y="544.68" style="stroke: #000000; stroke-width: 2"/>
      </g>
     </g>
     <g id="text_3">
      <!-- High -->
      <g transform="translate(336.766451 571.376875) scale(0.2 -0.2)">
       <defs>
        <path id="DejaVuSans-48" d="M 628 4666 
L 1259 4666 
L 1259 2753 
L 3553 2753 
L 3553 4666 
L 4184 4666 
L 4184 0 
L 3553 0 
L 3553 2222 
L 1259 2222 
L 1259 0 
L 628 0 
L 628 4666 
z
" transform="scale(0.015625)"/>
        <path id="DejaVuSans-67" d="M 2906 1791 
Q 2906 2416 2648 2759 
Q 2391 3103 1925 3103 
Q 1463 3103 1205 2759 
Q 947 2416 947 1791 
Q 947 1169 1205 825 
Q 1463 481 1925 481 
Q 2391 481 2648 825 
Q 2906 1169 2906 1791 
z
M 3481 434 
Q 3481 -459 3084 -895 
Q 2688 -1331 1869 -1331 
Q 1566 -1331 1297 -1286 
Q 1028 -1241 775 -1147 
L 775 -588 
Q 1028 -725 1275 -790 
Q 1522 -856 1778 -856 
Q 2344 -856 2625 -561 
Q 2906 -266 2906 331 
L 2906 616 
Q 2728 306 2450 153 
Q 2172 0 1784 0 
Q 1141 0 747 490 
Q 353 981 353 1791 
Q 353 2603 747 3093 
Q 1141 3584 1784 3584 
Q 2172 3584 2450 3431 
Q 2728 3278 2906 2969 
L 2906 3500 
L 3481 3500 
L 3481 434 
z
" transform="scale(0.015625)"/>
        <path id="DejaVuSans-68" d="M 3513 2113 
L 3513 0 
L 2938 0 
L 2938 2094 
Q 2938 2591 2744 2837 
Q 2550 3084 2163 3084 
Q 1697 3084 1428 2787 
Q 1159 2491 1159 1978 
L 1159 0 
L 581 0 
L 581 4863 
L 1159 4863 
L 1159 2956 
Q 1366 3272 1645 3428 
Q 1925 3584 2291 3584 
Q 2894 3584 3203 3211 
Q 3513 2838 3513 2113 
z
" transform="scale(0.015625)"/>
       </defs>
       <use xlink:href="#DejaVuSans-48"/>
       <use xlink:href="#DejaVuSans-69" x="75.195312"/>
       <use xlink:href="#DejaVuSans-67" x="102.978516"/>
       <use xlink:href="#DejaVuSans-68" x="166.455078"/>
      </g>
     </g>
    </g>
    <g id="text_4">
     <!-- Signal level -->
     <g transform="translate(167.752344 598.532344) scale(0.25 -0.25)">
      <defs>
       <path id="DejaVuSans-53" d="M 3425 4513 
L 3425 3897 
Q 3066 4069 2747 4153 
Q 2428 4238 2131 4238 
Q 1616 4238 1336 4038 
Q 1056 3838 1056 3469 
Q 1056 3159 1242 3001 
Q 1428 2844 1947 2747 
L 2328 2669 
Q 3034 2534 3370 2195 
Q 3706 1856 3706 1288 
Q 3706 609 3251 259 
Q 2797 -91 1919 -91 
Q 1588 -91 1214 -16 
Q 841 59 441 206 
L 441 856 
Q 825 641 1194 531 
Q 1563 422 1919 422 
Q 2459 422 2753 634 
Q 3047 847 3047 1241 
Q 3047 1584 2836 1778 
Q 2625 1972 2144 2069 
L 1759 2144 
Q 1053 2284 737 2584 
Q 422 2884 422 3419 
Q 422 4038 858 4394 
Q 1294 4750 2059 4750 
Q 2388 4750 2728 4690 
Q 3069 4631 3425 4513 
z
" transform="scale(0.015625)"/>
       <path id="DejaVuSans-6e" d="M 3513 2113 
L 3513 0 
L 2938 0 
L 2938 2094 
Q 2938 2591 2744 2837 
Q 2550 3084 2163 3084 
Q 1697 3084 1428 2787 
Q 1159 2491 1159 1978 
L 1159 0 
L 581 0 
L 581 3500 
L 1159 3500 
L 1159 2956 
Q 1366 3272 1645 3428 
Q 1925 3584 2291 3584 
Q 2894 3584 3203 3211 
Q 3513 2838 3513 2113 
z
" transform="scale(0.015625)"/>
       <path id="DejaVuSans-61" d="M 2194 1759 
Q 1497 1759 1228 1600 
Q 959 1441 959 1056 
Q 959 750 1161 570 
Q 1363 391 1709 391 
Q 2188 391 2477 730 
Q 2766 1069 2766 1631 
L 2766 1759 
L 2194 1759 
z
M 3341 1997 
L 3341 0 
L 2766 0 
L 2766 531 
Q 2569 213 2275 61 
Q 1981 -91 1556 -91 
Q 1019 -91 701 211 
Q 384 513 384 1019 
Q 384 1609 779 1909 
Q 1175 2209 1959 2209 
L 2766 2209 
L 2766 2266 
Q 2766 2663 2505 2880 
Q 2244 3097 1772 3097 
Q 1472 3097 1187 3025 
Q 903 2953 641 2809 
L 641 3341 
Q 956 3463 1253 3523 
Q 1550 3584 1831 3584 
Q 2591 3584 2966 3190 
Q 3341 2797 3341 1997 
z
" transform="scale(0.015625)"/>
       <path id="DejaVuSans-6c" d="M 603 4863 
L 1178 4863 
L 1178 0 
L 603 0 
L 603 4863 
z
" transform="scale(0.015625)"/>
       <path id="DejaVuSans-20" transform="scale(0.015625)"/>
       <path id="DejaVuSans-76" d="M 191 3500 
L 800 3500 
L 1894 563 
L 2988 3500 
L 3597 3500 
L 2284 0 
L 1503 0 
L 191 3500 
z
" transform="scale(0.015625)"/>
      </defs>
      <use xlink:href="#DejaVuSans-53"/>
      <use xlink:href="#DejaVuSans-69" x="63.476562"/>
      <use xlink:href="#DejaVuSans-67" x="91.259766"/>
      <use xlink:href="#DejaVuSans-6e" x="154.736328"/>
      <use xlink:href="#DejaVuSans-61" x="218.115234"/>
      <use xlink:href="#DejaVuSans-6c" x="279.394531"/>
      <use xlink:href="#DejaVuSans-20" x="307.177734"/>
      <use xlink:href="#DejaVuSans-6c" x="338.964844"/>
      <use xlink:href="#DejaVuSans-65" x="366.748047"/>
      <use xlink:href="#DejaVuSans-76" x="428.271484"/>
      <use xlink:href="#DejaVuSans-65" x="487.451172"/>
      <use xlink:href="#DejaVuSans-6c" x="548.974609"/>
     </g>
    </g>
   </g>
   <g id="matplotlib.axis_2">
    <g id="ytick_1">
     <g id="line2d_4">
      <defs>
       <path id="m970b99170e" d="M 0 0 
L -8 0 
" style="stroke: #000000; stroke-width: 2"/>
      </defs>
      <g>
       <use xlink:href="#m970b99170e" x="58.5" y="525.8304" style="stroke: #000000; stroke-width: 2"/>
      </g>
     </g>
     <g id="text_5">
      <!-- 2 -->
      <g transform="translate(34.275 533.428837) scale(0.2 -0.2)">
       <defs>
        <path id="DejaVuSans-32" d="M 1228 531 
L 3431 531 
L 3431 0 
L 469 0 
L 469 531 
Q 828 903 1448 1529 
Q 2069 2156 2228 2338 
Q 2531 2678 2651 2914 
Q 2772 3150 2772 3378 
Q 2772 3750 2511 3984 
Q 2250 4219 1831 4219 
Q 1534 4219 1204 4116 
Q 875 4013 500 3803 
L 500 4441 
Q 881 4594 1212 4672 
Q 1544 4750 1819 4750 
Q 2544 4750 2975 4387 
Q 3406 4025 3406 3419 
Q 3406 3131 3298 2873 
Q 3191 2616 2906 2266 
Q 2828 2175 2409 1742 
Q 1991 1309 1228 531 
z
" transform="scale(0.015625)"/>
       </defs>
       <use xlink:href="#DejaVuSans-32"/>
      </g>
     </g>
    </g>
    <g id="ytick_2">
     <g id="line2d_5">
      <g>
       <use xlink:href="#m970b99170e" x="58.5" y="450.432" style="stroke: #000000; stroke-width: 2"/>
      </g>
     </g>
     <g id="text_6">
      <!-- 4 -->
      <g transform="translate(34.275 458.030437) scale(0.2 -0.2)">
       <defs>
        <path id="DejaVuSans-34" d="M 2419 4116 
L 825 1625 
L 2419 1625 
L 2419 4116 
z
M 2253 4666 
L 3047 4666 
L 3047 1625 
L 3713 1625 
L 3713 1100 
L 3047 1100 
L 3047 0 
L 2419 0 
L 2419 1100 
L 313 1100 
L 313 1709 
L 2253 4666 
z
" transform="scale(0.015625)"/>
       </defs>
       <use xlink:href="#DejaVuSans-34"/>
      </g>
     </g>
    </g>
    <g id="ytick_3">
     <g id="line2d_6">
      <g>
       <use xlink:href="#m970b99170e" x="58.5" y="375.0336" style="stroke: #000000; stroke-width: 2"/>
      </g>
     </g>
     <g id="text_7">
      <!-- 6 -->
      <g transform="translate(34.275 382.632037) scale(0.2 -0.2)">
       <defs>
        <path id="DejaVuSans-36" d="M 2113 2584 
Q 1688 2584 1439 2293 
Q 1191 2003 1191 1497 
Q 1191 994 1439 701 
Q 1688 409 2113 409 
Q 2538 409 2786 701 
Q 3034 994 3034 1497 
Q 3034 2003 2786 2293 
Q 2538 2584 2113 2584 
z
M 3366 4563 
L 3366 3988 
Q 3128 4100 2886 4159 
Q 2644 4219 2406 4219 
Q 1781 4219 1451 3797 
Q 1122 3375 1075 2522 
Q 1259 2794 1537 2939 
Q 1816 3084 2150 3084 
Q 2853 3084 3261 2657 
Q 3669 2231 3669 1497 
Q 3669 778 3244 343 
Q 2819 -91 2113 -91 
Q 1303 -91 875 529 
Q 447 1150 447 2328 
Q 447 3434 972 4092 
Q 1497 4750 2381 4750 
Q 2619 4750 2861 4703 
Q 3103 4656 3366 4563 
z
" transform="scale(0.015625)"/>
       </defs>
       <use xlink:href="#DejaVuSans-36"/>
      </g>
     </g>
    </g>
    <g id="ytick_4">
     <g id="line2d_7">
      <g>
       <use xlink:href="#m970b99170e" x="58.5" y="299.6352" style="stroke: #000000; stroke-width: 2"/>
      </g>
     </g>
     <g id="text_8">
      <!-- 8 -->
      <g transform="translate(34.275 307.233637) scale(0.2 -0.2)">
       <defs>
        <path id="DejaVuSans-38" d="M 2034 2216 
Q 1584 2216 1326 1975 
Q 1069 1734 1069 1313 
Q 1069 891 1326 650 
Q 1584 409 2034 409 
Q 2484 409 2743 651 
Q 3003 894 3003 1313 
Q 3003 1734 2745 1975 
Q 2488 2216 2034 2216 
z
M 1403 2484 
Q 997 2584 770 2862 
Q 544 3141 544 3541 
Q 544 4100 942 4425 
Q 1341 4750 2034 4750 
Q 2731 4750 3128 4425 
Q 3525 4100 3525 3541 
Q 3525 3141 3298 2862 
Q 3072 2584 2669 2484 
Q 3125 2378 3379 2068 
Q 3634 1759 3634 1313 
Q 3634 634 3220 271 
Q 2806 -91 2034 -91 
Q 1263 -91 848 271 
Q 434 634 434 1313 
Q 434 1759 690 2068 
Q 947 2378 1403 2484 
z
M 1172 3481 
Q 1172 3119 1398 2916 
Q 1625 2713 2034 2713 
Q 2441 2713 2670 2916 
Q 2900 3119 2900 3481 
Q 2900 3844 2670 4047 
Q 2441 4250 2034 4250 
Q 1625 4250 1398 4047 
Q 1172 3844 1172 3481 
z
" transform="scale(0.015625)"/>
       </defs>
       <use xlink:href="#DejaVuSans-38"/>
      </g>
     </g>
    </g>
    <g id="ytick_5">
     <g id="line2d_8">
      <g>
       <use xlink:href="#m970b99170e" x="58.5" y="224.2368" style="stroke: #000000; stroke-width: 2"/>
      </g>
     </g>
     <g id="text_9">
      <!-- 10 -->
      <g transform="translate(21.55 231.835237) scale(0.2 -0.2)">
       <defs>
        <path id="DejaVuSans-31" d="M 794 531 
L 1825 531 
L 1825 4091 
L 703 3866 
L 703 4441 
L 1819 4666 
L 2450 4666 
L 2450 531 
L 3481 531 
L 3481 0 
L 794 0 
L 794 531 
z
" transform="scale(0.015625)"/>
        <path id="DejaVuSans-30" d="M 2034 4250 
Q 1547 4250 1301 3770 
Q 1056 3291 1056 2328 
Q 1056 1369 1301 889 
Q 1547 409 2034 409 
Q 2525 409 2770 889 
Q 3016 1369 3016 2328 
Q 3016 3291 2770 3770 
Q 2525 4250 2034 4250 
z
M 2034 4750 
Q 2819 4750 3233 4129 
Q 3647 3509 3647 2328 
Q 3647 1150 3233 529 
Q 2819 -91 2034 -91 
Q 1250 -91 836 529 
Q 422 1150 422 2328 
Q 422 3509 836 4129 
Q 1250 4750 2034 4750 
z
" transform="scale(0.015625)"/>
       </defs>
       <use xlink:href="#DejaVuSans-31"/>
       <use xlink:href="#DejaVuSans-30" x="63.623047"/>
      </g>
     </g>
    </g>
    <g id="ytick_6">
     <g id="line2d_9">
      <g>
       <use xlink:href="#m970b99170e" x="58.5" y="148.8384" style="stroke: #000000; stroke-width: 2"/>
      </g>
     </g>
     <g id="text_10">
      <!-- 12 -->
      <g transform="translate(21.55 156.436837) scale(0.2 -0.2)">
       <use xlink:href="#DejaVuSans-31"/>
       <use xlink:href="#DejaVuSans-32" x="63.623047"/>
      </g>
     </g>
    </g>
    <g id="ytick_7">
     <g id="line2d_10">
      <g>
       <use xlink:href="#m970b99170e" x="58.5" y="73.44" style="stroke: #000000; stroke-width: 2"/>
      </g>
     </g>
     <g id="text_11">
      <!-- 14 -->
      <g transform="translate(21.55 81.038437) scale(0.2 -0.2)">
       <use xlink:href="#DejaVuSans-31"/>
       <use xlink:href="#DejaVuSans-34" x="63.623047"/>
      </g>
     </g>
    </g>
    <g id="text_12">
     <!-- Measured SNR -->
     <g transform="translate(12.350781 400.06) rotate(-90) scale(0.25 -0.25)">
      <defs>
       <path id="DejaVuSans-73" d="M 2834 3397 
L 2834 2853 
Q 2591 2978 2328 3040 
Q 2066 3103 1784 3103 
Q 1356 3103 1142 2972 
Q 928 2841 928 2578 
Q 928 2378 1081 2264 
Q 1234 2150 1697 2047 
L 1894 2003 
Q 2506 1872 2764 1633 
Q 3022 1394 3022 966 
Q 3022 478 2636 193 
Q 2250 -91 1575 -91 
Q 1294 -91 989 -36 
Q 684 19 347 128 
L 347 722 
Q 666 556 975 473 
Q 1284 391 1588 391 
Q 1994 391 2212 530 
Q 2431 669 2431 922 
Q 2431 1156 2273 1281 
Q 2116 1406 1581 1522 
L 1381 1569 
Q 847 1681 609 1914 
Q 372 2147 372 2553 
Q 372 3047 722 3315 
Q 1072 3584 1716 3584 
Q 2034 3584 2315 3537 
Q 2597 3491 2834 3397 
z
" transform="scale(0.015625)"/>
       <path id="DejaVuSans-72" d="M 2631 2963 
Q 2534 3019 2420 3045 
Q 2306 3072 2169 3072 
Q 1681 3072 1420 2755 
Q 1159 2438 1159 1844 
L 1159 0 
L 581 0 
L 581 3500 
L 1159 3500 
L 1159 2956 
Q 1341 3275 1631 3429 
Q 1922 3584 2338 3584 
Q 2397 3584 2469 3576 
Q 2541 3569 2628 3553 
L 2631 2963 
z
" transform="scale(0.015625)"/>
       <path id="DejaVuSans-4e" d="M 628 4666 
L 1478 4666 
L 3547 763 
L 3547 4666 
L 4159 4666 
L 4159 0 
L 3309 0 
L 1241 3903 
L 1241 0 
L 628 0 
L 628 4666 
z
" transform="scale(0.015625)"/>
       <path id="DejaVuSans-52" d="M 2841 2188 
Q 3044 2119 3236 1894 
Q 3428 1669 3622 1275 
L 4263 0 
L 3584 0 
L 2988 1197 
Q 2756 1666 2539 1819 
Q 2322 1972 1947 1972 
L 1259 1972 
L 1259 0 
L 628 0 
L 628 4666 
L 2053 4666 
Q 2853 4666 3247 4331 
Q 3641 3997 3641 3322 
Q 3641 2881 3436 2590 
Q 3231 2300 2841 2188 
z
M 1259 4147 
L 1259 2491 
L 2053 2491 
Q 2509 2491 2742 2702 
Q 2975 2913 2975 3322 
Q 2975 3731 2742 3939 
Q 2509 4147 2053 4147 
L 1259 4147 
z
" transform="scale(0.015625)"/>
      </defs>
      <use xlink:href="#DejaVuSans-4d"/>
      <use xlink:href="#DejaVuSans-65" x="86.279297"/>
      <use xlink:href="#DejaVuSans-61" x="147.802734"/>
      <use xlink:href="#DejaVuSans-73" x="209.082031"/>
      <use xlink:href="#DejaVuSans-75" x="261.181641"/>
      <use xlink:href="#DejaVuSans-72" x="324.560547"/>
      <use xlink:href="#DejaVuSans-65" x="363.423828"/>
      <use xlink:href="#DejaVuSans-64" x="424.947266"/>
      <use xlink:href="#DejaVuSans-20" x="488.423828"/>
      <use xlink:href="#DejaVuSans-53" x="520.210938"/>
      <use xlink:href="#DejaVuSans-4e" x="583.6875"/>
      <use xlink:href="#DejaVuSans-52" x="658.492188"/>
     </g>
    </g>
   </g>
   <g id="patch_3">
    <path d="M 74.986364 455.166692 
L 164.911983 455.166692 
L 164.911983 390.38519 
L 74.986364 390.38519 
L 74.986364 455.166692 
L 74.986364 455.166692 
z
" clip-path="url(#p4c82ab433d)" style="fill: none; stroke: #000000; stroke-width: 2; stroke-linejoin: miter"/>
   </g>
   <g id="line2d_11">
    <path d="M 119.949174 455.166692 
L 119.949174 525.755863 
" clip-path="url(#p4c82ab433d)" style="fill: none; stroke-dasharray: 4.2,4.2; stroke-dashoffset: 0; stroke: #000000; stroke-width: 1.4"/>
   </g>
   <g id="line2d_12">
    <path d="M 119.949174 390.38519 
L 119.949174 313.054917 
" clip-path="url(#p4c82ab433d)" style="fill: none; stroke-dasharray: 4.2,4.2; stroke-dashoffset: 0; stroke: #000000; stroke-width: 1.4"/>
   </g>
   <g id="line2d_13">
    <path d="M 97.467769 525.755863 
L 142.430579 525.755863 
" clip-path="url(#p4c82ab433d)" style="fill: none; stroke: #000000; stroke-width: 2; stroke-linecap: square"/>
   </g>
   <g id="line2d_14">
    <path d="M 97.467769 313.054917 
L 142.430579 313.054917 
" clip-path="url(#p4c82ab433d)" style="fill: none; stroke: #000000; stroke-width: 2; stroke-linecap: square"/>
   </g>
   <g id="patch_4">
    <path d="M 194.88719 374.909093 
L 284.81281 374.909093 
L 284.81281 323.574121 
L 194.88719 323.574121 
L 194.88719 374.909093 
L 194.88719 374.909093 
z
" clip-path="url(#p4c82ab433d)" style="fill: none; stroke: #000000; stroke-width: 2; stroke-linejoin: miter"/>
   </g>
   <g id="line2d_15">
    <path d="M 239.85 374.909093 
L 239.85 426.990557 
" clip-path="url(#p4c82ab433d)" style="fill: none; stroke-dasharray: 4.2,4.2; stroke-dashoffset: 0; stroke: #000000; stroke-width: 1.4"/>
   </g>
   <g id="line2d_16">
    <path d="M 239.85 323.574121 
L 239.85 281.684037 
" clip-path="url(#p4c82ab433d)" style="fill: none; stroke-dasharray: 4.2,4.2; stroke-dashoffset: 0; stroke: #000000; stroke-width: 1.4"/>
   </g>
   <g id="line2d_17">
    <path d="M 217.368595 426.990557 
L 262.331405 426.990557 
" clip-path="url(#p4c82ab433d)" style="fill: none; stroke: #000000; stroke-width: 2; stroke-linecap: square"/>
   </g>
   <g id="line2d_18">
    <path d="M 217.368595 281.684037 
L 262.331405 281.684037 
" clip-path="url(#p4c82ab433d)" style="fill: none; stroke: #000000; stroke-width: 2; stroke-linecap: square"/>
   </g>
   <g id="patch_5">
    <path d="M 314.788017 345.330497 
L 404.713636 345.330497 
L 404.713636 270.969205 
L 314.788017 270.969205 
L 314.788017 345.330497 
L 314.788017 345.330497 
z
" clip-path="url(#p4c82ab433d)" style="fill: none; stroke: #000000; stroke-width: 2; stroke-linejoin: miter"/>
   </g>
   <g id="line2d_19">
    <path d="M 359.750826 345.330497 
L 359.750826 409.534128 
" clip-path="url(#p4c82ab433d)" style="fill: none; stroke-dasharray: 4.2,4.2; stroke-dashoffset: 0; stroke: #000000; stroke-width: 1.4"/>
   </g>
   <g id="line2d_20">
    <path d="M 359.750826 270.969205 
L 359.750826 162.46593 
" clip-path="url(#p4c82ab433d)" style="fill: none; stroke-dasharray: 4.2,4.2; stroke-dashoffset: 0; stroke: #000000; stroke-width: 1.4"/>
   </g>
   <g id="line2d_21">
    <path d="M 337.269421 409.534128 
L 382.232231 409.534128 
" clip-path="url(#p4c82ab433d)" style="fill: none; stroke: #000000; stroke-width: 2; stroke-linecap: square"/>
   </g>
   <g id="line2d_22">
    <path d="M 337.269421 162.46593 
L 382.232231 162.46593 
" clip-path="url(#p4c82ab433d)" style="fill: none; stroke: #000000; stroke-width: 2; stroke-linecap: square"/>
   </g>
   <g id="line2d_23">
    <path d="M 74.986364 438.010129 
L 164.911983 438.010129 
" clip-path="url(#p4c82ab433d)" style="fill: none; stroke: #000000; stroke-opacity: 0; stroke-linecap: square"/>
   </g>
   <g id="line2d_24">
    <path d="M 194.88719 340.84469 
L 284.81281 340.84469 
" clip-path="url(#p4c82ab433d)" style="fill: none; stroke: #000000; stroke-opacity: 0; stroke-linecap: square"/>
   </g>
   <g id="line2d_25">
    <path d="M 314.788017 311.625446 
L 404.713636 311.625446 
" clip-path="url(#p4c82ab433d)" style="fill: none; stroke: #000000; stroke-opacity: 0; stroke-linecap: square"/>
   </g>
   <g id="patch_6">
    <path d="M 58.5 544.68 
L 58.5 73.44 
" style="fill: none; stroke: #000000; stroke-width: 2; stroke-linejoin: miter; stroke-linecap: square"/>
   </g>
   <g id="patch_7">
    <path d="M 58.5 544.68 
L 421.2 544.68 
" style="fill: none; stroke: #000000; stroke-width: 2; stroke-linejoin: miter; stroke-linecap: square"/>
   </g>
   <g id="line2d_26">
    <path d="M 74.986364 409.18086 
L 164.911983 409.18086 
" clip-path="url(#p4c82ab433d)" style="fill: none; stroke: #000000; stroke-width: 2; stroke-linecap: square"/>
   </g>
   <g id="line2d_27">
    <path d="M 194.88719 349.911607 
L 284.81281 349.911607 
" clip-path="url(#p4c82ab433d)" style="fill: none; stroke: #000000; stroke-width: 2; stroke-linecap: square"/>
   </g>
   <g id="line2d_28">
    <path d="M 314.788017 299.083286 
L 404.713636 299.083286 
" clip-path="url(#p4c82ab433d)" style="fill: none; stroke: #000000; stroke-width: 2; stroke-linecap: square"/>
   </g>
   <g id="text_13">
    <!-- 5.1 ± 2.1 -->
    <g transform="translate(74.255892 91.361504) scale(0.18 -0.18)">
     <defs>
      <path id="DejaVuSans-Bold-35" d="M 678 4666 
L 3669 4666 
L 3669 3781 
L 1638 3781 
L 1638 3059 
Q 1775 3097 1914 3117 
Q 2053 3138 2203 3138 
Q 3056 3138 3531 2711 
Q 4006 2284 4006 1522 
Q 4006 766 3489 337 
Q 2972 -91 2053 -91 
Q 1656 -91 1267 -14 
Q 878 63 494 219 
L 494 1166 
Q 875 947 1217 837 
Q 1559 728 1863 728 
Q 2300 728 2551 942 
Q 2803 1156 2803 1522 
Q 2803 1891 2551 2103 
Q 2300 2316 1863 2316 
Q 1603 2316 1309 2248 
Q 1016 2181 678 2041 
L 678 4666 
z
" transform="scale(0.015625)"/>
      <path id="DejaVuSans-Bold-2e" d="M 653 1209 
L 1778 1209 
L 1778 0 
L 653 0 
L 653 1209 
z
" transform="scale(0.015625)"/>
      <path id="DejaVuSans-Bold-31" d="M 750 831 
L 1813 831 
L 1813 3847 
L 722 3622 
L 722 4441 
L 1806 4666 
L 2950 4666 
L 2950 831 
L 4013 831 
L 4013 0 
L 750 0 
L 750 831 
z
" transform="scale(0.015625)"/>
      <path id="DejaVuSans-Bold-20" transform="scale(0.015625)"/>
      <path id="DejaVuSans-Bold-b1" d="M 3053 4013 
L 3053 2906 
L 4684 2906 
L 4684 2169 
L 3053 2169 
L 3053 1063 
L 2309 1063 
L 2309 2169 
L 678 2169 
L 678 2906 
L 2309 2906 
L 2309 4013 
L 3053 4013 
z
M 678 744 
L 4684 744 
L 4684 0 
L 678 0 
L 678 744 
z
" transform="scale(0.015625)"/>
      <path id="DejaVuSans-Bold-32" d="M 1844 884 
L 3897 884 
L 3897 0 
L 506 0 
L 506 884 
L 2209 2388 
Q 2438 2594 2547 2791 
Q 2656 2988 2656 3200 
Q 2656 3528 2436 3728 
Q 2216 3928 1850 3928 
Q 1569 3928 1234 3808 
Q 900 3688 519 3450 
L 519 4475 
Q 925 4609 1322 4679 
Q 1719 4750 2100 4750 
Q 2938 4750 3402 4381 
Q 3866 4013 3866 3353 
Q 3866 2972 3669 2642 
Q 3472 2313 2841 1759 
L 1844 884 
z
" transform="scale(0.015625)"/>
     </defs>
     <use xlink:href="#DejaVuSans-Bold-35"/>
     <use xlink:href="#DejaVuSans-Bold-2e" x="69.580078"/>
     <use xlink:href="#DejaVuSans-Bold-31" x="107.568359"/>
     <use xlink:href="#DejaVuSans-Bold-20" x="177.148438"/>
     <use xlink:href="#DejaVuSans-Bold-b1" x="211.962891"/>
     <use xlink:href="#DejaVuSans-Bold-20" x="295.751953"/>
     <use xlink:href="#DejaVuSans-Bold-32" x="330.566406"/>
     <use xlink:href="#DejaVuSans-Bold-2e" x="400.146484"/>
     <use xlink:href="#DejaVuSans-Bold-31" x="438.134766"/>
    </g>
   </g>
   <g id="text_14">
    <!-- 6.7 ± 1.0 -->
    <g transform="translate(194.156719 91.361504) scale(0.18 -0.18)">
     <defs>
      <path id="DejaVuSans-Bold-36" d="M 2316 2303 
Q 2000 2303 1842 2098 
Q 1684 1894 1684 1484 
Q 1684 1075 1842 870 
Q 2000 666 2316 666 
Q 2634 666 2792 870 
Q 2950 1075 2950 1484 
Q 2950 1894 2792 2098 
Q 2634 2303 2316 2303 
z
M 3803 4544 
L 3803 3681 
Q 3506 3822 3243 3889 
Q 2981 3956 2731 3956 
Q 2194 3956 1894 3657 
Q 1594 3359 1544 2772 
Q 1750 2925 1990 3001 
Q 2231 3078 2516 3078 
Q 3231 3078 3670 2659 
Q 4109 2241 4109 1563 
Q 4109 813 3618 361 
Q 3128 -91 2303 -91 
Q 1394 -91 895 523 
Q 397 1138 397 2266 
Q 397 3422 980 4083 
Q 1563 4744 2578 4744 
Q 2900 4744 3203 4694 
Q 3506 4644 3803 4544 
z
" transform="scale(0.015625)"/>
      <path id="DejaVuSans-Bold-37" d="M 428 4666 
L 3944 4666 
L 3944 3988 
L 2125 0 
L 953 0 
L 2675 3781 
L 428 3781 
L 428 4666 
z
" transform="scale(0.015625)"/>
      <path id="DejaVuSans-Bold-30" d="M 2944 2338 
Q 2944 3213 2780 3570 
Q 2616 3928 2228 3928 
Q 1841 3928 1675 3570 
Q 1509 3213 1509 2338 
Q 1509 1453 1675 1090 
Q 1841 728 2228 728 
Q 2613 728 2778 1090 
Q 2944 1453 2944 2338 
z
M 4147 2328 
Q 4147 1169 3647 539 
Q 3147 -91 2228 -91 
Q 1306 -91 806 539 
Q 306 1169 306 2328 
Q 306 3491 806 4120 
Q 1306 4750 2228 4750 
Q 3147 4750 3647 4120 
Q 4147 3491 4147 2328 
z
" transform="scale(0.015625)"/>
     </defs>
     <use xlink:href="#DejaVuSans-Bold-36"/>
     <use xlink:href="#DejaVuSans-Bold-2e" x="69.580078"/>
     <use xlink:href="#DejaVuSans-Bold-37" x="107.568359"/>
     <use xlink:href="#DejaVuSans-Bold-20" x="177.148438"/>
     <use xlink:href="#DejaVuSans-Bold-b1" x="211.962891"/>
     <use xlink:href="#DejaVuSans-Bold-20" x="295.751953"/>
     <use xlink:href="#DejaVuSans-Bold-31" x="330.566406"/>
     <use xlink:href="#DejaVuSans-Bold-2e" x="400.146484"/>
     <use xlink:href="#DejaVuSans-Bold-30" x="438.134766"/>
    </g>
   </g>
   <g id="text_15">
    <!-- 8.0 ± 2.0 -->
    <g transform="translate(314.057545 91.361504) scale(0.18 -0.18)">
     <defs>
      <path id="DejaVuSans-Bold-38" d="M 2228 2088 
Q 1891 2088 1709 1903 
Q 1528 1719 1528 1375 
Q 1528 1031 1709 848 
Q 1891 666 2228 666 
Q 2563 666 2741 848 
Q 2919 1031 2919 1375 
Q 2919 1722 2741 1905 
Q 2563 2088 2228 2088 
z
M 1350 2484 
Q 925 2613 709 2878 
Q 494 3144 494 3541 
Q 494 4131 934 4440 
Q 1375 4750 2228 4750 
Q 3075 4750 3515 4442 
Q 3956 4134 3956 3541 
Q 3956 3144 3739 2878 
Q 3522 2613 3097 2484 
Q 3572 2353 3814 2058 
Q 4056 1763 4056 1313 
Q 4056 619 3595 264 
Q 3134 -91 2228 -91 
Q 1319 -91 855 264 
Q 391 619 391 1313 
Q 391 1763 633 2058 
Q 875 2353 1350 2484 
z
M 1631 3419 
Q 1631 3141 1786 2991 
Q 1941 2841 2228 2841 
Q 2509 2841 2662 2991 
Q 2816 3141 2816 3419 
Q 2816 3697 2662 3845 
Q 2509 3994 2228 3994 
Q 1941 3994 1786 3844 
Q 1631 3694 1631 3419 
z
" transform="scale(0.015625)"/>
     </defs>
     <use xlink:href="#DejaVuSans-Bold-38"/>
     <use xlink:href="#DejaVuSans-Bold-2e" x="69.580078"/>
     <use xlink:href="#DejaVuSans-Bold-30" x="107.568359"/>
     <use xlink:href="#DejaVuSans-Bold-20" x="177.148438"/>
     <use xlink:href="#DejaVuSans-Bold-b1" x="211.962891"/>
     <use xlink:href="#DejaVuSans-Bold-20" x="295.751953"/>
     <use xlink:href="#DejaVuSans-Bold-32" x="330.566406"/>
     <use xlink:href="#DejaVuSans-Bold-2e" x="400.146484"/>
     <use xlink:href="#DejaVuSans-Bold-30" x="438.134766"/>
    </g>
   </g>
  </g>
 </g>
 <defs>
  <clipPath id="p4c82ab433d">
   <rect x="58.5" y="73.44" width="362.7" height="471.24"/>
  </clipPath>
 </defs>
</svg>
