<?xml version="1.0" encoding="utf-8" standalone="no"?>
<!DOCTYPE svg PUBLIC "-//W3C//DTD SVG 1.1//EN"
  "http://www.w3.org/Graphics/SVG/1.1/DTD/svg11.dtd">
<svg xmlns:xlink="http://www.w3.org/1999/xlink" width="576pt" height="576pt" viewBox="0 0 576 576" xmlns="http://www.w3.org/2000/svg" version="1.1">
 <metadata>
  <rdf:RDF xmlns:dc="http://purl.org/dc/elements/1.1/" xmlns:cc="http://creativecommons.org/ns#" xmlns:rdf="http://www.w3.org/1999/02/22-rdf-syntax-ns#">
   <cc:Work>
    <dc:type rdf:resource="http://purl.org/dc/dcmitype/StillImage"/>
    <dc:date>2025-07-29T15:05:42.385314</dc:date>
    <dc:format>image/svg+xml</dc:format>
    <dc:creator>
     <cc:Agent>
      <dc:title>Matplotlib v3.7.2, https://matplotlib.org/</dc:title>
     </cc:Agent>
    </dc:creator>
   </cc:Work>
  </rdf:RDF>
 </metadata>
 <defs>
  <style type="text/css">*{stroke-linejoin: round; stroke-linecap: butt}</style>
 </defs>
 <g id="figure_1">
  <g id="patch_1">
   <path d="M 0 576 
L 576 576 
L 576 0 
L 0 0 
z
" style="fill: #ffffff"/>
  </g>
  <g id="axes_1">
   <g id="patch_2">
    <path d="M 72 512.64 
L 518.4 512.64 
L 518.4 69.12 
L 72 69.12 
z
" style="fill: #ffffff"/>
   </g>
   <g id="PathCollection_1">
    <defs>
     <path id="C0_0_08a44f27fd" d="M 0 1.581139 
C 0.419323 1.581139 0.821528 1.41454 1.118034 1.118034 
C 1.41454 0.821528 1.581139 0.419323 1.581139 -0 
C 1.581139 -0.419323 1.41454 -0.821528 1.118034 -1.118034 
C 0.821528 -1.41454 0.419323 -1.581139 0 -1.581139 
C -0.419323 -1.581139 -0.821528 -1.41454 -1.118034 -1.118034 
C -1.41454 -0.821528 -1.581139 -0.419323 -1.581139 0 
C -1.581139 0.419323 -1.41454 0.821528 -1.118034 1.118034 
C -0.821528 1.41454 -0.419323 1.581139 0 1.581139 
z
"/>
    </defs>
    <g clip-path="url(#pa78e107981)">
     <use xlink:href="#C0_0_08a44f27fd" x="124.139426" y="391.465956" style="fill: #e6a5f1"/>
    </g>
    <g clip-path="url(#pa78e107981)">
     <use xlink:href="#C0_0_08a44f27fd" x="125.581916" y="403.426593" style="fill: #e6a5f1"/>
    </g>
    <g clip-path="url(#pa78e107981)">
     <use xlink:href="#C0_0_08a44f27fd" x="125.896206" y="361.909443" style="fill: #e6a5f1"/>
    </g>
    <g clip-path="url(#pa78e107981)">
     <use xlink:href="#C0_0_08a44f27fd" x="124.152278" y="390.764318" style="fill: #e6a5f1"/>
    </g>
    <g clip-path="url(#pa78e107981)">
     <use xlink:href="#C0_0_08a44f27fd" x="125.258071" y="405.207512" style="fill: #e6a5f1"/>
    </g>
    <g clip-path="url(#pa78e107981)">
     <use xlink:href="#C0_0_08a44f27fd" x="127.955587" y="366.544739" style="fill: #e6a5f1"/>
    </g>
    <g clip-path="url(#pa78e107981)">
     <use xlink:href="#C0_0_08a44f27fd" x="125.238327" y="441.376828" style="fill: #e6a5f1"/>
    </g>
    <g clip-path="url(#pa78e107981)">
     <use xlink:href="#C0_0_08a44f27fd" x="127.48775" y="341.762549" style="fill: #e6a5f1"/>
    </g>
    <g clip-path="url(#pa78e107981)">
     <use xlink:href="#C0_0_08a44f27fd" x="127.050035" y="397.465829" style="fill: #e6a5f1"/>
    </g>
    <g clip-path="url(#pa78e107981)">
     <use xlink:href="#C0_0_08a44f27fd" x="126.122659" y="453.193263" style="fill: #e6a5f1"/>
    </g>
    <g clip-path="url(#pa78e107981)">
     <use xlink:href="#C0_0_08a44f27fd" x="124.593598" y="445.860035" style="fill: #e6a5f1"/>
    </g>
    <g clip-path="url(#pa78e107981)">
     <use xlink:href="#C0_0_08a44f27fd" x="126.454166" y="466.74244" style="fill: #e6a5f1"/>
    </g>
    <g clip-path="url(#pa78e107981)">
     <use xlink:href="#C0_0_08a44f27fd" x="126.931239" y="456.316771" style="fill: #e6a5f1"/>
    </g>
    <g clip-path="url(#pa78e107981)">
     <use xlink:href="#C0_0_08a44f27fd" x="126.166487" y="449.667587" style="fill: #e6a5f1"/>
    </g>
    <g clip-path="url(#pa78e107981)">
     <use xlink:href="#C0_0_08a44f27fd" x="124.265271" y="419.930185" style="fill: #e6a5f1"/>
    </g>
    <g clip-path="url(#pa78e107981)">
     <use xlink:href="#C0_0_08a44f27fd" x="127.139757" y="415.902965" style="fill: #e6a5f1"/>
    </g>
    <g clip-path="url(#pa78e107981)">
     <use xlink:href="#C0_0_08a44f27fd" x="127.344491" y="405.407215" style="fill: #e6a5f1"/>
    </g>
    <g clip-path="url(#pa78e107981)">
     <use xlink:href="#C0_0_08a44f27fd" x="128.032259" y="361.615127" style="fill: #e6a5f1"/>
    </g>
    <g clip-path="url(#pa78e107981)">
     <use xlink:href="#C0_0_08a44f27fd" x="127.248587" y="351.612105" style="fill: #e6a5f1"/>
    </g>
    <g clip-path="url(#pa78e107981)">
     <use xlink:href="#C0_0_08a44f27fd" x="125.198199" y="428.869727" style="fill: #e6a5f1"/>
    </g>
    <g clip-path="url(#pa78e107981)">
     <use xlink:href="#C0_0_08a44f27fd" x="126.234553" y="337.98611" style="fill: #e6a5f1"/>
    </g>
    <g clip-path="url(#pa78e107981)">
     <use xlink:href="#C0_0_08a44f27fd" x="127.692339" y="397.801238" style="fill: #e6a5f1"/>
    </g>
    <g clip-path="url(#pa78e107981)">
     <use xlink:href="#C0_0_08a44f27fd" x="126.919579" y="307.781889" style="fill: #e6a5f1"/>
    </g>
    <g clip-path="url(#pa78e107981)">
     <use xlink:href="#C0_0_08a44f27fd" x="128.059735" y="441.425171" style="fill: #e6a5f1"/>
    </g>
   </g>
   <g id="PathCollection_2">
    <defs>
     <path id="C1_0_08209ccb55" d="M 0 1.581139 
C 0.419323 1.581139 0.821528 1.41454 1.118034 1.118034 
C 1.41454 0.821528 1.581139 0.419323 1.581139 -0 
C 1.581139 -0.419323 1.41454 -0.821528 1.118034 -1.118034 
C 0.821528 -1.41454 0.419323 -1.581139 0 -1.581139 
C -0.419323 -1.581139 -0.821528 -1.41454 -1.118034 -1.118034 
C -1.41454 -0.821528 -1.581139 -0.419323 -1.581139 0 
C -1.581139 0.419323 -1.41454 0.821528 -1.118034 1.118034 
C -0.821528 1.41454 -0.419323 1.581139 0 1.581139 
z
"/>
    </defs>
    <g clip-path="url(#pa78e107981)">
     <use xlink:href="#C1_0_08209ccb55" x="239.570929" y="446.849371" style="fill: #df79f1"/>
    </g>
    <g clip-path="url(#pa78e107981)">
     <use xlink:href="#C1_0_08209ccb55" x="240.37584" y="370.769255" style="fill: #df79f1"/>
    </g>
    <g clip-path="url(#pa78e107981)">
     <use xlink:href="#C1_0_08209ccb55" x="240.008539" y="375.104766" style="fill: #df79f1"/>
    </g>
    <g clip-path="url(#pa78e107981)">
     <use xlink:href="#C1_0_08209ccb55" x="241.055227" y="356.19643" style="fill: #df79f1"/>
    </g>
    <g clip-path="url(#pa78e107981)">
     <use xlink:href="#C1_0_08209ccb55" x="239.194761" y="381.653841" style="fill: #df79f1"/>
    </g>
    <g clip-path="url(#pa78e107981)">
     <use xlink:href="#C1_0_08209ccb55" x="236.606244" y="374.649552" style="fill: #df79f1"/>
    </g>
    <g clip-path="url(#pa78e107981)">
     <use xlink:href="#C1_0_08209ccb55" x="239.275519" y="394.301966" style="fill: #df79f1"/>
    </g>
    <g clip-path="url(#pa78e107981)">
     <use xlink:href="#C1_0_08209ccb55" x="237.197876" y="299.122337" style="fill: #df79f1"/>
    </g>
    <g clip-path="url(#pa78e107981)">
     <use xlink:href="#C1_0_08209ccb55" x="239.420769" y="396.360987" style="fill: #df79f1"/>
    </g>
    <g clip-path="url(#pa78e107981)">
     <use xlink:href="#C1_0_08209ccb55" x="240.119707" y="423.467979" style="fill: #df79f1"/>
    </g>
    <g clip-path="url(#pa78e107981)">
     <use xlink:href="#C1_0_08209ccb55" x="240.265336" y="413.76328" style="fill: #df79f1"/>
    </g>
    <g clip-path="url(#pa78e107981)">
     <use xlink:href="#C1_0_08209ccb55" x="240.021589" y="428.091932" style="fill: #df79f1"/>
    </g>
    <g clip-path="url(#pa78e107981)">
     <use xlink:href="#C1_0_08209ccb55" x="236.968984" y="357.482319" style="fill: #df79f1"/>
    </g>
    <g clip-path="url(#pa78e107981)">
     <use xlink:href="#C1_0_08209ccb55" x="240.260861" y="323.720181" style="fill: #df79f1"/>
    </g>
    <g clip-path="url(#pa78e107981)">
     <use xlink:href="#C1_0_08209ccb55" x="237.734045" y="310.711709" style="fill: #df79f1"/>
    </g>
    <g clip-path="url(#pa78e107981)">
     <use xlink:href="#C1_0_08209ccb55" x="240.552105" y="405.731401" style="fill: #df79f1"/>
    </g>
    <g clip-path="url(#pa78e107981)">
     <use xlink:href="#C1_0_08209ccb55" x="238.787683" y="333.839526" style="fill: #df79f1"/>
    </g>
    <g clip-path="url(#pa78e107981)">
     <use xlink:href="#C1_0_08209ccb55" x="239.051288" y="406.436829" style="fill: #df79f1"/>
    </g>
    <g clip-path="url(#pa78e107981)">
     <use xlink:href="#C1_0_08209ccb55" x="238.433569" y="432.652704" style="fill: #df79f1"/>
    </g>
    <g clip-path="url(#pa78e107981)">
     <use xlink:href="#C1_0_08209ccb55" x="240.604657" y="359.586272" style="fill: #df79f1"/>
    </g>
    <g clip-path="url(#pa78e107981)">
     <use xlink:href="#C1_0_08209ccb55" x="238.009128" y="355.526923" style="fill: #df79f1"/>
    </g>
    <g clip-path="url(#pa78e107981)">
     <use xlink:href="#C1_0_08209ccb55" x="238.401393" y="395.250443" style="fill: #df79f1"/>
    </g>
    <g clip-path="url(#pa78e107981)">
     <use xlink:href="#C1_0_08209ccb55" x="239.490503" y="381.859724" style="fill: #df79f1"/>
    </g>
    <g clip-path="url(#pa78e107981)">
     <use xlink:href="#C1_0_08209ccb55" x="240.715072" y="404.738882" style="fill: #df79f1"/>
    </g>
    <g clip-path="url(#pa78e107981)">
     <use xlink:href="#C1_0_08209ccb55" x="238.489533" y="452.276844" style="fill: #df79f1"/>
    </g>
   </g>
   <g id="PathCollection_3">
    <defs>
     <path id="C2_0_dc286fb845" d="M 0 1.581139 
C 0.419323 1.581139 0.821528 1.41454 1.118034 1.118034 
C 1.41454 0.821528 1.581139 0.419323 1.581139 -0 
C 1.581139 -0.419323 1.41454 -0.821528 1.118034 -1.118034 
C 0.821528 -1.41454 0.419323 -1.581139 0 -1.581139 
C -0.419323 -1.581139 -0.821528 -1.41454 -1.118034 -1.118034 
C -1.41454 -0.821528 -1.581139 -0.419323 -1.581139 0 
C -1.581139 0.419323 -1.41454 0.821528 -1.118034 1.118034 
C -0.821528 1.41454 -0.419323 1.581139 0 1.581139 
z
"/>
    </defs>
    <g clip-path="url(#pa78e107981)">
     <use xlink:href="#C2_0_dc286fb845" x="350.527801" y="408.099379" style="fill: #e026ec"/>
    </g>
    <g clip-path="url(#pa78e107981)">
     <use xlink:href="#C2_0_dc286fb845" x="350.061481" y="302.569497" style="fill: #e026ec"/>
    </g>
    <g clip-path="url(#pa78e107981)">
     <use xlink:href="#C2_0_dc286fb845" x="351.456012" y="342.237935" style="fill: #e026ec"/>
    </g>
    <g clip-path="url(#pa78e107981)">
     <use xlink:href="#C2_0_dc286fb845" x="353.259125" y="380.026886" style="fill: #e026ec"/>
    </g>
    <g clip-path="url(#pa78e107981)">
     <use xlink:href="#C2_0_dc286fb845" x="350.969317" y="415.145335" style="fill: #e026ec"/>
    </g>
    <g clip-path="url(#pa78e107981)">
     <use xlink:href="#C2_0_dc286fb845" x="350.467981" y="431.639944" style="fill: #e026ec"/>
    </g>
    <g clip-path="url(#pa78e107981)">
     <use xlink:href="#C2_0_dc286fb845" x="349.947778" y="319.004996" style="fill: #e026ec"/>
    </g>
    <g clip-path="url(#pa78e107981)">
     <use xlink:href="#C2_0_dc286fb845" x="351.720021" y="398.200252" style="fill: #e026ec"/>
    </g>
    <g clip-path="url(#pa78e107981)">
     <use xlink:href="#C2_0_dc286fb845" x="352.589973" y="398.56343" style="fill: #e026ec"/>
    </g>
    <g clip-path="url(#pa78e107981)">
     <use xlink:href="#C2_0_dc286fb845" x="351.871549" y="296.530005" style="fill: #e026ec"/>
    </g>
    <g clip-path="url(#pa78e107981)">
     <use xlink:href="#C2_0_dc286fb845" x="352.337837" y="306.773972" style="fill: #e026ec"/>
    </g>
    <g clip-path="url(#pa78e107981)">
     <use xlink:href="#C2_0_dc286fb845" x="351.003231" y="400.421517" style="fill: #e026ec"/>
    </g>
    <g clip-path="url(#pa78e107981)">
     <use xlink:href="#C2_0_dc286fb845" x="350.511973" y="351.599449" style="fill: #e026ec"/>
    </g>
    <g clip-path="url(#pa78e107981)">
     <use xlink:href="#C2_0_dc286fb845" x="350.204469" y="239.985969" style="fill: #e026ec"/>
    </g>
    <g clip-path="url(#pa78e107981)">
     <use xlink:href="#C2_0_dc286fb845" x="350.773363" y="368.111132" style="fill: #e026ec"/>
    </g>
    <g clip-path="url(#pa78e107981)">
     <use xlink:href="#C2_0_dc286fb845" x="352.687384" y="350.304255" style="fill: #e026ec"/>
    </g>
    <g clip-path="url(#pa78e107981)">
     <use xlink:href="#C2_0_dc286fb845" x="351.007553" y="389.479545" style="fill: #e026ec"/>
    </g>
    <g clip-path="url(#pa78e107981)">
     <use xlink:href="#C2_0_dc286fb845" x="349.489196" y="303.97651" style="fill: #e026ec"/>
    </g>
    <g clip-path="url(#pa78e107981)">
     <use xlink:href="#C2_0_dc286fb845" x="351.259886" y="287.463649" style="fill: #e026ec"/>
    </g>
    <g clip-path="url(#pa78e107981)">
     <use xlink:href="#C2_0_dc286fb845" x="351.438818" y="390.401833" style="fill: #e026ec"/>
    </g>
    <g clip-path="url(#pa78e107981)">
     <use xlink:href="#C2_0_dc286fb845" x="352.227314" y="332.725673" style="fill: #e026ec"/>
    </g>
    <g clip-path="url(#pa78e107981)">
     <use xlink:href="#C2_0_dc286fb845" x="350.399248" y="350.582719" style="fill: #e026ec"/>
    </g>
    <g clip-path="url(#pa78e107981)">
     <use xlink:href="#C2_0_dc286fb845" x="352.107401" y="327.394299" style="fill: #e026ec"/>
    </g>
    <g clip-path="url(#pa78e107981)">
     <use xlink:href="#C2_0_dc286fb845" x="351.955341" y="329.724668" style="fill: #e026ec"/>
    </g>
    <g clip-path="url(#pa78e107981)">
     <use xlink:href="#C2_0_dc286fb845" x="350.19298" y="275.40003" style="fill: #e026ec"/>
    </g>
    <g clip-path="url(#pa78e107981)">
     <use xlink:href="#C2_0_dc286fb845" x="350.160658" y="339.060707" style="fill: #e026ec"/>
    </g>
    <g clip-path="url(#pa78e107981)">
     <use xlink:href="#C2_0_dc286fb845" x="353.632656" y="268.4644" style="fill: #e026ec"/>
    </g>
    <g clip-path="url(#pa78e107981)">
     <use xlink:href="#C2_0_dc286fb845" x="350.727362" y="339.445849" style="fill: #e026ec"/>
    </g>
    <g clip-path="url(#pa78e107981)">
     <use xlink:href="#C2_0_dc286fb845" x="349.511391" y="410.506323" style="fill: #e026ec"/>
    </g>
    <g clip-path="url(#pa78e107981)">
     <use xlink:href="#C2_0_dc286fb845" x="352.314597" y="358.662236" style="fill: #e026ec"/>
    </g>
   </g>
   <g id="PathCollection_4">
    <defs>
     <path id="C3_0_c7488ddfde" d="M 0 1.581139 
C 0.419323 1.581139 0.821528 1.41454 1.118034 1.118034 
C 1.41454 0.821528 1.581139 0.419323 1.581139 -0 
C 1.581139 -0.419323 1.41454 -0.821528 1.118034 -1.118034 
C 0.821528 -1.41454 0.419323 -1.581139 0 -1.581139 
C -0.419323 -1.581139 -0.821528 -1.41454 -1.118034 -1.118034 
C -1.41454 -0.821528 -1.581139 -0.419323 -1.581139 0 
C -1.581139 0.419323 -1.41454 0.821528 -1.118034 1.118034 
C -0.821528 1.41454 -0.419323 1.581139 0 1.581139 
z
"/>
    </defs>
    <g clip-path="url(#pa78e107981)">
     <use xlink:href="#C3_0_c7488ddfde" x="462.526421" y="249.722207" style="fill: #ad10b8"/>
    </g>
    <g clip-path="url(#pa78e107981)">
     <use xlink:href="#C3_0_c7488ddfde" x="466.291646" y="277.335228" style="fill: #ad10b8"/>
    </g>
    <g clip-path="url(#pa78e107981)">
     <use xlink:href="#C3_0_c7488ddfde" x="464.471745" y="139.633964" style="fill: #ad10b8"/>
    </g>
    <g clip-path="url(#pa78e107981)">
     <use xlink:href="#C3_0_c7488ddfde" x="463.755702" y="202.372977" style="fill: #ad10b8"/>
    </g>
    <g clip-path="url(#pa78e107981)">
     <use xlink:href="#C3_0_c7488ddfde" x="466.270999" y="336.221351" style="fill: #ad10b8"/>
    </g>
    <g clip-path="url(#pa78e107981)">
     <use xlink:href="#C3_0_c7488ddfde" x="464.232901" y="364.284178" style="fill: #ad10b8"/>
    </g>
    <g clip-path="url(#pa78e107981)">
     <use xlink:href="#C3_0_c7488ddfde" x="463.165477" y="385.59459" style="fill: #ad10b8"/>
    </g>
    <g clip-path="url(#pa78e107981)">
     <use xlink:href="#C3_0_c7488ddfde" x="464.010357" y="289.114956" style="fill: #ad10b8"/>
    </g>
    <g clip-path="url(#pa78e107981)">
     <use xlink:href="#C3_0_c7488ddfde" x="462.91131" y="397.220574" style="fill: #ad10b8"/>
    </g>
    <g clip-path="url(#pa78e107981)">
     <use xlink:href="#C3_0_c7488ddfde" x="463.140315" y="407.890647" style="fill: #ad10b8"/>
    </g>
    <g clip-path="url(#pa78e107981)">
     <use xlink:href="#C3_0_c7488ddfde" x="462.366019" y="205.288976" style="fill: #ad10b8"/>
    </g>
    <g clip-path="url(#pa78e107981)">
     <use xlink:href="#C3_0_c7488ddfde" x="464.07731" y="318.49006" style="fill: #ad10b8"/>
    </g>
    <g clip-path="url(#pa78e107981)">
     <use xlink:href="#C3_0_c7488ddfde" x="464.526262" y="307.866605" style="fill: #ad10b8"/>
    </g>
    <g clip-path="url(#pa78e107981)">
     <use xlink:href="#C3_0_c7488ddfde" x="462.257236" y="312.337745" style="fill: #ad10b8"/>
    </g>
    <g clip-path="url(#pa78e107981)">
     <use xlink:href="#C3_0_c7488ddfde" x="464.039392" y="305.305799" style="fill: #ad10b8"/>
    </g>
    <g clip-path="url(#pa78e107981)">
     <use xlink:href="#C3_0_c7488ddfde" x="462.316715" y="317.388954" style="fill: #ad10b8"/>
    </g>
    <g clip-path="url(#pa78e107981)">
     <use xlink:href="#C3_0_c7488ddfde" x="465.52775" y="347.823081" style="fill: #ad10b8"/>
    </g>
    <g clip-path="url(#pa78e107981)">
     <use xlink:href="#C3_0_c7488ddfde" x="462.369253" y="232.414286" style="fill: #ad10b8"/>
    </g>
    <g clip-path="url(#pa78e107981)">
     <use xlink:href="#C3_0_c7488ddfde" x="465.734542" y="349.246589" style="fill: #ad10b8"/>
    </g>
    <g clip-path="url(#pa78e107981)">
     <use xlink:href="#C3_0_c7488ddfde" x="466.200682" y="304.282662" style="fill: #ad10b8"/>
    </g>
    <g clip-path="url(#pa78e107981)">
     <use xlink:href="#C3_0_c7488ddfde" x="465.577008" y="313.220442" style="fill: #ad10b8"/>
    </g>
    <g clip-path="url(#pa78e107981)">
     <use xlink:href="#C3_0_c7488ddfde" x="464.550923" y="191.062439" style="fill: #ad10b8"/>
    </g>
    <g clip-path="url(#pa78e107981)">
     <use xlink:href="#C3_0_c7488ddfde" x="466.235122" y="312.661023" style="fill: #ad10b8"/>
    </g>
    <g clip-path="url(#pa78e107981)">
     <use xlink:href="#C3_0_c7488ddfde" x="462.884095" y="277.83757" style="fill: #ad10b8"/>
    </g>
    <g clip-path="url(#pa78e107981)">
     <use xlink:href="#C3_0_c7488ddfde" x="465.822706" y="306.401846" style="fill: #ad10b8"/>
    </g>
    <g clip-path="url(#pa78e107981)">
     <use xlink:href="#C3_0_c7488ddfde" x="464.703102" y="395.273247" style="fill: #ad10b8"/>
    </g>
    <g clip-path="url(#pa78e107981)">
     <use xlink:href="#C3_0_c7488ddfde" x="462.25858" y="288.154749" style="fill: #ad10b8"/>
    </g>
    <g clip-path="url(#pa78e107981)">
     <use xlink:href="#C3_0_c7488ddfde" x="466.178758" y="330.513534" style="fill: #ad10b8"/>
    </g>
    <g clip-path="url(#pa78e107981)">
     <use xlink:href="#C3_0_c7488ddfde" x="464.651564" y="300.609262" style="fill: #ad10b8"/>
    </g>
    <g clip-path="url(#pa78e107981)">
     <use xlink:href="#C3_0_c7488ddfde" x="462.255238" y="378.764811" style="fill: #ad10b8"/>
    </g>
    <g clip-path="url(#pa78e107981)">
     <use xlink:href="#C3_0_c7488ddfde" x="465.224541" y="255.818089" style="fill: #ad10b8"/>
    </g>
    <g clip-path="url(#pa78e107981)">
     <use xlink:href="#C3_0_c7488ddfde" x="466.187394" y="416.183091" style="fill: #ad10b8"/>
    </g>
    <g clip-path="url(#pa78e107981)">
     <use xlink:href="#C3_0_c7488ddfde" x="462.788326" y="383.482317" style="fill: #ad10b8"/>
    </g>
    <g clip-path="url(#pa78e107981)">
     <use xlink:href="#C3_0_c7488ddfde" x="465.562236" y="103.677808" style="fill: #ad10b8"/>
    </g>
    <g clip-path="url(#pa78e107981)">
     <use xlink:href="#C3_0_c7488ddfde" x="462.933529" y="402.108256" style="fill: #ad10b8"/>
    </g>
    <g clip-path="url(#pa78e107981)">
     <use xlink:href="#C3_0_c7488ddfde" x="465.63635" y="352.530693" style="fill: #ad10b8"/>
    </g>
    <g clip-path="url(#pa78e107981)">
     <use xlink:href="#C3_0_c7488ddfde" x="464.784904" y="351.494155" style="fill: #ad10b8"/>
    </g>
   </g>
   <g id="matplotlib.axis_1">
    <g id="xtick_1">
     <g id="line2d_1">
      <defs>
       <path id="m3d4556c8eb" d="M 0 0 
L 0 8 
" style="stroke: #000000; stroke-width: 2.2"/>
      </defs>
      <g>
       <use xlink:href="#m3d4556c8eb" x="126.109091" y="512.64" style="stroke: #000000; stroke-width: 2.2"/>
      </g>
     </g>
     <g id="text_1">
      <!-- 20% -->
      <g transform="translate(102.7712 540.096719) scale(0.21 -0.21)">
       <defs>
        <path id="DejaVuSans-32" d="M 1228 531 
L 3431 531 
L 3431 0 
L 469 0 
L 469 531 
Q 828 903 1448 1529 
Q 2069 2156 2228 2338 
Q 2531 2678 2651 2914 
Q 2772 3150 2772 3378 
Q 2772 3750 2511 3984 
Q 2250 4219 1831 4219 
Q 1534 4219 1204 4116 
Q 875 4013 500 3803 
L 500 4441 
Q 881 4594 1212 4672 
Q 1544 4750 1819 4750 
Q 2544 4750 2975 4387 
Q 3406 4025 3406 3419 
Q 3406 3131 3298 2873 
Q 3191 2616 2906 2266 
Q 2828 2175 2409 1742 
Q 1991 1309 1228 531 
z
" transform="scale(0.015625)"/>
        <path id="DejaVuSans-30" d="M 2034 4250 
Q 1547 4250 1301 3770 
Q 1056 3291 1056 2328 
Q 1056 1369 1301 889 
Q 1547 409 2034 409 
Q 2525 409 2770 889 
Q 3016 1369 3016 2328 
Q 3016 3291 2770 3770 
Q 2525 4250 2034 4250 
z
M 2034 4750 
Q 2819 4750 3233 4129 
Q 3647 3509 3647 2328 
Q 3647 1150 3233 529 
Q 2819 -91 2034 -91 
Q 1250 -91 836 529 
Q 422 1150 422 2328 
Q 422 3509 836 4129 
Q 1250 4750 2034 4750 
z
" transform="scale(0.015625)"/>
        <path id="DejaVuSans-25" d="M 4653 2053 
Q 4381 2053 4226 1822 
Q 4072 1591 4072 1178 
Q 4072 772 4226 539 
Q 4381 306 4653 306 
Q 4919 306 5073 539 
Q 5228 772 5228 1178 
Q 5228 1588 5073 1820 
Q 4919 2053 4653 2053 
z
M 4653 2450 
Q 5147 2450 5437 2106 
Q 5728 1763 5728 1178 
Q 5728 594 5436 251 
Q 5144 -91 4653 -91 
Q 4153 -91 3862 251 
Q 3572 594 3572 1178 
Q 3572 1766 3864 2108 
Q 4156 2450 4653 2450 
z
M 1428 4353 
Q 1159 4353 1004 4120 
Q 850 3888 850 3481 
Q 850 3069 1003 2837 
Q 1156 2606 1428 2606 
Q 1700 2606 1854 2837 
Q 2009 3069 2009 3481 
Q 2009 3884 1853 4118 
Q 1697 4353 1428 4353 
z
M 4250 4750 
L 4750 4750 
L 1831 -91 
L 1331 -91 
L 4250 4750 
z
M 1428 4750 
Q 1922 4750 2215 4408 
Q 2509 4066 2509 3481 
Q 2509 2891 2217 2550 
Q 1925 2209 1428 2209 
Q 931 2209 642 2551 
Q 353 2894 353 3481 
Q 353 4063 643 4406 
Q 934 4750 1428 4750 
z
" transform="scale(0.015625)"/>
       </defs>
       <use xlink:href="#DejaVuSans-32"/>
       <use xlink:href="#DejaVuSans-30" x="63.623047"/>
       <use xlink:href="#DejaVuSans-25" x="127.246094"/>
      </g>
     </g>
    </g>
    <g id="xtick_2">
     <g id="line2d_2">
      <g>
       <use xlink:href="#m3d4556c8eb" x="238.836364" y="512.64" style="stroke: #000000; stroke-width: 2.2"/>
      </g>
     </g>
     <g id="text_2">
      <!-- 35% -->
      <g transform="translate(215.498473 540.096719) scale(0.21 -0.21)">
       <defs>
        <path id="DejaVuSans-33" d="M 2597 2516 
Q 3050 2419 3304 2112 
Q 3559 1806 3559 1356 
Q 3559 666 3084 287 
Q 2609 -91 1734 -91 
Q 1441 -91 1130 -33 
Q 819 25 488 141 
L 488 750 
Q 750 597 1062 519 
Q 1375 441 1716 441 
Q 2309 441 2620 675 
Q 2931 909 2931 1356 
Q 2931 1769 2642 2001 
Q 2353 2234 1838 2234 
L 1294 2234 
L 1294 2753 
L 1863 2753 
Q 2328 2753 2575 2939 
Q 2822 3125 2822 3475 
Q 2822 3834 2567 4026 
Q 2313 4219 1838 4219 
Q 1578 4219 1281 4162 
Q 984 4106 628 3988 
L 628 4550 
Q 988 4650 1302 4700 
Q 1616 4750 1894 4750 
Q 2613 4750 3031 4423 
Q 3450 4097 3450 3541 
Q 3450 3153 3228 2886 
Q 3006 2619 2597 2516 
z
" transform="scale(0.015625)"/>
        <path id="DejaVuSans-35" d="M 691 4666 
L 3169 4666 
L 3169 4134 
L 1269 4134 
L 1269 2991 
Q 1406 3038 1543 3061 
Q 1681 3084 1819 3084 
Q 2600 3084 3056 2656 
Q 3513 2228 3513 1497 
Q 3513 744 3044 326 
Q 2575 -91 1722 -91 
Q 1428 -91 1123 -41 
Q 819 9 494 109 
L 494 744 
Q 775 591 1075 516 
Q 1375 441 1709 441 
Q 2250 441 2565 725 
Q 2881 1009 2881 1497 
Q 2881 1984 2565 2268 
Q 2250 2553 1709 2553 
Q 1456 2553 1204 2497 
Q 953 2441 691 2322 
L 691 4666 
z
" transform="scale(0.015625)"/>
       </defs>
       <use xlink:href="#DejaVuSans-33"/>
       <use xlink:href="#DejaVuSans-35" x="63.623047"/>
       <use xlink:href="#DejaVuSans-25" x="127.246094"/>
      </g>
     </g>
    </g>
    <g id="xtick_3">
     <g id="line2d_3">
      <g>
       <use xlink:href="#m3d4556c8eb" x="351.563636" y="512.64" style="stroke: #000000; stroke-width: 2.2"/>
      </g>
     </g>
     <g id="text_3">
      <!-- 60% -->
      <g transform="translate(328.225746 540.096719) scale(0.21 -0.21)">
       <defs>
        <path id="DejaVuSans-36" d="M 2113 2584 
Q 1688 2584 1439 2293 
Q 1191 2003 1191 1497 
Q 1191 994 1439 701 
Q 1688 409 2113 409 
Q 2538 409 2786 701 
Q 3034 994 3034 1497 
Q 3034 2003 2786 2293 
Q 2538 2584 2113 2584 
z
M 3366 4563 
L 3366 3988 
Q 3128 4100 2886 4159 
Q 2644 4219 2406 4219 
Q 1781 4219 1451 3797 
Q 1122 3375 1075 2522 
Q 1259 2794 1537 2939 
Q 1816 3084 2150 3084 
Q 2853 3084 3261 2657 
Q 3669 2231 3669 1497 
Q 3669 778 3244 343 
Q 2819 -91 2113 -91 
Q 1303 -91 875 529 
Q 447 1150 447 2328 
Q 447 3434 972 4092 
Q 1497 4750 2381 4750 
Q 2619 4750 2861 4703 
Q 3103 4656 3366 4563 
z
" transform="scale(0.015625)"/>
       </defs>
       <use xlink:href="#DejaVuSans-36"/>
       <use xlink:href="#DejaVuSans-30" x="63.623047"/>
       <use xlink:href="#DejaVuSans-25" x="127.246094"/>
      </g>
     </g>
    </g>
    <g id="xtick_4">
     <g id="line2d_4">
      <g>
       <use xlink:href="#m3d4556c8eb" x="464.290909" y="512.64" style="stroke: #000000; stroke-width: 2.2"/>
      </g>
     </g>
     <g id="text_4">
      <!-- 85% -->
      <g transform="translate(440.953018 540.096719) scale(0.21 -0.21)">
       <defs>
        <path id="DejaVuSans-38" d="M 2034 2216 
Q 1584 2216 1326 1975 
Q 1069 1734 1069 1313 
Q 1069 891 1326 650 
Q 1584 409 2034 409 
Q 2484 409 2743 651 
Q 3003 894 3003 1313 
Q 3003 1734 2745 1975 
Q 2488 2216 2034 2216 
z
M 1403 2484 
Q 997 2584 770 2862 
Q 544 3141 544 3541 
Q 544 4100 942 4425 
Q 1341 4750 2034 4750 
Q 2731 4750 3128 4425 
Q 3525 4100 3525 3541 
Q 3525 3141 3298 2862 
Q 3072 2584 2669 2484 
Q 3125 2378 3379 2068 
Q 3634 1759 3634 1313 
Q 3634 634 3220 271 
Q 2806 -91 2034 -91 
Q 1263 -91 848 271 
Q 434 634 434 1313 
Q 434 1759 690 2068 
Q 947 2378 1403 2484 
z
M 1172 3481 
Q 1172 3119 1398 2916 
Q 1625 2713 2034 2713 
Q 2441 2713 2670 2916 
Q 2900 3119 2900 3481 
Q 2900 3844 2670 4047 
Q 2441 4250 2034 4250 
Q 1625 4250 1398 4047 
Q 1172 3844 1172 3481 
z
" transform="scale(0.015625)"/>
       </defs>
       <use xlink:href="#DejaVuSans-38"/>
       <use xlink:href="#DejaVuSans-35" x="63.623047"/>
       <use xlink:href="#DejaVuSans-25" x="127.246094"/>
      </g>
     </g>
    </g>
    <g id="text_5">
     <!-- ON-switching -->
     <g transform="translate(212.266406 567.460156) scale(0.25 -0.25)">
      <defs>
       <path id="DejaVuSans-4f" d="M 2522 4238 
Q 1834 4238 1429 3725 
Q 1025 3213 1025 2328 
Q 1025 1447 1429 934 
Q 1834 422 2522 422 
Q 3209 422 3611 934 
Q 4013 1447 4013 2328 
Q 4013 3213 3611 3725 
Q 3209 4238 2522 4238 
z
M 2522 4750 
Q 3503 4750 4090 4092 
Q 4678 3434 4678 2328 
Q 4678 1225 4090 567 
Q 3503 -91 2522 -91 
Q 1538 -91 948 565 
Q 359 1222 359 2328 
Q 359 3434 948 4092 
Q 1538 4750 2522 4750 
z
" transform="scale(0.015625)"/>
       <path id="DejaVuSans-4e" d="M 628 4666 
L 1478 4666 
L 3547 763 
L 3547 4666 
L 4159 4666 
L 4159 0 
L 3309 0 
L 1241 3903 
L 1241 0 
L 628 0 
L 628 4666 
z
" transform="scale(0.015625)"/>
       <path id="DejaVuSans-2d" d="M 313 2009 
L 1997 2009 
L 1997 1497 
L 313 1497 
L 313 2009 
z
" transform="scale(0.015625)"/>
       <path id="DejaVuSans-73" d="M 2834 3397 
L 2834 2853 
Q 2591 2978 2328 3040 
Q 2066 3103 1784 3103 
Q 1356 3103 1142 2972 
Q 928 2841 928 2578 
Q 928 2378 1081 2264 
Q 1234 2150 1697 2047 
L 1894 2003 
Q 2506 1872 2764 1633 
Q 3022 1394 3022 966 
Q 3022 478 2636 193 
Q 2250 -91 1575 -91 
Q 1294 -91 989 -36 
Q 684 19 347 128 
L 347 722 
Q 666 556 975 473 
Q 1284 391 1588 391 
Q 1994 391 2212 530 
Q 2431 669 2431 922 
Q 2431 1156 2273 1281 
Q 2116 1406 1581 1522 
L 1381 1569 
Q 847 1681 609 1914 
Q 372 2147 372 2553 
Q 372 3047 722 3315 
Q 1072 3584 1716 3584 
Q 2034 3584 2315 3537 
Q 2597 3491 2834 3397 
z
" transform="scale(0.015625)"/>
       <path id="DejaVuSans-77" d="M 269 3500 
L 844 3500 
L 1563 769 
L 2278 3500 
L 2956 3500 
L 3675 769 
L 4391 3500 
L 4966 3500 
L 4050 0 
L 3372 0 
L 2619 2869 
L 1863 0 
L 1184 0 
L 269 3500 
z
" transform="scale(0.015625)"/>
       <path id="DejaVuSans-69" d="M 603 3500 
L 1178 3500 
L 1178 0 
L 603 0 
L 603 3500 
z
M 603 4863 
L 1178 4863 
L 1178 4134 
L 603 4134 
L 603 4863 
z
" transform="scale(0.015625)"/>
       <path id="DejaVuSans-74" d="M 1172 4494 
L 1172 3500 
L 2356 3500 
L 2356 3053 
L 1172 3053 
L 1172 1153 
Q 1172 725 1289 603 
Q 1406 481 1766 481 
L 2356 481 
L 2356 0 
L 1766 0 
Q 1100 0 847 248 
Q 594 497 594 1153 
L 594 3053 
L 172 3053 
L 172 3500 
L 594 3500 
L 594 4494 
L 1172 4494 
z
" transform="scale(0.015625)"/>
       <path id="DejaVuSans-63" d="M 3122 3366 
L 3122 2828 
Q 2878 2963 2633 3030 
Q 2388 3097 2138 3097 
Q 1578 3097 1268 2742 
Q 959 2388 959 1747 
Q 959 1106 1268 751 
Q 1578 397 2138 397 
Q 2388 397 2633 464 
Q 2878 531 3122 666 
L 3122 134 
Q 2881 22 2623 -34 
Q 2366 -91 2075 -91 
Q 1284 -91 818 406 
Q 353 903 353 1747 
Q 353 2603 823 3093 
Q 1294 3584 2113 3584 
Q 2378 3584 2631 3529 
Q 2884 3475 3122 3366 
z
" transform="scale(0.015625)"/>
       <path id="DejaVuSans-68" d="M 3513 2113 
L 3513 0 
L 2938 0 
L 2938 2094 
Q 2938 2591 2744 2837 
Q 2550 3084 2163 3084 
Q 1697 3084 1428 2787 
Q 1159 2491 1159 1978 
L 1159 0 
L 581 0 
L 581 4863 
L 1159 4863 
L 1159 2956 
Q 1366 3272 1645 3428 
Q 1925 3584 2291 3584 
Q 2894 3584 3203 3211 
Q 3513 2838 3513 2113 
z
" transform="scale(0.015625)"/>
       <path id="DejaVuSans-6e" d="M 3513 2113 
L 3513 0 
L 2938 0 
L 2938 2094 
Q 2938 2591 2744 2837 
Q 2550 3084 2163 3084 
Q 1697 3084 1428 2787 
Q 1159 2491 1159 1978 
L 1159 0 
L 581 0 
L 581 3500 
L 1159 3500 
L 1159 2956 
Q 1366 3272 1645 3428 
Q 1925 3584 2291 3584 
Q 2894 3584 3203 3211 
Q 3513 2838 3513 2113 
z
" transform="scale(0.015625)"/>
       <path id="DejaVuSans-67" d="M 2906 1791 
Q 2906 2416 2648 2759 
Q 2391 3103 1925 3103 
Q 1463 3103 1205 2759 
Q 947 2416 947 1791 
Q 947 1169 1205 825 
Q 1463 481 1925 481 
Q 2391 481 2648 825 
Q 2906 1169 2906 1791 
z
M 3481 434 
Q 3481 -459 3084 -895 
Q 2688 -1331 1869 -1331 
Q 1566 -1331 1297 -1286 
Q 1028 -1241 775 -1147 
L 775 -588 
Q 1028 -725 1275 -790 
Q 1522 -856 1778 -856 
Q 2344 -856 2625 -561 
Q 2906 -266 2906 331 
L 2906 616 
Q 2728 306 2450 153 
Q 2172 0 1784 0 
Q 1141 0 747 490 
Q 353 981 353 1791 
Q 353 2603 747 3093 
Q 1141 3584 1784 3584 
Q 2172 3584 2450 3431 
Q 2728 3278 2906 2969 
L 2906 3500 
L 3481 3500 
L 3481 434 
z
" transform="scale(0.015625)"/>
      </defs>
      <use xlink:href="#DejaVuSans-4f"/>
      <use xlink:href="#DejaVuSans-4e" x="78.710938"/>
      <use xlink:href="#DejaVuSans-2d" x="153.515625"/>
      <use xlink:href="#DejaVuSans-73" x="189.599609"/>
      <use xlink:href="#DejaVuSans-77" x="241.699219"/>
      <use xlink:href="#DejaVuSans-69" x="323.486328"/>
      <use xlink:href="#DejaVuSans-74" x="351.269531"/>
      <use xlink:href="#DejaVuSans-63" x="390.478516"/>
      <use xlink:href="#DejaVuSans-68" x="445.458984"/>
      <use xlink:href="#DejaVuSans-69" x="508.837891"/>
      <use xlink:href="#DejaVuSans-6e" x="536.621094"/>
      <use xlink:href="#DejaVuSans-67" x="600"/>
     </g>
    </g>
   </g>
   <g id="matplotlib.axis_2">
    <g id="ytick_1">
     <g id="line2d_5">
      <defs>
       <path id="m1a2fbbfda0" d="M 0 0 
L -8 0 
" style="stroke: #000000; stroke-width: 2.2"/>
      </defs>
      <g>
       <use xlink:href="#m1a2fbbfda0" x="72" y="494.8992" style="stroke: #000000; stroke-width: 2.2"/>
      </g>
     </g>
     <g id="text_6">
      <!-- 2 -->
      <g transform="translate(47.13875 502.877559) scale(0.21 -0.21)">
       <use xlink:href="#DejaVuSans-32"/>
      </g>
     </g>
    </g>
    <g id="ytick_2">
     <g id="line2d_6">
      <g>
       <use xlink:href="#m1a2fbbfda0" x="72" y="423.936" style="stroke: #000000; stroke-width: 2.2"/>
      </g>
     </g>
     <g id="text_7">
      <!-- 4 -->
      <g transform="translate(47.13875 431.914359) scale(0.21 -0.21)">
       <defs>
        <path id="DejaVuSans-34" d="M 2419 4116 
L 825 1625 
L 2419 1625 
L 2419 4116 
z
M 2253 4666 
L 3047 4666 
L 3047 1625 
L 3713 1625 
L 3713 1100 
L 3047 1100 
L 3047 0 
L 2419 0 
L 2419 1100 
L 313 1100 
L 313 1709 
L 2253 4666 
z
" transform="scale(0.015625)"/>
       </defs>
       <use xlink:href="#DejaVuSans-34"/>
      </g>
     </g>
    </g>
    <g id="ytick_3">
     <g id="line2d_7">
      <g>
       <use xlink:href="#m1a2fbbfda0" x="72" y="352.9728" style="stroke: #000000; stroke-width: 2.2"/>
      </g>
     </g>
     <g id="text_8">
      <!-- 6 -->
      <g transform="translate(47.13875 360.951159) scale(0.21 -0.21)">
       <use xlink:href="#DejaVuSans-36"/>
      </g>
     </g>
    </g>
    <g id="ytick_4">
     <g id="line2d_8">
      <g>
       <use xlink:href="#m1a2fbbfda0" x="72" y="282.0096" style="stroke: #000000; stroke-width: 2.2"/>
      </g>
     </g>
     <g id="text_9">
      <!-- 8 -->
      <g transform="translate(47.13875 289.987959) scale(0.21 -0.21)">
       <use xlink:href="#DejaVuSans-38"/>
      </g>
     </g>
    </g>
    <g id="ytick_5">
     <g id="line2d_9">
      <g>
       <use xlink:href="#m1a2fbbfda0" x="72" y="211.0464" style="stroke: #000000; stroke-width: 2.2"/>
      </g>
     </g>
     <g id="text_10">
      <!-- 10 -->
      <g transform="translate(33.7775 219.024759) scale(0.21 -0.21)">
       <defs>
        <path id="DejaVuSans-31" d="M 794 531 
L 1825 531 
L 1825 4091 
L 703 3866 
L 703 4441 
L 1819 4666 
L 2450 4666 
L 2450 531 
L 3481 531 
L 3481 0 
L 794 0 
L 794 531 
z
" transform="scale(0.015625)"/>
       </defs>
       <use xlink:href="#DejaVuSans-31"/>
       <use xlink:href="#DejaVuSans-30" x="63.623047"/>
      </g>
     </g>
    </g>
    <g id="ytick_6">
     <g id="line2d_10">
      <g>
       <use xlink:href="#m1a2fbbfda0" x="72" y="140.0832" style="stroke: #000000; stroke-width: 2.2"/>
      </g>
     </g>
     <g id="text_11">
      <!-- 12 -->
      <g transform="translate(33.7775 148.061559) scale(0.21 -0.21)">
       <use xlink:href="#DejaVuSans-31"/>
       <use xlink:href="#DejaVuSans-32" x="63.623047"/>
      </g>
     </g>
    </g>
    <g id="ytick_7">
     <g id="line2d_11">
      <g>
       <use xlink:href="#m1a2fbbfda0" x="72" y="69.12" style="stroke: #000000; stroke-width: 2.2"/>
      </g>
     </g>
     <g id="text_12">
      <!-- 14 -->
      <g transform="translate(33.7775 77.098359) scale(0.21 -0.21)">
       <use xlink:href="#DejaVuSans-31"/>
       <use xlink:href="#DejaVuSans-34" x="63.623047"/>
      </g>
     </g>
    </g>
    <g id="text_13">
     <!-- Measured SNR -->
     <g transform="translate(24.578281 381.88) rotate(-90) scale(0.25 -0.25)">
      <defs>
       <path id="DejaVuSans-4d" d="M 628 4666 
L 1569 4666 
L 2759 1491 
L 3956 4666 
L 4897 4666 
L 4897 0 
L 4281 0 
L 4281 4097 
L 3078 897 
L 2444 897 
L 1241 4097 
L 1241 0 
L 628 0 
L 628 4666 
z
" transform="scale(0.015625)"/>
       <path id="DejaVuSans-65" d="M 3597 1894 
L 3597 1613 
L 953 1613 
Q 991 1019 1311 708 
Q 1631 397 2203 397 
Q 2534 397 2845 478 
Q 3156 559 3463 722 
L 3463 178 
Q 3153 47 2828 -22 
Q 2503 -91 2169 -91 
Q 1331 -91 842 396 
Q 353 884 353 1716 
Q 353 2575 817 3079 
Q 1281 3584 2069 3584 
Q 2775 3584 3186 3129 
Q 3597 2675 3597 1894 
z
M 3022 2063 
Q 3016 2534 2758 2815 
Q 2500 3097 2075 3097 
Q 1594 3097 1305 2825 
Q 1016 2553 972 2059 
L 3022 2063 
z
" transform="scale(0.015625)"/>
       <path id="DejaVuSans-61" d="M 2194 1759 
Q 1497 1759 1228 1600 
Q 959 1441 959 1056 
Q 959 750 1161 570 
Q 1363 391 1709 391 
Q 2188 391 2477 730 
Q 2766 1069 2766 1631 
L 2766 1759 
L 2194 1759 
z
M 3341 1997 
L 3341 0 
L 2766 0 
L 2766 531 
Q 2569 213 2275 61 
Q 1981 -91 1556 -91 
Q 1019 -91 701 211 
Q 384 513 384 1019 
Q 384 1609 779 1909 
Q 1175 2209 1959 2209 
L 2766 2209 
L 2766 2266 
Q 2766 2663 2505 2880 
Q 2244 3097 1772 3097 
Q 1472 3097 1187 3025 
Q 903 2953 641 2809 
L 641 3341 
Q 956 3463 1253 3523 
Q 1550 3584 1831 3584 
Q 2591 3584 2966 3190 
Q 3341 2797 3341 1997 
z
" transform="scale(0.015625)"/>
       <path id="DejaVuSans-75" d="M 544 1381 
L 544 3500 
L 1119 3500 
L 1119 1403 
Q 1119 906 1312 657 
Q 1506 409 1894 409 
Q 2359 409 2629 706 
Q 2900 1003 2900 1516 
L 2900 3500 
L 3475 3500 
L 3475 0 
L 2900 0 
L 2900 538 
Q 2691 219 2414 64 
Q 2138 -91 1772 -91 
Q 1169 -91 856 284 
Q 544 659 544 1381 
z
M 1991 3584 
L 1991 3584 
z
" transform="scale(0.015625)"/>
       <path id="DejaVuSans-72" d="M 2631 2963 
Q 2534 3019 2420 3045 
Q 2306 3072 2169 3072 
Q 1681 3072 1420 2755 
Q 1159 2438 1159 1844 
L 1159 0 
L 581 0 
L 581 3500 
L 1159 3500 
L 1159 2956 
Q 1341 3275 1631 3429 
Q 1922 3584 2338 3584 
Q 2397 3584 2469 3576 
Q 2541 3569 2628 3553 
L 2631 2963 
z
" transform="scale(0.015625)"/>
       <path id="DejaVuSans-64" d="M 2906 2969 
L 2906 4863 
L 3481 4863 
L 3481 0 
L 2906 0 
L 2906 525 
Q 2725 213 2448 61 
Q 2172 -91 1784 -91 
Q 1150 -91 751 415 
Q 353 922 353 1747 
Q 353 2572 751 3078 
Q 1150 3584 1784 3584 
Q 2172 3584 2448 3432 
Q 2725 3281 2906 2969 
z
M 947 1747 
Q 947 1113 1208 752 
Q 1469 391 1925 391 
Q 2381 391 2643 752 
Q 2906 1113 2906 1747 
Q 2906 2381 2643 2742 
Q 2381 3103 1925 3103 
Q 1469 3103 1208 2742 
Q 947 2381 947 1747 
z
" transform="scale(0.015625)"/>
       <path id="DejaVuSans-20" transform="scale(0.015625)"/>
       <path id="DejaVuSans-53" d="M 3425 4513 
L 3425 3897 
Q 3066 4069 2747 4153 
Q 2428 4238 2131 4238 
Q 1616 4238 1336 4038 
Q 1056 3838 1056 3469 
Q 1056 3159 1242 3001 
Q 1428 2844 1947 2747 
L 2328 2669 
Q 3034 2534 3370 2195 
Q 3706 1856 3706 1288 
Q 3706 609 3251 259 
Q 2797 -91 1919 -91 
Q 1588 -91 1214 -16 
Q 841 59 441 206 
L 441 856 
Q 825 641 1194 531 
Q 1563 422 1919 422 
Q 2459 422 2753 634 
Q 3047 847 3047 1241 
Q 3047 1584 2836 1778 
Q 2625 1972 2144 2069 
L 1759 2144 
Q 1053 2284 737 2584 
Q 422 2884 422 3419 
Q 422 4038 858 4394 
Q 1294 4750 2059 4750 
Q 2388 4750 2728 4690 
Q 3069 4631 3425 4513 
z
" transform="scale(0.015625)"/>
       <path id="DejaVuSans-52" d="M 2841 2188 
Q 3044 2119 3236 1894 
Q 3428 1669 3622 1275 
L 4263 0 
L 3584 0 
L 2988 1197 
Q 2756 1666 2539 1819 
Q 2322 1972 1947 1972 
L 1259 1972 
L 1259 0 
L 628 0 
L 628 4666 
L 2053 4666 
Q 2853 4666 3247 4331 
Q 3641 3997 3641 3322 
Q 3641 2881 3436 2590 
Q 3231 2300 2841 2188 
z
M 1259 4147 
L 1259 2491 
L 2053 2491 
Q 2509 2491 2742 2702 
Q 2975 2913 2975 3322 
Q 2975 3731 2742 3939 
Q 2509 4147 2053 4147 
L 1259 4147 
z
" transform="scale(0.015625)"/>
      </defs>
      <use xlink:href="#DejaVuSans-4d"/>
      <use xlink:href="#DejaVuSans-65" x="86.279297"/>
      <use xlink:href="#DejaVuSans-61" x="147.802734"/>
      <use xlink:href="#DejaVuSans-73" x="209.082031"/>
      <use xlink:href="#DejaVuSans-75" x="261.181641"/>
      <use xlink:href="#DejaVuSans-72" x="324.560547"/>
      <use xlink:href="#DejaVuSans-65" x="363.423828"/>
      <use xlink:href="#DejaVuSans-64" x="424.947266"/>
      <use xlink:href="#DejaVuSans-20" x="488.423828"/>
      <use xlink:href="#DejaVuSans-53" x="520.210938"/>
      <use xlink:href="#DejaVuSans-4e" x="583.6875"/>
      <use xlink:href="#DejaVuSans-52" x="658.492188"/>
     </g>
    </g>
   </g>
   <g id="patch_3">
    <path d="M 92.290909 441.388913 
L 159.927273 441.388913 
L 159.927273 365.385915 
L 92.290909 365.385915 
L 92.290909 441.388913 
L 92.290909 441.388913 
z
" clip-path="url(#pa78e107981)" style="fill: none; stroke: #e6a5f1; stroke-width: 2; stroke-linejoin: miter"/>
   </g>
   <g id="line2d_12">
    <path d="M 126.109091 441.388913 
L 126.109091 466.74244 
" clip-path="url(#pa78e107981)" style="fill: none; stroke-dasharray: 4.2,4.2; stroke-dashoffset: 0; stroke: #e6a5f1; stroke-width: 1.4"/>
   </g>
   <g id="line2d_13">
    <path d="M 126.109091 365.385915 
L 126.109091 307.781889 
" clip-path="url(#pa78e107981)" style="fill: none; stroke-dasharray: 4.2,4.2; stroke-dashoffset: 0; stroke: #e6a5f1; stroke-width: 1.4"/>
   </g>
   <g id="line2d_14">
    <path d="M 109.2 466.74244 
L 143.018182 466.74244 
" clip-path="url(#pa78e107981)" style="fill: none; stroke: #e6a5f1; stroke-width: 2; stroke-linecap: square"/>
   </g>
   <g id="line2d_15">
    <path d="M 109.2 307.781889 
L 143.018182 307.781889 
" clip-path="url(#pa78e107981)" style="fill: none; stroke: #e6a5f1; stroke-width: 2; stroke-linecap: square"/>
   </g>
   <g id="patch_4">
    <path d="M 205.018182 406.436829 
L 272.654545 406.436829 
L 272.654545 357.482319 
L 205.018182 357.482319 
L 205.018182 406.436829 
L 205.018182 406.436829 
z
" clip-path="url(#pa78e107981)" style="fill: none; stroke: #df79f1; stroke-width: 2; stroke-linejoin: miter"/>
   </g>
   <g id="line2d_16">
    <path d="M 238.836364 406.436829 
L 238.836364 452.276844 
" clip-path="url(#pa78e107981)" style="fill: none; stroke-dasharray: 4.2,4.2; stroke-dashoffset: 0; stroke: #df79f1; stroke-width: 1.4"/>
   </g>
   <g id="line2d_17">
    <path d="M 238.836364 357.482319 
L 238.836364 299.122337 
" clip-path="url(#pa78e107981)" style="fill: none; stroke-dasharray: 4.2,4.2; stroke-dashoffset: 0; stroke: #df79f1; stroke-width: 1.4"/>
   </g>
   <g id="line2d_18">
    <path d="M 221.927273 452.276844 
L 255.745455 452.276844 
" clip-path="url(#pa78e107981)" style="fill: none; stroke: #df79f1; stroke-width: 2; stroke-linecap: square"/>
   </g>
   <g id="line2d_19">
    <path d="M 221.927273 299.122337 
L 255.745455 299.122337 
" clip-path="url(#pa78e107981)" style="fill: none; stroke: #df79f1; stroke-width: 2; stroke-linecap: square"/>
   </g>
   <g id="patch_5">
    <path d="M 317.745455 390.171261 
L 385.381818 390.171261 
L 385.381818 309.831728 
L 317.745455 309.831728 
L 317.745455 390.171261 
L 317.745455 390.171261 
z
" clip-path="url(#pa78e107981)" style="fill: none; stroke: #e026ec; stroke-width: 2; stroke-linejoin: miter"/>
   </g>
   <g id="line2d_20">
    <path d="M 351.563636 390.171261 
L 351.563636 431.639944 
" clip-path="url(#pa78e107981)" style="fill: none; stroke-dasharray: 4.2,4.2; stroke-dashoffset: 0; stroke: #e026ec; stroke-width: 1.4"/>
   </g>
   <g id="line2d_21">
    <path d="M 351.563636 309.831728 
L 351.563636 239.985969 
" clip-path="url(#pa78e107981)" style="fill: none; stroke-dasharray: 4.2,4.2; stroke-dashoffset: 0; stroke: #e026ec; stroke-width: 1.4"/>
   </g>
   <g id="line2d_22">
    <path d="M 334.654545 431.639944 
L 368.472727 431.639944 
" clip-path="url(#pa78e107981)" style="fill: none; stroke: #e026ec; stroke-width: 2; stroke-linecap: square"/>
   </g>
   <g id="line2d_23">
    <path d="M 334.654545 239.985969 
L 368.472727 239.985969 
" clip-path="url(#pa78e107981)" style="fill: none; stroke: #e026ec; stroke-width: 2; stroke-linecap: square"/>
   </g>
   <g id="patch_6">
    <path d="M 430.472727 352.530693 
L 498.109091 352.530693 
L 498.109091 277.83757 
L 430.472727 277.83757 
L 430.472727 352.530693 
L 430.472727 352.530693 
z
" clip-path="url(#pa78e107981)" style="fill: none; stroke: #ad10b8; stroke-width: 2; stroke-linejoin: miter"/>
   </g>
   <g id="line2d_24">
    <path d="M 464.290909 352.530693 
L 464.290909 416.183091 
" clip-path="url(#pa78e107981)" style="fill: none; stroke-dasharray: 4.2,4.2; stroke-dashoffset: 0; stroke: #ad10b8; stroke-width: 1.4"/>
   </g>
   <g id="line2d_25">
    <path d="M 464.290909 277.83757 
L 464.290909 191.062439 
" clip-path="url(#pa78e107981)" style="fill: none; stroke-dasharray: 4.2,4.2; stroke-dashoffset: 0; stroke: #ad10b8; stroke-width: 1.4"/>
   </g>
   <g id="line2d_26">
    <path d="M 447.381818 416.183091 
L 481.2 416.183091 
" clip-path="url(#pa78e107981)" style="fill: none; stroke: #ad10b8; stroke-width: 2; stroke-linecap: square"/>
   </g>
   <g id="line2d_27">
    <path d="M 447.381818 191.062439 
L 481.2 191.062439 
" clip-path="url(#pa78e107981)" style="fill: none; stroke: #ad10b8; stroke-width: 2; stroke-linecap: square"/>
   </g>
   <g id="line2d_28">
    <path d="M 92.290909 404.317052 
L 159.927273 404.317052 
" clip-path="url(#pa78e107981)" style="fill: none; stroke: #000000; stroke-opacity: 0; stroke-linecap: square"/>
   </g>
   <g id="line2d_29">
    <path d="M 205.018182 381.859724 
L 272.654545 381.859724 
" clip-path="url(#pa78e107981)" style="fill: none; stroke: #000000; stroke-opacity: 0; stroke-linecap: square"/>
   </g>
   <g id="line2d_30">
    <path d="M 317.745455 346.271095 
L 385.381818 346.271095 
" clip-path="url(#pa78e107981)" style="fill: none; stroke: #000000; stroke-opacity: 0; stroke-linecap: square"/>
   </g>
   <g id="line2d_31">
    <path d="M 430.472727 312.661023 
L 498.109091 312.661023 
" clip-path="url(#pa78e107981)" style="fill: none; stroke: #000000; stroke-opacity: 0; stroke-linecap: square"/>
   </g>
   <g id="patch_7">
    <path d="M 72 512.64 
L 72 69.12 
" style="fill: none; stroke: #000000; stroke-width: 2.5; stroke-linejoin: miter; stroke-linecap: square"/>
   </g>
   <g id="patch_8">
    <path d="M 72 512.64 
L 518.4 512.64 
" style="fill: none; stroke: #000000; stroke-width: 2.5; stroke-linejoin: miter; stroke-linecap: square"/>
   </g>
   <g id="line2d_32">
    <path d="M 92.290909 401.66815 
L 159.927273 401.66815 
" clip-path="url(#pa78e107981)" style="fill: none; stroke: #e6a5f1; stroke-width: 2; stroke-linecap: square"/>
   </g>
   <g id="line2d_33">
    <path d="M 205.018182 383.205818 
L 272.654545 383.205818 
" clip-path="url(#pa78e107981)" style="fill: none; stroke: #df79f1; stroke-width: 2; stroke-linecap: square"/>
   </g>
   <g id="line2d_34">
    <path d="M 317.745455 347.083413 
L 385.381818 347.083413 
" clip-path="url(#pa78e107981)" style="fill: none; stroke: #e026ec; stroke-width: 2; stroke-linecap: square"/>
   </g>
   <g id="line2d_35">
    <path d="M 430.472727 308.368345 
L 498.109091 308.368345 
" clip-path="url(#pa78e107981)" style="fill: none; stroke: #ad10b8; stroke-width: 2; stroke-linecap: square"/>
   </g>
   <g id="text_14">
    <!-- 4.6 ± 1.2 -->
    <g style="fill: #e6a5f1" transform="translate(80.41581 81.781139) scale(0.18 -0.18)">
     <defs>
      <path id="DejaVuSans-Bold-34" d="M 2356 3675 
L 1038 1722 
L 2356 1722 
L 2356 3675 
z
M 2156 4666 
L 3494 4666 
L 3494 1722 
L 4159 1722 
L 4159 850 
L 3494 850 
L 3494 0 
L 2356 0 
L 2356 850 
L 288 850 
L 288 1881 
L 2156 4666 
z
" transform="scale(0.015625)"/>
      <path id="DejaVuSans-Bold-2e" d="M 653 1209 
L 1778 1209 
L 1778 0 
L 653 0 
L 653 1209 
z
" transform="scale(0.015625)"/>
      <path id="DejaVuSans-Bold-36" d="M 2316 2303 
Q 2000 2303 1842 2098 
Q 1684 1894 1684 1484 
Q 1684 1075 1842 870 
Q 2000 666 2316 666 
Q 2634 666 2792 870 
Q 2950 1075 2950 1484 
Q 2950 1894 2792 2098 
Q 2634 2303 2316 2303 
z
M 3803 4544 
L 3803 3681 
Q 3506 3822 3243 3889 
Q 2981 3956 2731 3956 
Q 2194 3956 1894 3657 
Q 1594 3359 1544 2772 
Q 1750 2925 1990 3001 
Q 2231 3078 2516 3078 
Q 3231 3078 3670 2659 
Q 4109 2241 4109 1563 
Q 4109 813 3618 361 
Q 3128 -91 2303 -91 
Q 1394 -91 895 523 
Q 397 1138 397 2266 
Q 397 3422 980 4083 
Q 1563 4744 2578 4744 
Q 2900 4744 3203 4694 
Q 3506 4644 3803 4544 
z
" transform="scale(0.015625)"/>
      <path id="DejaVuSans-Bold-20" transform="scale(0.015625)"/>
      <path id="DejaVuSans-Bold-b1" d="M 3053 4013 
L 3053 2906 
L 4684 2906 
L 4684 2169 
L 3053 2169 
L 3053 1063 
L 2309 1063 
L 2309 2169 
L 678 2169 
L 678 2906 
L 2309 2906 
L 2309 4013 
L 3053 4013 
z
M 678 744 
L 4684 744 
L 4684 0 
L 678 0 
L 678 744 
z
" transform="scale(0.015625)"/>
      <path id="DejaVuSans-Bold-31" d="M 750 831 
L 1813 831 
L 1813 3847 
L 722 3622 
L 722 4441 
L 1806 4666 
L 2950 4666 
L 2950 831 
L 4013 831 
L 4013 0 
L 750 0 
L 750 831 
z
" transform="scale(0.015625)"/>
      <path id="DejaVuSans-Bold-32" d="M 1844 884 
L 3897 884 
L 3897 0 
L 506 0 
L 506 884 
L 2209 2388 
Q 2438 2594 2547 2791 
Q 2656 2988 2656 3200 
Q 2656 3528 2436 3728 
Q 2216 3928 1850 3928 
Q 1569 3928 1234 3808 
Q 900 3688 519 3450 
L 519 4475 
Q 925 4609 1322 4679 
Q 1719 4750 2100 4750 
Q 2938 4750 3402 4381 
Q 3866 4013 3866 3353 
Q 3866 2972 3669 2642 
Q 3472 2313 2841 1759 
L 1844 884 
z
" transform="scale(0.015625)"/>
     </defs>
     <use xlink:href="#DejaVuSans-Bold-34"/>
     <use xlink:href="#DejaVuSans-Bold-2e" x="69.580078"/>
     <use xlink:href="#DejaVuSans-Bold-36" x="107.568359"/>
     <use xlink:href="#DejaVuSans-Bold-20" x="177.148438"/>
     <use xlink:href="#DejaVuSans-Bold-b1" x="211.962891"/>
     <use xlink:href="#DejaVuSans-Bold-20" x="295.751953"/>
     <use xlink:href="#DejaVuSans-Bold-31" x="330.566406"/>
     <use xlink:href="#DejaVuSans-Bold-2e" x="400.146484"/>
     <use xlink:href="#DejaVuSans-Bold-32" x="438.134766"/>
    </g>
   </g>
   <g id="text_15">
    <!-- 5.1 ± 1.1 -->
    <g style="fill: #df79f1" transform="translate(193.143082 81.781139) scale(0.18 -0.18)">
     <defs>
      <path id="DejaVuSans-Bold-35" d="M 678 4666 
L 3669 4666 
L 3669 3781 
L 1638 3781 
L 1638 3059 
Q 1775 3097 1914 3117 
Q 2053 3138 2203 3138 
Q 3056 3138 3531 2711 
Q 4006 2284 4006 1522 
Q 4006 766 3489 337 
Q 2972 -91 2053 -91 
Q 1656 -91 1267 -14 
Q 878 63 494 219 
L 494 1166 
Q 875 947 1217 837 
Q 1559 728 1863 728 
Q 2300 728 2551 942 
Q 2803 1156 2803 1522 
Q 2803 1891 2551 2103 
Q 2300 2316 1863 2316 
Q 1603 2316 1309 2248 
Q 1016 2181 678 2041 
L 678 4666 
z
" transform="scale(0.015625)"/>
     </defs>
     <use xlink:href="#DejaVuSans-Bold-35"/>
     <use xlink:href="#DejaVuSans-Bold-2e" x="69.580078"/>
     <use xlink:href="#DejaVuSans-Bold-31" x="107.568359"/>
     <use xlink:href="#DejaVuSans-Bold-20" x="177.148438"/>
     <use xlink:href="#DejaVuSans-Bold-b1" x="211.962891"/>
     <use xlink:href="#DejaVuSans-Bold-20" x="295.751953"/>
     <use xlink:href="#DejaVuSans-Bold-31" x="330.566406"/>
     <use xlink:href="#DejaVuSans-Bold-2e" x="400.146484"/>
     <use xlink:href="#DejaVuSans-Bold-31" x="438.134766"/>
    </g>
   </g>
   <g id="text_16">
    <!-- 6.2 ± 1.4 -->
    <g style="fill: #e026ec" transform="translate(305.870355 81.781139) scale(0.18 -0.18)">
     <use xlink:href="#DejaVuSans-Bold-36"/>
     <use xlink:href="#DejaVuSans-Bold-2e" x="69.580078"/>
     <use xlink:href="#DejaVuSans-Bold-32" x="107.568359"/>
     <use xlink:href="#DejaVuSans-Bold-20" x="177.148438"/>
     <use xlink:href="#DejaVuSans-Bold-b1" x="211.962891"/>
     <use xlink:href="#DejaVuSans-Bold-20" x="295.751953"/>
     <use xlink:href="#DejaVuSans-Bold-31" x="330.566406"/>
     <use xlink:href="#DejaVuSans-Bold-2e" x="400.146484"/>
     <use xlink:href="#DejaVuSans-Bold-34" x="438.134766"/>
    </g>
   </g>
   <g id="text_17">
    <!-- 7.3 ± 2.0 -->
    <g style="fill: #ad10b8" transform="translate(418.597628 81.781139) scale(0.18 -0.18)">
     <defs>
      <path id="DejaVuSans-Bold-37" d="M 428 4666 
L 3944 4666 
L 3944 3988 
L 2125 0 
L 953 0 
L 2675 3781 
L 428 3781 
L 428 4666 
z
" transform="scale(0.015625)"/>
      <path id="DejaVuSans-Bold-33" d="M 2981 2516 
Q 3453 2394 3698 2092 
Q 3944 1791 3944 1325 
Q 3944 631 3412 270 
Q 2881 -91 1863 -91 
Q 1503 -91 1142 -33 
Q 781 25 428 141 
L 428 1069 
Q 766 900 1098 814 
Q 1431 728 1753 728 
Q 2231 728 2486 893 
Q 2741 1059 2741 1369 
Q 2741 1688 2480 1852 
Q 2219 2016 1709 2016 
L 1228 2016 
L 1228 2791 
L 1734 2791 
Q 2188 2791 2409 2933 
Q 2631 3075 2631 3366 
Q 2631 3634 2415 3781 
Q 2200 3928 1806 3928 
Q 1516 3928 1219 3862 
Q 922 3797 628 3669 
L 628 4550 
Q 984 4650 1334 4700 
Q 1684 4750 2022 4750 
Q 2931 4750 3382 4451 
Q 3834 4153 3834 3553 
Q 3834 3144 3618 2883 
Q 3403 2622 2981 2516 
z
" transform="scale(0.015625)"/>
      <path id="DejaVuSans-Bold-30" d="M 2944 2338 
Q 2944 3213 2780 3570 
Q 2616 3928 2228 3928 
Q 1841 3928 1675 3570 
Q 1509 3213 1509 2338 
Q 1509 1453 1675 1090 
Q 1841 728 2228 728 
Q 2613 728 2778 1090 
Q 2944 1453 2944 2338 
z
M 4147 2328 
Q 4147 1169 3647 539 
Q 3147 -91 2228 -91 
Q 1306 -91 806 539 
Q 306 1169 306 2328 
Q 306 3491 806 4120 
Q 1306 4750 2228 4750 
Q 3147 4750 3647 4120 
Q 4147 3491 4147 2328 
z
" transform="scale(0.015625)"/>
     </defs>
     <use xlink:href="#DejaVuSans-Bold-37"/>
     <use xlink:href="#DejaVuSans-Bold-2e" x="69.580078"/>
     <use xlink:href="#DejaVuSans-Bold-33" x="107.568359"/>
     <use xlink:href="#DejaVuSans-Bold-20" x="177.148438"/>
     <use xlink:href="#DejaVuSans-Bold-b1" x="211.962891"/>
     <use xlink:href="#DejaVuSans-Bold-20" x="295.751953"/>
     <use xlink:href="#DejaVuSans-Bold-32" x="330.566406"/>
     <use xlink:href="#DejaVuSans-Bold-2e" x="400.146484"/>
     <use xlink:href="#DejaVuSans-Bold-30" x="438.134766"/>
    </g>
   </g>
  </g>
 </g>
 <defs>
  <clipPath id="pa78e107981">
   <rect x="72" y="69.12" width="446.4" height="443.52"/>
  </clipPath>
 </defs>
</svg>
