<?xml version="1.0" encoding="utf-8" standalone="no"?>
<!DOCTYPE svg PUBLIC "-//W3C//DTD SVG 1.1//EN"
  "http://www.w3.org/Graphics/SVG/1.1/DTD/svg11.dtd">
<svg xmlns:xlink="http://www.w3.org/1999/xlink" width="133.0425pt" height="80.928pt" viewBox="0 0 133.0425 80.928" xmlns="http://www.w3.org/2000/svg" version="1.1">
 <metadata>
  <rdf:RDF xmlns:dc="http://purl.org/dc/elements/1.1/" xmlns:cc="http://creativecommons.org/ns#" xmlns:rdf="http://www.w3.org/1999/02/22-rdf-syntax-ns#">
   <cc:Work>
    <dc:type rdf:resource="http://purl.org/dc/dcmitype/StillImage"/>
    <dc:date>2026-04-20T15:49:01.537056</dc:date>
    <dc:format>image/svg+xml</dc:format>
    <dc:creator>
     <cc:Agent>
      <dc:title>Matplotlib v3.9.1, https://matplotlib.org/</dc:title>
     </cc:Agent>
    </dc:creator>
   </cc:Work>
  </rdf:RDF>
 </metadata>
 <defs>
  <style type="text/css">*{stroke-linejoin: round; stroke-linecap: butt}</style>
 </defs>
 <g id="figure_1">
  <g id="patch_1">
   <path d="M 0 80.928 
L 133.0425 80.928 
L 133.0425 0 
L 0 0 
z
" style="fill: #ffffff"/>
  </g>
  <g id="axes_1">
   <g id="patch_2">
    <path d="M 35.1225 73.728 
L 63.4725 73.728 
L 63.4725 7.2 
L 35.1225 7.2 
z
" style="fill: #ffffff"/>
   </g>
   <g id="matplotlib.axis_1"/>
   <g id="matplotlib.axis_2">
    <g id="ytick_1">
     <g id="line2d_1">
      <defs>
       <path id="m9f5a5c9781" d="M 0 0 
L -2.5 0 
" style="stroke: #000000; stroke-width: 0.7"/>
      </defs>
      <g>
       <use xlink:href="#m9f5a5c9781" x="35.1225" y="65.412" style="stroke: #000000; stroke-width: 0.7"/>
      </g>
     </g>
     <g id="text_1">
      <!-- 30 -->
      <g transform="translate(18.9425 68.451375) scale(0.08 -0.08)">
       <defs>
        <path id="DejaVuSans-33" d="M 2597 2516 
Q 3050 2419 3304 2112 
Q 3559 1806 3559 1356 
Q 3559 666 3084 287 
Q 2609 -91 1734 -91 
Q 1441 -91 1130 -33 
Q 819 25 488 141 
L 488 750 
Q 750 597 1062 519 
Q 1375 441 1716 441 
Q 2309 441 2620 675 
Q 2931 909 2931 1356 
Q 2931 1769 2642 2001 
Q 2353 2234 1838 2234 
L 1294 2234 
L 1294 2753 
L 1863 2753 
Q 2328 2753 2575 2939 
Q 2822 3125 2822 3475 
Q 2822 3834 2567 4026 
Q 2313 4219 1838 4219 
Q 1578 4219 1281 4162 
Q 984 4106 628 3988 
L 628 4550 
Q 988 4650 1302 4700 
Q 1616 4750 1894 4750 
Q 2613 4750 3031 4423 
Q 3450 4097 3450 3541 
Q 3450 3153 3228 2886 
Q 3006 2619 2597 2516 
z
" transform="scale(0.015625)"/>
        <path id="DejaVuSans-30" d="M 2034 4250 
Q 1547 4250 1301 3770 
Q 1056 3291 1056 2328 
Q 1056 1369 1301 889 
Q 1547 409 2034 409 
Q 2525 409 2770 889 
Q 3016 1369 3016 2328 
Q 3016 3291 2770 3770 
Q 2525 4250 2034 4250 
z
M 2034 4750 
Q 2819 4750 3233 4129 
Q 3647 3509 3647 2328 
Q 3647 1150 3233 529 
Q 2819 -91 2034 -91 
Q 1250 -91 836 529 
Q 422 1150 422 2328 
Q 422 3509 836 4129 
Q 1250 4750 2034 4750 
z
" transform="scale(0.015625)"/>
       </defs>
       <use xlink:href="#DejaVuSans-33"/>
       <use xlink:href="#DejaVuSans-30" x="63.623047"/>
      </g>
     </g>
    </g>
    <g id="ytick_2">
     <g id="line2d_2">
      <g>
       <use xlink:href="#m9f5a5c9781" x="35.1225" y="44.622" style="stroke: #000000; stroke-width: 0.7"/>
      </g>
     </g>
     <g id="text_2">
      <!-- 35 -->
      <g transform="translate(18.9425 47.661375) scale(0.08 -0.08)">
       <defs>
        <path id="DejaVuSans-35" d="M 691 4666 
L 3169 4666 
L 3169 4134 
L 1269 4134 
L 1269 2991 
Q 1406 3038 1543 3061 
Q 1681 3084 1819 3084 
Q 2600 3084 3056 2656 
Q 3513 2228 3513 1497 
Q 3513 744 3044 326 
Q 2575 -91 1722 -91 
Q 1428 -91 1123 -41 
Q 819 9 494 109 
L 494 744 
Q 775 591 1075 516 
Q 1375 441 1709 441 
Q 2250 441 2565 725 
Q 2881 1009 2881 1497 
Q 2881 1984 2565 2268 
Q 2250 2553 1709 2553 
Q 1456 2553 1204 2497 
Q 953 2441 691 2322 
L 691 4666 
z
" transform="scale(0.015625)"/>
       </defs>
       <use xlink:href="#DejaVuSans-33"/>
       <use xlink:href="#DejaVuSans-35" x="63.623047"/>
      </g>
     </g>
    </g>
    <g id="ytick_3">
     <g id="line2d_3">
      <g>
       <use xlink:href="#m9f5a5c9781" x="35.1225" y="23.832" style="stroke: #000000; stroke-width: 0.7"/>
      </g>
     </g>
     <g id="text_3">
      <!-- 40 -->
      <g transform="translate(18.9425 26.871375) scale(0.08 -0.08)">
       <defs>
        <path id="DejaVuSans-34" d="M 2419 4116 
L 825 1625 
L 2419 1625 
L 2419 4116 
z
M 2253 4666 
L 3047 4666 
L 3047 1625 
L 3713 1625 
L 3713 1100 
L 3047 1100 
L 3047 0 
L 2419 0 
L 2419 1100 
L 313 1100 
L 313 1709 
L 2253 4666 
z
" transform="scale(0.015625)"/>
       </defs>
       <use xlink:href="#DejaVuSans-34"/>
       <use xlink:href="#DejaVuSans-30" x="63.623047"/>
      </g>
     </g>
    </g>
    <g id="text_4">
     <!-- PSNR (dB) -->
     <g transform="translate(13.27875 60.863375) rotate(-90) scale(0.08 -0.08)">
      <defs>
       <path id="DejaVuSans-50" d="M 1259 4147 
L 1259 2394 
L 2053 2394 
Q 2494 2394 2734 2622 
Q 2975 2850 2975 3272 
Q 2975 3691 2734 3919 
Q 2494 4147 2053 4147 
L 1259 4147 
z
M 628 4666 
L 2053 4666 
Q 2838 4666 3239 4311 
Q 3641 3956 3641 3272 
Q 3641 2581 3239 2228 
Q 2838 1875 2053 1875 
L 1259 1875 
L 1259 0 
L 628 0 
L 628 4666 
z
" transform="scale(0.015625)"/>
       <path id="DejaVuSans-53" d="M 3425 4513 
L 3425 3897 
Q 3066 4069 2747 4153 
Q 2428 4238 2131 4238 
Q 1616 4238 1336 4038 
Q 1056 3838 1056 3469 
Q 1056 3159 1242 3001 
Q 1428 2844 1947 2747 
L 2328 2669 
Q 3034 2534 3370 2195 
Q 3706 1856 3706 1288 
Q 3706 609 3251 259 
Q 2797 -91 1919 -91 
Q 1588 -91 1214 -16 
Q 841 59 441 206 
L 441 856 
Q 825 641 1194 531 
Q 1563 422 1919 422 
Q 2459 422 2753 634 
Q 3047 847 3047 1241 
Q 3047 1584 2836 1778 
Q 2625 1972 2144 2069 
L 1759 2144 
Q 1053 2284 737 2584 
Q 422 2884 422 3419 
Q 422 4038 858 4394 
Q 1294 4750 2059 4750 
Q 2388 4750 2728 4690 
Q 3069 4631 3425 4513 
z
" transform="scale(0.015625)"/>
       <path id="DejaVuSans-4e" d="M 628 4666 
L 1478 4666 
L 3547 763 
L 3547 4666 
L 4159 4666 
L 4159 0 
L 3309 0 
L 1241 3903 
L 1241 0 
L 628 0 
L 628 4666 
z
" transform="scale(0.015625)"/>
       <path id="DejaVuSans-52" d="M 2841 2188 
Q 3044 2119 3236 1894 
Q 3428 1669 3622 1275 
L 4263 0 
L 3584 0 
L 2988 1197 
Q 2756 1666 2539 1819 
Q 2322 1972 1947 1972 
L 1259 1972 
L 1259 0 
L 628 0 
L 628 4666 
L 2053 4666 
Q 2853 4666 3247 4331 
Q 3641 3997 3641 3322 
Q 3641 2881 3436 2590 
Q 3231 2300 2841 2188 
z
M 1259 4147 
L 1259 2491 
L 2053 2491 
Q 2509 2491 2742 2702 
Q 2975 2913 2975 3322 
Q 2975 3731 2742 3939 
Q 2509 4147 2053 4147 
L 1259 4147 
z
" transform="scale(0.015625)"/>
       <path id="DejaVuSans-20" transform="scale(0.015625)"/>
       <path id="DejaVuSans-28" d="M 1984 4856 
Q 1566 4138 1362 3434 
Q 1159 2731 1159 2009 
Q 1159 1288 1364 580 
Q 1569 -128 1984 -844 
L 1484 -844 
Q 1016 -109 783 600 
Q 550 1309 550 2009 
Q 550 2706 781 3412 
Q 1013 4119 1484 4856 
L 1984 4856 
z
" transform="scale(0.015625)"/>
       <path id="DejaVuSans-64" d="M 2906 2969 
L 2906 4863 
L 3481 4863 
L 3481 0 
L 2906 0 
L 2906 525 
Q 2725 213 2448 61 
Q 2172 -91 1784 -91 
Q 1150 -91 751 415 
Q 353 922 353 1747 
Q 353 2572 751 3078 
Q 1150 3584 1784 3584 
Q 2172 3584 2448 3432 
Q 2725 3281 2906 2969 
z
M 947 1747 
Q 947 1113 1208 752 
Q 1469 391 1925 391 
Q 2381 391 2643 752 
Q 2906 1113 2906 1747 
Q 2906 2381 2643 2742 
Q 2381 3103 1925 3103 
Q 1469 3103 1208 2742 
Q 947 2381 947 1747 
z
" transform="scale(0.015625)"/>
       <path id="DejaVuSans-42" d="M 1259 2228 
L 1259 519 
L 2272 519 
Q 2781 519 3026 730 
Q 3272 941 3272 1375 
Q 3272 1813 3026 2020 
Q 2781 2228 2272 2228 
L 1259 2228 
z
M 1259 4147 
L 1259 2741 
L 2194 2741 
Q 2656 2741 2882 2914 
Q 3109 3088 3109 3444 
Q 3109 3797 2882 3972 
Q 2656 4147 2194 4147 
L 1259 4147 
z
M 628 4666 
L 2241 4666 
Q 2963 4666 3353 4366 
Q 3744 4066 3744 3513 
Q 3744 3084 3544 2831 
Q 3344 2578 2956 2516 
Q 3422 2416 3680 2098 
Q 3938 1781 3938 1306 
Q 3938 681 3513 340 
Q 3088 0 2303 0 
L 628 0 
L 628 4666 
z
" transform="scale(0.015625)"/>
       <path id="DejaVuSans-29" d="M 513 4856 
L 1013 4856 
Q 1481 4119 1714 3412 
Q 1947 2706 1947 2009 
Q 1947 1309 1714 600 
Q 1481 -109 1013 -844 
L 513 -844 
Q 928 -128 1133 580 
Q 1338 1288 1338 2009 
Q 1338 2731 1133 3434 
Q 928 4138 513 4856 
z
" transform="scale(0.015625)"/>
      </defs>
      <use xlink:href="#DejaVuSans-50"/>
      <use xlink:href="#DejaVuSans-53" x="60.302734"/>
      <use xlink:href="#DejaVuSans-4e" x="123.779297"/>
      <use xlink:href="#DejaVuSans-52" x="198.583984"/>
      <use xlink:href="#DejaVuSans-20" x="268.066406"/>
      <use xlink:href="#DejaVuSans-28" x="299.853516"/>
      <use xlink:href="#DejaVuSans-64" x="338.867188"/>
      <use xlink:href="#DejaVuSans-42" x="402.34375"/>
      <use xlink:href="#DejaVuSans-29" x="470.947266"/>
     </g>
    </g>
   </g>
   <g id="patch_3">
    <path d="M 39.1725 54.923738 
L 42.4125 54.923738 
L 42.4125 43.91222 
L 39.1725 43.91222 
L 39.1725 54.923738 
L 39.1725 54.923738 
z
" clip-path="url(#p4ce99623de)" style="fill: none; stroke: #a70048; stroke-width: 0.7; stroke-linejoin: miter"/>
   </g>
   <g id="line2d_4">
    <path d="M 40.7925 54.923738 
L 40.7925 69.779973 
" clip-path="url(#p4ce99623de)" style="fill: none; stroke: #a70048; stroke-width: 0.7; stroke-linecap: square"/>
   </g>
   <g id="line2d_5">
    <path d="M 40.7925 43.91222 
L 40.7925 35.76498 
" clip-path="url(#p4ce99623de)" style="fill: none; stroke: #a70048; stroke-width: 0.7; stroke-linecap: square"/>
   </g>
   <g id="line2d_6">
    <path d="M 39.9825 69.779973 
L 41.6025 69.779973 
" clip-path="url(#p4ce99623de)" style="fill: none; stroke: #a70048; stroke-width: 0.7; stroke-linecap: square"/>
   </g>
   <g id="line2d_7">
    <path d="M 39.9825 35.76498 
L 41.6025 35.76498 
" clip-path="url(#p4ce99623de)" style="fill: none; stroke: #a70048; stroke-width: 0.7; stroke-linecap: square"/>
   </g>
   <g id="patch_4">
    <path d="M 47.2725 46.875062 
L 50.5125 46.875062 
L 50.5125 26.310051 
L 47.2725 26.310051 
L 47.2725 46.875062 
L 47.2725 46.875062 
z
" clip-path="url(#p4ce99623de)" style="fill: none; stroke: #0000ff; stroke-width: 0.7; stroke-linejoin: miter"/>
   </g>
   <g id="line2d_8">
    <path d="M 48.8925 46.875062 
L 48.8925 58.473721 
" clip-path="url(#p4ce99623de)" style="fill: none; stroke: #0000ff; stroke-width: 0.7; stroke-linecap: square"/>
   </g>
   <g id="line2d_9">
    <path d="M 48.8925 26.310051 
L 48.8925 13.906663 
" clip-path="url(#p4ce99623de)" style="fill: none; stroke: #0000ff; stroke-width: 0.7; stroke-linecap: square"/>
   </g>
   <g id="line2d_10">
    <path d="M 48.0825 58.473721 
L 49.7025 58.473721 
" clip-path="url(#p4ce99623de)" style="fill: none; stroke: #0000ff; stroke-width: 0.7; stroke-linecap: square"/>
   </g>
   <g id="line2d_11">
    <path d="M 48.0825 13.906663 
L 49.7025 13.906663 
" clip-path="url(#p4ce99623de)" style="fill: none; stroke: #0000ff; stroke-width: 0.7; stroke-linecap: square"/>
   </g>
   <g id="patch_5">
    <path d="M 55.3725 46.552728 
L 58.6125 46.552728 
L 58.6125 28.632545 
L 55.3725 28.632545 
L 55.3725 46.552728 
L 55.3725 46.552728 
z
" clip-path="url(#p4ce99623de)" style="fill: none; stroke: #439c43; stroke-opacity: 0.984314; stroke-width: 0.7; stroke-linejoin: miter"/>
   </g>
   <g id="line2d_12">
    <path d="M 56.9925 46.552728 
L 56.9925 57.246575 
" clip-path="url(#p4ce99623de)" style="fill: none; stroke: #439c43; stroke-opacity: 0.984314; stroke-width: 0.7; stroke-linecap: square"/>
   </g>
   <g id="line2d_13">
    <path d="M 56.9925 28.632545 
L 56.9925 13.811214 
" clip-path="url(#p4ce99623de)" style="fill: none; stroke: #439c43; stroke-opacity: 0.984314; stroke-width: 0.7; stroke-linecap: square"/>
   </g>
   <g id="line2d_14">
    <path d="M 56.1825 57.246575 
L 57.8025 57.246575 
" clip-path="url(#p4ce99623de)" style="fill: none; stroke: #439c43; stroke-opacity: 0.984314; stroke-width: 0.7; stroke-linecap: square"/>
   </g>
   <g id="line2d_15">
    <path d="M 56.1825 13.811214 
L 57.8025 13.811214 
" clip-path="url(#p4ce99623de)" style="fill: none; stroke: #439c43; stroke-opacity: 0.984314; stroke-width: 0.7; stroke-linecap: square"/>
   </g>
   <g id="line2d_16">
    <path d="M 39.1725 46.459267 
L 42.4125 46.459267 
" clip-path="url(#p4ce99623de)" style="fill: none; stroke: #000000; stroke-opacity: 0"/>
   </g>
   <g id="line2d_17">
    <path d="M 47.2725 35.313308 
L 50.5125 35.313308 
" clip-path="url(#p4ce99623de)" style="fill: none; stroke: #000000; stroke-opacity: 0"/>
   </g>
   <g id="line2d_18">
    <path d="M 55.3725 35.115034 
L 58.6125 35.115034 
" clip-path="url(#p4ce99623de)" style="fill: none; stroke: #000000; stroke-opacity: 0"/>
   </g>
   <g id="patch_6">
    <path d="M 35.1225 73.728 
L 35.1225 7.2 
" style="fill: none; stroke: #000000; stroke-width: 0.7; stroke-linejoin: miter; stroke-linecap: square"/>
   </g>
   <g id="patch_7">
    <path d="M 35.1225 73.728 
L 63.4725 73.728 
" style="fill: none; stroke: #000000; stroke-width: 0.7; stroke-linejoin: miter; stroke-linecap: square"/>
   </g>
   <g id="line2d_19">
    <path d="M 39.1725 48.016938 
L 42.4125 48.016938 
" clip-path="url(#p4ce99623de)" style="fill: none; stroke: #a70048; stroke-width: 0.7; stroke-linecap: square"/>
   </g>
   <g id="line2d_20">
    <path d="M 47.2725 37.1025 
L 50.5125 37.1025 
" clip-path="url(#p4ce99623de)" style="fill: none; stroke: #0000ff; stroke-width: 0.7; stroke-linecap: square"/>
   </g>
   <g id="line2d_21">
    <path d="M 55.3725 37.13861 
L 58.6125 37.13861 
" clip-path="url(#p4ce99623de)" style="fill: none; stroke: #439c43; stroke-opacity: 0.984314; stroke-width: 0.7; stroke-linecap: square"/>
   </g>
  </g>
  <g id="axes_2">
   <g id="patch_8">
    <path d="M 97.4925 73.728 
L 125.8425 73.728 
L 125.8425 7.2 
L 97.4925 7.2 
z
" style="fill: #ffffff"/>
   </g>
   <g id="matplotlib.axis_3"/>
   <g id="matplotlib.axis_4">
    <g id="ytick_4">
     <g id="line2d_22">
      <g>
       <use xlink:href="#m9f5a5c9781" x="97.4925" y="63.944471" style="stroke: #000000; stroke-width: 0.7"/>
      </g>
     </g>
     <g id="text_5">
      <!-- 0.7 -->
      <g transform="translate(78.77 66.983846) scale(0.08 -0.08)">
       <defs>
        <path id="DejaVuSans-2e" d="M 684 794 
L 1344 794 
L 1344 0 
L 684 0 
L 684 794 
z
" transform="scale(0.015625)"/>
        <path id="DejaVuSans-37" d="M 525 4666 
L 3525 4666 
L 3525 4397 
L 1831 0 
L 1172 0 
L 2766 4134 
L 525 4134 
L 525 4666 
z
" transform="scale(0.015625)"/>
       </defs>
       <use xlink:href="#DejaVuSans-30"/>
       <use xlink:href="#DejaVuSans-2e" x="63.623047"/>
       <use xlink:href="#DejaVuSans-37" x="95.410156"/>
      </g>
     </g>
    </g>
    <g id="ytick_5">
     <g id="line2d_23">
      <g>
       <use xlink:href="#m9f5a5c9781" x="97.4925" y="44.377412" style="stroke: #000000; stroke-width: 0.7"/>
      </g>
     </g>
     <g id="text_6">
      <!-- 0.8 -->
      <g transform="translate(78.77 47.416787) scale(0.08 -0.08)">
       <defs>
        <path id="DejaVuSans-38" d="M 2034 2216 
Q 1584 2216 1326 1975 
Q 1069 1734 1069 1313 
Q 1069 891 1326 650 
Q 1584 409 2034 409 
Q 2484 409 2743 651 
Q 3003 894 3003 1313 
Q 3003 1734 2745 1975 
Q 2488 2216 2034 2216 
z
M 1403 2484 
Q 997 2584 770 2862 
Q 544 3141 544 3541 
Q 544 4100 942 4425 
Q 1341 4750 2034 4750 
Q 2731 4750 3128 4425 
Q 3525 4100 3525 3541 
Q 3525 3141 3298 2862 
Q 3072 2584 2669 2484 
Q 3125 2378 3379 2068 
Q 3634 1759 3634 1313 
Q 3634 634 3220 271 
Q 2806 -91 2034 -91 
Q 1263 -91 848 271 
Q 434 634 434 1313 
Q 434 1759 690 2068 
Q 947 2378 1403 2484 
z
M 1172 3481 
Q 1172 3119 1398 2916 
Q 1625 2713 2034 2713 
Q 2441 2713 2670 2916 
Q 2900 3119 2900 3481 
Q 2900 3844 2670 4047 
Q 2441 4250 2034 4250 
Q 1625 4250 1398 4047 
Q 1172 3844 1172 3481 
z
" transform="scale(0.015625)"/>
       </defs>
       <use xlink:href="#DejaVuSans-30"/>
       <use xlink:href="#DejaVuSans-2e" x="63.623047"/>
       <use xlink:href="#DejaVuSans-38" x="95.410156"/>
      </g>
     </g>
    </g>
    <g id="ytick_6">
     <g id="line2d_24">
      <g>
       <use xlink:href="#m9f5a5c9781" x="97.4925" y="24.810353" style="stroke: #000000; stroke-width: 0.7"/>
      </g>
     </g>
     <g id="text_7">
      <!-- 0.9 -->
      <g transform="translate(78.77 27.849728) scale(0.08 -0.08)">
       <defs>
        <path id="DejaVuSans-39" d="M 703 97 
L 703 672 
Q 941 559 1184 500 
Q 1428 441 1663 441 
Q 2288 441 2617 861 
Q 2947 1281 2994 2138 
Q 2813 1869 2534 1725 
Q 2256 1581 1919 1581 
Q 1219 1581 811 2004 
Q 403 2428 403 3163 
Q 403 3881 828 4315 
Q 1253 4750 1959 4750 
Q 2769 4750 3195 4129 
Q 3622 3509 3622 2328 
Q 3622 1225 3098 567 
Q 2575 -91 1691 -91 
Q 1453 -91 1209 -44 
Q 966 3 703 97 
z
M 1959 2075 
Q 2384 2075 2632 2365 
Q 2881 2656 2881 3163 
Q 2881 3666 2632 3958 
Q 2384 4250 1959 4250 
Q 1534 4250 1286 3958 
Q 1038 3666 1038 3163 
Q 1038 2656 1286 2365 
Q 1534 2075 1959 2075 
z
" transform="scale(0.015625)"/>
       </defs>
       <use xlink:href="#DejaVuSans-30"/>
       <use xlink:href="#DejaVuSans-2e" x="63.623047"/>
       <use xlink:href="#DejaVuSans-39" x="95.410156"/>
      </g>
     </g>
    </g>
    <g id="text_8">
     <!-- SSIM -->
     <g transform="translate(73.10625 50.174) rotate(-90) scale(0.08 -0.08)">
      <defs>
       <path id="DejaVuSans-49" d="M 628 4666 
L 1259 4666 
L 1259 0 
L 628 0 
L 628 4666 
z
" transform="scale(0.015625)"/>
       <path id="DejaVuSans-4d" d="M 628 4666 
L 1569 4666 
L 2759 1491 
L 3956 4666 
L 4897 4666 
L 4897 0 
L 4281 0 
L 4281 4097 
L 3078 897 
L 2444 897 
L 1241 4097 
L 1241 0 
L 628 0 
L 628 4666 
z
" transform="scale(0.015625)"/>
      </defs>
      <use xlink:href="#DejaVuSans-53"/>
      <use xlink:href="#DejaVuSans-53" x="63.476562"/>
      <use xlink:href="#DejaVuSans-49" x="126.953125"/>
      <use xlink:href="#DejaVuSans-4d" x="156.445312"/>
     </g>
    </g>
   </g>
   <g id="patch_9">
    <path d="M 101.5425 42.687135 
L 104.7825 42.687135 
L 104.7825 22.804345 
L 101.5425 22.804345 
L 101.5425 42.687135 
L 101.5425 42.687135 
z
" clip-path="url(#p00c28a49b5)" style="fill: none; stroke: #a70048; stroke-width: 0.7; stroke-linejoin: miter"/>
   </g>
   <g id="line2d_25">
    <path d="M 103.1625 42.687135 
L 103.1625 53.924381 
" clip-path="url(#p00c28a49b5)" style="fill: none; stroke: #a70048; stroke-width: 0.7; stroke-linecap: square"/>
   </g>
   <g id="line2d_26">
    <path d="M 103.1625 22.804345 
L 103.1625 17.688218 
" clip-path="url(#p00c28a49b5)" style="fill: none; stroke: #a70048; stroke-width: 0.7; stroke-linecap: square"/>
   </g>
   <g id="line2d_27">
    <path d="M 102.3525 53.924381 
L 103.9725 53.924381 
" clip-path="url(#p00c28a49b5)" style="fill: none; stroke: #a70048; stroke-width: 0.7; stroke-linecap: square"/>
   </g>
   <g id="line2d_28">
    <path d="M 102.3525 17.688218 
L 103.9725 17.688218 
" clip-path="url(#p00c28a49b5)" style="fill: none; stroke: #a70048; stroke-width: 0.7; stroke-linecap: square"/>
   </g>
   <g id="patch_10">
    <path d="M 109.6425 34.744122 
L 112.8825 34.744122 
L 112.8825 18.642583 
L 109.6425 18.642583 
L 109.6425 34.744122 
L 109.6425 34.744122 
z
" clip-path="url(#p00c28a49b5)" style="fill: none; stroke: #0000ff; stroke-width: 0.7; stroke-linejoin: miter"/>
   </g>
   <g id="line2d_29">
    <path d="M 111.2625 34.744122 
L 111.2625 45.37536 
" clip-path="url(#p00c28a49b5)" style="fill: none; stroke: #0000ff; stroke-width: 0.7; stroke-linecap: square"/>
   </g>
   <g id="line2d_30">
    <path d="M 111.2625 18.642583 
L 111.2625 15.284235 
" clip-path="url(#p00c28a49b5)" style="fill: none; stroke: #0000ff; stroke-width: 0.7; stroke-linecap: square"/>
   </g>
   <g id="line2d_31">
    <path d="M 110.4525 45.37536 
L 112.0725 45.37536 
" clip-path="url(#p00c28a49b5)" style="fill: none; stroke: #0000ff; stroke-width: 0.7; stroke-linecap: square"/>
   </g>
   <g id="line2d_32">
    <path d="M 110.4525 15.284235 
L 112.0725 15.284235 
" clip-path="url(#p00c28a49b5)" style="fill: none; stroke: #0000ff; stroke-width: 0.7; stroke-linecap: square"/>
   </g>
   <g id="patch_11">
    <path d="M 117.7425 32.575928 
L 120.9825 32.575928 
L 120.9825 17.563101 
L 117.7425 17.563101 
L 117.7425 32.575928 
L 117.7425 32.575928 
z
" clip-path="url(#p00c28a49b5)" style="fill: none; stroke: #439c43; stroke-opacity: 0.984314; stroke-width: 0.7; stroke-linejoin: miter"/>
   </g>
   <g id="line2d_33">
    <path d="M 119.3625 32.575928 
L 119.3625 41.286625 
" clip-path="url(#p00c28a49b5)" style="fill: none; stroke: #439c43; stroke-opacity: 0.984314; stroke-width: 0.7; stroke-linecap: square"/>
   </g>
   <g id="line2d_34">
    <path d="M 119.3625 17.563101 
L 119.3625 14.724494 
" clip-path="url(#p00c28a49b5)" style="fill: none; stroke: #439c43; stroke-opacity: 0.984314; stroke-width: 0.7; stroke-linecap: square"/>
   </g>
   <g id="line2d_35">
    <path d="M 118.5525 41.286625 
L 120.1725 41.286625 
" clip-path="url(#p00c28a49b5)" style="fill: none; stroke: #439c43; stroke-opacity: 0.984314; stroke-width: 0.7; stroke-linecap: square"/>
   </g>
   <g id="line2d_36">
    <path d="M 118.5525 14.724494 
L 120.1725 14.724494 
" clip-path="url(#p00c28a49b5)" style="fill: none; stroke: #439c43; stroke-opacity: 0.984314; stroke-width: 0.7; stroke-linecap: square"/>
   </g>
   <g id="line2d_37">
    <path d="M 101.5425 35.714632 
L 104.7825 35.714632 
" clip-path="url(#p00c28a49b5)" style="fill: none; stroke: #000000; stroke-opacity: 0"/>
   </g>
   <g id="line2d_38">
    <path d="M 109.6425 26.59653 
L 112.8825 26.59653 
" clip-path="url(#p00c28a49b5)" style="fill: none; stroke: #000000; stroke-opacity: 0"/>
   </g>
   <g id="line2d_39">
    <path d="M 117.7425 24.089103 
L 120.9825 24.089103 
" clip-path="url(#p00c28a49b5)" style="fill: none; stroke: #000000; stroke-opacity: 0"/>
   </g>
   <g id="patch_12">
    <path d="M 97.4925 73.728 
L 97.4925 7.2 
" style="fill: none; stroke: #000000; stroke-width: 0.7; stroke-linejoin: miter; stroke-linecap: square"/>
   </g>
   <g id="patch_13">
    <path d="M 97.4925 73.728 
L 125.8425 73.728 
" style="fill: none; stroke: #000000; stroke-width: 0.7; stroke-linejoin: miter; stroke-linecap: square"/>
   </g>
   <g id="line2d_40">
    <path d="M 101.5425 34.571033 
L 104.7825 34.571033 
" clip-path="url(#p00c28a49b5)" style="fill: none; stroke: #a70048; stroke-width: 0.7; stroke-linecap: square"/>
   </g>
   <g id="line2d_41">
    <path d="M 109.6425 28.059821 
L 112.8825 28.059821 
" clip-path="url(#p00c28a49b5)" style="fill: none; stroke: #0000ff; stroke-width: 0.7; stroke-linecap: square"/>
   </g>
   <g id="line2d_42">
    <path d="M 117.7425 25.907384 
L 120.9825 25.907384 
" clip-path="url(#p00c28a49b5)" style="fill: none; stroke: #439c43; stroke-opacity: 0.984314; stroke-width: 0.7; stroke-linecap: square"/>
   </g>
  </g>
 </g>
 <defs>
  <clipPath id="p4ce99623de">
   <rect x="35.1225" y="7.2" width="28.35" height="66.528"/>
  </clipPath>
  <clipPath id="p00c28a49b5">
   <rect x="97.4925" y="7.2" width="28.35" height="66.528"/>
  </clipPath>
 </defs>
</svg>
