<?xml version="1.0" encoding="utf-8" standalone="no"?>
<!DOCTYPE svg PUBLIC "-//W3C//DTD SVG 1.1//EN"
  "http://www.w3.org/Graphics/SVG/1.1/DTD/svg11.dtd">
<svg xmlns:xlink="http://www.w3.org/1999/xlink" width="372.7875pt" height="356.254688pt" viewBox="0 0 372.7875 356.254688" xmlns="http://www.w3.org/2000/svg" version="1.1">
 <metadata>
  <rdf:RDF xmlns:dc="http://purl.org/dc/elements/1.1/" xmlns:cc="http://creativecommons.org/ns#" xmlns:rdf="http://www.w3.org/1999/02/22-rdf-syntax-ns#">
   <cc:Work>
    <dc:type rdf:resource="http://purl.org/dc/dcmitype/StillImage"/>
    <dc:date>2025-08-04T13:07:00.632257</dc:date>
    <dc:format>image/svg+xml</dc:format>
    <dc:creator>
     <cc:Agent>
      <dc:title>Matplotlib v3.7.2, https://matplotlib.org/</dc:title>
     </cc:Agent>
    </dc:creator>
   </cc:Work>
  </rdf:RDF>
 </metadata>
 <defs>
  <style type="text/css">*{stroke-linejoin: round; stroke-linecap: butt}</style>
 </defs>
 <g id="figure_1">
  <g id="patch_1">
   <path d="M 0 356.254688 
L 372.7875 356.254688 
L 372.7875 0 
L 0 0 
z
" style="fill: #ffffff"/>
  </g>
  <g id="axes_1">
   <g id="patch_2">
    <path d="M 73.8625 291.998438 
L 352.8625 291.998438 
L 352.8625 14.798438 
L 73.8625 14.798438 
z
" style="fill: #ffffff"/>
   </g>
   <g id="PolyCollection_1">
    <path d="M 73.8625 14.798438 
L 73.8625 14.798438 
L 75.718787 63.033642 
L 77.575075 76.721033 
L 79.431362 72.95579 
L 81.28765 75.059479 
L 83.143937 80.598268 
L 85.000225 84.357813 
L 86.856512 93.784466 
L 88.712799 93.615805 
L 90.569087 100.482519 
L 92.425374 113.676938 
L 94.281662 123.331153 
L 96.137949 124.011569 
L 97.994237 136.207247 
L 99.850524 139.42672 
L 101.706811 143.087877 
L 103.563099 142.05906 
L 105.419386 139.882763 
L 107.275674 138.298193 
L 109.131961 137.013826 
L 110.988249 138.447414 
L 112.844536 141.856214 
L 114.700823 145.04983 
L 116.557111 147.473573 
L 118.413398 155.373659 
L 120.269686 160.002148 
L 122.125973 163.72342 
L 123.98226 166.838277 
L 125.838548 169.745875 
L 127.694835 172.869768 
L 129.551123 176.47311 
L 131.40741 179.505551 
L 133.263698 182.506986 
L 135.119985 186.131118 
L 136.976272 189.648437 
L 138.83256 192.23779 
L 140.688847 196.559423 
L 142.545135 200.574749 
L 144.401422 202.736417 
L 146.25771 205.876145 
L 148.113997 207.787817 
L 149.970284 211.040721 
L 151.826572 215.415227 
L 153.682859 218.035956 
L 155.539147 221.816107 
L 157.395434 225.173935 
L 159.251722 226.992665 
L 161.108009 230.998741 
L 162.964296 235.442495 
L 164.820584 238.378273 
L 166.676871 241.803463 
L 168.533159 246.714056 
L 170.389446 249.991806 
L 172.245734 252.369525 
L 174.102021 255.72106 
L 175.958308 259.559328 
L 177.814596 261.731443 
L 179.670883 264.483236 
L 181.527171 267.612298 
L 183.383458 269.942066 
L 185.239746 271.896327 
L 187.096033 273.483844 
L 188.95232 275.136564 
L 190.808608 277.457937 
L 192.664895 278.597446 
L 194.521183 280.28579 
L 196.37747 281.175808 
L 198.233757 282.521719 
L 200.090045 284.163399 
L 201.946332 285.085901 
L 203.80262 286.156376 
L 205.658907 287.031901 
L 207.515195 288.19934 
L 209.371482 289.184992 
L 211.227769 289.747438 
L 213.084057 290.715145 
L 214.940344 291.197363 
L 216.796632 291.690343 
L 218.652919 292.14375 
L 220.509207 292.574488 
L 222.365494 293.252196 
L 224.221781 293.562191 
L 226.078069 294.188332 
L 227.934356 294.336067 
L 229.790644 294.477648 
L 231.646931 294.705992 
L 233.503219 295.019315 
L 235.359506 294.63796 
L 237.215793 295.513507 
L 239.072081 295.588025 
L 240.928368 295.367821 
L 242.784656 295.955925 
L 244.640943 295.665479 
L 246.497231 295.507477 
L 248.353518 295.712344 
L 250.209805 295.980772 
L 252.066093 296.070102 
L 253.92238 296.018832 
L 255.778668 295.400618 
L 257.634955 295.514001 
L 259.491243 295.688145 
L 261.34753 295.973226 
L 263.203817 295.522827 
L 265.060105 295.103399 
L 266.916392 295.392413 
L 268.77268 295.407173 
L 270.628967 295.314711 
L 272.485254 295.094375 
L 274.341542 295.038506 
L 276.197829 295.09884 
L 278.054117 294.933534 
L 279.910404 295.202619 
L 281.766692 294.790476 
L 283.622979 294.783985 
L 285.479266 294.569133 
L 287.335554 294.453791 
L 289.191841 294.693297 
L 291.048129 294.503926 
L 292.904416 294.757988 
L 294.760704 294.623927 
L 296.616991 294.076468 
L 298.473278 294.46481 
L 300.329566 294.01023 
L 302.185853 294.05736 
L 304.042141 294.012052 
L 305.898428 293.48285 
L 307.754716 293.892376 
L 309.611003 293.523656 
L 311.46729 293.29247 
L 313.323578 293.149449 
L 315.179865 293.197571 
L 317.036153 293.297874 
L 318.89244 293.255725 
L 320.748728 293.328575 
L 322.605015 293.069636 
L 324.461302 293.163639 
L 326.31759 293.50326 
L 328.173877 293.192975 
L 330.030165 292.989266 
L 331.886452 292.991837 
L 333.74274 292.709291 
L 335.599027 292.838021 
L 337.455314 293.240733 
L 339.311602 293.694322 
L 341.167889 293.113891 
L 343.024177 293.481706 
L 344.880464 293.432514 
L 346.736751 293.30906 
L 348.593039 293.241282 
L 350.449326 294.124399 
L 350.449326 286.497369 
L 350.449326 286.497369 
L 348.593039 288.715262 
L 346.736751 288.654469 
L 344.880464 288.242888 
L 343.024177 288.46089 
L 341.167889 288.565211 
L 339.311602 287.411946 
L 337.455314 288.04227 
L 335.599027 288.220379 
L 333.74274 288.911387 
L 331.886452 288.161529 
L 330.030165 288.63056 
L 328.173877 288.441337 
L 326.31759 287.819199 
L 324.461302 288.836275 
L 322.605015 288.431437 
L 320.748728 288.112268 
L 318.89244 288.401555 
L 317.036153 287.942507 
L 315.179865 288.231948 
L 313.323578 287.949653 
L 311.46729 287.728796 
L 309.611003 287.359642 
L 307.754716 286.348788 
L 305.898428 287.022088 
L 304.042141 285.768654 
L 302.185853 286.018885 
L 300.329566 285.687613 
L 298.473278 284.715664 
L 296.616991 285.267211 
L 294.760704 284.200822 
L 292.904416 283.72222 
L 291.048129 283.818851 
L 289.191841 283.074448 
L 287.335554 283.249598 
L 285.479266 282.960967 
L 283.622979 282.410568 
L 281.766692 282.243964 
L 279.910404 281.25266 
L 278.054117 281.508361 
L 276.197829 280.769804 
L 274.341542 280.549461 
L 272.485254 280.25671 
L 270.628967 279.723219 
L 268.77268 279.086826 
L 266.916392 278.731291 
L 265.060105 278.788816 
L 263.203817 278.0579 
L 261.34753 276.786566 
L 259.491243 276.541585 
L 257.634955 276.526135 
L 255.778668 276.144949 
L 253.92238 274.716107 
L 252.066093 274.00464 
L 250.209805 273.455036 
L 248.353518 273.26617 
L 246.497231 273.420427 
L 244.640943 272.108594 
L 242.784656 270.59955 
L 240.928368 270.850157 
L 239.072081 269.572181 
L 237.215793 268.619809 
L 235.359506 268.49057 
L 233.503219 266.913654 
L 231.646931 265.765599 
L 229.790644 264.347713 
L 227.934356 262.841076 
L 226.078069 261.344822 
L 224.221781 260.492315 
L 222.365494 258.742766 
L 220.509207 257.065323 
L 218.652919 255.23473 
L 216.796632 253.009487 
L 214.940344 251.64073 
L 213.084057 249.048389 
L 211.227769 248.037943 
L 209.371482 246.154976 
L 207.515195 244.674455 
L 205.658907 243.435876 
L 203.80262 242.128126 
L 201.946332 239.484404 
L 200.090045 237.771807 
L 198.233757 235.482016 
L 196.37747 233.591012 
L 194.521183 232.319451 
L 192.664895 229.825436 
L 190.808608 228.284983 
L 188.95232 225.775375 
L 187.096033 222.940149 
L 185.239746 219.247386 
L 183.383458 216.027548 
L 181.527171 212.964764 
L 179.670883 209.038035 
L 177.814596 204.865784 
L 175.958308 200.712066 
L 174.102021 196.311664 
L 172.245734 192.951662 
L 170.389446 188.298737 
L 168.533159 181.942766 
L 166.676871 177.459691 
L 164.820584 172.309768 
L 162.964296 168.309145 
L 161.108009 163.482825 
L 159.251722 159.638554 
L 157.395434 154.524686 
L 155.539147 150.654788 
L 153.682859 146.63277 
L 151.826572 142.452492 
L 149.970284 137.745273 
L 148.113997 133.667366 
L 146.25771 129.896322 
L 144.401422 124.917048 
L 142.545135 121.77078 
L 140.688847 117.733176 
L 138.83256 113.190636 
L 136.976272 111.137255 
L 135.119985 107.41558 
L 133.263698 104.726676 
L 131.40741 100.384334 
L 129.551123 94.877496 
L 127.694835 91.247914 
L 125.838548 88.560333 
L 123.98226 85.284824 
L 122.125973 81.74979 
L 120.269686 76.638319 
L 118.413398 71.086215 
L 116.557111 66.018153 
L 114.700823 63.25605 
L 112.844536 58.257453 
L 110.988249 54.803467 
L 109.131961 51.011261 
L 107.275674 47.374279 
L 105.419386 44.22831 
L 103.563099 39.758447 
L 101.706811 36.374948 
L 99.850524 32.196347 
L 97.994237 32.318783 
L 96.137949 28.142333 
L 94.281662 27.294501 
L 92.425374 25.51796 
L 90.569087 22.843678 
L 88.712799 22.079203 
L 86.856512 18.589007 
L 85.000225 15.973045 
L 83.143937 15.703163 
L 81.28765 13.988432 
L 79.431362 11.210248 
L 77.575075 5.20598 
L 75.718787 3.200188 
L 73.8625 14.798438 
z
" clip-path="url(#p1dfbde27bc)" style="fill: #1f77b4; fill-opacity: 0.5"/>
   </g>
   <g id="PolyCollection_2">
    <path d="M 73.8625 14.798438 
L 73.8625 14.798438 
L 75.718787 56.463937 
L 77.575075 52.211151 
L 79.431362 54.390636 
L 81.28765 50.33405 
L 83.143937 57.467231 
L 85.000225 57.427624 
L 86.856512 59.473952 
L 88.712799 60.383005 
L 90.569087 63.87843 
L 92.425374 64.752614 
L 94.281662 66.317216 
L 96.137949 66.594132 
L 97.994237 67.997802 
L 99.850524 73.021884 
L 101.706811 77.914567 
L 103.563099 84.273699 
L 105.419386 92.401351 
L 107.275674 99.356972 
L 109.131961 105.31084 
L 110.988249 112.110889 
L 112.844536 121.22062 
L 114.700823 129.152726 
L 116.557111 138.75769 
L 118.413398 147.271789 
L 120.269686 153.42226 
L 122.125973 160.17041 
L 123.98226 165.914725 
L 125.838548 170.868607 
L 127.694835 176.6422 
L 129.551123 179.159462 
L 131.40741 181.217283 
L 133.263698 184.296398 
L 135.119985 186.110785 
L 136.976272 190.221077 
L 138.83256 193.373334 
L 140.688847 195.279262 
L 142.545135 198.368369 
L 144.401422 202.717406 
L 146.25771 205.433425 
L 148.113997 208.848622 
L 149.970284 213.411727 
L 151.826572 216.608159 
L 153.682859 220.254248 
L 155.539147 223.407364 
L 157.395434 225.595742 
L 159.251722 228.02405 
L 161.108009 229.920667 
L 162.964296 232.783853 
L 164.820584 235.935597 
L 166.676871 236.929836 
L 168.533159 239.012642 
L 170.389446 240.462343 
L 172.245734 241.897223 
L 174.102021 243.464249 
L 175.958308 244.335278 
L 177.814596 245.683791 
L 179.670883 246.312666 
L 181.527171 247.795895 
L 183.383458 249.180301 
L 185.239746 248.985447 
L 187.096033 250.257668 
L 188.95232 250.615136 
L 190.808608 251.527012 
L 192.664895 251.773626 
L 194.521183 253.154964 
L 196.37747 253.774383 
L 198.233757 254.739699 
L 200.090045 255.431974 
L 201.946332 256.062561 
L 203.80262 257.13422 
L 205.658907 258.406953 
L 207.515195 259.539336 
L 209.371482 261.251799 
L 211.227769 262.211773 
L 213.084057 264.161336 
L 214.940344 265.65607 
L 216.796632 266.248597 
L 218.652919 268.862831 
L 220.509207 269.523923 
L 222.365494 272.00641 
L 224.221781 273.446667 
L 226.078069 274.325289 
L 227.934356 276.378753 
L 229.790644 276.967171 
L 231.646931 279.157801 
L 233.503219 280.690464 
L 235.359506 280.372426 
L 237.215793 282.981409 
L 239.072081 283.189844 
L 240.928368 285.086401 
L 242.784656 285.46887 
L 244.640943 286.635308 
L 246.497231 288.395179 
L 248.353518 287.899747 
L 250.209805 289.879402 
L 252.066093 290.0619 
L 253.92238 291.272704 
L 255.778668 292.146246 
L 257.634955 292.412226 
L 259.491243 293.422351 
L 261.34753 293.621449 
L 263.203817 294.402451 
L 265.060105 294.739224 
L 266.916392 294.659005 
L 268.77268 295.171039 
L 270.628967 295.172517 
L 272.485254 295.755133 
L 274.341542 296.23126 
L 276.197829 295.613238 
L 278.054117 296.068052 
L 279.910404 296.092778 
L 281.766692 296.203981 
L 283.622979 296.157007 
L 285.479266 296.642177 
L 287.335554 296.510942 
L 289.191841 297.107048 
L 291.048129 296.126444 
L 292.904416 296.844033 
L 294.760704 296.392064 
L 296.616991 296.222212 
L 298.473278 296.49574 
L 300.329566 296.197112 
L 302.185853 297.271232 
L 304.042141 296.592178 
L 305.898428 296.754999 
L 307.754716 296.840657 
L 309.611003 296.949396 
L 311.46729 296.64211 
L 313.323578 296.511825 
L 315.179865 295.941557 
L 317.036153 295.932927 
L 318.89244 296.222577 
L 320.748728 295.947842 
L 322.605015 295.991587 
L 324.461302 295.921808 
L 326.31759 295.398289 
L 328.173877 295.294855 
L 330.030165 295.366444 
L 331.886452 295.517586 
L 333.74274 294.793796 
L 335.599027 294.867459 
L 337.455314 294.892626 
L 339.311602 294.663592 
L 341.167889 294.597533 
L 343.024177 294.627965 
L 344.880464 294.4383 
L 346.736751 295.328635 
L 348.593039 294.255335 
L 350.449326 293.8802 
L 350.449326 288.117767 
L 350.449326 288.117767 
L 348.593039 288.303645 
L 346.736751 286.670273 
L 344.880464 288.230491 
L 343.024177 287.922143 
L 341.167889 287.851593 
L 339.311602 287.628622 
L 337.455314 287.438183 
L 335.599027 287.177196 
L 333.74274 287.032492 
L 331.886452 285.884753 
L 330.030165 285.873008 
L 328.173877 285.810546 
L 326.31759 285.506674 
L 324.461302 284.428543 
L 322.605015 284.296689 
L 320.748728 284.135336 
L 318.89244 283.571059 
L 317.036153 283.753432 
L 315.179865 283.504184 
L 313.323578 282.518317 
L 311.46729 282.158435 
L 309.611003 281.651194 
L 307.754716 281.497322 
L 305.898428 281.429145 
L 304.042141 281.403578 
L 302.185853 280.097762 
L 300.329566 281.13612 
L 298.473278 280.624646 
L 296.616991 280.76106 
L 294.760704 280.146796 
L 292.904416 279.067908 
L 291.048129 280.007029 
L 289.191841 277.709986 
L 287.335554 278.485416 
L 285.479266 277.638564 
L 283.622979 277.738619 
L 281.766692 277.252031 
L 279.910404 276.336041 
L 278.054117 276.064709 
L 276.197829 275.388066 
L 274.341542 273.044858 
L 272.485254 273.006372 
L 270.628967 272.064165 
L 268.77268 271.732848 
L 266.916392 269.557857 
L 265.060105 267.791584 
L 263.203817 267.002069 
L 261.34753 265.025129 
L 259.491243 264.0688 
L 257.634955 261.149067 
L 255.778668 261.751078 
L 253.92238 258.577815 
L 252.066093 256.7543 
L 250.209805 255.216309 
L 248.353518 252.30145 
L 246.497231 253.010473 
L 244.640943 249.133381 
L 242.784656 248.172404 
L 240.928368 246.180681 
L 239.072081 243.554984 
L 237.215793 243.972441 
L 235.359506 239.638913 
L 233.503219 239.436618 
L 231.646931 236.480467 
L 229.790644 234.466825 
L 227.934356 234.567864 
L 226.078069 230.237029 
L 224.221781 230.285331 
L 222.365494 228.371236 
L 220.509207 225.682497 
L 218.652919 225.258591 
L 216.796632 223.261002 
L 214.940344 222.129406 
L 213.084057 219.465936 
L 211.227769 218.944063 
L 209.371482 217.385313 
L 207.515195 215.533252 
L 205.658907 216.130661 
L 203.80262 213.688129 
L 201.946332 212.715618 
L 200.090045 212.223366 
L 198.233757 211.337075 
L 196.37747 211.341654 
L 194.521183 210.353757 
L 192.664895 209.498605 
L 190.808608 209.667715 
L 188.95232 209.62241 
L 187.096033 208.629365 
L 185.239746 207.872312 
L 183.383458 206.579872 
L 181.527171 206.72975 
L 179.670883 206.06106 
L 177.814596 206.366748 
L 175.958308 205.345046 
L 174.102021 203.755543 
L 172.245734 203.73854 
L 170.389446 202.951409 
L 168.533159 202.043843 
L 166.676871 199.272605 
L 164.820584 198.312318 
L 162.964296 197.158608 
L 161.108009 193.346293 
L 159.251722 191.599529 
L 157.395434 187.001279 
L 155.539147 183.582894 
L 153.682859 179.697568 
L 151.826572 176.50677 
L 149.970284 172.258074 
L 148.113997 165.699479 
L 146.25771 162.386558 
L 144.401422 157.700858 
L 142.545135 151.865615 
L 140.688847 146.994479 
L 138.83256 141.396606 
L 136.976272 137.476638 
L 135.119985 133.22782 
L 133.263698 127.511854 
L 131.40741 123.820462 
L 129.551123 116.592318 
L 127.694835 110.947303 
L 125.838548 106.562983 
L 123.98226 98.651377 
L 122.125973 91.983172 
L 120.269686 83.417873 
L 118.413398 76.537525 
L 116.557111 68.286489 
L 114.700823 63.406522 
L 112.844536 52.477559 
L 110.988249 45.067891 
L 109.131961 37.81332 
L 107.275674 30.547479 
L 105.419386 24.000122 
L 103.563099 20.638 
L 101.706811 17.999727 
L 99.850524 13.357066 
L 97.994237 11.992133 
L 96.137949 6.841332 
L 94.281662 5.47528 
L 92.425374 3.654485 
L 90.569087 2.559246 
L 88.712799 2.25077 
L 86.856512 0.229899 
L 85.000225 0.493757 
L 83.143937 -1.709432 
L 81.28765 1.368411 
L 79.431362 -3.03345 
L 77.575075 -2.63005 
L 75.718787 -6.897371 
L 73.8625 14.798438 
z
" clip-path="url(#p1dfbde27bc)" style="fill: #ff7f0e; fill-opacity: 0.5"/>
   </g>
   <g id="PolyCollection_3">
    <path d="M 73.8625 14.798438 
L 73.8625 14.798438 
L 75.718787 34.988407 
L 77.575075 39.550072 
L 79.431362 45.736346 
L 81.28765 45.710875 
L 83.143937 50.602617 
L 85.000225 54.29942 
L 86.856512 59.193568 
L 88.712799 64.048165 
L 90.569087 71.406315 
L 92.425374 83.558208 
L 94.281662 93.281156 
L 96.137949 96.362696 
L 97.994237 111.097851 
L 99.850524 116.992947 
L 101.706811 120.362981 
L 103.563099 117.838736 
L 105.419386 114.954549 
L 107.275674 113.086661 
L 109.131961 115.969524 
L 110.988249 118.343544 
L 112.844536 123.729481 
L 114.700823 131.094992 
L 116.557111 136.020366 
L 118.413398 143.673202 
L 120.269686 150.373727 
L 122.125973 156.745719 
L 123.98226 164.61496 
L 125.838548 170.259337 
L 127.694835 175.717466 
L 129.551123 180.042164 
L 131.40741 185.190356 
L 133.263698 188.121188 
L 135.119985 193.211278 
L 136.976272 199.106773 
L 138.83256 201.99438 
L 140.688847 203.328172 
L 142.545135 207.45444 
L 144.401422 207.741968 
L 146.25771 211.863143 
L 148.113997 215.806788 
L 149.970284 219.632519 
L 151.826572 223.915729 
L 153.682859 226.358035 
L 155.539147 228.580528 
L 157.395434 231.575219 
L 159.251722 235.343805 
L 161.108009 238.044302 
L 162.964296 242.15098 
L 164.820584 244.743945 
L 166.676871 245.569441 
L 168.533159 248.008444 
L 170.389446 253.139735 
L 172.245734 256.319962 
L 174.102021 258.893029 
L 175.958308 260.950406 
L 177.814596 262.659045 
L 179.670883 263.883105 
L 181.527171 265.129345 
L 183.383458 266.752294 
L 185.239746 267.535576 
L 187.096033 267.514884 
L 188.95232 269.027962 
L 190.808608 270.396282 
L 192.664895 270.735859 
L 194.521183 272.302108 
L 196.37747 273.007411 
L 198.233757 272.789556 
L 200.090045 273.02946 
L 201.946332 273.729613 
L 203.80262 275.645674 
L 205.658907 275.410127 
L 207.515195 276.489673 
L 209.371482 275.516509 
L 211.227769 277.382894 
L 213.084057 277.740457 
L 214.940344 278.154572 
L 216.796632 278.202608 
L 218.652919 277.297936 
L 220.509207 278.662768 
L 222.365494 279.45341 
L 224.221781 279.226962 
L 226.078069 280.195933 
L 227.934356 280.820987 
L 229.790644 280.851791 
L 231.646931 280.718662 
L 233.503219 279.05342 
L 235.359506 279.887836 
L 237.215793 280.24726 
L 239.072081 280.328431 
L 240.928368 279.568743 
L 242.784656 280.42775 
L 244.640943 280.821391 
L 246.497231 281.042918 
L 248.353518 281.920672 
L 250.209805 282.107775 
L 252.066093 281.504426 
L 253.92238 282.393118 
L 255.778668 282.141308 
L 257.634955 282.527786 
L 259.491243 282.269279 
L 261.34753 282.436362 
L 263.203817 282.699848 
L 265.060105 283.280317 
L 266.916392 283.156352 
L 268.77268 283.780804 
L 270.628967 283.055171 
L 272.485254 282.725087 
L 274.341542 284.025813 
L 276.197829 284.575027 
L 278.054117 284.396601 
L 279.910404 284.201372 
L 281.766692 284.042442 
L 283.622979 283.775922 
L 285.479266 283.407946 
L 287.335554 284.099449 
L 289.191841 284.172951 
L 291.048129 284.67586 
L 292.904416 284.866105 
L 294.760704 284.798897 
L 296.616991 284.768337 
L 298.473278 285.2846 
L 300.329566 285.699927 
L 302.185853 285.83383 
L 304.042141 285.256557 
L 305.898428 285.997225 
L 307.754716 286.137135 
L 309.611003 286.229616 
L 311.46729 285.562669 
L 313.323578 284.643792 
L 315.179865 284.830084 
L 317.036153 285.329209 
L 318.89244 285.707969 
L 320.748728 285.414299 
L 322.605015 284.774228 
L 324.461302 285.556874 
L 326.31759 285.630569 
L 328.173877 286.167598 
L 330.030165 286.193754 
L 331.886452 285.736616 
L 333.74274 285.695011 
L 335.599027 285.785619 
L 337.455314 286.300688 
L 339.311602 286.141346 
L 341.167889 286.420763 
L 343.024177 286.291074 
L 344.880464 286.364682 
L 346.736751 286.921559 
L 348.593039 286.411618 
L 350.449326 287.003309 
L 350.449326 259.2454 
L 350.449326 259.2454 
L 348.593039 258.992388 
L 346.736751 259.032868 
L 344.880464 259.028474 
L 343.024177 259.326731 
L 341.167889 259.507469 
L 339.311602 259.2634 
L 337.455314 259.998018 
L 335.599027 259.663964 
L 333.74274 260.075334 
L 331.886452 259.012528 
L 330.030165 259.523789 
L 328.173877 260.03616 
L 326.31759 259.760155 
L 324.461302 259.809196 
L 322.605015 260.179546 
L 320.748728 260.390733 
L 318.89244 259.602835 
L 317.036153 260.21434 
L 315.179865 259.8832 
L 313.323578 259.481402 
L 311.46729 259.239277 
L 309.611003 259.209907 
L 307.754716 259.495506 
L 305.898428 258.814704 
L 304.042141 258.860824 
L 302.185853 258.903079 
L 300.329566 258.17031 
L 298.473278 256.997905 
L 296.616991 257.146687 
L 294.760704 257.180316 
L 292.904416 258.076422 
L 291.048129 258.008021 
L 289.191841 257.452258 
L 287.335554 257.44522 
L 285.479266 256.978009 
L 283.622979 257.421554 
L 281.766692 257.068688 
L 279.910404 257.636118 
L 278.054117 257.92931 
L 276.197829 257.526134 
L 274.341542 256.65223 
L 272.485254 257.326652 
L 270.628967 256.563314 
L 268.77268 256.253708 
L 266.916392 256.031742 
L 265.060105 255.845351 
L 263.203817 256.546091 
L 261.34753 256.254463 
L 259.491243 254.633813 
L 257.634955 256.225599 
L 255.778668 256.138342 
L 253.92238 255.094222 
L 252.066093 254.658868 
L 250.209805 253.596006 
L 248.353518 252.446128 
L 246.497231 252.075835 
L 244.640943 251.986015 
L 242.784656 251.964283 
L 240.928368 251.18843 
L 239.072081 252.692655 
L 237.215793 250.233606 
L 235.359506 251.656933 
L 233.503219 251.66234 
L 231.646931 251.364345 
L 229.790644 251.000681 
L 227.934356 250.338002 
L 226.078069 250.32883 
L 224.221781 249.189802 
L 222.365494 249.176608 
L 220.509207 247.632397 
L 218.652919 245.538535 
L 216.796632 246.191642 
L 214.940344 244.255429 
L 213.084057 244.057374 
L 211.227769 243.241537 
L 209.371482 242.04367 
L 207.515195 241.123569 
L 205.658907 240.773273 
L 203.80262 240.292539 
L 201.946332 238.918179 
L 200.090045 238.002352 
L 198.233757 236.55251 
L 196.37747 233.90486 
L 194.521183 231.767639 
L 192.664895 228.869643 
L 190.808608 228.061972 
L 188.95232 225.592954 
L 187.096033 224.9058 
L 185.239746 223.041918 
L 183.383458 219.041514 
L 181.527171 216.99819 
L 179.670883 211.891965 
L 177.814596 209.219316 
L 175.958308 207.32418 
L 174.102021 203.359656 
L 172.245734 200.128936 
L 170.389446 195.541884 
L 168.533159 189.972436 
L 166.676871 186.736219 
L 164.820584 182.005568 
L 162.964296 178.974495 
L 161.108009 172.675859 
L 159.251722 171.305621 
L 157.395434 164.830816 
L 155.539147 159.766971 
L 153.682859 153.587391 
L 151.826572 148.580075 
L 149.970284 144.326249 
L 148.113997 139.928319 
L 146.25771 134.65137 
L 144.401422 130.184467 
L 142.545135 125.735694 
L 140.688847 120.236926 
L 138.83256 116.408107 
L 136.976272 113.824541 
L 135.119985 109.30313 
L 133.263698 105.997128 
L 131.40741 100.657997 
L 129.551123 94.453709 
L 127.694835 89.478639 
L 125.838548 87.01855 
L 123.98226 81.976141 
L 122.125973 76.552359 
L 120.269686 70.180937 
L 118.413398 63.886543 
L 116.557111 58.438347 
L 114.700823 54.217316 
L 112.844536 48.142647 
L 110.988249 45.381624 
L 109.131961 42.412453 
L 107.275674 38.680592 
L 105.419386 33.643416 
L 103.563099 29.115411 
L 101.706811 25.936319 
L 99.850524 22.045404 
L 97.994237 21.041264 
L 96.137949 18.818609 
L 94.281662 18.972427 
L 92.425374 17.352626 
L 90.569087 16.346895 
L 88.712799 16.380245 
L 86.856512 15.950715 
L 85.000225 14.608888 
L 83.143937 15.371992 
L 81.28765 12.81101 
L 79.431362 11.010257 
L 77.575075 11.686351 
L 75.718787 7.793536 
L 73.8625 14.798438 
z
" clip-path="url(#p1dfbde27bc)" style="fill: #2ca02c; fill-opacity: 0.5"/>
   </g>
   <g id="matplotlib.axis_1">
    <g id="xtick_1">
     <g id="line2d_1">
      <defs>
       <path id="mb754d21adf" d="M 0 0 
L 0 8 
" style="stroke: #000000; stroke-width: 2"/>
      </defs>
      <g>
       <use xlink:href="#mb754d21adf" x="73.8625" y="291.998438" style="stroke: #000000; stroke-width: 2"/>
      </g>
     </g>
     <g id="text_1">
      <!-- 0 -->
      <g transform="translate(67.5 318.695313) scale(0.2 -0.2)">
       <defs>
        <path id="DejaVuSans-30" d="M 2034 4250 
Q 1547 4250 1301 3770 
Q 1056 3291 1056 2328 
Q 1056 1369 1301 889 
Q 1547 409 2034 409 
Q 2525 409 2770 889 
Q 3016 1369 3016 2328 
Q 3016 3291 2770 3770 
Q 2525 4250 2034 4250 
z
M 2034 4750 
Q 2819 4750 3233 4129 
Q 3647 3509 3647 2328 
Q 3647 1150 3233 529 
Q 2819 -91 2034 -91 
Q 1250 -91 836 529 
Q 422 1150 422 2328 
Q 422 3509 836 4129 
Q 1250 4750 2034 4750 
z
" transform="scale(0.015625)"/>
       </defs>
       <use xlink:href="#DejaVuSans-30"/>
      </g>
     </g>
    </g>
    <g id="xtick_2">
     <g id="line2d_2">
      <g>
       <use xlink:href="#mb754d21adf" x="166.8625" y="291.998438" style="stroke: #000000; stroke-width: 2"/>
      </g>
     </g>
     <g id="text_2">
      <!-- 5 -->
      <g transform="translate(160.5 318.695313) scale(0.2 -0.2)">
       <defs>
        <path id="DejaVuSans-35" d="M 691 4666 
L 3169 4666 
L 3169 4134 
L 1269 4134 
L 1269 2991 
Q 1406 3038 1543 3061 
Q 1681 3084 1819 3084 
Q 2600 3084 3056 2656 
Q 3513 2228 3513 1497 
Q 3513 744 3044 326 
Q 2575 -91 1722 -91 
Q 1428 -91 1123 -41 
Q 819 9 494 109 
L 494 744 
Q 775 591 1075 516 
Q 1375 441 1709 441 
Q 2250 441 2565 725 
Q 2881 1009 2881 1497 
Q 2881 1984 2565 2268 
Q 2250 2553 1709 2553 
Q 1456 2553 1204 2497 
Q 953 2441 691 2322 
L 691 4666 
z
" transform="scale(0.015625)"/>
       </defs>
       <use xlink:href="#DejaVuSans-35"/>
      </g>
     </g>
    </g>
    <g id="xtick_3">
     <g id="line2d_3">
      <g>
       <use xlink:href="#mb754d21adf" x="259.8625" y="291.998438" style="stroke: #000000; stroke-width: 2"/>
      </g>
     </g>
     <g id="text_3">
      <!-- 10 -->
      <g transform="translate(247.1375 318.695313) scale(0.2 -0.2)">
       <defs>
        <path id="DejaVuSans-31" d="M 794 531 
L 1825 531 
L 1825 4091 
L 703 3866 
L 703 4441 
L 1819 4666 
L 2450 4666 
L 2450 531 
L 3481 531 
L 3481 0 
L 794 0 
L 794 531 
z
" transform="scale(0.015625)"/>
       </defs>
       <use xlink:href="#DejaVuSans-31"/>
       <use xlink:href="#DejaVuSans-30" x="63.623047"/>
      </g>
     </g>
    </g>
    <g id="xtick_4">
     <g id="line2d_4">
      <g>
       <use xlink:href="#mb754d21adf" x="352.8625" y="291.998438" style="stroke: #000000; stroke-width: 2"/>
      </g>
     </g>
     <g id="text_4">
      <!-- 15 -->
      <g transform="translate(340.1375 318.695313) scale(0.2 -0.2)">
       <use xlink:href="#DejaVuSans-31"/>
       <use xlink:href="#DejaVuSans-35" x="63.623047"/>
      </g>
     </g>
    </g>
    <g id="text_5">
     <!-- Spatial frequency (µm$^{-1}$) -->
     <g transform="translate(87.5625 344.854688) scale(0.2 -0.2)">
      <defs>
       <path id="DejaVuSans-53" d="M 3425 4513 
L 3425 3897 
Q 3066 4069 2747 4153 
Q 2428 4238 2131 4238 
Q 1616 4238 1336 4038 
Q 1056 3838 1056 3469 
Q 1056 3159 1242 3001 
Q 1428 2844 1947 2747 
L 2328 2669 
Q 3034 2534 3370 2195 
Q 3706 1856 3706 1288 
Q 3706 609 3251 259 
Q 2797 -91 1919 -91 
Q 1588 -91 1214 -16 
Q 841 59 441 206 
L 441 856 
Q 825 641 1194 531 
Q 1563 422 1919 422 
Q 2459 422 2753 634 
Q 3047 847 3047 1241 
Q 3047 1584 2836 1778 
Q 2625 1972 2144 2069 
L 1759 2144 
Q 1053 2284 737 2584 
Q 422 2884 422 3419 
Q 422 4038 858 4394 
Q 1294 4750 2059 4750 
Q 2388 4750 2728 4690 
Q 3069 4631 3425 4513 
z
" transform="scale(0.015625)"/>
       <path id="DejaVuSans-70" d="M 1159 525 
L 1159 -1331 
L 581 -1331 
L 581 3500 
L 1159 3500 
L 1159 2969 
Q 1341 3281 1617 3432 
Q 1894 3584 2278 3584 
Q 2916 3584 3314 3078 
Q 3713 2572 3713 1747 
Q 3713 922 3314 415 
Q 2916 -91 2278 -91 
Q 1894 -91 1617 61 
Q 1341 213 1159 525 
z
M 3116 1747 
Q 3116 2381 2855 2742 
Q 2594 3103 2138 3103 
Q 1681 3103 1420 2742 
Q 1159 2381 1159 1747 
Q 1159 1113 1420 752 
Q 1681 391 2138 391 
Q 2594 391 2855 752 
Q 3116 1113 3116 1747 
z
" transform="scale(0.015625)"/>
       <path id="DejaVuSans-61" d="M 2194 1759 
Q 1497 1759 1228 1600 
Q 959 1441 959 1056 
Q 959 750 1161 570 
Q 1363 391 1709 391 
Q 2188 391 2477 730 
Q 2766 1069 2766 1631 
L 2766 1759 
L 2194 1759 
z
M 3341 1997 
L 3341 0 
L 2766 0 
L 2766 531 
Q 2569 213 2275 61 
Q 1981 -91 1556 -91 
Q 1019 -91 701 211 
Q 384 513 384 1019 
Q 384 1609 779 1909 
Q 1175 2209 1959 2209 
L 2766 2209 
L 2766 2266 
Q 2766 2663 2505 2880 
Q 2244 3097 1772 3097 
Q 1472 3097 1187 3025 
Q 903 2953 641 2809 
L 641 3341 
Q 956 3463 1253 3523 
Q 1550 3584 1831 3584 
Q 2591 3584 2966 3190 
Q 3341 2797 3341 1997 
z
" transform="scale(0.015625)"/>
       <path id="DejaVuSans-74" d="M 1172 4494 
L 1172 3500 
L 2356 3500 
L 2356 3053 
L 1172 3053 
L 1172 1153 
Q 1172 725 1289 603 
Q 1406 481 1766 481 
L 2356 481 
L 2356 0 
L 1766 0 
Q 1100 0 847 248 
Q 594 497 594 1153 
L 594 3053 
L 172 3053 
L 172 3500 
L 594 3500 
L 594 4494 
L 1172 4494 
z
" transform="scale(0.015625)"/>
       <path id="DejaVuSans-69" d="M 603 3500 
L 1178 3500 
L 1178 0 
L 603 0 
L 603 3500 
z
M 603 4863 
L 1178 4863 
L 1178 4134 
L 603 4134 
L 603 4863 
z
" transform="scale(0.015625)"/>
       <path id="DejaVuSans-6c" d="M 603 4863 
L 1178 4863 
L 1178 0 
L 603 0 
L 603 4863 
z
" transform="scale(0.015625)"/>
       <path id="DejaVuSans-20" transform="scale(0.015625)"/>
       <path id="DejaVuSans-66" d="M 2375 4863 
L 2375 4384 
L 1825 4384 
Q 1516 4384 1395 4259 
Q 1275 4134 1275 3809 
L 1275 3500 
L 2222 3500 
L 2222 3053 
L 1275 3053 
L 1275 0 
L 697 0 
L 697 3053 
L 147 3053 
L 147 3500 
L 697 3500 
L 697 3744 
Q 697 4328 969 4595 
Q 1241 4863 1831 4863 
L 2375 4863 
z
" transform="scale(0.015625)"/>
       <path id="DejaVuSans-72" d="M 2631 2963 
Q 2534 3019 2420 3045 
Q 2306 3072 2169 3072 
Q 1681 3072 1420 2755 
Q 1159 2438 1159 1844 
L 1159 0 
L 581 0 
L 581 3500 
L 1159 3500 
L 1159 2956 
Q 1341 3275 1631 3429 
Q 1922 3584 2338 3584 
Q 2397 3584 2469 3576 
Q 2541 3569 2628 3553 
L 2631 2963 
z
" transform="scale(0.015625)"/>
       <path id="DejaVuSans-65" d="M 3597 1894 
L 3597 1613 
L 953 1613 
Q 991 1019 1311 708 
Q 1631 397 2203 397 
Q 2534 397 2845 478 
Q 3156 559 3463 722 
L 3463 178 
Q 3153 47 2828 -22 
Q 2503 -91 2169 -91 
Q 1331 -91 842 396 
Q 353 884 353 1716 
Q 353 2575 817 3079 
Q 1281 3584 2069 3584 
Q 2775 3584 3186 3129 
Q 3597 2675 3597 1894 
z
M 3022 2063 
Q 3016 2534 2758 2815 
Q 2500 3097 2075 3097 
Q 1594 3097 1305 2825 
Q 1016 2553 972 2059 
L 3022 2063 
z
" transform="scale(0.015625)"/>
       <path id="DejaVuSans-71" d="M 947 1747 
Q 947 1113 1208 752 
Q 1469 391 1925 391 
Q 2381 391 2643 752 
Q 2906 1113 2906 1747 
Q 2906 2381 2643 2742 
Q 2381 3103 1925 3103 
Q 1469 3103 1208 2742 
Q 947 2381 947 1747 
z
M 2906 525 
Q 2725 213 2448 61 
Q 2172 -91 1784 -91 
Q 1150 -91 751 415 
Q 353 922 353 1747 
Q 353 2572 751 3078 
Q 1150 3584 1784 3584 
Q 2172 3584 2448 3432 
Q 2725 3281 2906 2969 
L 2906 3500 
L 3481 3500 
L 3481 -1331 
L 2906 -1331 
L 2906 525 
z
" transform="scale(0.015625)"/>
       <path id="DejaVuSans-75" d="M 544 1381 
L 544 3500 
L 1119 3500 
L 1119 1403 
Q 1119 906 1312 657 
Q 1506 409 1894 409 
Q 2359 409 2629 706 
Q 2900 1003 2900 1516 
L 2900 3500 
L 3475 3500 
L 3475 0 
L 2900 0 
L 2900 538 
Q 2691 219 2414 64 
Q 2138 -91 1772 -91 
Q 1169 -91 856 284 
Q 544 659 544 1381 
z
M 1991 3584 
L 1991 3584 
z
" transform="scale(0.015625)"/>
       <path id="DejaVuSans-6e" d="M 3513 2113 
L 3513 0 
L 2938 0 
L 2938 2094 
Q 2938 2591 2744 2837 
Q 2550 3084 2163 3084 
Q 1697 3084 1428 2787 
Q 1159 2491 1159 1978 
L 1159 0 
L 581 0 
L 581 3500 
L 1159 3500 
L 1159 2956 
Q 1366 3272 1645 3428 
Q 1925 3584 2291 3584 
Q 2894 3584 3203 3211 
Q 3513 2838 3513 2113 
z
" transform="scale(0.015625)"/>
       <path id="DejaVuSans-63" d="M 3122 3366 
L 3122 2828 
Q 2878 2963 2633 3030 
Q 2388 3097 2138 3097 
Q 1578 3097 1268 2742 
Q 959 2388 959 1747 
Q 959 1106 1268 751 
Q 1578 397 2138 397 
Q 2388 397 2633 464 
Q 2878 531 3122 666 
L 3122 134 
Q 2881 22 2623 -34 
Q 2366 -91 2075 -91 
Q 1284 -91 818 406 
Q 353 903 353 1747 
Q 353 2603 823 3093 
Q 1294 3584 2113 3584 
Q 2378 3584 2631 3529 
Q 2884 3475 3122 3366 
z
" transform="scale(0.015625)"/>
       <path id="DejaVuSans-79" d="M 2059 -325 
Q 1816 -950 1584 -1140 
Q 1353 -1331 966 -1331 
L 506 -1331 
L 506 -850 
L 844 -850 
Q 1081 -850 1212 -737 
Q 1344 -625 1503 -206 
L 1606 56 
L 191 3500 
L 800 3500 
L 1894 763 
L 2988 3500 
L 3597 3500 
L 2059 -325 
z
" transform="scale(0.015625)"/>
       <path id="DejaVuSans-28" d="M 1984 4856 
Q 1566 4138 1362 3434 
Q 1159 2731 1159 2009 
Q 1159 1288 1364 580 
Q 1569 -128 1984 -844 
L 1484 -844 
Q 1016 -109 783 600 
Q 550 1309 550 2009 
Q 550 2706 781 3412 
Q 1013 4119 1484 4856 
L 1984 4856 
z
" transform="scale(0.015625)"/>
       <path id="DejaVuSans-b5" d="M 544 -1331 
L 544 3500 
L 1119 3500 
L 1119 1325 
Q 1119 872 1334 640 
Q 1550 409 1972 409 
Q 2434 409 2667 671 
Q 2900 934 2900 1459 
L 2900 3500 
L 3475 3500 
L 3475 806 
Q 3475 619 3529 530 
Q 3584 441 3700 441 
Q 3728 441 3778 458 
Q 3828 475 3916 513 
L 3916 50 
Q 3788 -22 3673 -56 
Q 3559 -91 3450 -91 
Q 3234 -91 3106 31 
Q 2978 153 2931 403 
Q 2775 156 2548 32 
Q 2322 -91 2016 -91 
Q 1697 -91 1473 31 
Q 1250 153 1119 397 
L 1119 -1331 
L 544 -1331 
z
" transform="scale(0.015625)"/>
       <path id="DejaVuSans-6d" d="M 3328 2828 
Q 3544 3216 3844 3400 
Q 4144 3584 4550 3584 
Q 5097 3584 5394 3201 
Q 5691 2819 5691 2113 
L 5691 0 
L 5113 0 
L 5113 2094 
Q 5113 2597 4934 2840 
Q 4756 3084 4391 3084 
Q 3944 3084 3684 2787 
Q 3425 2491 3425 1978 
L 3425 0 
L 2847 0 
L 2847 2094 
Q 2847 2600 2669 2842 
Q 2491 3084 2119 3084 
Q 1678 3084 1418 2786 
Q 1159 2488 1159 1978 
L 1159 0 
L 581 0 
L 581 3500 
L 1159 3500 
L 1159 2956 
Q 1356 3278 1631 3431 
Q 1906 3584 2284 3584 
Q 2666 3584 2933 3390 
Q 3200 3197 3328 2828 
z
" transform="scale(0.015625)"/>
       <path id="DejaVuSans-2212" d="M 678 2272 
L 4684 2272 
L 4684 1741 
L 678 1741 
L 678 2272 
z
" transform="scale(0.015625)"/>
       <path id="DejaVuSans-29" d="M 513 4856 
L 1013 4856 
Q 1481 4119 1714 3412 
Q 1947 2706 1947 2009 
Q 1947 1309 1714 600 
Q 1481 -109 1013 -844 
L 513 -844 
Q 928 -128 1133 580 
Q 1338 1288 1338 2009 
Q 1338 2731 1133 3434 
Q 928 4138 513 4856 
z
" transform="scale(0.015625)"/>
      </defs>
      <use xlink:href="#DejaVuSans-53" transform="translate(0 0.684375)"/>
      <use xlink:href="#DejaVuSans-70" transform="translate(63.476562 0.684375)"/>
      <use xlink:href="#DejaVuSans-61" transform="translate(126.953125 0.684375)"/>
      <use xlink:href="#DejaVuSans-74" transform="translate(188.232422 0.684375)"/>
      <use xlink:href="#DejaVuSans-69" transform="translate(227.441406 0.684375)"/>
      <use xlink:href="#DejaVuSans-61" transform="translate(255.224609 0.684375)"/>
      <use xlink:href="#DejaVuSans-6c" transform="translate(316.503906 0.684375)"/>
      <use xlink:href="#DejaVuSans-20" transform="translate(344.287109 0.684375)"/>
      <use xlink:href="#DejaVuSans-66" transform="translate(376.074219 0.684375)"/>
      <use xlink:href="#DejaVuSans-72" transform="translate(411.279297 0.684375)"/>
      <use xlink:href="#DejaVuSans-65" transform="translate(452.392578 0.684375)"/>
      <use xlink:href="#DejaVuSans-71" transform="translate(513.916016 0.684375)"/>
      <use xlink:href="#DejaVuSans-75" transform="translate(577.392578 0.684375)"/>
      <use xlink:href="#DejaVuSans-65" transform="translate(640.771484 0.684375)"/>
      <use xlink:href="#DejaVuSans-6e" transform="translate(702.294922 0.684375)"/>
      <use xlink:href="#DejaVuSans-63" transform="translate(765.673828 0.684375)"/>
      <use xlink:href="#DejaVuSans-79" transform="translate(820.654297 0.684375)"/>
      <use xlink:href="#DejaVuSans-20" transform="translate(879.833984 0.684375)"/>
      <use xlink:href="#DejaVuSans-28" transform="translate(911.621094 0.684375)"/>
      <use xlink:href="#DejaVuSans-b5" transform="translate(950.634766 0.684375)"/>
      <use xlink:href="#DejaVuSans-6d" transform="translate(1014.257812 0.684375)"/>
      <use xlink:href="#DejaVuSans-2212" transform="translate(1112.626953 38.965625) scale(0.7)"/>
      <use xlink:href="#DejaVuSans-31" transform="translate(1171.279297 38.965625) scale(0.7)"/>
      <use xlink:href="#DejaVuSans-29" transform="translate(1218.549805 0.684375)"/>
     </g>
    </g>
   </g>
   <g id="matplotlib.axis_2">
    <g id="ytick_1">
     <g id="line2d_5">
      <defs>
       <path id="ma10b6e05d3" d="M 0 0 
L -8 0 
" style="stroke: #000000; stroke-width: 2"/>
      </defs>
      <g>
       <use xlink:href="#ma10b6e05d3" x="73.8625" y="291.998438" style="stroke: #000000; stroke-width: 2"/>
      </g>
     </g>
     <g id="text_6">
      <!-- 0.0 -->
      <g transform="translate(30.55625 299.596875) scale(0.2 -0.2)">
       <defs>
        <path id="DejaVuSans-2e" d="M 684 794 
L 1344 794 
L 1344 0 
L 684 0 
L 684 794 
z
" transform="scale(0.015625)"/>
       </defs>
       <use xlink:href="#DejaVuSans-30"/>
       <use xlink:href="#DejaVuSans-2e" x="63.623047"/>
       <use xlink:href="#DejaVuSans-30" x="95.410156"/>
      </g>
     </g>
    </g>
    <g id="ytick_2">
     <g id="line2d_6">
      <g>
       <use xlink:href="#ma10b6e05d3" x="73.8625" y="236.558438" style="stroke: #000000; stroke-width: 2"/>
      </g>
     </g>
     <g id="text_7">
      <!-- 0.2 -->
      <g transform="translate(30.55625 244.156875) scale(0.2 -0.2)">
       <defs>
        <path id="DejaVuSans-32" d="M 1228 531 
L 3431 531 
L 3431 0 
L 469 0 
L 469 531 
Q 828 903 1448 1529 
Q 2069 2156 2228 2338 
Q 2531 2678 2651 2914 
Q 2772 3150 2772 3378 
Q 2772 3750 2511 3984 
Q 2250 4219 1831 4219 
Q 1534 4219 1204 4116 
Q 875 4013 500 3803 
L 500 4441 
Q 881 4594 1212 4672 
Q 1544 4750 1819 4750 
Q 2544 4750 2975 4387 
Q 3406 4025 3406 3419 
Q 3406 3131 3298 2873 
Q 3191 2616 2906 2266 
Q 2828 2175 2409 1742 
Q 1991 1309 1228 531 
z
" transform="scale(0.015625)"/>
       </defs>
       <use xlink:href="#DejaVuSans-30"/>
       <use xlink:href="#DejaVuSans-2e" x="63.623047"/>
       <use xlink:href="#DejaVuSans-32" x="95.410156"/>
      </g>
     </g>
    </g>
    <g id="ytick_3">
     <g id="line2d_7">
      <g>
       <use xlink:href="#ma10b6e05d3" x="73.8625" y="181.118438" style="stroke: #000000; stroke-width: 2"/>
      </g>
     </g>
     <g id="text_8">
      <!-- 0.4 -->
      <g transform="translate(30.55625 188.716875) scale(0.2 -0.2)">
       <defs>
        <path id="DejaVuSans-34" d="M 2419 4116 
L 825 1625 
L 2419 1625 
L 2419 4116 
z
M 2253 4666 
L 3047 4666 
L 3047 1625 
L 3713 1625 
L 3713 1100 
L 3047 1100 
L 3047 0 
L 2419 0 
L 2419 1100 
L 313 1100 
L 313 1709 
L 2253 4666 
z
" transform="scale(0.015625)"/>
       </defs>
       <use xlink:href="#DejaVuSans-30"/>
       <use xlink:href="#DejaVuSans-2e" x="63.623047"/>
       <use xlink:href="#DejaVuSans-34" x="95.410156"/>
      </g>
     </g>
    </g>
    <g id="ytick_4">
     <g id="line2d_8">
      <g>
       <use xlink:href="#ma10b6e05d3" x="73.8625" y="125.678438" style="stroke: #000000; stroke-width: 2"/>
      </g>
     </g>
     <g id="text_9">
      <!-- 0.6 -->
      <g transform="translate(30.55625 133.276875) scale(0.2 -0.2)">
       <defs>
        <path id="DejaVuSans-36" d="M 2113 2584 
Q 1688 2584 1439 2293 
Q 1191 2003 1191 1497 
Q 1191 994 1439 701 
Q 1688 409 2113 409 
Q 2538 409 2786 701 
Q 3034 994 3034 1497 
Q 3034 2003 2786 2293 
Q 2538 2584 2113 2584 
z
M 3366 4563 
L 3366 3988 
Q 3128 4100 2886 4159 
Q 2644 4219 2406 4219 
Q 1781 4219 1451 3797 
Q 1122 3375 1075 2522 
Q 1259 2794 1537 2939 
Q 1816 3084 2150 3084 
Q 2853 3084 3261 2657 
Q 3669 2231 3669 1497 
Q 3669 778 3244 343 
Q 2819 -91 2113 -91 
Q 1303 -91 875 529 
Q 447 1150 447 2328 
Q 447 3434 972 4092 
Q 1497 4750 2381 4750 
Q 2619 4750 2861 4703 
Q 3103 4656 3366 4563 
z
" transform="scale(0.015625)"/>
       </defs>
       <use xlink:href="#DejaVuSans-30"/>
       <use xlink:href="#DejaVuSans-2e" x="63.623047"/>
       <use xlink:href="#DejaVuSans-36" x="95.410156"/>
      </g>
     </g>
    </g>
    <g id="ytick_5">
     <g id="line2d_9">
      <g>
       <use xlink:href="#ma10b6e05d3" x="73.8625" y="70.238438" style="stroke: #000000; stroke-width: 2"/>
      </g>
     </g>
     <g id="text_10">
      <!-- 0.8 -->
      <g transform="translate(30.55625 77.836875) scale(0.2 -0.2)">
       <defs>
        <path id="DejaVuSans-38" d="M 2034 2216 
Q 1584 2216 1326 1975 
Q 1069 1734 1069 1313 
Q 1069 891 1326 650 
Q 1584 409 2034 409 
Q 2484 409 2743 651 
Q 3003 894 3003 1313 
Q 3003 1734 2745 1975 
Q 2488 2216 2034 2216 
z
M 1403 2484 
Q 997 2584 770 2862 
Q 544 3141 544 3541 
Q 544 4100 942 4425 
Q 1341 4750 2034 4750 
Q 2731 4750 3128 4425 
Q 3525 4100 3525 3541 
Q 3525 3141 3298 2862 
Q 3072 2584 2669 2484 
Q 3125 2378 3379 2068 
Q 3634 1759 3634 1313 
Q 3634 634 3220 271 
Q 2806 -91 2034 -91 
Q 1263 -91 848 271 
Q 434 634 434 1313 
Q 434 1759 690 2068 
Q 947 2378 1403 2484 
z
M 1172 3481 
Q 1172 3119 1398 2916 
Q 1625 2713 2034 2713 
Q 2441 2713 2670 2916 
Q 2900 3119 2900 3481 
Q 2900 3844 2670 4047 
Q 2441 4250 2034 4250 
Q 1625 4250 1398 4047 
Q 1172 3844 1172 3481 
z
" transform="scale(0.015625)"/>
       </defs>
       <use xlink:href="#DejaVuSans-30"/>
       <use xlink:href="#DejaVuSans-2e" x="63.623047"/>
       <use xlink:href="#DejaVuSans-38" x="95.410156"/>
      </g>
     </g>
    </g>
    <g id="ytick_6">
     <g id="line2d_10">
      <g>
       <use xlink:href="#ma10b6e05d3" x="73.8625" y="14.798438" style="stroke: #000000; stroke-width: 2"/>
      </g>
     </g>
     <g id="text_11">
      <!-- 1.0 -->
      <g transform="translate(30.55625 22.396875) scale(0.2 -0.2)">
       <use xlink:href="#DejaVuSans-31"/>
       <use xlink:href="#DejaVuSans-2e" x="63.623047"/>
       <use xlink:href="#DejaVuSans-30" x="95.410156"/>
      </g>
     </g>
    </g>
    <g id="text_12">
     <!-- Correlation -->
     <g transform="translate(22.396875 208.535938) rotate(-90) scale(0.2 -0.2)">
      <defs>
       <path id="DejaVuSans-43" d="M 4122 4306 
L 4122 3641 
Q 3803 3938 3442 4084 
Q 3081 4231 2675 4231 
Q 1875 4231 1450 3742 
Q 1025 3253 1025 2328 
Q 1025 1406 1450 917 
Q 1875 428 2675 428 
Q 3081 428 3442 575 
Q 3803 722 4122 1019 
L 4122 359 
Q 3791 134 3420 21 
Q 3050 -91 2638 -91 
Q 1578 -91 968 557 
Q 359 1206 359 2328 
Q 359 3453 968 4101 
Q 1578 4750 2638 4750 
Q 3056 4750 3426 4639 
Q 3797 4528 4122 4306 
z
" transform="scale(0.015625)"/>
       <path id="DejaVuSans-6f" d="M 1959 3097 
Q 1497 3097 1228 2736 
Q 959 2375 959 1747 
Q 959 1119 1226 758 
Q 1494 397 1959 397 
Q 2419 397 2687 759 
Q 2956 1122 2956 1747 
Q 2956 2369 2687 2733 
Q 2419 3097 1959 3097 
z
M 1959 3584 
Q 2709 3584 3137 3096 
Q 3566 2609 3566 1747 
Q 3566 888 3137 398 
Q 2709 -91 1959 -91 
Q 1206 -91 779 398 
Q 353 888 353 1747 
Q 353 2609 779 3096 
Q 1206 3584 1959 3584 
z
" transform="scale(0.015625)"/>
      </defs>
      <use xlink:href="#DejaVuSans-43"/>
      <use xlink:href="#DejaVuSans-6f" x="69.824219"/>
      <use xlink:href="#DejaVuSans-72" x="131.005859"/>
      <use xlink:href="#DejaVuSans-72" x="170.369141"/>
      <use xlink:href="#DejaVuSans-65" x="209.232422"/>
      <use xlink:href="#DejaVuSans-6c" x="270.755859"/>
      <use xlink:href="#DejaVuSans-61" x="298.539062"/>
      <use xlink:href="#DejaVuSans-74" x="359.818359"/>
      <use xlink:href="#DejaVuSans-69" x="399.027344"/>
      <use xlink:href="#DejaVuSans-6f" x="426.810547"/>
      <use xlink:href="#DejaVuSans-6e" x="487.992188"/>
     </g>
    </g>
   </g>
   <g id="line2d_11">
    <path d="M 73.8625 14.798438 
L 75.718787 33.116915 
L 77.575075 40.963507 
L 79.431362 42.083019 
L 81.28765 44.523955 
L 83.143937 48.150716 
L 85.000225 50.165429 
L 86.856512 56.186737 
L 88.712799 57.847504 
L 90.569087 61.663098 
L 92.425374 69.597449 
L 94.281662 75.312827 
L 96.137949 76.076951 
L 97.994237 84.263015 
L 99.850524 85.811534 
L 101.706811 89.731413 
L 105.419386 92.055537 
L 107.275674 92.836236 
L 109.131961 94.012544 
L 110.988249 96.62544 
L 112.844536 100.056833 
L 114.700823 104.15294 
L 116.557111 106.745863 
L 118.413398 113.229937 
L 120.269686 118.320234 
L 122.125973 122.736605 
L 123.98226 126.061551 
L 127.694835 132.058841 
L 129.551123 135.675303 
L 131.40741 139.944943 
L 133.263698 143.616831 
L 135.119985 146.773349 
L 136.976272 150.392846 
L 138.83256 152.714213 
L 140.688847 157.1463 
L 142.545135 161.172765 
L 144.401422 163.826733 
L 146.25771 167.886234 
L 148.113997 170.727592 
L 149.970284 174.392997 
L 151.826572 178.93386 
L 153.682859 182.334363 
L 155.539147 186.235448 
L 161.108009 197.240783 
L 162.964296 201.87582 
L 164.820584 205.34402 
L 166.676871 209.631577 
L 170.389446 219.145271 
L 174.102021 226.016362 
L 175.958308 230.135697 
L 177.814596 233.298614 
L 181.527171 240.288531 
L 187.096033 248.211996 
L 190.808608 252.87146 
L 192.664895 254.211441 
L 194.521183 256.30262 
L 196.37747 257.38341 
L 198.233757 259.001868 
L 200.090045 260.967603 
L 201.946332 262.285152 
L 203.80262 264.142251 
L 207.515195 266.436898 
L 211.227769 268.89269 
L 213.084057 269.881767 
L 214.940344 271.419046 
L 216.796632 272.349915 
L 218.652919 273.68924 
L 224.221781 277.027253 
L 227.934356 278.588571 
L 233.503219 280.966485 
L 237.215793 282.066658 
L 240.928368 283.108989 
L 242.784656 283.277738 
L 246.497231 284.463952 
L 248.353518 284.489257 
L 252.066093 285.037371 
L 257.634955 286.020068 
L 259.491243 286.114865 
L 261.34753 286.379896 
L 263.203817 286.790363 
L 276.197829 287.934322 
L 278.054117 288.220947 
L 279.910404 288.227639 
L 281.766692 288.51722 
L 289.191841 288.883872 
L 291.048129 289.161389 
L 294.760704 289.412375 
L 296.616991 289.67184 
L 298.473278 289.590237 
L 302.185853 290.038123 
L 304.042141 289.890353 
L 305.898428 290.252469 
L 307.754716 290.120582 
L 309.611003 290.441649 
L 318.89244 290.82864 
L 320.748728 290.720421 
L 322.605015 290.750537 
L 324.461302 290.999957 
L 326.31759 290.66123 
L 328.173877 290.817156 
L 330.030165 290.809913 
L 331.886452 290.576683 
L 333.74274 290.810339 
L 335.599027 290.5292 
L 337.455314 290.641501 
L 339.311602 290.553134 
L 341.167889 290.839551 
L 343.024177 290.971298 
L 344.880464 290.837701 
L 346.736751 290.981765 
L 348.593039 290.978272 
L 350.449326 290.310884 
L 350.449326 290.310884 
" clip-path="url(#p1dfbde27bc)" style="fill: none; stroke: #0000cd; stroke-width: 0.5; stroke-linecap: square"/>
   </g>
   <g id="line2d_12">
    <path d="M 73.8625 14.798438 
L 75.718787 24.783283 
L 77.575075 24.790551 
L 79.431362 25.678593 
L 81.28765 25.851231 
L 83.143937 27.878899 
L 85.000225 28.960691 
L 86.856512 29.851925 
L 88.712799 31.316887 
L 90.569087 33.218838 
L 92.425374 34.203549 
L 94.281662 35.896248 
L 96.137949 36.717732 
L 99.850524 43.189475 
L 103.563099 52.45585 
L 105.419386 58.200737 
L 110.988249 78.58939 
L 112.844536 86.84909 
L 114.700823 96.279624 
L 116.557111 103.52209 
L 118.413398 111.904657 
L 120.269686 118.420067 
L 122.125973 126.076791 
L 125.838548 138.715795 
L 127.694835 143.794751 
L 129.551123 147.87589 
L 131.40741 152.518873 
L 133.263698 155.904126 
L 135.119985 159.669303 
L 136.976272 163.848858 
L 140.688847 171.13687 
L 142.545135 175.116992 
L 144.401422 180.209132 
L 146.25771 183.909991 
L 148.113997 187.274051 
L 149.970284 192.834901 
L 151.826572 196.557464 
L 155.539147 203.495129 
L 157.395434 206.298511 
L 159.251722 209.81179 
L 161.108009 211.63348 
L 162.964296 214.971231 
L 164.820584 217.123957 
L 166.676871 218.101221 
L 168.533159 220.528242 
L 172.245734 222.817881 
L 174.102021 223.609896 
L 177.814596 226.025269 
L 179.670883 226.186863 
L 181.527171 227.262822 
L 185.239746 228.428879 
L 187.096033 229.443517 
L 188.95232 230.118773 
L 190.808608 230.597364 
L 192.664895 230.636115 
L 194.521183 231.754361 
L 196.37747 232.558019 
L 198.233757 233.038387 
L 200.090045 233.82767 
L 201.946332 234.389089 
L 203.80262 235.411175 
L 205.658907 237.268807 
L 207.515195 237.536294 
L 209.371482 239.318556 
L 213.084057 241.813636 
L 214.940344 243.892738 
L 216.796632 244.7548 
L 218.652919 247.060711 
L 220.509207 247.60321 
L 222.365494 250.188823 
L 224.221781 251.865999 
L 226.078069 252.281159 
L 227.934356 255.473308 
L 229.790644 255.716998 
L 233.503219 260.063541 
L 235.359506 260.005669 
L 237.215793 263.476925 
L 239.072081 263.372414 
L 240.928368 265.633541 
L 244.640943 267.884344 
L 246.497231 270.702826 
L 248.353518 270.100599 
L 250.209805 272.547856 
L 252.066093 273.4081 
L 253.92238 274.925259 
L 255.778668 276.948662 
L 257.634955 276.780647 
L 259.491243 278.745575 
L 261.34753 279.323289 
L 263.203817 280.70226 
L 265.060105 281.265404 
L 266.916392 282.108431 
L 268.77268 283.451943 
L 270.628967 283.618341 
L 272.485254 284.380752 
L 274.341542 284.638059 
L 276.197829 285.500652 
L 278.054117 286.06638 
L 279.910404 286.214409 
L 281.766692 286.728006 
L 287.335554 287.498179 
L 289.191841 287.408517 
L 291.048129 288.066736 
L 292.904416 287.955971 
L 296.616991 288.491636 
L 302.185853 288.684497 
L 304.042141 288.997878 
L 313.323578 289.515071 
L 317.036153 289.843179 
L 320.748728 290.041589 
L 331.886452 290.70117 
L 335.599027 291.022328 
L 337.455314 291.165404 
L 341.167889 291.224563 
L 344.880464 291.334396 
L 346.736751 290.999454 
L 348.593039 291.27949 
L 350.449326 290.998984 
L 350.449326 290.998984 
" clip-path="url(#p1dfbde27bc)" style="fill: none; stroke: #8b0000; stroke-width: 0.5; stroke-linecap: square"/>
   </g>
   <g id="line2d_13">
    <path d="M 73.8625 14.798438 
L 75.718787 21.390971 
L 77.575075 25.618212 
L 79.431362 28.373302 
L 81.28765 29.260943 
L 83.143937 32.987304 
L 85.000225 34.454154 
L 86.856512 37.572141 
L 88.712799 40.214205 
L 90.569087 43.876605 
L 92.425374 50.455417 
L 94.281662 56.126792 
L 96.137949 57.590653 
L 97.994237 66.069557 
L 101.706811 73.14965 
L 103.563099 73.477073 
L 105.419386 74.298983 
L 107.275674 75.883627 
L 109.131961 79.190989 
L 110.988249 81.862584 
L 112.844536 85.936064 
L 114.700823 92.656154 
L 116.557111 97.229357 
L 123.98226 123.29555 
L 125.838548 128.638944 
L 127.694835 132.598053 
L 129.551123 137.247937 
L 131.40741 142.924177 
L 135.119985 151.257204 
L 136.976272 156.465657 
L 140.688847 161.782549 
L 142.545135 166.595067 
L 144.401422 168.963218 
L 146.25771 173.257257 
L 148.113997 177.867553 
L 157.395434 198.203017 
L 159.251722 203.324713 
L 161.108009 205.360081 
L 162.964296 210.562738 
L 168.533159 218.99044 
L 170.389446 224.340809 
L 172.245734 228.224449 
L 175.958308 234.137293 
L 179.670883 237.887535 
L 181.527171 241.063767 
L 183.383458 242.896904 
L 185.239746 245.288747 
L 187.096033 246.210342 
L 188.95232 247.310458 
L 190.808608 249.229127 
L 192.664895 249.802751 
L 194.521183 252.034873 
L 196.37747 253.456135 
L 198.233757 254.671033 
L 201.946332 256.323896 
L 203.80262 257.969107 
L 205.658907 258.0917 
L 207.515195 258.806621 
L 209.371482 258.780089 
L 211.227769 260.312215 
L 213.084057 260.898916 
L 214.940344 261.205 
L 216.796632 262.197125 
L 218.652919 261.418236 
L 220.509207 263.147582 
L 222.365494 264.315009 
L 224.221781 264.208382 
L 226.078069 265.262381 
L 229.790644 265.926236 
L 231.646931 266.041504 
L 233.503219 265.35788 
L 235.359506 265.772385 
L 237.215793 265.240433 
L 239.072081 266.510543 
L 240.928368 265.378586 
L 242.784656 266.196016 
L 246.497231 266.559376 
L 250.209805 267.851891 
L 252.066093 268.081647 
L 253.92238 268.74367 
L 255.778668 269.139825 
L 257.634955 269.376692 
L 259.491243 268.451546 
L 261.34753 269.345413 
L 263.203817 269.622969 
L 266.916392 269.594047 
L 268.77268 270.017256 
L 270.628967 269.809242 
L 274.341542 270.339021 
L 276.197829 271.05058 
L 278.054117 271.162955 
L 279.910404 270.918745 
L 281.766692 270.555565 
L 283.622979 270.598738 
L 285.479266 270.192977 
L 287.335554 270.772335 
L 289.191841 270.812605 
L 291.048129 271.341941 
L 292.904416 271.471264 
L 294.760704 270.989607 
L 296.616991 270.957512 
L 298.473278 271.141253 
L 300.329566 271.935118 
L 302.185853 272.368454 
L 304.042141 272.05869 
L 307.754716 272.816321 
L 309.611003 272.719762 
L 313.323578 272.062597 
L 315.179865 272.356642 
L 317.036153 272.771775 
L 318.89244 272.655402 
L 320.748728 272.902516 
L 322.605015 272.476887 
L 324.461302 272.683035 
L 326.31759 272.695362 
L 328.173877 273.101879 
L 330.030165 272.858771 
L 331.886452 272.374572 
L 333.74274 272.885173 
L 335.599027 272.724792 
L 337.455314 273.149353 
L 339.311602 272.702373 
L 341.167889 272.964116 
L 344.880464 272.696578 
L 346.736751 272.977213 
L 348.593039 272.702003 
L 350.449326 273.124354 
L 350.449326 273.124354 
" clip-path="url(#p1dfbde27bc)" style="fill: none; stroke: #000000; stroke-width: 0.5; stroke-linecap: square"/>
   </g>
   <g id="patch_3">
    <path d="M 73.8625 291.998438 
L 73.8625 14.798438 
" style="fill: none; stroke: #000000; stroke-width: 2; stroke-linejoin: miter; stroke-linecap: square"/>
   </g>
   <g id="patch_4">
    <path d="M 73.8625 291.998438 
L 352.8625 291.998438 
" style="fill: none; stroke: #000000; stroke-width: 2; stroke-linejoin: miter; stroke-linecap: square"/>
   </g>
  </g>
 </g>
 <defs>
  <clipPath id="p1dfbde27bc">
   <rect x="73.8625" y="14.798438" width="279" height="277.2"/>
  </clipPath>
 </defs>
</svg>
