<?xml version="1.0" encoding="utf-8" standalone="no"?>
<!DOCTYPE svg PUBLIC "-//W3C//DTD SVG 1.1//EN"
  "http://www.w3.org/Graphics/SVG/1.1/DTD/svg11.dtd">
<svg xmlns:xlink="http://www.w3.org/1999/xlink" width="125.765625pt" height="123.973344pt" viewBox="0 0 125.765625 123.973344" xmlns="http://www.w3.org/2000/svg" version="1.1">
 <metadata>
  <rdf:RDF xmlns:dc="http://purl.org/dc/elements/1.1/" xmlns:cc="http://creativecommons.org/ns#" xmlns:rdf="http://www.w3.org/1999/02/22-rdf-syntax-ns#">
   <cc:Work>
    <dc:type rdf:resource="http://purl.org/dc/dcmitype/StillImage"/>
    <dc:date>2026-04-26T17:05:33.511475</dc:date>
    <dc:format>image/svg+xml</dc:format>
    <dc:creator>
     <cc:Agent>
      <dc:title>Matplotlib v3.9.1, https://matplotlib.org/</dc:title>
     </cc:Agent>
    </dc:creator>
   </cc:Work>
  </rdf:RDF>
 </metadata>
 <defs>
  <style type="text/css">*{stroke-linejoin: round; stroke-linecap: butt}</style>
 </defs>
 <g id="figure_1">
  <g id="patch_1">
   <path d="M 0 123.973344 
L 125.765625 123.973344 
L 125.765625 -0 
L 0 -0 
z
" style="fill: #ffffff"/>
  </g>
  <g id="axes_1">
   <g id="patch_2">
    <path d="M 40.445625 88.615219 
L 118.565625 88.615219 
L 118.565625 10.999219 
L 40.445625 10.999219 
z
" style="fill: #ffffff"/>
   </g>
   <g id="PolyCollection_1">
    <defs>
     <path id="mc7dfe53f19" d="M 40.445625 -112.974125 
L 40.445625 -112.974125 
L 40.936995 -101.861356 
L 41.428365 -104.87413 
L 41.919736 -101.888583 
L 42.411106 -103.23281 
L 42.902476 -105.980493 
L 43.393846 -103.854744 
L 43.885216 -103.904806 
L 44.376587 -104.318564 
L 44.867957 -103.515489 
L 45.359327 -104.071509 
L 45.850697 -103.099899 
L 46.342067 -103.878331 
L 46.833438 -102.297916 
L 47.324808 -101.32001 
L 47.816178 -100.2214 
L 48.307548 -98.372471 
L 48.798918 -96.856041 
L 49.290289 -95.487547 
L 49.781659 -93.583828 
L 50.273029 -91.580952 
L 50.764399 -88.983685 
L 51.255769 -85.449444 
L 51.74714 -82.634589 
L 52.23851 -79.186428 
L 52.72988 -76.013909 
L 53.22125 -73.610975 
L 53.71262 -71.184726 
L 54.203991 -69.125188 
L 54.695361 -68.2188 
L 55.186731 -66.135111 
L 55.678101 -64.855569 
L 56.169471 -64.049567 
L 56.660842 -63.134041 
L 57.152212 -62.922988 
L 57.643582 -61.947944 
L 58.134952 -60.817064 
L 58.626322 -60.156497 
L 59.117693 -59.338709 
L 59.609063 -58.656763 
L 60.100433 -57.789707 
L 60.591803 -56.492209 
L 61.083173 -55.622124 
L 61.574544 -56.125842 
L 62.065914 -54.506659 
L 62.557284 -53.176255 
L 63.048654 -52.781798 
L 63.540024 -51.861525 
L 64.031395 -51.147368 
L 64.522765 -50.516081 
L 65.014135 -49.799428 
L 65.505505 -48.925987 
L 65.996875 -47.890872 
L 66.488246 -47.518775 
L 66.979616 -46.70549 
L 67.470986 -46.053812 
L 67.962356 -45.939359 
L 68.453726 -46.6091 
L 68.945097 -45.503561 
L 69.436467 -45.333067 
L 69.927837 -44.719169 
L 70.419207 -44.661619 
L 70.910577 -44.435614 
L 71.401948 -44.050662 
L 71.893318 -43.765148 
L 72.384688 -43.253907 
L 72.876058 -43.11186 
L 73.367428 -42.843387 
L 73.858799 -42.885792 
L 74.350169 -42.741859 
L 74.841539 -42.21885 
L 75.332909 -42.639598 
L 75.824279 -42.2302 
L 76.31565 -42.41828 
L 76.80702 -41.762784 
L 77.29839 -41.860085 
L 77.78976 -41.343044 
L 78.28113 -41.386366 
L 78.772501 -41.381226 
L 79.263871 -41.278715 
L 79.755241 -41.112843 
L 80.246611 -41.368233 
L 80.737981 -40.978922 
L 81.229352 -40.810536 
L 81.720722 -40.635774 
L 82.212092 -40.857658 
L 82.703462 -41.238122 
L 83.194832 -40.539845 
L 83.686203 -40.619742 
L 84.177573 -40.35329 
L 84.668943 -40.180148 
L 85.160313 -39.956273 
L 85.651683 -40.020785 
L 86.143054 -39.875855 
L 86.634424 -39.811776 
L 87.125794 -39.690292 
L 87.617164 -39.505789 
L 88.108534 -39.37678 
L 88.599905 -39.280512 
L 89.091275 -39.140717 
L 89.582645 -39.543387 
L 90.074015 -38.908782 
L 90.565385 -38.84225 
L 91.056756 -38.95943 
L 91.548126 -38.681579 
L 92.039496 -38.509199 
L 92.530866 -38.587648 
L 93.022236 -38.623203 
L 93.513607 -38.327345 
L 94.004977 -38.08728 
L 94.496347 -38.129601 
L 94.987717 -37.903361 
L 95.479087 -37.860588 
L 95.970458 -38.077481 
L 96.461828 -38.508553 
L 96.953198 -38.172642 
L 97.444568 -38.02604 
L 97.935938 -37.939631 
L 98.427309 -37.898083 
L 98.918679 -37.900575 
L 99.410049 -37.632362 
L 99.901419 -37.644547 
L 100.392789 -37.340101 
L 100.88416 -37.366912 
L 101.37553 -36.977673 
L 101.8669 -37.021301 
L 102.35827 -36.960436 
L 102.84964 -37.020817 
L 103.341011 -37.105629 
L 103.832381 -37.355456 
L 104.323751 -36.958309 
L 104.815121 -37.187494 
L 105.306492 -36.95882 
L 105.797862 -36.967833 
L 106.289232 -36.680863 
L 106.780602 -36.504688 
L 107.271972 -36.587865 
L 107.763343 -36.339804 
L 108.254713 -36.533123 
L 108.746083 -36.309253 
L 109.237453 -36.184398 
L 109.728823 -36.406072 
L 110.220194 -36.3378 
L 110.711564 -36.601126 
L 111.202934 -36.288642 
L 111.694304 -36.298315 
L 112.185674 -36.227319 
L 112.677045 -36.152728 
L 113.168415 -36.013808 
L 113.659785 -35.986156 
L 113.659785 -40.895205 
L 113.659785 -40.895205 
L 113.168415 -40.719921 
L 112.677045 -40.851994 
L 112.185674 -41.219288 
L 111.694304 -41.386792 
L 111.202934 -41.647129 
L 110.711564 -42.057353 
L 110.220194 -41.184355 
L 109.728823 -41.226713 
L 109.237453 -41.148775 
L 108.746083 -41.318961 
L 108.254713 -41.463659 
L 107.763343 -41.429665 
L 107.271972 -41.569888 
L 106.780602 -41.592765 
L 106.289232 -41.993303 
L 105.797862 -42.073477 
L 105.306492 -42.127879 
L 104.815121 -42.374061 
L 104.323751 -42.251894 
L 103.832381 -42.923333 
L 103.341011 -42.785124 
L 102.84964 -42.137885 
L 102.35827 -42.654521 
L 101.8669 -42.614729 
L 101.37553 -42.503804 
L 100.88416 -42.563237 
L 100.392789 -42.97929 
L 99.901419 -42.941895 
L 99.410049 -43.356184 
L 98.918679 -43.217144 
L 98.427309 -43.415578 
L 97.935938 -43.570131 
L 97.444568 -43.907727 
L 96.953198 -44.094529 
L 96.461828 -44.444385 
L 95.970458 -43.662897 
L 95.479087 -43.738122 
L 94.987717 -43.614408 
L 94.496347 -44.019182 
L 94.004977 -44.141341 
L 93.513607 -44.23247 
L 93.022236 -44.589591 
L 92.530866 -44.344218 
L 92.039496 -44.611844 
L 91.548126 -45.062803 
L 91.056756 -45.119365 
L 90.565385 -45.092665 
L 90.074015 -45.38384 
L 89.582645 -46.637414 
L 89.091275 -45.246269 
L 88.599905 -45.493691 
L 88.108534 -45.489854 
L 87.617164 -45.571044 
L 87.125794 -46.384993 
L 86.634424 -46.180462 
L 86.143054 -46.361552 
L 85.651683 -46.78722 
L 85.160313 -47.058608 
L 84.668943 -47.159854 
L 84.177573 -46.744556 
L 83.686203 -47.363258 
L 83.194832 -47.248807 
L 82.703462 -48.268512 
L 82.212092 -47.504996 
L 81.720722 -47.615161 
L 81.229352 -47.499696 
L 80.737981 -47.590156 
L 80.246611 -47.718474 
L 79.755241 -48.303081 
L 79.263871 -48.140989 
L 78.772501 -48.606995 
L 78.28113 -48.889747 
L 77.78976 -49.131644 
L 77.29839 -49.703826 
L 76.80702 -49.659653 
L 76.31565 -50.349891 
L 75.824279 -50.139451 
L 75.332909 -51.210606 
L 74.841539 -50.224025 
L 74.350169 -50.963612 
L 73.858799 -50.486805 
L 73.367428 -51.439088 
L 72.876058 -51.876042 
L 72.384688 -52.044992 
L 71.893318 -52.130597 
L 71.401948 -53.06007 
L 70.910577 -53.194685 
L 70.419207 -53.447118 
L 69.927837 -54.06189 
L 69.436467 -54.158033 
L 68.945097 -55.595921 
L 68.453726 -56.8207 
L 67.962356 -56.944199 
L 67.470986 -57.042394 
L 66.979616 -58.494948 
L 66.488246 -59.333769 
L 65.996875 -60.68438 
L 65.505505 -61.868651 
L 65.014135 -62.949063 
L 64.522765 -64.064193 
L 64.031395 -64.662688 
L 63.540024 -66.468584 
L 63.048654 -67.306469 
L 62.557284 -68.753571 
L 62.065914 -70.126552 
L 61.574544 -72.198785 
L 61.083173 -73.732717 
L 60.591803 -74.997676 
L 60.100433 -77.262508 
L 59.609063 -78.472688 
L 59.117693 -80.166716 
L 58.626322 -81.468824 
L 58.134952 -83.334878 
L 57.643582 -84.774474 
L 57.152212 -85.202695 
L 56.660842 -86.76615 
L 56.169471 -88.139001 
L 55.678101 -89.238081 
L 55.186731 -91.365074 
L 54.695361 -93.290871 
L 54.203991 -94.877584 
L 53.71262 -96.211688 
L 53.22125 -98.060591 
L 52.72988 -100.221413 
L 52.23851 -102.128407 
L 51.74714 -103.785602 
L 51.255769 -104.662892 
L 50.764399 -106.232169 
L 50.273029 -107.516435 
L 49.781659 -108.913701 
L 49.290289 -110.157377 
L 48.798918 -111.470628 
L 48.307548 -112.31052 
L 47.816178 -112.824939 
L 47.324808 -113.614914 
L 46.833438 -114.225419 
L 46.342067 -114.306578 
L 45.850697 -115.366152 
L 45.359327 -115.294417 
L 44.867957 -115.785087 
L 44.376587 -115.58786 
L 43.885216 -116.340585 
L 43.393846 -116.346076 
L 42.902476 -115.410544 
L 42.411106 -117.351018 
L 41.919736 -118.21843 
L 41.428365 -116.654053 
L 40.936995 -118.454224 
L 40.445625 -112.974125 
z
"/>
    </defs>
    <g clip-path="url(#pfce4644530)">
     <use xlink:href="#mc7dfe53f19" x="0" y="123.973344" style="fill-opacity: 0.2"/>
    </g>
   </g>
   <g id="PolyCollection_2">
    <defs>
     <path id="mea42a4e0ea" d="M 40.445625 -112.974125 
L 40.445625 -112.974125 
L 40.936995 -110.721434 
L 41.428365 -111.493938 
L 41.919736 -111.272188 
L 42.411106 -111.205445 
L 42.902476 -111.30392 
L 43.393846 -111.206728 
L 43.885216 -111.178289 
L 44.376587 -110.861862 
L 44.867957 -110.810646 
L 45.359327 -110.731729 
L 45.850697 -110.389886 
L 46.342067 -110.378956 
L 46.833438 -109.795926 
L 47.324808 -109.455418 
L 47.816178 -108.998952 
L 48.307548 -108.456789 
L 48.798918 -107.680552 
L 49.290289 -106.926725 
L 49.781659 -105.865915 
L 50.273029 -104.653309 
L 50.764399 -103.114298 
L 51.255769 -101.220883 
L 51.74714 -99.348514 
L 52.23851 -96.750988 
L 52.72988 -94.001389 
L 53.22125 -91.334359 
L 53.71262 -89.292815 
L 54.203991 -87.115729 
L 54.695361 -85.191376 
L 55.186731 -83.480226 
L 55.678101 -82.179874 
L 56.169471 -81.453585 
L 56.660842 -80.53069 
L 57.152212 -79.889788 
L 57.643582 -79.512663 
L 58.134952 -78.366111 
L 58.626322 -77.192228 
L 59.117693 -76.248175 
L 59.609063 -74.942576 
L 60.100433 -73.652216 
L 60.591803 -71.882889 
L 61.083173 -70.386255 
L 61.574544 -68.721176 
L 62.065914 -66.623329 
L 62.557284 -64.632084 
L 63.048654 -62.960267 
L 63.540024 -61.439564 
L 64.031395 -59.215404 
L 64.522765 -57.708541 
L 65.014135 -55.785673 
L 65.505505 -53.792785 
L 65.996875 -52.092244 
L 66.488246 -50.385046 
L 66.979616 -49.053799 
L 67.470986 -47.460266 
L 67.962356 -46.493008 
L 68.453726 -45.623225 
L 68.945097 -44.699828 
L 69.436467 -43.93814 
L 69.927837 -43.155889 
L 70.419207 -42.59729 
L 70.910577 -41.891564 
L 71.401948 -41.434067 
L 71.893318 -41.113265 
L 72.384688 -40.562353 
L 72.876058 -40.11356 
L 73.367428 -39.712865 
L 73.858799 -39.216631 
L 74.350169 -38.93359 
L 74.841539 -38.616738 
L 75.332909 -38.462125 
L 75.824279 -38.19636 
L 76.31565 -37.990828 
L 76.80702 -37.866645 
L 77.29839 -37.677076 
L 77.78976 -37.554892 
L 78.28113 -37.348162 
L 78.772501 -37.1687 
L 79.263871 -37.008198 
L 79.755241 -36.839303 
L 80.246611 -36.681813 
L 80.737981 -36.542127 
L 81.229352 -36.409117 
L 81.720722 -36.278361 
L 82.212092 -36.157714 
L 82.703462 -36.040121 
L 83.194832 -36.010297 
L 83.686203 -35.952119 
L 84.177573 -35.917752 
L 84.668943 -35.908913 
L 85.160313 -35.887955 
L 85.651683 -35.873754 
L 86.143054 -35.810977 
L 86.634424 -35.773852 
L 87.125794 -35.735194 
L 87.617164 -35.694375 
L 88.108534 -35.66716 
L 88.599905 -35.61139 
L 89.091275 -35.56805 
L 89.582645 -35.551863 
L 90.074015 -35.534785 
L 90.565385 -35.535236 
L 91.056756 -35.552371 
L 91.548126 -35.554067 
L 92.039496 -35.559536 
L 92.530866 -35.56191 
L 93.022236 -35.56046 
L 93.513607 -35.564709 
L 94.004977 -35.545519 
L 94.496347 -35.517986 
L 94.987717 -35.497681 
L 95.479087 -35.455407 
L 95.970458 -35.433713 
L 96.461828 -35.409856 
L 96.953198 -35.408639 
L 97.444568 -35.403585 
L 97.935938 -35.406101 
L 98.427309 -35.400523 
L 98.918679 -35.382526 
L 99.410049 -35.356663 
L 99.901419 -35.35748 
L 100.392789 -35.332685 
L 100.88416 -35.321778 
L 101.37553 -35.302316 
L 101.8669 -35.297755 
L 102.35827 -35.292157 
L 102.84964 -35.294095 
L 103.341011 -35.295199 
L 103.832381 -35.302461 
L 104.323751 -35.295568 
L 104.815121 -35.308626 
L 105.306492 -35.329861 
L 105.797862 -35.341679 
L 106.289232 -35.375273 
L 106.780602 -35.371705 
L 107.271972 -35.38878 
L 107.763343 -35.386568 
L 108.254713 -35.381248 
L 108.746083 -35.403549 
L 109.237453 -35.387851 
L 109.728823 -35.40684 
L 110.220194 -35.387218 
L 110.711564 -35.397006 
L 111.202934 -35.392186 
L 111.694304 -35.379 
L 112.185674 -35.376581 
L 112.677045 -35.373426 
L 113.168415 -35.358169 
L 113.659785 -35.396069 
L 113.659785 -35.628106 
L 113.659785 -35.628106 
L 113.168415 -35.581597 
L 112.677045 -35.555695 
L 112.185674 -35.5619 
L 111.694304 -35.532734 
L 111.202934 -35.565895 
L 110.711564 -35.595079 
L 110.220194 -35.614178 
L 109.728823 -35.631387 
L 109.237453 -35.578645 
L 108.746083 -35.594294 
L 108.254713 -35.575311 
L 107.763343 -35.559504 
L 107.271972 -35.567164 
L 106.780602 -35.539088 
L 106.289232 -35.595192 
L 105.797862 -35.606037 
L 105.306492 -35.605762 
L 104.815121 -35.665661 
L 104.323751 -35.673217 
L 103.832381 -35.693526 
L 103.341011 -35.699221 
L 102.84964 -35.715756 
L 102.35827 -35.786565 
L 101.8669 -35.780158 
L 101.37553 -35.833118 
L 100.88416 -35.777491 
L 100.392789 -35.806887 
L 99.901419 -35.81957 
L 99.410049 -35.839709 
L 98.918679 -35.843243 
L 98.427309 -35.861395 
L 97.935938 -35.912508 
L 97.444568 -35.981212 
L 96.953198 -36.024412 
L 96.461828 -36.063527 
L 95.970458 -36.096833 
L 95.479087 -36.097658 
L 94.987717 -36.119445 
L 94.496347 -36.127262 
L 94.004977 -36.167232 
L 93.513607 -36.212566 
L 93.022236 -36.263162 
L 92.530866 -36.299016 
L 92.039496 -36.383871 
L 91.548126 -36.441143 
L 91.056756 -36.527925 
L 90.565385 -36.555358 
L 90.074015 -36.62897 
L 89.582645 -36.718976 
L 89.091275 -36.765332 
L 88.599905 -36.829653 
L 88.108534 -36.850856 
L 87.617164 -36.907756 
L 87.125794 -36.948703 
L 86.634424 -37.051611 
L 86.143054 -37.091652 
L 85.651683 -37.23249 
L 85.160313 -37.357555 
L 84.668943 -37.487825 
L 84.177573 -37.73995 
L 83.686203 -37.882419 
L 83.194832 -38.155134 
L 82.703462 -38.342209 
L 82.212092 -38.610881 
L 81.720722 -38.813411 
L 81.229352 -39.02383 
L 80.737981 -39.288071 
L 80.246611 -39.558481 
L 79.755241 -39.877075 
L 79.263871 -40.339044 
L 78.772501 -40.735217 
L 78.28113 -41.202677 
L 77.78976 -41.552783 
L 77.29839 -42.155774 
L 76.80702 -42.72834 
L 76.31565 -43.473388 
L 75.824279 -43.998437 
L 75.332909 -44.68807 
L 74.841539 -45.33372 
L 74.350169 -46.004375 
L 73.858799 -46.5928 
L 73.367428 -47.360992 
L 72.876058 -48.090219 
L 72.384688 -48.644432 
L 71.893318 -49.772519 
L 71.401948 -50.643092 
L 70.910577 -51.765096 
L 70.419207 -52.830327 
L 69.927837 -54.185738 
L 69.436467 -55.301096 
L 68.945097 -57.057373 
L 68.453726 -58.603541 
L 67.962356 -59.94124 
L 67.470986 -61.350803 
L 66.979616 -63.240252 
L 66.488246 -65.105778 
L 65.996875 -67.127652 
L 65.505505 -68.81484 
L 65.014135 -70.931939 
L 64.522765 -72.826247 
L 64.031395 -74.791382 
L 63.540024 -77.162915 
L 63.048654 -78.568752 
L 62.557284 -80.458651 
L 62.065914 -82.35831 
L 61.574544 -84.337888 
L 61.083173 -86.363067 
L 60.591803 -88.15535 
L 60.100433 -90.171176 
L 59.609063 -91.871801 
L 59.117693 -93.684001 
L 58.626322 -95.182259 
L 58.134952 -96.568585 
L 57.643582 -97.997127 
L 57.152212 -99.288756 
L 56.660842 -100.343764 
L 56.169471 -101.313928 
L 55.678101 -102.297301 
L 55.186731 -103.549488 
L 54.695361 -104.440493 
L 54.203991 -105.080838 
L 53.71262 -105.775569 
L 53.22125 -106.512778 
L 52.72988 -107.220028 
L 52.23851 -107.707188 
L 51.74714 -108.333866 
L 51.255769 -108.656095 
L 50.764399 -109.376422 
L 50.273029 -109.844502 
L 49.781659 -110.18722 
L 49.290289 -110.512446 
L 48.798918 -110.969335 
L 48.307548 -111.205205 
L 47.816178 -111.476038 
L 47.324808 -111.844967 
L 46.833438 -111.944346 
L 46.342067 -112.146958 
L 45.850697 -112.273558 
L 45.359327 -112.307822 
L 44.867957 -112.498741 
L 44.376587 -112.588975 
L 43.885216 -112.682552 
L 43.393846 -112.754799 
L 42.902476 -112.807422 
L 42.411106 -113.090267 
L 41.919736 -113.293768 
L 41.428365 -113.289803 
L 40.936995 -114.084626 
L 40.445625 -112.974125 
z
"/>
    </defs>
    <g clip-path="url(#pfce4644530)">
     <use xlink:href="#mea42a4e0ea" x="0" y="123.973344" style="fill: #0000cd; fill-opacity: 0.3"/>
    </g>
   </g>
   <g id="PolyCollection_3">
    <defs>
     <path id="mc55797e4c9" d="M 40.445625 -112.974125 
L 40.445625 -112.974125 
L 40.936995 -103.525473 
L 41.428365 -105.180088 
L 41.919736 -103.207701 
L 42.411106 -105.379889 
L 42.902476 -103.855899 
L 43.393846 -104.021872 
L 43.885216 -103.987284 
L 44.376587 -103.362516 
L 44.867957 -103.114393 
L 45.359327 -102.784274 
L 45.850697 -102.259917 
L 46.342067 -102.528137 
L 46.833438 -102.258123 
L 47.324808 -101.555103 
L 47.816178 -101.869139 
L 48.307548 -100.985887 
L 48.798918 -99.749493 
L 49.290289 -98.082919 
L 49.781659 -96.886733 
L 50.273029 -95.725501 
L 50.764399 -93.178088 
L 51.255769 -90.581534 
L 51.74714 -88.009258 
L 52.23851 -85.277887 
L 52.72988 -82.407036 
L 53.22125 -80.086196 
L 53.71262 -78.07909 
L 54.203991 -76.401042 
L 54.695361 -75.468773 
L 55.186731 -74.064187 
L 55.678101 -73.409199 
L 56.169471 -72.809911 
L 56.660842 -71.734264 
L 57.152212 -71.063506 
L 57.643582 -70.838398 
L 58.134952 -69.577554 
L 58.626322 -68.751718 
L 59.117693 -67.847692 
L 59.609063 -66.701386 
L 60.100433 -65.368157 
L 60.591803 -63.922585 
L 61.083173 -62.926029 
L 61.574544 -61.684021 
L 62.065914 -59.962745 
L 62.557284 -58.404807 
L 63.048654 -57.371188 
L 63.540024 -56.219049 
L 64.031395 -55.038423 
L 64.522765 -54.036235 
L 65.014135 -53.13855 
L 65.505505 -52.135927 
L 65.996875 -51.358866 
L 66.488246 -50.652032 
L 66.979616 -49.915326 
L 67.470986 -49.181683 
L 67.962356 -48.798542 
L 68.453726 -48.667098 
L 68.945097 -48.20375 
L 69.436467 -47.81199 
L 69.927837 -47.362809 
L 70.419207 -47.179148 
L 70.910577 -46.769284 
L 71.401948 -46.594144 
L 71.893318 -46.474527 
L 72.384688 -46.183161 
L 72.876058 -45.935524 
L 73.367428 -45.534437 
L 73.858799 -45.272549 
L 74.350169 -44.922313 
L 74.841539 -44.604581 
L 75.332909 -44.291394 
L 75.824279 -43.948801 
L 76.31565 -43.517221 
L 76.80702 -43.156047 
L 77.29839 -42.718505 
L 77.78976 -42.36397 
L 78.28113 -42.089074 
L 78.772501 -41.489731 
L 79.263871 -41.26185 
L 79.755241 -40.736826 
L 80.246611 -40.397731 
L 80.737981 -40.24531 
L 81.229352 -39.547006 
L 81.720722 -39.436184 
L 82.212092 -38.82249 
L 82.703462 -38.545634 
L 83.194832 -38.591474 
L 83.686203 -37.886538 
L 84.177573 -37.974991 
L 84.668943 -37.488859 
L 85.160313 -37.294776 
L 85.651683 -37.184474 
L 86.143054 -36.617313 
L 86.634424 -36.751548 
L 87.125794 -36.346773 
L 87.617164 -36.25003 
L 88.108534 -36.067212 
L 88.599905 -35.812808 
L 89.091275 -35.790865 
L 89.582645 -35.353115 
L 90.074015 -35.420639 
L 90.565385 -35.15487 
L 91.056756 -35.09641 
L 91.548126 -35.04502 
L 92.039496 -34.813437 
L 92.530866 -34.70843 
L 93.022236 -34.616024 
L 93.513607 -34.66704 
L 94.004977 -34.526427 
L 94.496347 -34.489611 
L 94.987717 -34.634345 
L 95.479087 -34.476053 
L 95.970458 -34.497015 
L 96.461828 -34.479964 
L 96.953198 -34.32344 
L 97.444568 -34.255018 
L 97.935938 -34.329118 
L 98.427309 -34.426015 
L 98.918679 -34.392593 
L 99.410049 -34.329551 
L 99.901419 -34.222439 
L 100.392789 -34.116135 
L 100.88416 -34.202622 
L 101.37553 -34.229992 
L 101.8669 -34.127909 
L 102.35827 -34.322379 
L 102.84964 -34.266244 
L 103.341011 -34.274767 
L 103.832381 -34.198715 
L 104.323751 -34.323139 
L 104.815121 -34.282841 
L 105.306492 -34.375275 
L 105.797862 -34.49981 
L 106.289232 -34.384784 
L 106.780602 -34.392474 
L 107.271972 -34.460986 
L 107.763343 -34.340807 
L 108.254713 -34.415203 
L 108.746083 -34.527341 
L 109.237453 -34.47627 
L 109.728823 -34.506808 
L 110.220194 -34.488268 
L 110.711564 -34.582094 
L 111.202934 -34.304205 
L 111.694304 -34.482181 
L 112.185674 -34.373769 
L 112.677045 -34.39443 
L 113.168415 -34.587746 
L 113.659785 -34.630179 
L 113.659785 -36.493852 
L 113.659785 -36.493852 
L 113.168415 -36.496678 
L 112.677045 -36.764552 
L 112.185674 -36.729221 
L 111.694304 -36.642356 
L 111.202934 -36.930904 
L 110.711564 -36.628368 
L 110.220194 -36.754827 
L 109.728823 -36.785001 
L 109.237453 -36.905834 
L 108.746083 -36.849964 
L 108.254713 -37.099702 
L 107.763343 -37.267781 
L 107.271972 -37.155109 
L 106.780602 -37.308359 
L 106.289232 -37.383534 
L 105.797862 -37.316295 
L 105.306492 -37.521433 
L 104.815121 -37.765837 
L 104.323751 -37.79702 
L 103.832381 -38.050941 
L 103.341011 -38.031988 
L 102.84964 -38.127995 
L 102.35827 -38.151902 
L 101.8669 -38.525683 
L 101.37553 -38.453695 
L 100.88416 -38.608119 
L 100.392789 -38.820841 
L 99.901419 -38.831015 
L 99.410049 -38.72365 
L 98.918679 -38.768323 
L 98.427309 -38.823616 
L 97.935938 -39.083184 
L 97.444568 -39.365804 
L 96.953198 -39.359982 
L 96.461828 -39.273741 
L 95.970458 -39.325716 
L 95.479087 -39.573601 
L 94.987717 -39.438844 
L 94.496347 -39.908535 
L 94.004977 -40.175281 
L 93.513607 -40.186712 
L 93.022236 -40.626659 
L 92.530866 -40.74612 
L 92.039496 -40.918903 
L 91.548126 -41.193611 
L 91.056756 -41.575769 
L 90.565385 -41.969634 
L 90.074015 -42.374563 
L 89.582645 -43.039267 
L 89.091275 -43.368875 
L 88.599905 -43.626557 
L 88.108534 -44.441646 
L 87.617164 -45.252566 
L 87.125794 -45.733242 
L 86.634424 -46.802298 
L 86.143054 -47.002388 
L 85.651683 -47.987534 
L 85.160313 -48.676506 
L 84.668943 -49.319038 
L 84.177573 -50.104169 
L 83.686203 -50.435036 
L 83.194832 -51.718412 
L 82.703462 -51.645922 
L 82.212092 -52.850913 
L 81.720722 -53.807615 
L 81.229352 -53.957746 
L 80.737981 -55.049406 
L 80.246611 -55.46144 
L 79.755241 -55.863694 
L 79.263871 -56.867564 
L 78.772501 -57.299284 
L 78.28113 -58.116169 
L 77.78976 -58.335733 
L 77.29839 -59.046709 
L 76.80702 -59.631367 
L 76.31565 -60.067603 
L 75.824279 -60.646087 
L 75.332909 -61.002971 
L 74.841539 -61.421441 
L 74.350169 -61.830706 
L 73.858799 -61.923903 
L 73.367428 -62.226552 
L 72.876058 -62.596866 
L 72.384688 -63.219878 
L 71.893318 -63.549528 
L 71.401948 -63.238109 
L 70.910577 -63.450268 
L 70.419207 -63.255465 
L 69.927837 -63.927357 
L 69.436467 -64.246548 
L 68.945097 -64.383938 
L 68.453726 -64.535752 
L 67.962356 -64.666412 
L 67.470986 -64.974202 
L 66.979616 -65.455715 
L 66.488246 -65.911337 
L 65.996875 -66.605971 
L 65.505505 -66.880704 
L 65.014135 -67.882798 
L 64.522765 -68.133533 
L 64.031395 -68.848552 
L 63.540024 -69.947484 
L 63.048654 -70.834558 
L 62.557284 -71.960485 
L 62.065914 -73.309358 
L 61.574544 -74.415594 
L 61.083173 -76.079351 
L 60.591803 -77.738237 
L 60.100433 -79.670531 
L 59.609063 -81.149809 
L 59.117693 -82.942314 
L 58.626322 -84.662403 
L 58.134952 -86.4187 
L 57.643582 -87.749237 
L 57.152212 -89.240817 
L 56.660842 -90.636028 
L 56.169471 -91.745569 
L 55.678101 -93.285294 
L 55.186731 -94.643209 
L 54.695361 -96.07494 
L 54.203991 -97.284441 
L 53.71262 -98.795766 
L 53.22125 -100.123602 
L 52.72988 -101.960008 
L 52.23851 -103.380388 
L 51.74714 -104.881886 
L 51.255769 -106.140294 
L 50.764399 -107.558211 
L 50.273029 -109.099865 
L 49.781659 -110.774884 
L 49.290289 -112.422957 
L 48.798918 -113.193633 
L 48.307548 -113.944084 
L 47.816178 -114.669226 
L 47.324808 -115.987718 
L 46.833438 -116.254595 
L 46.342067 -117.073519 
L 45.850697 -117.537745 
L 45.359327 -117.626803 
L 44.867957 -117.404213 
L 44.376587 -117.628839 
L 43.885216 -117.601335 
L 43.393846 -117.59635 
L 42.902476 -117.951065 
L 42.411106 -117.158704 
L 41.919736 -118.910714 
L 41.428365 -117.757902 
L 40.936995 -119.074561 
L 40.445625 -112.974125 
z
"/>
    </defs>
    <g clip-path="url(#pfce4644530)">
     <use xlink:href="#mc55797e4c9" x="0" y="123.973344" style="fill: #0d9188; fill-opacity: 0.3"/>
    </g>
   </g>
   <g id="matplotlib.axis_1">
    <g id="xtick_1">
     <g id="line2d_1">
      <defs>
       <path id="m2bd39e92fd" d="M 0 0 
L 0 2.1 
" style="stroke: #000000; stroke-width: 0.7"/>
      </defs>
      <g>
       <use xlink:href="#m2bd39e92fd" x="40.445625" y="88.615219" style="stroke: #000000; stroke-width: 0.7"/>
      </g>
     </g>
     <g id="text_1">
      <!-- 0 -->
      <g transform="translate(37.264375 101.813656) scale(0.1 -0.1)">
       <defs>
        <path id="DejaVuSans-30" d="M 2034 4250 
Q 1547 4250 1301 3770 
Q 1056 3291 1056 2328 
Q 1056 1369 1301 889 
Q 1547 409 2034 409 
Q 2525 409 2770 889 
Q 3016 1369 3016 2328 
Q 3016 3291 2770 3770 
Q 2525 4250 2034 4250 
z
M 2034 4750 
Q 2819 4750 3233 4129 
Q 3647 3509 3647 2328 
Q 3647 1150 3233 529 
Q 2819 -91 2034 -91 
Q 1250 -91 836 529 
Q 422 1150 422 2328 
Q 422 3509 836 4129 
Q 1250 4750 2034 4750 
z
" transform="scale(0.015625)"/>
       </defs>
       <use xlink:href="#DejaVuSans-30"/>
      </g>
     </g>
    </g>
    <g id="xtick_2">
     <g id="line2d_2">
      <g>
       <use xlink:href="#m2bd39e92fd" x="68.345625" y="88.615219" style="stroke: #000000; stroke-width: 0.7"/>
      </g>
     </g>
     <g id="text_2">
      <!-- 5 -->
      <g transform="translate(65.164375 101.813656) scale(0.1 -0.1)">
       <defs>
        <path id="DejaVuSans-35" d="M 691 4666 
L 3169 4666 
L 3169 4134 
L 1269 4134 
L 1269 2991 
Q 1406 3038 1543 3061 
Q 1681 3084 1819 3084 
Q 2600 3084 3056 2656 
Q 3513 2228 3513 1497 
Q 3513 744 3044 326 
Q 2575 -91 1722 -91 
Q 1428 -91 1123 -41 
Q 819 9 494 109 
L 494 744 
Q 775 591 1075 516 
Q 1375 441 1709 441 
Q 2250 441 2565 725 
Q 2881 1009 2881 1497 
Q 2881 1984 2565 2268 
Q 2250 2553 1709 2553 
Q 1456 2553 1204 2497 
Q 953 2441 691 2322 
L 691 4666 
z
" transform="scale(0.015625)"/>
       </defs>
       <use xlink:href="#DejaVuSans-35"/>
      </g>
     </g>
    </g>
    <g id="xtick_3">
     <g id="line2d_3">
      <g>
       <use xlink:href="#m2bd39e92fd" x="96.245625" y="88.615219" style="stroke: #000000; stroke-width: 0.7"/>
      </g>
     </g>
     <g id="text_3">
      <!-- 10 -->
      <g transform="translate(89.883125 101.813656) scale(0.1 -0.1)">
       <defs>
        <path id="DejaVuSans-31" d="M 794 531 
L 1825 531 
L 1825 4091 
L 703 3866 
L 703 4441 
L 1819 4666 
L 2450 4666 
L 2450 531 
L 3481 531 
L 3481 0 
L 794 0 
L 794 531 
z
" transform="scale(0.015625)"/>
       </defs>
       <use xlink:href="#DejaVuSans-31"/>
       <use xlink:href="#DejaVuSans-30" x="63.623047"/>
      </g>
     </g>
    </g>
    <g id="text_4">
     <!-- Spatial frequency (µm$^{-1}$) -->
     <g transform="translate(29.185625 115.093344) scale(0.08 -0.08)">
      <defs>
       <path id="DejaVuSans-53" d="M 3425 4513 
L 3425 3897 
Q 3066 4069 2747 4153 
Q 2428 4238 2131 4238 
Q 1616 4238 1336 4038 
Q 1056 3838 1056 3469 
Q 1056 3159 1242 3001 
Q 1428 2844 1947 2747 
L 2328 2669 
Q 3034 2534 3370 2195 
Q 3706 1856 3706 1288 
Q 3706 609 3251 259 
Q 2797 -91 1919 -91 
Q 1588 -91 1214 -16 
Q 841 59 441 206 
L 441 856 
Q 825 641 1194 531 
Q 1563 422 1919 422 
Q 2459 422 2753 634 
Q 3047 847 3047 1241 
Q 3047 1584 2836 1778 
Q 2625 1972 2144 2069 
L 1759 2144 
Q 1053 2284 737 2584 
Q 422 2884 422 3419 
Q 422 4038 858 4394 
Q 1294 4750 2059 4750 
Q 2388 4750 2728 4690 
Q 3069 4631 3425 4513 
z
" transform="scale(0.015625)"/>
       <path id="DejaVuSans-70" d="M 1159 525 
L 1159 -1331 
L 581 -1331 
L 581 3500 
L 1159 3500 
L 1159 2969 
Q 1341 3281 1617 3432 
Q 1894 3584 2278 3584 
Q 2916 3584 3314 3078 
Q 3713 2572 3713 1747 
Q 3713 922 3314 415 
Q 2916 -91 2278 -91 
Q 1894 -91 1617 61 
Q 1341 213 1159 525 
z
M 3116 1747 
Q 3116 2381 2855 2742 
Q 2594 3103 2138 3103 
Q 1681 3103 1420 2742 
Q 1159 2381 1159 1747 
Q 1159 1113 1420 752 
Q 1681 391 2138 391 
Q 2594 391 2855 752 
Q 3116 1113 3116 1747 
z
" transform="scale(0.015625)"/>
       <path id="DejaVuSans-61" d="M 2194 1759 
Q 1497 1759 1228 1600 
Q 959 1441 959 1056 
Q 959 750 1161 570 
Q 1363 391 1709 391 
Q 2188 391 2477 730 
Q 2766 1069 2766 1631 
L 2766 1759 
L 2194 1759 
z
M 3341 1997 
L 3341 0 
L 2766 0 
L 2766 531 
Q 2569 213 2275 61 
Q 1981 -91 1556 -91 
Q 1019 -91 701 211 
Q 384 513 384 1019 
Q 384 1609 779 1909 
Q 1175 2209 1959 2209 
L 2766 2209 
L 2766 2266 
Q 2766 2663 2505 2880 
Q 2244 3097 1772 3097 
Q 1472 3097 1187 3025 
Q 903 2953 641 2809 
L 641 3341 
Q 956 3463 1253 3523 
Q 1550 3584 1831 3584 
Q 2591 3584 2966 3190 
Q 3341 2797 3341 1997 
z
" transform="scale(0.015625)"/>
       <path id="DejaVuSans-74" d="M 1172 4494 
L 1172 3500 
L 2356 3500 
L 2356 3053 
L 1172 3053 
L 1172 1153 
Q 1172 725 1289 603 
Q 1406 481 1766 481 
L 2356 481 
L 2356 0 
L 1766 0 
Q 1100 0 847 248 
Q 594 497 594 1153 
L 594 3053 
L 172 3053 
L 172 3500 
L 594 3500 
L 594 4494 
L 1172 4494 
z
" transform="scale(0.015625)"/>
       <path id="DejaVuSans-69" d="M 603 3500 
L 1178 3500 
L 1178 0 
L 603 0 
L 603 3500 
z
M 603 4863 
L 1178 4863 
L 1178 4134 
L 603 4134 
L 603 4863 
z
" transform="scale(0.015625)"/>
       <path id="DejaVuSans-6c" d="M 603 4863 
L 1178 4863 
L 1178 0 
L 603 0 
L 603 4863 
z
" transform="scale(0.015625)"/>
       <path id="DejaVuSans-20" transform="scale(0.015625)"/>
       <path id="DejaVuSans-66" d="M 2375 4863 
L 2375 4384 
L 1825 4384 
Q 1516 4384 1395 4259 
Q 1275 4134 1275 3809 
L 1275 3500 
L 2222 3500 
L 2222 3053 
L 1275 3053 
L 1275 0 
L 697 0 
L 697 3053 
L 147 3053 
L 147 3500 
L 697 3500 
L 697 3744 
Q 697 4328 969 4595 
Q 1241 4863 1831 4863 
L 2375 4863 
z
" transform="scale(0.015625)"/>
       <path id="DejaVuSans-72" d="M 2631 2963 
Q 2534 3019 2420 3045 
Q 2306 3072 2169 3072 
Q 1681 3072 1420 2755 
Q 1159 2438 1159 1844 
L 1159 0 
L 581 0 
L 581 3500 
L 1159 3500 
L 1159 2956 
Q 1341 3275 1631 3429 
Q 1922 3584 2338 3584 
Q 2397 3584 2469 3576 
Q 2541 3569 2628 3553 
L 2631 2963 
z
" transform="scale(0.015625)"/>
       <path id="DejaVuSans-65" d="M 3597 1894 
L 3597 1613 
L 953 1613 
Q 991 1019 1311 708 
Q 1631 397 2203 397 
Q 2534 397 2845 478 
Q 3156 559 3463 722 
L 3463 178 
Q 3153 47 2828 -22 
Q 2503 -91 2169 -91 
Q 1331 -91 842 396 
Q 353 884 353 1716 
Q 353 2575 817 3079 
Q 1281 3584 2069 3584 
Q 2775 3584 3186 3129 
Q 3597 2675 3597 1894 
z
M 3022 2063 
Q 3016 2534 2758 2815 
Q 2500 3097 2075 3097 
Q 1594 3097 1305 2825 
Q 1016 2553 972 2059 
L 3022 2063 
z
" transform="scale(0.015625)"/>
       <path id="DejaVuSans-71" d="M 947 1747 
Q 947 1113 1208 752 
Q 1469 391 1925 391 
Q 2381 391 2643 752 
Q 2906 1113 2906 1747 
Q 2906 2381 2643 2742 
Q 2381 3103 1925 3103 
Q 1469 3103 1208 2742 
Q 947 2381 947 1747 
z
M 2906 525 
Q 2725 213 2448 61 
Q 2172 -91 1784 -91 
Q 1150 -91 751 415 
Q 353 922 353 1747 
Q 353 2572 751 3078 
Q 1150 3584 1784 3584 
Q 2172 3584 2448 3432 
Q 2725 3281 2906 2969 
L 2906 3500 
L 3481 3500 
L 3481 -1331 
L 2906 -1331 
L 2906 525 
z
" transform="scale(0.015625)"/>
       <path id="DejaVuSans-75" d="M 544 1381 
L 544 3500 
L 1119 3500 
L 1119 1403 
Q 1119 906 1312 657 
Q 1506 409 1894 409 
Q 2359 409 2629 706 
Q 2900 1003 2900 1516 
L 2900 3500 
L 3475 3500 
L 3475 0 
L 2900 0 
L 2900 538 
Q 2691 219 2414 64 
Q 2138 -91 1772 -91 
Q 1169 -91 856 284 
Q 544 659 544 1381 
z
M 1991 3584 
L 1991 3584 
z
" transform="scale(0.015625)"/>
       <path id="DejaVuSans-6e" d="M 3513 2113 
L 3513 0 
L 2938 0 
L 2938 2094 
Q 2938 2591 2744 2837 
Q 2550 3084 2163 3084 
Q 1697 3084 1428 2787 
Q 1159 2491 1159 1978 
L 1159 0 
L 581 0 
L 581 3500 
L 1159 3500 
L 1159 2956 
Q 1366 3272 1645 3428 
Q 1925 3584 2291 3584 
Q 2894 3584 3203 3211 
Q 3513 2838 3513 2113 
z
" transform="scale(0.015625)"/>
       <path id="DejaVuSans-63" d="M 3122 3366 
L 3122 2828 
Q 2878 2963 2633 3030 
Q 2388 3097 2138 3097 
Q 1578 3097 1268 2742 
Q 959 2388 959 1747 
Q 959 1106 1268 751 
Q 1578 397 2138 397 
Q 2388 397 2633 464 
Q 2878 531 3122 666 
L 3122 134 
Q 2881 22 2623 -34 
Q 2366 -91 2075 -91 
Q 1284 -91 818 406 
Q 353 903 353 1747 
Q 353 2603 823 3093 
Q 1294 3584 2113 3584 
Q 2378 3584 2631 3529 
Q 2884 3475 3122 3366 
z
" transform="scale(0.015625)"/>
       <path id="DejaVuSans-79" d="M 2059 -325 
Q 1816 -950 1584 -1140 
Q 1353 -1331 966 -1331 
L 506 -1331 
L 506 -850 
L 844 -850 
Q 1081 -850 1212 -737 
Q 1344 -625 1503 -206 
L 1606 56 
L 191 3500 
L 800 3500 
L 1894 763 
L 2988 3500 
L 3597 3500 
L 2059 -325 
z
" transform="scale(0.015625)"/>
       <path id="DejaVuSans-28" d="M 1984 4856 
Q 1566 4138 1362 3434 
Q 1159 2731 1159 2009 
Q 1159 1288 1364 580 
Q 1569 -128 1984 -844 
L 1484 -844 
Q 1016 -109 783 600 
Q 550 1309 550 2009 
Q 550 2706 781 3412 
Q 1013 4119 1484 4856 
L 1984 4856 
z
" transform="scale(0.015625)"/>
       <path id="DejaVuSans-b5" d="M 544 -1331 
L 544 3500 
L 1119 3500 
L 1119 1325 
Q 1119 872 1334 640 
Q 1550 409 1972 409 
Q 2434 409 2667 671 
Q 2900 934 2900 1459 
L 2900 3500 
L 3475 3500 
L 3475 806 
Q 3475 619 3529 530 
Q 3584 441 3700 441 
Q 3728 441 3778 458 
Q 3828 475 3916 513 
L 3916 50 
Q 3788 -22 3673 -56 
Q 3559 -91 3450 -91 
Q 3234 -91 3106 31 
Q 2978 153 2931 403 
Q 2775 156 2548 32 
Q 2322 -91 2016 -91 
Q 1697 -91 1473 31 
Q 1250 153 1119 397 
L 1119 -1331 
L 544 -1331 
z
" transform="scale(0.015625)"/>
       <path id="DejaVuSans-6d" d="M 3328 2828 
Q 3544 3216 3844 3400 
Q 4144 3584 4550 3584 
Q 5097 3584 5394 3201 
Q 5691 2819 5691 2113 
L 5691 0 
L 5113 0 
L 5113 2094 
Q 5113 2597 4934 2840 
Q 4756 3084 4391 3084 
Q 3944 3084 3684 2787 
Q 3425 2491 3425 1978 
L 3425 0 
L 2847 0 
L 2847 2094 
Q 2847 2600 2669 2842 
Q 2491 3084 2119 3084 
Q 1678 3084 1418 2786 
Q 1159 2488 1159 1978 
L 1159 0 
L 581 0 
L 581 3500 
L 1159 3500 
L 1159 2956 
Q 1356 3278 1631 3431 
Q 1906 3584 2284 3584 
Q 2666 3584 2933 3390 
Q 3200 3197 3328 2828 
z
" transform="scale(0.015625)"/>
       <path id="DejaVuSans-2212" d="M 678 2272 
L 4684 2272 
L 4684 1741 
L 678 1741 
L 678 2272 
z
" transform="scale(0.015625)"/>
       <path id="DejaVuSans-29" d="M 513 4856 
L 1013 4856 
Q 1481 4119 1714 3412 
Q 1947 2706 1947 2009 
Q 1947 1309 1714 600 
Q 1481 -109 1013 -844 
L 513 -844 
Q 928 -128 1133 580 
Q 1338 1288 1338 2009 
Q 1338 2731 1133 3434 
Q 928 4138 513 4856 
z
" transform="scale(0.015625)"/>
      </defs>
      <use xlink:href="#DejaVuSans-53" transform="translate(0 0.684375)"/>
      <use xlink:href="#DejaVuSans-70" transform="translate(63.476562 0.684375)"/>
      <use xlink:href="#DejaVuSans-61" transform="translate(126.953125 0.684375)"/>
      <use xlink:href="#DejaVuSans-74" transform="translate(188.232422 0.684375)"/>
      <use xlink:href="#DejaVuSans-69" transform="translate(227.441406 0.684375)"/>
      <use xlink:href="#DejaVuSans-61" transform="translate(255.224609 0.684375)"/>
      <use xlink:href="#DejaVuSans-6c" transform="translate(316.503906 0.684375)"/>
      <use xlink:href="#DejaVuSans-20" transform="translate(344.287109 0.684375)"/>
      <use xlink:href="#DejaVuSans-66" transform="translate(376.074219 0.684375)"/>
      <use xlink:href="#DejaVuSans-72" transform="translate(411.279297 0.684375)"/>
      <use xlink:href="#DejaVuSans-65" transform="translate(452.392578 0.684375)"/>
      <use xlink:href="#DejaVuSans-71" transform="translate(513.916016 0.684375)"/>
      <use xlink:href="#DejaVuSans-75" transform="translate(577.392578 0.684375)"/>
      <use xlink:href="#DejaVuSans-65" transform="translate(640.771484 0.684375)"/>
      <use xlink:href="#DejaVuSans-6e" transform="translate(702.294922 0.684375)"/>
      <use xlink:href="#DejaVuSans-63" transform="translate(765.673828 0.684375)"/>
      <use xlink:href="#DejaVuSans-79" transform="translate(820.654297 0.684375)"/>
      <use xlink:href="#DejaVuSans-20" transform="translate(879.833984 0.684375)"/>
      <use xlink:href="#DejaVuSans-28" transform="translate(911.621094 0.684375)"/>
      <use xlink:href="#DejaVuSans-b5" transform="translate(950.634766 0.684375)"/>
      <use xlink:href="#DejaVuSans-6d" transform="translate(1014.257812 0.684375)"/>
      <use xlink:href="#DejaVuSans-2212" transform="translate(1112.626953 38.965625) scale(0.7)"/>
      <use xlink:href="#DejaVuSans-31" transform="translate(1171.279297 38.965625) scale(0.7)"/>
      <use xlink:href="#DejaVuSans-29" transform="translate(1218.549805 0.684375)"/>
     </g>
    </g>
   </g>
   <g id="matplotlib.axis_2">
    <g id="ytick_1">
     <g id="line2d_4">
      <defs>
       <path id="mec6b2e0df8" d="M 0 0 
L -2.1 0 
" style="stroke: #000000; stroke-width: 0.7"/>
      </defs>
      <g>
       <use xlink:href="#mec6b2e0df8" x="40.445625" y="88.615219" style="stroke: #000000; stroke-width: 0.7"/>
      </g>
     </g>
     <g id="text_5">
      <!-- 0.0 -->
      <g transform="translate(18.9425 92.414437) scale(0.1 -0.1)">
       <defs>
        <path id="DejaVuSans-2e" d="M 684 794 
L 1344 794 
L 1344 0 
L 684 0 
L 684 794 
z
" transform="scale(0.015625)"/>
       </defs>
       <use xlink:href="#DejaVuSans-30"/>
       <use xlink:href="#DejaVuSans-2e" x="63.623047"/>
       <use xlink:href="#DejaVuSans-30" x="95.410156"/>
      </g>
     </g>
    </g>
    <g id="ytick_2">
     <g id="line2d_5">
      <g>
       <use xlink:href="#mec6b2e0df8" x="40.445625" y="49.807219" style="stroke: #000000; stroke-width: 0.7"/>
      </g>
     </g>
     <g id="text_6">
      <!-- 0.5 -->
      <g transform="translate(18.9425 53.606437) scale(0.1 -0.1)">
       <use xlink:href="#DejaVuSans-30"/>
       <use xlink:href="#DejaVuSans-2e" x="63.623047"/>
       <use xlink:href="#DejaVuSans-35" x="95.410156"/>
      </g>
     </g>
    </g>
    <g id="ytick_3">
     <g id="line2d_6">
      <g>
       <use xlink:href="#mec6b2e0df8" x="40.445625" y="10.999219" style="stroke: #000000; stroke-width: 0.7"/>
      </g>
     </g>
     <g id="text_7">
      <!-- 1.0 -->
      <g transform="translate(18.9425 14.798437) scale(0.1 -0.1)">
       <use xlink:href="#DejaVuSans-31"/>
       <use xlink:href="#DejaVuSans-2e" x="63.623047"/>
       <use xlink:href="#DejaVuSans-30" x="95.410156"/>
      </g>
     </g>
    </g>
    <g id="text_8">
     <!-- Correlation -->
     <g transform="translate(13.27875 71.862219) rotate(-90) scale(0.08 -0.08)">
      <defs>
       <path id="DejaVuSans-43" d="M 4122 4306 
L 4122 3641 
Q 3803 3938 3442 4084 
Q 3081 4231 2675 4231 
Q 1875 4231 1450 3742 
Q 1025 3253 1025 2328 
Q 1025 1406 1450 917 
Q 1875 428 2675 428 
Q 3081 428 3442 575 
Q 3803 722 4122 1019 
L 4122 359 
Q 3791 134 3420 21 
Q 3050 -91 2638 -91 
Q 1578 -91 968 557 
Q 359 1206 359 2328 
Q 359 3453 968 4101 
Q 1578 4750 2638 4750 
Q 3056 4750 3426 4639 
Q 3797 4528 4122 4306 
z
" transform="scale(0.015625)"/>
       <path id="DejaVuSans-6f" d="M 1959 3097 
Q 1497 3097 1228 2736 
Q 959 2375 959 1747 
Q 959 1119 1226 758 
Q 1494 397 1959 397 
Q 2419 397 2687 759 
Q 2956 1122 2956 1747 
Q 2956 2369 2687 2733 
Q 2419 3097 1959 3097 
z
M 1959 3584 
Q 2709 3584 3137 3096 
Q 3566 2609 3566 1747 
Q 3566 888 3137 398 
Q 2709 -91 1959 -91 
Q 1206 -91 779 398 
Q 353 888 353 1747 
Q 353 2609 779 3096 
Q 1206 3584 1959 3584 
z
" transform="scale(0.015625)"/>
      </defs>
      <use xlink:href="#DejaVuSans-43"/>
      <use xlink:href="#DejaVuSans-6f" x="69.824219"/>
      <use xlink:href="#DejaVuSans-72" x="131.005859"/>
      <use xlink:href="#DejaVuSans-72" x="170.369141"/>
      <use xlink:href="#DejaVuSans-65" x="209.232422"/>
      <use xlink:href="#DejaVuSans-6c" x="270.755859"/>
      <use xlink:href="#DejaVuSans-61" x="298.539062"/>
      <use xlink:href="#DejaVuSans-74" x="359.818359"/>
      <use xlink:href="#DejaVuSans-69" x="399.027344"/>
      <use xlink:href="#DejaVuSans-6f" x="426.810547"/>
      <use xlink:href="#DejaVuSans-6e" x="487.992188"/>
     </g>
    </g>
   </g>
   <g id="line2d_7">
    <path d="M 40.445625 10.999219 
L 40.936995 13.815554 
L 41.428365 13.209252 
L 41.919736 13.919838 
L 42.411106 13.68143 
L 42.902476 13.277825 
L 43.393846 13.872933 
L 43.885216 13.850648 
L 44.376587 14.020132 
L 44.867957 14.323056 
L 45.359327 14.290381 
L 45.850697 14.740318 
L 46.342067 14.880889 
L 47.816178 17.450174 
L 49.290289 21.150882 
L 50.273029 24.42465 
L 50.764399 26.365417 
L 51.255769 28.917176 
L 51.74714 30.763249 
L 53.22125 38.137561 
L 54.203991 41.971958 
L 54.695361 43.218508 
L 55.678101 46.926519 
L 58.134952 51.897373 
L 59.609063 55.408618 
L 60.100433 56.447236 
L 60.591803 58.228401 
L 61.083173 59.295924 
L 61.574544 59.811031 
L 62.065914 61.656738 
L 62.557284 63.008431 
L 63.540024 64.80829 
L 64.031395 66.068316 
L 64.522765 66.683207 
L 65.505505 68.576024 
L 66.488246 70.547072 
L 66.979616 71.373125 
L 67.470986 72.42524 
L 67.962356 72.531565 
L 68.453726 72.258444 
L 68.945097 73.423603 
L 69.436467 74.227794 
L 70.910577 75.158195 
L 71.401948 75.417978 
L 71.893318 76.025471 
L 72.384688 76.323894 
L 72.876058 76.479393 
L 73.858799 77.287046 
L 74.350169 77.120608 
L 74.841539 77.751906 
L 75.332909 77.048242 
L 75.824279 77.788518 
L 76.31565 77.589258 
L 76.80702 78.262125 
L 77.29839 78.191388 
L 77.78976 78.736 
L 78.772501 78.979233 
L 79.263871 79.263492 
L 79.755241 79.265382 
L 81.720722 79.847876 
L 82.212092 79.792017 
L 82.703462 79.220027 
L 83.194832 80.079017 
L 83.686203 79.981844 
L 84.177573 80.424421 
L 84.668943 80.303343 
L 86.634424 80.977225 
L 87.125794 80.935702 
L 87.617164 81.434927 
L 89.091275 81.77985 
L 89.582645 80.882943 
L 90.074015 81.827033 
L 90.565385 82.005886 
L 91.056756 81.933946 
L 91.548126 82.101153 
L 92.039496 82.412822 
L 92.530866 82.507411 
L 93.022236 82.366947 
L 93.513607 82.693436 
L 94.004977 82.859033 
L 94.496347 82.898952 
L 94.987717 83.214459 
L 95.970458 83.103155 
L 96.461828 82.496875 
L 96.953198 82.839758 
L 98.918679 83.414485 
L 99.410049 83.479071 
L 101.37553 84.232605 
L 102.35827 84.165865 
L 102.84964 84.393993 
L 103.341011 84.027967 
L 103.832381 83.833949 
L 104.323751 84.368242 
L 104.815121 84.192566 
L 105.306492 84.429994 
L 105.797862 84.452689 
L 107.763343 85.088609 
L 108.254713 84.974953 
L 109.237453 85.306757 
L 109.728823 85.156951 
L 110.220194 85.212267 
L 110.711564 84.644104 
L 111.202934 85.005458 
L 113.659785 85.532663 
L 113.659785 85.532663 
" clip-path="url(#pfce4644530)" style="fill: none; stroke: #000000; stroke-width: 0.42; stroke-linecap: square"/>
   </g>
   <g id="line2d_8">
    <path d="M 40.445625 10.999219 
L 40.936995 11.570314 
L 41.919736 11.690366 
L 43.393846 11.99258 
L 43.885216 12.042924 
L 44.376587 12.247925 
L 45.359327 12.453568 
L 45.850697 12.641622 
L 46.342067 12.710387 
L 46.833438 13.103208 
L 47.324808 13.323152 
L 48.798918 14.6484 
L 49.781659 15.946776 
L 50.273029 16.724438 
L 50.764399 17.727984 
L 52.23851 21.744256 
L 54.203991 27.87506 
L 55.678101 31.734756 
L 57.643582 35.218449 
L 59.609063 40.566155 
L 60.100433 42.061648 
L 63.048654 53.208834 
L 63.540024 54.672104 
L 64.031395 56.969951 
L 65.014135 60.614538 
L 65.996875 64.363396 
L 67.470986 69.567809 
L 69.927837 75.30253 
L 71.401948 77.934764 
L 71.893318 78.530452 
L 72.384688 79.369951 
L 73.367428 80.436415 
L 73.858799 81.068628 
L 77.78976 84.419506 
L 81.229352 86.25687 
L 83.686203 87.056075 
L 87.617164 87.672279 
L 94.496347 88.15072 
L 109.237453 88.490096 
L 110.711564 88.477301 
L 113.168415 88.503461 
L 113.659785 88.461256 
L 113.659785 88.461256 
" clip-path="url(#pfce4644530)" style="fill: none; stroke: #0000cd; stroke-width: 0.7; stroke-linecap: square"/>
   </g>
   <g id="line2d_9">
    <path d="M 40.445625 10.999219 
L 40.936995 12.673327 
L 41.428365 12.504349 
L 41.919736 12.914136 
L 42.411106 12.704047 
L 42.902476 13.069862 
L 43.885216 13.179034 
L 44.867957 13.714041 
L 45.359327 13.767806 
L 45.850697 14.074513 
L 46.342067 14.172516 
L 48.307548 16.508358 
L 49.290289 18.720406 
L 50.273029 21.560661 
L 53.71262 35.535916 
L 54.203991 37.130602 
L 54.695361 38.201487 
L 55.186731 39.619646 
L 57.643582 44.679526 
L 60.100433 51.454 
L 61.083173 54.470654 
L 62.557284 58.790698 
L 64.522765 62.88846 
L 65.014135 63.46267 
L 65.505505 64.465028 
L 65.996875 64.990925 
L 66.979616 66.287823 
L 67.470986 66.895401 
L 67.962356 67.240867 
L 68.453726 67.371918 
L 69.927837 68.328261 
L 70.419207 68.756037 
L 71.401948 69.057217 
L 71.893318 68.961316 
L 72.876058 69.707148 
L 73.858799 70.375118 
L 74.350169 70.596834 
L 76.31565 72.180932 
L 77.29839 73.090737 
L 77.78976 73.623492 
L 78.28113 73.870722 
L 78.772501 74.578836 
L 79.263871 74.908636 
L 79.755241 75.673084 
L 80.737981 76.325985 
L 81.229352 77.220968 
L 81.720722 77.351444 
L 82.703462 78.877565 
L 83.194832 78.818401 
L 83.686203 79.812556 
L 84.177573 79.933763 
L 84.668943 80.569395 
L 85.651683 81.38734 
L 86.143054 82.163493 
L 86.634424 82.196421 
L 87.125794 82.933336 
L 87.617164 83.222046 
L 88.599905 84.253661 
L 89.091275 84.393474 
L 90.565385 85.411092 
L 92.530866 86.246069 
L 94.496347 86.774271 
L 94.987717 86.936749 
L 95.970458 87.061978 
L 97.935938 87.267193 
L 99.410049 87.446744 
L 100.392789 87.504856 
L 104.323751 87.913264 
L 112.185674 88.421849 
L 113.659785 88.411329 
L 113.659785 88.411329 
" clip-path="url(#pfce4644530)" style="fill: none; stroke: #0d9188; stroke-width: 0.7; stroke-linecap: square"/>
   </g>
   <g id="patch_3">
    <path d="M 40.445625 88.615219 
L 40.445625 10.999219 
" style="fill: none; stroke: #000000; stroke-width: 0.7; stroke-linejoin: miter; stroke-linecap: square"/>
   </g>
   <g id="patch_4">
    <path d="M 40.445625 88.615219 
L 118.565625 88.615219 
" style="fill: none; stroke: #000000; stroke-width: 0.7; stroke-linejoin: miter; stroke-linecap: square"/>
   </g>
  </g>
 </g>
 <defs>
  <clipPath id="pfce4644530">
   <rect x="40.445625" y="10.999219" width="78.12" height="77.616"/>
  </clipPath>
 </defs>
</svg>
