<?xml version="1.0" encoding="utf-8" standalone="no"?>
<!DOCTYPE svg PUBLIC "-//W3C//DTD SVG 1.1//EN"
  "http://www.w3.org/Graphics/SVG/1.1/DTD/svg11.dtd">
<svg xmlns:xlink="http://www.w3.org/1999/xlink" width="132.128125pt" height="123.973344pt" viewBox="0 0 132.128125 123.973344" xmlns="http://www.w3.org/2000/svg" version="1.1">
 <metadata>
  <rdf:RDF xmlns:dc="http://purl.org/dc/elements/1.1/" xmlns:cc="http://creativecommons.org/ns#" xmlns:rdf="http://www.w3.org/1999/02/22-rdf-syntax-ns#">
   <cc:Work>
    <dc:type rdf:resource="http://purl.org/dc/dcmitype/StillImage"/>
    <dc:date>2026-04-22T11:18:28.758846</dc:date>
    <dc:format>image/svg+xml</dc:format>
    <dc:creator>
     <cc:Agent>
      <dc:title>Matplotlib v3.9.1, https://matplotlib.org/</dc:title>
     </cc:Agent>
    </dc:creator>
   </cc:Work>
  </rdf:RDF>
 </metadata>
 <defs>
  <style type="text/css">*{stroke-linejoin: round; stroke-linecap: butt}</style>
 </defs>
 <g id="figure_1">
  <g id="patch_1">
   <path d="M 0 123.973344 
L 132.128125 123.973344 
L 132.128125 -0 
L 0 -0 
z
" style="fill: #ffffff"/>
  </g>
  <g id="axes_1">
   <g id="patch_2">
    <path d="M 40.445625 88.615219 
L 118.565625 88.615219 
L 118.565625 10.999219 
L 40.445625 10.999219 
z
" style="fill: #ffffff"/>
   </g>
   <g id="PolyCollection_1">
    <defs>
     <path id="ma1fc576079" d="M 40.445625 -112.974125 
L 40.445625 -112.974125 
L 40.965385 -100.644288 
L 41.485146 -104.199235 
L 42.004906 -101.137182 
L 42.524667 -102.534111 
L 43.044427 -102.902201 
L 43.564188 -102.260754 
L 44.083948 -102.545574 
L 44.603709 -101.745784 
L 45.123469 -101.46327 
L 45.64323 -101.132199 
L 46.16299 -100.62401 
L 46.682751 -101.184202 
L 47.202511 -100.003887 
L 47.722272 -98.799724 
L 48.242032 -98.312709 
L 48.761793 -97.323351 
L 49.281553 -95.688434 
L 49.801314 -94.286576 
L 50.321074 -92.604645 
L 50.840835 -91.0645 
L 51.360595 -88.302027 
L 51.880356 -85.705911 
L 52.400116 -82.415247 
L 52.919876 -79.310296 
L 53.439637 -76.487984 
L 53.959397 -74.249447 
L 54.479158 -71.806215 
L 54.998918 -69.698938 
L 55.518679 -68.185813 
L 56.038439 -66.520585 
L 56.5582 -65.586257 
L 57.07796 -64.494148 
L 57.597721 -63.563729 
L 58.117481 -62.726153 
L 58.637242 -62.429865 
L 59.157002 -61.025978 
L 59.676763 -60.1636 
L 60.196523 -59.653744 
L 60.716284 -59.237502 
L 61.236044 -58.182505 
L 61.755805 -56.609405 
L 62.275565 -56.200211 
L 62.795326 -56.051914 
L 63.315086 -54.822784 
L 63.834847 -53.739802 
L 64.354607 -53.463698 
L 64.874368 -52.742287 
L 65.394128 -51.316034 
L 65.913888 -50.873134 
L 66.433649 -50.465807 
L 66.953409 -49.22906 
L 67.47317 -48.311566 
L 67.99293 -48.256577 
L 68.512691 -47.443045 
L 69.032451 -46.985176 
L 69.552212 -46.744574 
L 70.071972 -47.480026 
L 70.591733 -46.24268 
L 71.111493 -45.806324 
L 71.631254 -45.337136 
L 72.151014 -44.95131 
L 72.670775 -44.580224 
L 73.190535 -44.39889 
L 73.710296 -44.202458 
L 74.230056 -43.690821 
L 74.749817 -43.619441 
L 75.269577 -43.284573 
L 75.789338 -43.068643 
L 76.309098 -42.822159 
L 76.828859 -42.749976 
L 77.348619 -43.036205 
L 77.868379 -42.824783 
L 78.38814 -42.707955 
L 78.9079 -42.203434 
L 79.427661 -41.986813 
L 79.947421 -42.067731 
L 80.467182 -41.872312 
L 80.986942 -41.333778 
L 81.506703 -41.445191 
L 82.026463 -41.009174 
L 82.546224 -41.293691 
L 83.065984 -40.770986 
L 83.585745 -40.597899 
L 84.105505 -40.55401 
L 84.625266 -40.591679 
L 85.145026 -40.921825 
L 85.664787 -40.519578 
L 86.184547 -40.570472 
L 86.704308 -40.155269 
L 87.224068 -39.970349 
L 87.743829 -39.981198 
L 88.263589 -39.899495 
L 88.78335 -39.593632 
L 89.30311 -39.507824 
L 89.822871 -39.514749 
L 90.342631 -39.189721 
L 90.862391 -39.032392 
L 91.382152 -39.029036 
L 91.901912 -39.002502 
L 92.421673 -39.508868 
L 92.941433 -38.904066 
L 93.461194 -38.949893 
L 93.980954 -38.63146 
L 94.500715 -38.769128 
L 95.020475 -38.455323 
L 95.540236 -38.351771 
L 96.059996 -38.645839 
L 96.579757 -38.25443 
L 97.099517 -38.016611 
L 97.619278 -38.005749 
L 98.139038 -37.908888 
L 98.658799 -37.963079 
L 99.178559 -37.712295 
L 99.69832 -37.958439 
L 100.21808 -37.95738 
L 100.737841 -37.726182 
L 101.257601 -37.518326 
L 101.777362 -37.509584 
L 102.297122 -37.66556 
L 102.816882 -37.371774 
L 103.336643 -37.439801 
L 103.856403 -37.189738 
L 104.376164 -37.069891 
L 104.895924 -36.840288 
L 105.415685 -36.909934 
L 105.935445 -36.90381 
L 106.455206 -36.629357 
L 106.974966 -36.883311 
L 107.494727 -37.174857 
L 108.014487 -36.603042 
L 108.534248 -36.859659 
L 109.054008 -36.594179 
L 109.573769 -36.535284 
L 110.093529 -36.600673 
L 110.61329 -36.545459 
L 111.13305 -36.604046 
L 111.652811 -36.371546 
L 112.172571 -36.269411 
L 112.692332 -36.189444 
L 113.212092 -36.108185 
L 113.731853 -36.273883 
L 114.251613 -36.06064 
L 114.771374 -36.488927 
L 115.291134 -36.047248 
L 115.810894 -36.029945 
L 116.330655 -35.967414 
L 116.850415 -35.979375 
L 117.370176 -35.724461 
L 117.889936 -35.894118 
L 117.889936 -41.044517 
L 117.889936 -41.044517 
L 117.370176 -41.043626 
L 116.850415 -41.309354 
L 116.330655 -41.353034 
L 115.810894 -41.459807 
L 115.291134 -41.756433 
L 114.771374 -42.479358 
L 114.251613 -41.363749 
L 113.731853 -41.580194 
L 113.212092 -41.3551 
L 112.692332 -41.749349 
L 112.172571 -41.511508 
L 111.652811 -41.505543 
L 111.13305 -41.721026 
L 110.61329 -42.013594 
L 110.093529 -42.134147 
L 109.573769 -42.338245 
L 109.054008 -42.440668 
L 108.534248 -42.585671 
L 108.014487 -42.25991 
L 107.494727 -43.271734 
L 106.974966 -42.790188 
L 106.455206 -42.604103 
L 105.935445 -42.52071 
L 105.415685 -42.613405 
L 104.895924 -42.742954 
L 104.376164 -42.584839 
L 103.856403 -42.969705 
L 103.336643 -43.132523 
L 102.816882 -43.733616 
L 102.297122 -43.633014 
L 101.777362 -43.716681 
L 101.257601 -43.646334 
L 100.737841 -44.091452 
L 100.21808 -44.401795 
L 99.69832 -44.783903 
L 99.178559 -43.902485 
L 98.658799 -44.170069 
L 98.139038 -43.748562 
L 97.619278 -44.062554 
L 97.099517 -43.939473 
L 96.579757 -44.461298 
L 96.059996 -44.455576 
L 95.540236 -44.595662 
L 95.020475 -44.771905 
L 94.500715 -45.001374 
L 93.980954 -45.219902 
L 93.461194 -45.133089 
L 92.941433 -45.655741 
L 92.421673 -46.687776 
L 91.901912 -45.380614 
L 91.382152 -45.605925 
L 90.862391 -45.6447 
L 90.342631 -45.590468 
L 89.822871 -45.876963 
L 89.30311 -46.087454 
L 88.78335 -46.170523 
L 88.263589 -46.539086 
L 87.743829 -46.69182 
L 87.224068 -46.718167 
L 86.704308 -46.845522 
L 86.184547 -47.460716 
L 85.664787 -47.472297 
L 85.145026 -48.300318 
L 84.625266 -47.488245 
L 84.105505 -47.520951 
L 83.585745 -47.684797 
L 83.065984 -48.008807 
L 82.546224 -48.359521 
L 82.026463 -48.828381 
L 81.506703 -48.490348 
L 80.986942 -49.009847 
L 80.467182 -49.281574 
L 79.947421 -49.133473 
L 79.427661 -49.706057 
L 78.9079 -49.883193 
L 78.38814 -50.311913 
L 77.868379 -50.66158 
L 77.348619 -51.360938 
L 76.828859 -50.351155 
L 76.309098 -50.787427 
L 75.789338 -50.651068 
L 75.269577 -51.354718 
L 74.749817 -52.143526 
L 74.230056 -52.206571 
L 73.710296 -52.846669 
L 73.190535 -52.991266 
L 72.670775 -53.473827 
L 72.151014 -54.206803 
L 71.631254 -54.320396 
L 71.111493 -55.02522 
L 70.591733 -56.566173 
L 70.071972 -57.61159 
L 69.552212 -57.496905 
L 69.032451 -57.799976 
L 68.512691 -58.849552 
L 67.99293 -59.665179 
L 67.47317 -60.951713 
L 66.953409 -62.031277 
L 66.433649 -63.247742 
L 65.913888 -64.446206 
L 65.394128 -65.381601 
L 64.874368 -66.611639 
L 64.354607 -67.468818 
L 63.834847 -69.081168 
L 63.315086 -70.372104 
L 62.795326 -72.182181 
L 62.275565 -73.914566 
L 61.755805 -75.230909 
L 61.236044 -77.337537 
L 60.716284 -78.845578 
L 60.196523 -80.180287 
L 59.676763 -81.977097 
L 59.157002 -83.610457 
L 58.637242 -84.933018 
L 58.117481 -85.63837 
L 57.597721 -87.03194 
L 57.07796 -88.563339 
L 56.5582 -89.350763 
L 56.038439 -91.394886 
L 55.518679 -93.232477 
L 54.998918 -94.420985 
L 54.479158 -96.157883 
L 53.959397 -97.893291 
L 53.439637 -100.22259 
L 52.919876 -102.038333 
L 52.400116 -104.052517 
L 51.880356 -105.177407 
L 51.360595 -107.066086 
L 50.840835 -108.051089 
L 50.321074 -109.441668 
L 49.801314 -110.783712 
L 49.281553 -111.928765 
L 48.761793 -112.912586 
L 48.242032 -113.81286 
L 47.722272 -115.038254 
L 47.202511 -115.508523 
L 46.682751 -116.113686 
L 46.16299 -116.936799 
L 45.64323 -117.311071 
L 45.123469 -117.12776 
L 44.603709 -117.466591 
L 44.083948 -117.266253 
L 43.564188 -117.345991 
L 43.044427 -117.670411 
L 42.524667 -117.688129 
L 42.004906 -118.620533 
L 41.485146 -117.02083 
L 40.965385 -119.243692 
L 40.445625 -112.974125 
z
"/>
    </defs>
    <g clip-path="url(#p8af5193458)">
     <use xlink:href="#ma1fc576079" x="0" y="123.973344" style="fill-opacity: 0.2"/>
    </g>
   </g>
   <g id="PolyCollection_2">
    <defs>
     <path id="me164baea22" d="M 40.445625 -112.974125 
L 40.445625 -112.974125 
L 40.965385 -110.684445 
L 41.485146 -111.469534 
L 42.004906 -111.233137 
L 42.524667 -111.125728 
L 43.044427 -111.356068 
L 43.564188 -111.278436 
L 44.083948 -111.245507 
L 44.603709 -110.891516 
L 45.123469 -110.809998 
L 45.64323 -110.758057 
L 46.16299 -110.407737 
L 46.682751 -110.389871 
L 47.202511 -109.806461 
L 47.722272 -109.501835 
L 48.242032 -108.980894 
L 48.761793 -108.425975 
L 49.281553 -107.738815 
L 49.801314 -106.969389 
L 50.321074 -105.869123 
L 50.840835 -104.747251 
L 51.360595 -103.401233 
L 51.880356 -101.702646 
L 52.400116 -99.972306 
L 52.919876 -97.631164 
L 53.439637 -95.149559 
L 53.959397 -92.247703 
L 54.479158 -89.996616 
L 54.998918 -87.834938 
L 55.518679 -86.259043 
L 56.038439 -84.581321 
L 56.5582 -83.391595 
L 57.07796 -82.631138 
L 57.597721 -81.320668 
L 58.117481 -80.467948 
L 58.637242 -80.191761 
L 59.157002 -78.910211 
L 59.676763 -77.809992 
L 60.196523 -76.724577 
L 60.716284 -75.287217 
L 61.236044 -73.718065 
L 61.755805 -71.955886 
L 62.275565 -70.885389 
L 62.795326 -68.708047 
L 63.315086 -66.647489 
L 63.834847 -64.996101 
L 64.354607 -63.035618 
L 64.874368 -61.698023 
L 65.394128 -59.566391 
L 65.913888 -57.931356 
L 66.433649 -56.194087 
L 66.953409 -54.219964 
L 67.47317 -52.597531 
L 67.99293 -51.106216 
L 68.512691 -49.780022 
L 69.032451 -48.535647 
L 69.552212 -47.621032 
L 70.071972 -46.497281 
L 70.591733 -45.418602 
L 71.111493 -44.59945 
L 71.631254 -43.849371 
L 72.151014 -43.264272 
L 72.670775 -42.494924 
L 73.190535 -42.014427 
L 73.710296 -41.727294 
L 74.230056 -41.115399 
L 74.749817 -40.7727 
L 75.269577 -40.330847 
L 75.789338 -39.918729 
L 76.309098 -39.575874 
L 76.828859 -39.357705 
L 77.348619 -39.1782 
L 77.868379 -38.803153 
L 78.38814 -38.53393 
L 78.9079 -38.326251 
L 79.427661 -38.106577 
L 79.947421 -37.902182 
L 80.467182 -37.686173 
L 80.986942 -37.478094 
L 81.506703 -37.275194 
L 82.026463 -37.122047 
L 82.546224 -36.98018 
L 83.065984 -36.837715 
L 83.585745 -36.700092 
L 84.105505 -36.605467 
L 84.625266 -36.487233 
L 85.145026 -36.374716 
L 85.664787 -36.33314 
L 86.184547 -36.24615 
L 86.704308 -36.186264 
L 87.224068 -36.134984 
L 87.743829 -36.089714 
L 88.263589 -36.043622 
L 88.78335 -36.004199 
L 89.30311 -35.957397 
L 89.822871 -35.934723 
L 90.342631 -35.878255 
L 90.862391 -35.851754 
L 91.382152 -35.806718 
L 91.901912 -35.774481 
L 92.421673 -35.753851 
L 92.941433 -35.721265 
L 93.461194 -35.702235 
L 93.980954 -35.68693 
L 94.500715 -35.655813 
L 95.020475 -35.647373 
L 95.540236 -35.626509 
L 96.059996 -35.613576 
L 96.579757 -35.601356 
L 97.099517 -35.57267 
L 97.619278 -35.54273 
L 98.139038 -35.518601 
L 98.658799 -35.477721 
L 99.178559 -35.461876 
L 99.69832 -35.434909 
L 100.21808 -35.432363 
L 100.737841 -35.408463 
L 101.257601 -35.406317 
L 101.777362 -35.393965 
L 102.297122 -35.373844 
L 102.816882 -35.354752 
L 103.336643 -35.362857 
L 103.856403 -35.356852 
L 104.376164 -35.336854 
L 104.895924 -35.320156 
L 105.415685 -35.304582 
L 105.935445 -35.288932 
L 106.455206 -35.287753 
L 106.974966 -35.288975 
L 107.494727 -35.295657 
L 108.014487 -35.294653 
L 108.534248 -35.313089 
L 109.054008 -35.329806 
L 109.573769 -35.341126 
L 110.093529 -35.364472 
L 110.61329 -35.364381 
L 111.13305 -35.379561 
L 111.652811 -35.379234 
L 112.172571 -35.378134 
L 112.692332 -35.401147 
L 113.212092 -35.389537 
L 113.731853 -35.407391 
L 114.251613 -35.392648 
L 114.771374 -35.398155 
L 115.291134 -35.386297 
L 115.810894 -35.376273 
L 116.330655 -35.376679 
L 116.850415 -35.36938 
L 117.370176 -35.353915 
L 117.889936 -35.39426 
L 117.889936 -35.619764 
L 117.889936 -35.619764 
L 117.370176 -35.574397 
L 116.850415 -35.555924 
L 116.330655 -35.558623 
L 115.810894 -35.530759 
L 115.291134 -35.572996 
L 114.771374 -35.599752 
L 114.251613 -35.609976 
L 113.731853 -35.626321 
L 113.212092 -35.575942 
L 112.692332 -35.601503 
L 112.172571 -35.584945 
L 111.652811 -35.571435 
L 111.13305 -35.584422 
L 110.61329 -35.544903 
L 110.093529 -35.617134 
L 109.573769 -35.60658 
L 109.054008 -35.607682 
L 108.534248 -35.663254 
L 108.014487 -35.675329 
L 107.494727 -35.714071 
L 106.974966 -35.711285 
L 106.455206 -35.725499 
L 105.935445 -35.78816 
L 105.415685 -35.762169 
L 104.895924 -35.804222 
L 104.376164 -35.756012 
L 103.856403 -35.784707 
L 103.336643 -35.808346 
L 102.816882 -35.834033 
L 102.297122 -35.846716 
L 101.777362 -35.872493 
L 101.257601 -35.923325 
L 100.737841 -35.993211 
L 100.21808 -36.013603 
L 99.69832 -36.049384 
L 99.178559 -36.075272 
L 98.658799 -36.08243 
L 98.139038 -36.112319 
L 97.619278 -36.096829 
L 97.099517 -36.122119 
L 96.579757 -36.171717 
L 96.059996 -36.210877 
L 95.540236 -36.227127 
L 95.020475 -36.291383 
L 94.500715 -36.329012 
L 93.980954 -36.394263 
L 93.461194 -36.396537 
L 92.941433 -36.441439 
L 92.421673 -36.515901 
L 91.901912 -36.547757 
L 91.382152 -36.633785 
L 90.862391 -36.651247 
L 90.342631 -36.734365 
L 89.822871 -36.788348 
L 89.30311 -36.883577 
L 88.78335 -36.895141 
L 88.263589 -37.035042 
L 87.743829 -37.125443 
L 87.224068 -37.231148 
L 86.704308 -37.395163 
L 86.184547 -37.51355 
L 85.664787 -37.743001 
L 85.145026 -37.932773 
L 84.625266 -38.184654 
L 84.105505 -38.460845 
L 83.585745 -38.661566 
L 83.065984 -38.945041 
L 82.546224 -39.213 
L 82.026463 -39.582346 
L 81.506703 -40.089041 
L 80.986942 -40.374131 
L 80.467182 -40.937435 
L 79.947421 -41.319087 
L 79.427661 -41.926216 
L 78.9079 -42.480972 
L 78.38814 -42.990794 
L 77.868379 -43.637496 
L 77.348619 -44.281106 
L 76.828859 -44.967069 
L 76.309098 -45.868231 
L 75.789338 -46.576102 
L 75.269577 -47.265692 
L 74.749817 -48.18895 
L 74.230056 -49.063608 
L 73.710296 -50.045142 
L 73.190535 -50.955107 
L 72.670775 -52.156617 
L 72.151014 -53.164005 
L 71.631254 -54.524266 
L 71.111493 -55.869351 
L 70.591733 -57.352288 
L 70.071972 -58.960067 
L 69.552212 -60.634902 
L 69.032451 -62.071772 
L 68.512691 -63.888013 
L 67.99293 -65.761789 
L 67.47317 -67.570547 
L 66.953409 -69.385803 
L 66.433649 -71.64471 
L 65.913888 -73.637945 
L 65.394128 -75.374344 
L 64.874368 -77.424733 
L 64.354607 -79.121094 
L 63.834847 -81.066047 
L 63.315086 -83.344594 
L 62.795326 -85.196589 
L 62.275565 -87.200381 
L 61.755805 -88.79328 
L 61.236044 -90.78967 
L 60.716284 -92.378691 
L 60.196523 -94.04397 
L 59.676763 -95.697748 
L 59.157002 -97.259298 
L 58.637242 -98.308543 
L 58.117481 -99.408818 
L 57.597721 -100.457257 
L 57.07796 -101.502912 
L 56.5582 -102.303413 
L 56.038439 -103.501703 
L 55.518679 -104.378159 
L 54.998918 -105.227889 
L 54.479158 -105.987236 
L 53.959397 -106.518302 
L 53.439637 -107.231164 
L 52.919876 -107.710111 
L 52.400116 -108.450572 
L 51.880356 -108.905831 
L 51.360595 -109.611883 
L 50.840835 -109.989459 
L 50.321074 -110.394426 
L 49.801314 -110.665895 
L 49.281553 -111.08662 
L 48.761793 -111.364163 
L 48.242032 -111.56424 
L 47.722272 -111.905173 
L 47.202511 -112.026668 
L 46.682751 -112.273345 
L 46.16299 -112.307037 
L 45.64323 -112.371785 
L 45.123469 -112.523128 
L 44.603709 -112.608956 
L 44.083948 -112.668739 
L 43.564188 -112.710345 
L 43.044427 -112.830208 
L 42.524667 -113.106672 
L 42.004906 -113.296532 
L 41.485146 -113.293006 
L 40.965385 -114.104725 
L 40.445625 -112.974125 
z
"/>
    </defs>
    <g clip-path="url(#p8af5193458)">
     <use xlink:href="#me164baea22" x="0" y="123.973344" style="fill: #0000cd; fill-opacity: 0.3"/>
    </g>
   </g>
   <g id="PolyCollection_3">
    <defs>
     <path id="m652ce001ed" d="M 40.445625 -112.974125 
L 40.445625 -112.974125 
L 40.965385 -104.810966 
L 41.485146 -106.839128 
L 42.004906 -105.573789 
L 42.524667 -106.728115 
L 43.044427 -107.106702 
L 43.564188 -106.127842 
L 44.083948 -106.830623 
L 44.603709 -105.9763 
L 45.123469 -105.249028 
L 45.64323 -105.538898 
L 46.16299 -104.69084 
L 46.682751 -105.70214 
L 47.202511 -104.924271 
L 47.722272 -103.887535 
L 48.242032 -104.091671 
L 48.761793 -103.016843 
L 49.281553 -101.683421 
L 49.801314 -100.160971 
L 50.321074 -98.717453 
L 50.840835 -97.235141 
L 51.360595 -94.497569 
L 51.880356 -92.112486 
L 52.400116 -89.454362 
L 52.919876 -86.373261 
L 53.439637 -84.314991 
L 53.959397 -82.051856 
L 54.479158 -79.956649 
L 54.998918 -78.265882 
L 55.518679 -77.148857 
L 56.038439 -75.239273 
L 56.5582 -74.451602 
L 57.07796 -73.553337 
L 57.597721 -72.493069 
L 58.117481 -71.837144 
L 58.637242 -71.058609 
L 59.157002 -70.503519 
L 59.676763 -69.671788 
L 60.196523 -68.316858 
L 60.716284 -67.274072 
L 61.236044 -65.786846 
L 61.755805 -64.330301 
L 62.275565 -63.028212 
L 62.795326 -61.787437 
L 63.315086 -60.415057 
L 63.834847 -59.006909 
L 64.354607 -57.401999 
L 64.874368 -56.409503 
L 65.394128 -55.573233 
L 65.913888 -54.375176 
L 66.433649 -53.728154 
L 66.953409 -52.658223 
L 67.47317 -51.623316 
L 67.99293 -50.960634 
L 68.512691 -50.377297 
L 69.032451 -49.594279 
L 69.552212 -49.294558 
L 70.071972 -48.807022 
L 70.591733 -48.320195 
L 71.111493 -47.794607 
L 71.631254 -47.604827 
L 72.151014 -47.415314 
L 72.670775 -46.962637 
L 73.190535 -46.72665 
L 73.710296 -46.565066 
L 74.230056 -46.123484 
L 74.749817 -45.815405 
L 75.269577 -45.541619 
L 75.789338 -45.139688 
L 76.309098 -44.743578 
L 76.828859 -44.463698 
L 77.348619 -44.012221 
L 77.868379 -43.726784 
L 78.38814 -43.283191 
L 78.9079 -43.034493 
L 79.427661 -42.493659 
L 79.947421 -42.101911 
L 80.467182 -41.837756 
L 80.986942 -41.333844 
L 81.506703 -41.01966 
L 82.026463 -40.606104 
L 82.546224 -40.117995 
L 83.065984 -39.941024 
L 83.585745 -39.350511 
L 84.105505 -39.180536 
L 84.625266 -38.706548 
L 85.145026 -38.349847 
L 85.664787 -38.388886 
L 86.184547 -37.684025 
L 86.704308 -37.65524 
L 87.224068 -37.274915 
L 87.743829 -37.148163 
L 88.263589 -36.911021 
L 88.78335 -36.365148 
L 89.30311 -36.532965 
L 89.822871 -36.118937 
L 90.342631 -36.028709 
L 90.862391 -35.701571 
L 91.382152 -35.5843 
L 91.901912 -35.533005 
L 92.421673 -35.31166 
L 92.941433 -35.238814 
L 93.461194 -34.993737 
L 93.980954 -34.99317 
L 94.500715 -34.85291 
L 95.020475 -34.657705 
L 95.540236 -34.690297 
L 96.059996 -34.554513 
L 96.579757 -34.555846 
L 97.099517 -34.403968 
L 97.619278 -34.420337 
L 98.139038 -34.28153 
L 98.658799 -34.303859 
L 99.178559 -34.357424 
L 99.69832 -34.255985 
L 100.21808 -34.080699 
L 100.737841 -34.161486 
L 101.257601 -34.341962 
L 101.777362 -34.302677 
L 102.297122 -34.34251 
L 102.816882 -34.367406 
L 103.336643 -34.268002 
L 103.856403 -34.043136 
L 104.376164 -34.088996 
L 104.895924 -34.314784 
L 105.415685 -34.147637 
L 105.935445 -34.253833 
L 106.455206 -34.297324 
L 106.974966 -34.323499 
L 107.494727 -34.301572 
L 108.014487 -34.335181 
L 108.534248 -34.344817 
L 109.054008 -34.317281 
L 109.573769 -34.414006 
L 110.093529 -34.439861 
L 110.61329 -34.357611 
L 111.13305 -34.501935 
L 111.652811 -34.496411 
L 112.172571 -34.450822 
L 112.692332 -34.452766 
L 113.212092 -34.567728 
L 113.731853 -34.662066 
L 114.251613 -34.59576 
L 114.771374 -34.659956 
L 115.291134 -34.512151 
L 115.810894 -34.647469 
L 116.330655 -34.614546 
L 116.850415 -34.623382 
L 117.370176 -34.789909 
L 117.889936 -34.903954 
L 117.889936 -36.117352 
L 117.889936 -36.117352 
L 117.370176 -36.174853 
L 116.850415 -36.405206 
L 116.330655 -36.430754 
L 115.810894 -36.4221 
L 115.291134 -36.643933 
L 114.771374 -36.530517 
L 114.251613 -36.611422 
L 113.731853 -36.55872 
L 113.212092 -36.749728 
L 112.692332 -36.933434 
L 112.172571 -37.019691 
L 111.652811 -37.027847 
L 111.13305 -37.079809 
L 110.61329 -37.330728 
L 110.093529 -37.303527 
L 109.573769 -37.396677 
L 109.054008 -37.563419 
L 108.534248 -37.621207 
L 108.014487 -37.721249 
L 107.494727 -37.892871 
L 106.974966 -37.929514 
L 106.455206 -38.029557 
L 105.935445 -38.148128 
L 105.415685 -38.417398 
L 104.895924 -38.270531 
L 104.376164 -38.60834 
L 103.856403 -38.822821 
L 103.336643 -38.676543 
L 102.816882 -38.53477 
L 102.297122 -38.723981 
L 101.777362 -38.87458 
L 101.257601 -38.959304 
L 100.737841 -39.365973 
L 100.21808 -39.594537 
L 99.69832 -39.485543 
L 99.178559 -39.449921 
L 98.658799 -39.670435 
L 98.139038 -39.859718 
L 97.619278 -39.933349 
L 97.099517 -40.242534 
L 96.579757 -40.222644 
L 96.059996 -40.582652 
L 95.540236 -40.647651 
L 95.020475 -40.949842 
L 94.500715 -41.276747 
L 93.980954 -41.507266 
L 93.461194 -41.936602 
L 92.941433 -42.351231 
L 92.421673 -42.900893 
L 91.901912 -43.562686 
L 91.382152 -43.752899 
L 90.862391 -44.766375 
L 90.342631 -45.396227 
L 89.822871 -45.764543 
L 89.30311 -46.849431 
L 88.78335 -46.893067 
L 88.263589 -47.828404 
L 87.743829 -48.520177 
L 87.224068 -49.090061 
L 86.704308 -50.069657 
L 86.184547 -50.080665 
L 85.664787 -51.458744 
L 85.145026 -51.617433 
L 84.625266 -52.640619 
L 84.105505 -53.566562 
L 83.585745 -53.58516 
L 83.065984 -54.642306 
L 82.546224 -55.161112 
L 82.026463 -55.583309 
L 81.506703 -56.647621 
L 80.986942 -56.827576 
L 80.467182 -57.77516 
L 79.947421 -58.190405 
L 79.427661 -58.801728 
L 78.9079 -59.252999 
L 78.38814 -59.614328 
L 77.868379 -60.235376 
L 77.348619 -60.544635 
L 76.828859 -61.137526 
L 76.309098 -61.661935 
L 75.789338 -61.797097 
L 75.269577 -62.190479 
L 74.749817 -62.580517 
L 74.230056 -62.540218 
L 73.710296 -62.826514 
L 73.190535 -62.883335 
L 72.670775 -63.162549 
L 72.151014 -63.392691 
L 71.631254 -63.582939 
L 71.111493 -63.984302 
L 70.591733 -64.068997 
L 70.071972 -64.079897 
L 69.552212 -64.559859 
L 69.032451 -64.778023 
L 68.512691 -65.045362 
L 67.99293 -65.47985 
L 67.47317 -65.998683 
L 66.953409 -66.618281 
L 66.433649 -67.459061 
L 65.913888 -68.051002 
L 65.394128 -68.623889 
L 64.874368 -70.082872 
L 64.354607 -70.76895 
L 63.834847 -71.990788 
L 63.315086 -72.995802 
L 62.795326 -74.400819 
L 62.275565 -76.028917 
L 61.755805 -77.321983 
L 61.236044 -79.228722 
L 60.716284 -80.915156 
L 60.196523 -82.623371 
L 59.676763 -84.48991 
L 59.157002 -85.906521 
L 58.637242 -87.458158 
L 58.117481 -89.115875 
L 57.597721 -90.471281 
L 57.07796 -91.596241 
L 56.5582 -93.089957 
L 56.038439 -94.711175 
L 55.518679 -95.923804 
L 54.998918 -97.04749 
L 54.479158 -98.671362 
L 53.959397 -99.780401 
L 53.439637 -101.644759 
L 52.919876 -102.753884 
L 52.400116 -104.07559 
L 51.880356 -105.015792 
L 51.360595 -106.565939 
L 50.840835 -107.919012 
L 50.321074 -109.363937 
L 49.801314 -110.803502 
L 49.281553 -111.884657 
L 48.761793 -112.443063 
L 48.242032 -112.990571 
L 47.722272 -114.319528 
L 47.202511 -114.316575 
L 46.682751 -114.799353 
L 46.16299 -115.76552 
L 45.64323 -115.721561 
L 45.123469 -116.144138 
L 44.603709 -115.915443 
L 44.083948 -115.607906 
L 43.564188 -116.248482 
L 43.044427 -115.756962 
L 42.524667 -116.233212 
L 42.004906 -117.247373 
L 41.485146 -116.625326 
L 40.965385 -118.299219 
L 40.445625 -112.974125 
z
"/>
    </defs>
    <g clip-path="url(#p8af5193458)">
     <use xlink:href="#m652ce001ed" x="0" y="123.973344" style="fill: #0d9188; fill-opacity: 0.3"/>
    </g>
   </g>
   <g id="matplotlib.axis_1">
    <g id="xtick_1">
     <g id="line2d_1">
      <defs>
       <path id="m5a55264f54" d="M 0 0 
L 0 2.1 
" style="stroke: #000000; stroke-width: 0.7"/>
      </defs>
      <g>
       <use xlink:href="#m5a55264f54" x="40.445625" y="88.615219" style="stroke: #000000; stroke-width: 0.7"/>
      </g>
     </g>
     <g id="text_1">
      <!-- 0 -->
      <g transform="translate(37.264375 101.813656) scale(0.1 -0.1)">
       <defs>
        <path id="DejaVuSans-30" d="M 2034 4250 
Q 1547 4250 1301 3770 
Q 1056 3291 1056 2328 
Q 1056 1369 1301 889 
Q 1547 409 2034 409 
Q 2525 409 2770 889 
Q 3016 1369 3016 2328 
Q 3016 3291 2770 3770 
Q 2525 4250 2034 4250 
z
M 2034 4750 
Q 2819 4750 3233 4129 
Q 3647 3509 3647 2328 
Q 3647 1150 3233 529 
Q 2819 -91 2034 -91 
Q 1250 -91 836 529 
Q 422 1150 422 2328 
Q 422 3509 836 4129 
Q 1250 4750 2034 4750 
z
" transform="scale(0.015625)"/>
       </defs>
       <use xlink:href="#DejaVuSans-30"/>
      </g>
     </g>
    </g>
    <g id="xtick_2">
     <g id="line2d_2">
      <g>
       <use xlink:href="#m5a55264f54" x="66.485625" y="88.615219" style="stroke: #000000; stroke-width: 0.7"/>
      </g>
     </g>
     <g id="text_2">
      <!-- 5 -->
      <g transform="translate(63.304375 101.813656) scale(0.1 -0.1)">
       <defs>
        <path id="DejaVuSans-35" d="M 691 4666 
L 3169 4666 
L 3169 4134 
L 1269 4134 
L 1269 2991 
Q 1406 3038 1543 3061 
Q 1681 3084 1819 3084 
Q 2600 3084 3056 2656 
Q 3513 2228 3513 1497 
Q 3513 744 3044 326 
Q 2575 -91 1722 -91 
Q 1428 -91 1123 -41 
Q 819 9 494 109 
L 494 744 
Q 775 591 1075 516 
Q 1375 441 1709 441 
Q 2250 441 2565 725 
Q 2881 1009 2881 1497 
Q 2881 1984 2565 2268 
Q 2250 2553 1709 2553 
Q 1456 2553 1204 2497 
Q 953 2441 691 2322 
L 691 4666 
z
" transform="scale(0.015625)"/>
       </defs>
       <use xlink:href="#DejaVuSans-35"/>
      </g>
     </g>
    </g>
    <g id="xtick_3">
     <g id="line2d_3">
      <g>
       <use xlink:href="#m5a55264f54" x="92.525625" y="88.615219" style="stroke: #000000; stroke-width: 0.7"/>
      </g>
     </g>
     <g id="text_3">
      <!-- 10 -->
      <g transform="translate(86.163125 101.813656) scale(0.1 -0.1)">
       <defs>
        <path id="DejaVuSans-31" d="M 794 531 
L 1825 531 
L 1825 4091 
L 703 3866 
L 703 4441 
L 1819 4666 
L 2450 4666 
L 2450 531 
L 3481 531 
L 3481 0 
L 794 0 
L 794 531 
z
" transform="scale(0.015625)"/>
       </defs>
       <use xlink:href="#DejaVuSans-31"/>
       <use xlink:href="#DejaVuSans-30" x="63.623047"/>
      </g>
     </g>
    </g>
    <g id="xtick_4">
     <g id="line2d_4">
      <g>
       <use xlink:href="#m5a55264f54" x="118.565625" y="88.615219" style="stroke: #000000; stroke-width: 0.7"/>
      </g>
     </g>
     <g id="text_4">
      <!-- 15 -->
      <g transform="translate(112.203125 101.813656) scale(0.1 -0.1)">
       <use xlink:href="#DejaVuSans-31"/>
       <use xlink:href="#DejaVuSans-35" x="63.623047"/>
      </g>
     </g>
    </g>
    <g id="text_5">
     <!-- Spatial frequency (µm$^{-1}$) -->
     <g transform="translate(29.185625 115.093344) scale(0.08 -0.08)">
      <defs>
       <path id="DejaVuSans-53" d="M 3425 4513 
L 3425 3897 
Q 3066 4069 2747 4153 
Q 2428 4238 2131 4238 
Q 1616 4238 1336 4038 
Q 1056 3838 1056 3469 
Q 1056 3159 1242 3001 
Q 1428 2844 1947 2747 
L 2328 2669 
Q 3034 2534 3370 2195 
Q 3706 1856 3706 1288 
Q 3706 609 3251 259 
Q 2797 -91 1919 -91 
Q 1588 -91 1214 -16 
Q 841 59 441 206 
L 441 856 
Q 825 641 1194 531 
Q 1563 422 1919 422 
Q 2459 422 2753 634 
Q 3047 847 3047 1241 
Q 3047 1584 2836 1778 
Q 2625 1972 2144 2069 
L 1759 2144 
Q 1053 2284 737 2584 
Q 422 2884 422 3419 
Q 422 4038 858 4394 
Q 1294 4750 2059 4750 
Q 2388 4750 2728 4690 
Q 3069 4631 3425 4513 
z
" transform="scale(0.015625)"/>
       <path id="DejaVuSans-70" d="M 1159 525 
L 1159 -1331 
L 581 -1331 
L 581 3500 
L 1159 3500 
L 1159 2969 
Q 1341 3281 1617 3432 
Q 1894 3584 2278 3584 
Q 2916 3584 3314 3078 
Q 3713 2572 3713 1747 
Q 3713 922 3314 415 
Q 2916 -91 2278 -91 
Q 1894 -91 1617 61 
Q 1341 213 1159 525 
z
M 3116 1747 
Q 3116 2381 2855 2742 
Q 2594 3103 2138 3103 
Q 1681 3103 1420 2742 
Q 1159 2381 1159 1747 
Q 1159 1113 1420 752 
Q 1681 391 2138 391 
Q 2594 391 2855 752 
Q 3116 1113 3116 1747 
z
" transform="scale(0.015625)"/>
       <path id="DejaVuSans-61" d="M 2194 1759 
Q 1497 1759 1228 1600 
Q 959 1441 959 1056 
Q 959 750 1161 570 
Q 1363 391 1709 391 
Q 2188 391 2477 730 
Q 2766 1069 2766 1631 
L 2766 1759 
L 2194 1759 
z
M 3341 1997 
L 3341 0 
L 2766 0 
L 2766 531 
Q 2569 213 2275 61 
Q 1981 -91 1556 -91 
Q 1019 -91 701 211 
Q 384 513 384 1019 
Q 384 1609 779 1909 
Q 1175 2209 1959 2209 
L 2766 2209 
L 2766 2266 
Q 2766 2663 2505 2880 
Q 2244 3097 1772 3097 
Q 1472 3097 1187 3025 
Q 903 2953 641 2809 
L 641 3341 
Q 956 3463 1253 3523 
Q 1550 3584 1831 3584 
Q 2591 3584 2966 3190 
Q 3341 2797 3341 1997 
z
" transform="scale(0.015625)"/>
       <path id="DejaVuSans-74" d="M 1172 4494 
L 1172 3500 
L 2356 3500 
L 2356 3053 
L 1172 3053 
L 1172 1153 
Q 1172 725 1289 603 
Q 1406 481 1766 481 
L 2356 481 
L 2356 0 
L 1766 0 
Q 1100 0 847 248 
Q 594 497 594 1153 
L 594 3053 
L 172 3053 
L 172 3500 
L 594 3500 
L 594 4494 
L 1172 4494 
z
" transform="scale(0.015625)"/>
       <path id="DejaVuSans-69" d="M 603 3500 
L 1178 3500 
L 1178 0 
L 603 0 
L 603 3500 
z
M 603 4863 
L 1178 4863 
L 1178 4134 
L 603 4134 
L 603 4863 
z
" transform="scale(0.015625)"/>
       <path id="DejaVuSans-6c" d="M 603 4863 
L 1178 4863 
L 1178 0 
L 603 0 
L 603 4863 
z
" transform="scale(0.015625)"/>
       <path id="DejaVuSans-20" transform="scale(0.015625)"/>
       <path id="DejaVuSans-66" d="M 2375 4863 
L 2375 4384 
L 1825 4384 
Q 1516 4384 1395 4259 
Q 1275 4134 1275 3809 
L 1275 3500 
L 2222 3500 
L 2222 3053 
L 1275 3053 
L 1275 0 
L 697 0 
L 697 3053 
L 147 3053 
L 147 3500 
L 697 3500 
L 697 3744 
Q 697 4328 969 4595 
Q 1241 4863 1831 4863 
L 2375 4863 
z
" transform="scale(0.015625)"/>
       <path id="DejaVuSans-72" d="M 2631 2963 
Q 2534 3019 2420 3045 
Q 2306 3072 2169 3072 
Q 1681 3072 1420 2755 
Q 1159 2438 1159 1844 
L 1159 0 
L 581 0 
L 581 3500 
L 1159 3500 
L 1159 2956 
Q 1341 3275 1631 3429 
Q 1922 3584 2338 3584 
Q 2397 3584 2469 3576 
Q 2541 3569 2628 3553 
L 2631 2963 
z
" transform="scale(0.015625)"/>
       <path id="DejaVuSans-65" d="M 3597 1894 
L 3597 1613 
L 953 1613 
Q 991 1019 1311 708 
Q 1631 397 2203 397 
Q 2534 397 2845 478 
Q 3156 559 3463 722 
L 3463 178 
Q 3153 47 2828 -22 
Q 2503 -91 2169 -91 
Q 1331 -91 842 396 
Q 353 884 353 1716 
Q 353 2575 817 3079 
Q 1281 3584 2069 3584 
Q 2775 3584 3186 3129 
Q 3597 2675 3597 1894 
z
M 3022 2063 
Q 3016 2534 2758 2815 
Q 2500 3097 2075 3097 
Q 1594 3097 1305 2825 
Q 1016 2553 972 2059 
L 3022 2063 
z
" transform="scale(0.015625)"/>
       <path id="DejaVuSans-71" d="M 947 1747 
Q 947 1113 1208 752 
Q 1469 391 1925 391 
Q 2381 391 2643 752 
Q 2906 1113 2906 1747 
Q 2906 2381 2643 2742 
Q 2381 3103 1925 3103 
Q 1469 3103 1208 2742 
Q 947 2381 947 1747 
z
M 2906 525 
Q 2725 213 2448 61 
Q 2172 -91 1784 -91 
Q 1150 -91 751 415 
Q 353 922 353 1747 
Q 353 2572 751 3078 
Q 1150 3584 1784 3584 
Q 2172 3584 2448 3432 
Q 2725 3281 2906 2969 
L 2906 3500 
L 3481 3500 
L 3481 -1331 
L 2906 -1331 
L 2906 525 
z
" transform="scale(0.015625)"/>
       <path id="DejaVuSans-75" d="M 544 1381 
L 544 3500 
L 1119 3500 
L 1119 1403 
Q 1119 906 1312 657 
Q 1506 409 1894 409 
Q 2359 409 2629 706 
Q 2900 1003 2900 1516 
L 2900 3500 
L 3475 3500 
L 3475 0 
L 2900 0 
L 2900 538 
Q 2691 219 2414 64 
Q 2138 -91 1772 -91 
Q 1169 -91 856 284 
Q 544 659 544 1381 
z
M 1991 3584 
L 1991 3584 
z
" transform="scale(0.015625)"/>
       <path id="DejaVuSans-6e" d="M 3513 2113 
L 3513 0 
L 2938 0 
L 2938 2094 
Q 2938 2591 2744 2837 
Q 2550 3084 2163 3084 
Q 1697 3084 1428 2787 
Q 1159 2491 1159 1978 
L 1159 0 
L 581 0 
L 581 3500 
L 1159 3500 
L 1159 2956 
Q 1366 3272 1645 3428 
Q 1925 3584 2291 3584 
Q 2894 3584 3203 3211 
Q 3513 2838 3513 2113 
z
" transform="scale(0.015625)"/>
       <path id="DejaVuSans-63" d="M 3122 3366 
L 3122 2828 
Q 2878 2963 2633 3030 
Q 2388 3097 2138 3097 
Q 1578 3097 1268 2742 
Q 959 2388 959 1747 
Q 959 1106 1268 751 
Q 1578 397 2138 397 
Q 2388 397 2633 464 
Q 2878 531 3122 666 
L 3122 134 
Q 2881 22 2623 -34 
Q 2366 -91 2075 -91 
Q 1284 -91 818 406 
Q 353 903 353 1747 
Q 353 2603 823 3093 
Q 1294 3584 2113 3584 
Q 2378 3584 2631 3529 
Q 2884 3475 3122 3366 
z
" transform="scale(0.015625)"/>
       <path id="DejaVuSans-79" d="M 2059 -325 
Q 1816 -950 1584 -1140 
Q 1353 -1331 966 -1331 
L 506 -1331 
L 506 -850 
L 844 -850 
Q 1081 -850 1212 -737 
Q 1344 -625 1503 -206 
L 1606 56 
L 191 3500 
L 800 3500 
L 1894 763 
L 2988 3500 
L 3597 3500 
L 2059 -325 
z
" transform="scale(0.015625)"/>
       <path id="DejaVuSans-28" d="M 1984 4856 
Q 1566 4138 1362 3434 
Q 1159 2731 1159 2009 
Q 1159 1288 1364 580 
Q 1569 -128 1984 -844 
L 1484 -844 
Q 1016 -109 783 600 
Q 550 1309 550 2009 
Q 550 2706 781 3412 
Q 1013 4119 1484 4856 
L 1984 4856 
z
" transform="scale(0.015625)"/>
       <path id="DejaVuSans-b5" d="M 544 -1331 
L 544 3500 
L 1119 3500 
L 1119 1325 
Q 1119 872 1334 640 
Q 1550 409 1972 409 
Q 2434 409 2667 671 
Q 2900 934 2900 1459 
L 2900 3500 
L 3475 3500 
L 3475 806 
Q 3475 619 3529 530 
Q 3584 441 3700 441 
Q 3728 441 3778 458 
Q 3828 475 3916 513 
L 3916 50 
Q 3788 -22 3673 -56 
Q 3559 -91 3450 -91 
Q 3234 -91 3106 31 
Q 2978 153 2931 403 
Q 2775 156 2548 32 
Q 2322 -91 2016 -91 
Q 1697 -91 1473 31 
Q 1250 153 1119 397 
L 1119 -1331 
L 544 -1331 
z
" transform="scale(0.015625)"/>
       <path id="DejaVuSans-6d" d="M 3328 2828 
Q 3544 3216 3844 3400 
Q 4144 3584 4550 3584 
Q 5097 3584 5394 3201 
Q 5691 2819 5691 2113 
L 5691 0 
L 5113 0 
L 5113 2094 
Q 5113 2597 4934 2840 
Q 4756 3084 4391 3084 
Q 3944 3084 3684 2787 
Q 3425 2491 3425 1978 
L 3425 0 
L 2847 0 
L 2847 2094 
Q 2847 2600 2669 2842 
Q 2491 3084 2119 3084 
Q 1678 3084 1418 2786 
Q 1159 2488 1159 1978 
L 1159 0 
L 581 0 
L 581 3500 
L 1159 3500 
L 1159 2956 
Q 1356 3278 1631 3431 
Q 1906 3584 2284 3584 
Q 2666 3584 2933 3390 
Q 3200 3197 3328 2828 
z
" transform="scale(0.015625)"/>
       <path id="DejaVuSans-2212" d="M 678 2272 
L 4684 2272 
L 4684 1741 
L 678 1741 
L 678 2272 
z
" transform="scale(0.015625)"/>
       <path id="DejaVuSans-29" d="M 513 4856 
L 1013 4856 
Q 1481 4119 1714 3412 
Q 1947 2706 1947 2009 
Q 1947 1309 1714 600 
Q 1481 -109 1013 -844 
L 513 -844 
Q 928 -128 1133 580 
Q 1338 1288 1338 2009 
Q 1338 2731 1133 3434 
Q 928 4138 513 4856 
z
" transform="scale(0.015625)"/>
      </defs>
      <use xlink:href="#DejaVuSans-53" transform="translate(0 0.684375)"/>
      <use xlink:href="#DejaVuSans-70" transform="translate(63.476562 0.684375)"/>
      <use xlink:href="#DejaVuSans-61" transform="translate(126.953125 0.684375)"/>
      <use xlink:href="#DejaVuSans-74" transform="translate(188.232422 0.684375)"/>
      <use xlink:href="#DejaVuSans-69" transform="translate(227.441406 0.684375)"/>
      <use xlink:href="#DejaVuSans-61" transform="translate(255.224609 0.684375)"/>
      <use xlink:href="#DejaVuSans-6c" transform="translate(316.503906 0.684375)"/>
      <use xlink:href="#DejaVuSans-20" transform="translate(344.287109 0.684375)"/>
      <use xlink:href="#DejaVuSans-66" transform="translate(376.074219 0.684375)"/>
      <use xlink:href="#DejaVuSans-72" transform="translate(411.279297 0.684375)"/>
      <use xlink:href="#DejaVuSans-65" transform="translate(452.392578 0.684375)"/>
      <use xlink:href="#DejaVuSans-71" transform="translate(513.916016 0.684375)"/>
      <use xlink:href="#DejaVuSans-75" transform="translate(577.392578 0.684375)"/>
      <use xlink:href="#DejaVuSans-65" transform="translate(640.771484 0.684375)"/>
      <use xlink:href="#DejaVuSans-6e" transform="translate(702.294922 0.684375)"/>
      <use xlink:href="#DejaVuSans-63" transform="translate(765.673828 0.684375)"/>
      <use xlink:href="#DejaVuSans-79" transform="translate(820.654297 0.684375)"/>
      <use xlink:href="#DejaVuSans-20" transform="translate(879.833984 0.684375)"/>
      <use xlink:href="#DejaVuSans-28" transform="translate(911.621094 0.684375)"/>
      <use xlink:href="#DejaVuSans-b5" transform="translate(950.634766 0.684375)"/>
      <use xlink:href="#DejaVuSans-6d" transform="translate(1014.257812 0.684375)"/>
      <use xlink:href="#DejaVuSans-2212" transform="translate(1112.626953 38.965625) scale(0.7)"/>
      <use xlink:href="#DejaVuSans-31" transform="translate(1171.279297 38.965625) scale(0.7)"/>
      <use xlink:href="#DejaVuSans-29" transform="translate(1218.549805 0.684375)"/>
     </g>
    </g>
   </g>
   <g id="matplotlib.axis_2">
    <g id="ytick_1">
     <g id="line2d_5">
      <defs>
       <path id="mbb16e0b8f7" d="M 0 0 
L -2.1 0 
" style="stroke: #000000; stroke-width: 0.7"/>
      </defs>
      <g>
       <use xlink:href="#mbb16e0b8f7" x="40.445625" y="88.615219" style="stroke: #000000; stroke-width: 0.7"/>
      </g>
     </g>
     <g id="text_6">
      <!-- 0.0 -->
      <g transform="translate(18.9425 92.414437) scale(0.1 -0.1)">
       <defs>
        <path id="DejaVuSans-2e" d="M 684 794 
L 1344 794 
L 1344 0 
L 684 0 
L 684 794 
z
" transform="scale(0.015625)"/>
       </defs>
       <use xlink:href="#DejaVuSans-30"/>
       <use xlink:href="#DejaVuSans-2e" x="63.623047"/>
       <use xlink:href="#DejaVuSans-30" x="95.410156"/>
      </g>
     </g>
    </g>
    <g id="ytick_2">
     <g id="line2d_6">
      <g>
       <use xlink:href="#mbb16e0b8f7" x="40.445625" y="49.807219" style="stroke: #000000; stroke-width: 0.7"/>
      </g>
     </g>
     <g id="text_7">
      <!-- 0.5 -->
      <g transform="translate(18.9425 53.606437) scale(0.1 -0.1)">
       <use xlink:href="#DejaVuSans-30"/>
       <use xlink:href="#DejaVuSans-2e" x="63.623047"/>
       <use xlink:href="#DejaVuSans-35" x="95.410156"/>
      </g>
     </g>
    </g>
    <g id="ytick_3">
     <g id="line2d_7">
      <g>
       <use xlink:href="#mbb16e0b8f7" x="40.445625" y="10.999219" style="stroke: #000000; stroke-width: 0.7"/>
      </g>
     </g>
     <g id="text_8">
      <!-- 1.0 -->
      <g transform="translate(18.9425 14.798437) scale(0.1 -0.1)">
       <use xlink:href="#DejaVuSans-31"/>
       <use xlink:href="#DejaVuSans-2e" x="63.623047"/>
       <use xlink:href="#DejaVuSans-30" x="95.410156"/>
      </g>
     </g>
    </g>
    <g id="text_9">
     <!-- Correlation -->
     <g transform="translate(13.27875 71.862219) rotate(-90) scale(0.08 -0.08)">
      <defs>
       <path id="DejaVuSans-43" d="M 4122 4306 
L 4122 3641 
Q 3803 3938 3442 4084 
Q 3081 4231 2675 4231 
Q 1875 4231 1450 3742 
Q 1025 3253 1025 2328 
Q 1025 1406 1450 917 
Q 1875 428 2675 428 
Q 3081 428 3442 575 
Q 3803 722 4122 1019 
L 4122 359 
Q 3791 134 3420 21 
Q 3050 -91 2638 -91 
Q 1578 -91 968 557 
Q 359 1206 359 2328 
Q 359 3453 968 4101 
Q 1578 4750 2638 4750 
Q 3056 4750 3426 4639 
Q 3797 4528 4122 4306 
z
" transform="scale(0.015625)"/>
       <path id="DejaVuSans-6f" d="M 1959 3097 
Q 1497 3097 1228 2736 
Q 959 2375 959 1747 
Q 959 1119 1226 758 
Q 1494 397 1959 397 
Q 2419 397 2687 759 
Q 2956 1122 2956 1747 
Q 2956 2369 2687 2733 
Q 2419 3097 1959 3097 
z
M 1959 3584 
Q 2709 3584 3137 3096 
Q 3566 2609 3566 1747 
Q 3566 888 3137 398 
Q 2709 -91 1959 -91 
Q 1206 -91 779 398 
Q 353 888 353 1747 
Q 353 2609 779 3096 
Q 1206 3584 1959 3584 
z
" transform="scale(0.015625)"/>
      </defs>
      <use xlink:href="#DejaVuSans-43"/>
      <use xlink:href="#DejaVuSans-6f" x="69.824219"/>
      <use xlink:href="#DejaVuSans-72" x="131.005859"/>
      <use xlink:href="#DejaVuSans-72" x="170.369141"/>
      <use xlink:href="#DejaVuSans-65" x="209.232422"/>
      <use xlink:href="#DejaVuSans-6c" x="270.755859"/>
      <use xlink:href="#DejaVuSans-61" x="298.539062"/>
      <use xlink:href="#DejaVuSans-74" x="359.818359"/>
      <use xlink:href="#DejaVuSans-69" x="399.027344"/>
      <use xlink:href="#DejaVuSans-6f" x="426.810547"/>
      <use xlink:href="#DejaVuSans-6e" x="487.992188"/>
     </g>
    </g>
   </g>
   <g id="line2d_8">
    <path d="M 40.445625 10.999219 
L 40.965385 14.029354 
L 41.485146 13.363311 
L 42.004906 14.094486 
L 43.044427 13.687038 
L 43.564188 14.169972 
L 44.083948 14.06743 
L 45.123469 14.677829 
L 45.64323 14.751709 
L 46.16299 15.192939 
L 46.682751 15.3244 
L 48.761793 18.855375 
L 50.321074 22.950187 
L 50.840835 24.415549 
L 51.880356 28.531685 
L 53.439637 35.618057 
L 54.479158 39.991295 
L 54.998918 41.913382 
L 55.518679 43.264199 
L 56.5582 46.504834 
L 57.07796 47.4446 
L 58.117481 49.791083 
L 58.637242 50.291902 
L 59.676763 52.902995 
L 60.196523 54.056328 
L 60.716284 54.931804 
L 61.236044 56.213323 
L 61.755805 58.053187 
L 62.795326 59.856296 
L 63.834847 62.562859 
L 67.99293 70.012466 
L 69.032451 71.580768 
L 69.552212 71.852604 
L 70.071972 71.427536 
L 71.111493 73.557572 
L 71.631254 74.144578 
L 72.151014 74.394287 
L 72.670775 74.946318 
L 73.190535 75.278266 
L 73.710296 75.44878 
L 74.230056 76.024648 
L 74.749817 76.09186 
L 75.789338 77.113488 
L 76.309098 77.168551 
L 76.828859 77.422778 
L 77.348619 76.774772 
L 77.868379 77.230162 
L 78.38814 77.46341 
L 78.9079 77.93003 
L 79.947421 78.372742 
L 80.467182 78.396401 
L 80.986942 78.801531 
L 81.506703 79.005574 
L 82.546224 79.146738 
L 83.065984 79.583447 
L 83.585745 79.831996 
L 84.625266 79.933382 
L 85.145026 79.362272 
L 85.664787 79.977406 
L 86.184547 79.95775 
L 86.704308 80.472948 
L 87.224068 80.629086 
L 88.263589 80.754054 
L 88.78335 81.091266 
L 89.822871 81.277488 
L 90.342631 81.583249 
L 91.901912 81.781786 
L 92.421673 80.875022 
L 92.941433 81.69344 
L 93.461194 81.931852 
L 96.579757 82.61548 
L 97.099517 82.995302 
L 97.619278 82.939193 
L 98.139038 83.144619 
L 98.658799 82.906769 
L 99.178559 83.165954 
L 99.69832 82.602173 
L 100.737841 83.064527 
L 101.257601 83.391014 
L 102.297122 83.324057 
L 102.816882 83.420649 
L 104.376164 84.145979 
L 106.455206 84.356614 
L 106.974966 84.136594 
L 107.494727 83.750048 
L 108.014487 84.541867 
L 108.534248 84.250679 
L 109.054008 84.45592 
L 111.13305 84.810808 
L 111.652811 85.034799 
L 112.172571 85.082884 
L 112.692332 85.003947 
L 113.212092 85.241701 
L 113.731853 85.046305 
L 114.251613 85.261149 
L 114.771374 84.489201 
L 115.291134 85.071504 
L 116.330655 85.31312 
L 116.850415 85.328979 
L 117.370176 85.5893 
L 117.889936 85.504026 
L 117.889936 85.504026 
" clip-path="url(#p8af5193458)" style="fill: none; stroke: #000000; stroke-width: 0.42; stroke-linecap: square"/>
   </g>
   <g id="line2d_9">
    <path d="M 40.445625 10.999219 
L 40.965385 11.578759 
L 42.004906 11.70851 
L 42.524667 11.857144 
L 44.083948 12.016221 
L 44.603709 12.223108 
L 45.64323 12.408423 
L 46.16299 12.615956 
L 46.682751 12.641736 
L 47.202511 13.056779 
L 47.722272 13.26984 
L 49.281553 14.560626 
L 50.321074 15.841569 
L 51.360595 17.466786 
L 52.919876 21.302707 
L 56.038439 29.931832 
L 56.5582 31.12584 
L 57.07796 31.906319 
L 58.117481 34.034961 
L 58.637242 34.723192 
L 59.676763 37.219474 
L 60.716284 40.14039 
L 62.275565 44.930459 
L 64.354607 52.894988 
L 64.874368 54.411966 
L 65.913888 58.188693 
L 68.512691 67.139326 
L 69.032451 68.669634 
L 70.071972 71.24467 
L 71.111493 73.738944 
L 72.670775 76.647573 
L 73.190535 77.488576 
L 73.710296 78.087126 
L 74.749817 79.492518 
L 75.789338 80.725928 
L 78.38814 83.210981 
L 82.026463 85.621147 
L 83.585745 86.292514 
L 87.743829 87.365765 
L 91.901912 87.812224 
L 106.974966 88.473214 
L 115.291134 88.493697 
L 117.370176 88.509188 
L 117.889936 88.466331 
L 117.889936 88.466331 
" clip-path="url(#p8af5193458)" style="fill: none; stroke: #0000cd; stroke-width: 0.7; stroke-linecap: square"/>
   </g>
   <g id="line2d_10">
    <path d="M 40.445625 10.999219 
L 40.965385 12.418251 
L 41.485146 12.241117 
L 42.004906 12.562762 
L 42.524667 12.49268 
L 43.044427 12.541512 
L 43.564188 12.785182 
L 44.083948 12.75408 
L 45.123469 13.276761 
L 45.64323 13.343114 
L 46.16299 13.745164 
L 46.682751 13.722598 
L 47.722272 14.869812 
L 48.242032 15.432223 
L 49.281553 17.189305 
L 50.321074 19.932649 
L 50.840835 21.396267 
L 52.919876 29.409771 
L 53.439637 30.993469 
L 53.959397 33.057215 
L 54.998918 36.316658 
L 55.518679 37.437013 
L 56.038439 38.99812 
L 57.597721 42.491168 
L 58.637242 44.71496 
L 59.676763 46.892495 
L 61.755805 53.147202 
L 64.874368 60.727156 
L 65.913888 62.760255 
L 66.433649 63.379736 
L 67.47317 65.162344 
L 69.032451 66.787193 
L 69.552212 67.046135 
L 70.071972 67.529884 
L 72.151014 68.569341 
L 73.190535 69.168351 
L 73.710296 69.277554 
L 74.230056 69.641493 
L 74.749817 69.775383 
L 76.828859 71.172732 
L 77.348619 71.694915 
L 77.868379 71.992264 
L 78.38814 72.524585 
L 78.9079 72.829598 
L 80.986942 74.892634 
L 81.506703 75.139703 
L 82.026463 75.878637 
L 83.065984 76.681679 
L 83.585745 77.505508 
L 84.105505 77.599795 
L 85.145026 78.989704 
L 85.664787 79.049529 
L 86.184547 80.090999 
L 86.704308 80.110895 
L 87.224068 80.790856 
L 88.263589 81.603631 
L 88.78335 82.344236 
L 89.30311 82.282146 
L 89.822871 83.031604 
L 90.342631 83.260876 
L 91.382152 84.304744 
L 91.901912 84.425499 
L 92.941433 85.178322 
L 93.980954 85.723126 
L 96.579757 86.584099 
L 97.619278 86.796501 
L 99.178559 87.069671 
L 100.737841 87.209614 
L 102.297122 87.440098 
L 103.336643 87.501071 
L 117.370176 88.490963 
L 117.889936 88.462691 
L 117.889936 88.462691 
" clip-path="url(#p8af5193458)" style="fill: none; stroke: #0d9188; stroke-width: 0.7; stroke-linecap: square"/>
   </g>
   <g id="patch_3">
    <path d="M 40.445625 88.615219 
L 40.445625 10.999219 
" style="fill: none; stroke: #000000; stroke-width: 0.7; stroke-linejoin: miter; stroke-linecap: square"/>
   </g>
   <g id="patch_4">
    <path d="M 40.445625 88.615219 
L 118.565625 88.615219 
" style="fill: none; stroke: #000000; stroke-width: 0.7; stroke-linejoin: miter; stroke-linecap: square"/>
   </g>
  </g>
 </g>
 <defs>
  <clipPath id="p8af5193458">
   <rect x="40.445625" y="10.999219" width="78.12" height="77.616"/>
  </clipPath>
 </defs>
</svg>
