<?xml version="1.0" encoding="utf-8" standalone="no"?>
<!DOCTYPE svg PUBLIC "-//W3C//DTD SVG 1.1//EN"
  "http://www.w3.org/Graphics/SVG/1.1/DTD/svg11.dtd">
<svg xmlns:xlink="http://www.w3.org/1999/xlink" width="372.7875pt" height="356.254688pt" viewBox="0 0 372.7875 356.254688" xmlns="http://www.w3.org/2000/svg" version="1.1">
 <metadata>
  <rdf:RDF xmlns:dc="http://purl.org/dc/elements/1.1/" xmlns:cc="http://creativecommons.org/ns#" xmlns:rdf="http://www.w3.org/1999/02/22-rdf-syntax-ns#">
   <cc:Work>
    <dc:type rdf:resource="http://purl.org/dc/dcmitype/StillImage"/>
    <dc:date>2025-08-04T14:33:28.859327</dc:date>
    <dc:format>image/svg+xml</dc:format>
    <dc:creator>
     <cc:Agent>
      <dc:title>Matplotlib v3.7.2, https://matplotlib.org/</dc:title>
     </cc:Agent>
    </dc:creator>
   </cc:Work>
  </rdf:RDF>
 </metadata>
 <defs>
  <style type="text/css">*{stroke-linejoin: round; stroke-linecap: butt}</style>
 </defs>
 <g id="figure_1">
  <g id="patch_1">
   <path d="M 0 356.254688 
L 372.7875 356.254688 
L 372.7875 0 
L 0 0 
z
" style="fill: #ffffff"/>
  </g>
  <g id="axes_1">
   <g id="patch_2">
    <path d="M 73.8625 291.998438 
L 352.8625 291.998438 
L 352.8625 14.798438 
L 73.8625 14.798438 
z
" style="fill: #ffffff"/>
   </g>
   <g id="PolyCollection_1">
    <defs>
     <path id="mf5a9c8a4b5" d="M 73.8625 -341.45625 
L 73.8625 -341.45625 
L 75.718787 -295.492918 
L 77.575075 -284.998045 
L 79.431362 -284.402472 
L 81.28765 -283.637284 
L 83.143937 -277.234861 
L 85.000225 -273.866958 
L 86.856512 -266.450582 
L 88.712799 -266.480833 
L 90.569087 -260.770536 
L 92.425374 -250.712 
L 94.281662 -241.620208 
L 96.137949 -241.743579 
L 97.994237 -230.447105 
L 99.850524 -229.203742 
L 101.706811 -227.315797 
L 103.563099 -225.8333 
L 105.419386 -224.957574 
L 107.275674 -225.485559 
L 109.131961 -223.015849 
L 110.988249 -219.200747 
L 112.844536 -215.295131 
L 114.700823 -210.71237 
L 116.557111 -208.689279 
L 118.413398 -202.870641 
L 120.269686 -197.423054 
L 122.125973 -192.926278 
L 123.98226 -188.314914 
L 125.838548 -185.535066 
L 127.694835 -181.273922 
L 129.551123 -177.728957 
L 131.40741 -175.555336 
L 133.263698 -172.713291 
L 135.119985 -170.116282 
L 136.976272 -167.032351 
L 138.83256 -165.318 
L 140.688847 -162.35409 
L 142.545135 -159.018951 
L 144.401422 -156.871361 
L 146.25771 -153.076799 
L 148.113997 -151.368409 
L 149.970284 -145.736069 
L 151.826572 -142.292699 
L 153.682859 -138.983649 
L 155.539147 -134.758706 
L 157.395434 -130.492086 
L 159.251722 -127.507574 
L 161.108009 -123.836611 
L 162.964296 -119.20053 
L 164.820584 -116.630019 
L 166.676871 -113.858575 
L 168.533159 -109.166611 
L 170.389446 -106.828965 
L 172.245734 -103.659826 
L 174.102021 -100.058889 
L 175.958308 -96.250616 
L 177.814596 -93.748806 
L 179.670883 -91.790094 
L 181.527171 -88.497515 
L 183.383458 -86.0437 
L 185.239746 -83.367471 
L 187.096033 -81.786674 
L 188.95232 -79.712401 
L 190.808608 -78.021063 
L 192.664895 -76.228865 
L 194.521183 -74.730046 
L 196.37747 -73.869307 
L 198.233757 -72.274846 
L 200.090045 -70.665312 
L 201.946332 -69.748109 
L 203.80262 -69.154691 
L 205.658907 -68.150668 
L 207.515195 -66.869618 
L 209.371482 -66.105048 
L 211.227769 -65.356508 
L 213.084057 -64.400374 
L 214.940344 -63.99218 
L 216.796632 -63.574381 
L 218.652919 -63.037408 
L 220.509207 -62.454569 
L 222.365494 -62.310413 
L 224.221781 -61.946362 
L 226.078069 -61.543758 
L 227.934356 -61.421999 
L 229.790644 -61.13962 
L 231.646931 -60.862405 
L 233.503219 -60.699751 
L 235.359506 -61.117565 
L 237.215793 -60.225567 
L 239.072081 -60.363063 
L 240.928368 -60.316937 
L 242.784656 -59.899175 
L 244.640943 -60.14633 
L 246.497231 -60.340259 
L 248.353518 -60.169829 
L 250.209805 -60.313421 
L 252.066093 -60.013743 
L 253.92238 -60.311139 
L 255.778668 -60.728643 
L 257.634955 -60.553548 
L 259.491243 -60.472619 
L 261.34753 -60.474411 
L 263.203817 -60.894149 
L 265.060105 -60.888677 
L 266.916392 -60.805135 
L 268.77268 -61.125979 
L 270.628967 -61.265754 
L 272.485254 -61.471291 
L 274.341542 -61.404875 
L 276.197829 -61.179338 
L 278.054117 -61.517625 
L 279.910404 -61.337931 
L 281.766692 -61.659506 
L 283.622979 -61.273442 
L 285.479266 -61.582034 
L 287.335554 -61.701429 
L 289.191841 -61.767066 
L 291.048129 -61.826088 
L 292.904416 -61.71629 
L 294.760704 -61.70004 
L 296.616991 -61.952144 
L 298.473278 -61.709156 
L 300.329566 -62.050608 
L 302.185853 -62.22249 
L 304.042141 -62.172913 
L 305.898428 -62.672257 
L 307.754716 -62.34293 
L 309.611003 -62.842542 
L 311.46729 -62.853409 
L 313.323578 -62.94515 
L 315.179865 -62.728337 
L 317.036153 -63.094313 
L 318.89244 -63.080108 
L 320.748728 -62.815062 
L 322.605015 -63.225301 
L 324.461302 -63.00041 
L 326.31759 -62.800836 
L 328.173877 -63.110179 
L 330.030165 -63.106613 
L 331.886452 -63.145445 
L 333.74274 -63.336368 
L 335.599027 -63.231903 
L 337.455314 -62.830276 
L 339.311602 -62.837446 
L 341.167889 -63.079331 
L 343.024177 -63.029272 
L 344.880464 -63.110857 
L 346.736751 -63.144393 
L 348.593039 -63.368202 
L 350.449326 -62.354197 
L 350.449326 -69.143136 
L 350.449326 -69.143136 
L 348.593039 -66.847251 
L 346.736751 -67.094345 
L 344.880464 -67.346375 
L 343.024177 -67.247629 
L 341.167889 -67.332691 
L 339.311602 -68.103115 
L 337.455314 -68.145273 
L 335.599027 -67.818615 
L 333.74274 -67.219701 
L 331.886452 -67.956217 
L 330.030165 -67.644643 
L 328.173877 -67.553798 
L 326.31759 -68.057438 
L 324.461302 -67.355684 
L 322.605015 -67.47237 
L 320.748728 -67.889637 
L 318.89244 -67.43994 
L 317.036153 -67.691746 
L 315.179865 -68.197986 
L 313.323578 -68.150834 
L 311.46729 -68.314898 
L 309.611003 -68.299203 
L 307.754716 -69.600247 
L 305.898428 -69.160699 
L 304.042141 -70.223444 
L 302.185853 -69.921218 
L 300.329566 -70.463551 
L 298.473278 -71.17885 
L 296.616991 -70.908316 
L 294.760704 -71.347156 
L 292.904416 -71.635848 
L 291.048129 -71.72535 
L 289.191841 -72.223232 
L 287.335554 -72.594147 
L 285.479266 -72.953497 
L 283.622979 -73.85005 
L 281.766692 -73.395984 
L 279.910404 -74.38893 
L 278.054117 -74.106359 
L 276.197829 -75.104182 
L 274.341542 -75.029657 
L 272.485254 -75.182261 
L 270.628967 -75.80412 
L 268.77268 -76.381698 
L 266.916392 -77.114351 
L 265.060105 -77.603606 
L 263.203817 -77.495111 
L 261.34753 -78.737036 
L 259.491243 -79.31325 
L 257.634955 -79.543842 
L 255.778668 -79.990709 
L 253.92238 -80.869808 
L 252.066093 -81.803251 
L 250.209805 -81.786642 
L 248.353518 -82.327298 
L 246.497231 -82.327721 
L 244.640943 -83.698053 
L 242.784656 -84.761078 
L 240.928368 -85.071689 
L 239.072081 -86.022264 
L 237.215793 -87.269148 
L 235.359506 -87.265281 
L 233.503219 -88.517972 
L 231.646931 -90.045568 
L 229.790644 -91.17907 
L 227.934356 -92.119322 
L 226.078069 -93.540168 
L 224.221781 -94.393762 
L 222.365494 -95.45646 
L 220.509207 -97.777135 
L 218.652919 -99.289362 
L 216.796632 -100.816819 
L 214.940344 -102.303304 
L 213.084057 -104.900302 
L 211.227769 -106.261877 
L 209.371482 -108.029406 
L 207.515195 -109.860756 
L 205.658907 -111.154324 
L 203.80262 -112.392143 
L 201.946332 -114.949038 
L 200.090045 -116.373238 
L 198.233757 -118.274895 
L 196.37747 -119.693933 
L 194.521183 -122.347303 
L 192.664895 -125.283315 
L 190.808608 -126.136054 
L 188.95232 -129.101806 
L 187.096033 -132.344213 
L 185.239746 -136.645924 
L 183.383458 -139.746921 
L 181.527171 -142.280794 
L 179.670883 -145.797828 
L 177.814596 -150.360712 
L 175.958308 -154.034076 
L 174.102021 -157.776626 
L 172.245734 -163.559172 
L 170.389446 -168.835874 
L 168.533159 -174.656885 
L 166.676871 -179.917797 
L 164.820584 -184.64123 
L 162.964296 -190.235996 
L 161.108009 -196.2457 
L 159.251722 -199.522751 
L 157.395434 -203.884996 
L 155.539147 -208.236671 
L 153.682859 -212.368885 
L 151.826572 -217.79381 
L 149.970284 -221.82988 
L 148.113997 -227.475118 
L 146.25771 -230.617455 
L 144.401422 -236.00107 
L 142.545135 -239.92263 
L 140.688847 -244.06809 
L 138.83256 -248.211124 
L 136.976272 -249.486317 
L 135.119985 -252.11133 
L 133.263698 -254.614703 
L 131.40741 -258.543535 
L 129.551123 -262.735127 
L 127.694835 -266.307069 
L 125.838548 -269.14807 
L 123.98226 -271.409598 
L 122.125973 -274.574421 
L 120.269686 -281.157459 
L 118.413398 -285.721382 
L 116.557111 -292.365793 
L 114.700823 -296.234088 
L 112.844536 -301.466812 
L 110.988249 -305.310423 
L 109.131961 -308.835215 
L 107.275674 -314.215758 
L 105.419386 -318.062448 
L 103.563099 -321.709193 
L 101.706811 -325.073092 
L 99.850524 -328.902328 
L 97.994237 -329.465473 
L 96.137949 -332.99242 
L 94.281662 -334.293375 
L 92.425374 -336.190253 
L 90.569087 -337.624491 
L 88.712799 -338.016039 
L 86.856512 -341.587696 
L 85.000225 -342.91102 
L 83.143937 -342.431408 
L 81.28765 -343.607146 
L 79.431362 -346.316883 
L 77.575075 -352.340297 
L 75.718787 -353.523071 
L 73.8625 -341.45625 
z
"/>
    </defs>
    <g clip-path="url(#p67dcd7ad6a)">
     <use xlink:href="#mf5a9c8a4b5" x="0" y="356.254688" style="fill: #0000cd; fill-opacity: 0.3"/>
    </g>
   </g>
   <g id="PolyCollection_2">
    <defs>
     <path id="mffa02d567e" d="M 73.8625 -341.45625 
L 73.8625 -341.45625 
L 75.718787 -308.047307 
L 77.575075 -315.228672 
L 79.431362 -309.882137 
L 81.28765 -310.651166 
L 83.143937 -314.515111 
L 85.000225 -310.729495 
L 86.856512 -309.994928 
L 88.712799 -309.465711 
L 90.569087 -301.371318 
L 92.425374 -301.081002 
L 94.281662 -297.119426 
L 96.137949 -296.430941 
L 97.994237 -295.188816 
L 99.850524 -290.202889 
L 101.706811 -284.445747 
L 103.563099 -278.481566 
L 105.419386 -272.528884 
L 107.275674 -264.644954 
L 109.131961 -257.398046 
L 110.988249 -253.652678 
L 112.844536 -241.391624 
L 114.700823 -233.279278 
L 116.557111 -223.559708 
L 118.413398 -213.793036 
L 120.269686 -205.222649 
L 122.125973 -200.818157 
L 123.98226 -195.049923 
L 125.838548 -188.700381 
L 127.694835 -184.025313 
L 129.551123 -178.711062 
L 131.40741 -175.775121 
L 133.263698 -173.307749 
L 135.119985 -169.690588 
L 136.976272 -168.164393 
L 138.83256 -166.298334 
L 140.688847 -162.504344 
L 142.545135 -159.267013 
L 144.401422 -155.072407 
L 146.25771 -152.983177 
L 148.113997 -148.824544 
L 149.970284 -144.643516 
L 151.826572 -140.059241 
L 153.682859 -136.223024 
L 155.539147 -132.249961 
L 157.395434 -129.011523 
L 159.251722 -125.527104 
L 161.108009 -121.974012 
L 162.964296 -119.279768 
L 164.820584 -116.190839 
L 166.676871 -114.366352 
L 168.533159 -111.767318 
L 170.389446 -109.956702 
L 172.245734 -107.625244 
L 174.102021 -106.029933 
L 175.958308 -104.48677 
L 177.814596 -103.188943 
L 179.670883 -102.364985 
L 181.527171 -100.359377 
L 183.383458 -99.855732 
L 185.239746 -98.960641 
L 187.096033 -98.790243 
L 188.95232 -97.16781 
L 190.808608 -96.207925 
L 192.664895 -95.611151 
L 194.521183 -94.605594 
L 196.37747 -94.064631 
L 198.233757 -92.885018 
L 200.090045 -91.860326 
L 201.946332 -90.7624 
L 203.80262 -89.758005 
L 205.658907 -88.581624 
L 207.515195 -87.33207 
L 209.371482 -86.1442 
L 211.227769 -84.802078 
L 213.084057 -83.405815 
L 214.940344 -81.789664 
L 216.796632 -81.309971 
L 218.652919 -79.443364 
L 220.509207 -78.607928 
L 222.365494 -76.989088 
L 224.221781 -75.800015 
L 226.078069 -75.093955 
L 227.934356 -73.540187 
L 229.790644 -73.156521 
L 231.646931 -72.034407 
L 233.503219 -70.753545 
L 235.359506 -70.502009 
L 237.215793 -68.844961 
L 239.072081 -68.239747 
L 240.928368 -67.619088 
L 242.784656 -66.863492 
L 244.640943 -66.203954 
L 246.497231 -64.956272 
L 248.353518 -65.417882 
L 250.209805 -63.94533 
L 252.066093 -63.507387 
L 253.92238 -63.003802 
L 255.778668 -62.197924 
L 257.634955 -62.497231 
L 259.491243 -61.384959 
L 261.34753 -61.510156 
L 263.203817 -61.239834 
L 265.060105 -60.59991 
L 266.916392 -60.084969 
L 268.77268 -59.796465 
L 270.628967 -60.286243 
L 272.485254 -59.482286 
L 274.341542 -59.850956 
L 276.197829 -59.55826 
L 278.054117 -59.711555 
L 279.910404 -59.435702 
L 281.766692 -59.7752 
L 283.622979 -59.331983 
L 285.479266 -59.35962 
L 287.335554 -58.97998 
L 289.191841 -58.744221 
L 291.048129 -59.311623 
L 292.904416 -58.88167 
L 294.760704 -59.243638 
L 296.616991 -59.428031 
L 298.473278 -59.178726 
L 300.329566 -58.965574 
L 302.185853 -58.969972 
L 304.042141 -58.951931 
L 305.898428 -58.841478 
L 307.754716 -59.157627 
L 309.611003 -59.566516 
L 311.46729 -58.972471 
L 313.323578 -58.952458 
L 315.179865 -59.11741 
L 317.036153 -59.610901 
L 318.89244 -59.573864 
L 320.748728 -59.680317 
L 322.605015 -59.803281 
L 324.461302 -59.549344 
L 326.31759 -60.231647 
L 328.173877 -59.718399 
L 330.030165 -59.919609 
L 331.886452 -59.683636 
L 333.74274 -60.595505 
L 335.599027 -60.457371 
L 337.455314 -60.401432 
L 339.311602 -60.033215 
L 341.167889 -60.174599 
L 343.024177 -60.354695 
L 344.880464 -60.292331 
L 346.736751 -60.823487 
L 348.593039 -60.737139 
L 350.449326 -60.95236 
L 350.449326 -68.830437 
L 350.449326 -68.830437 
L 348.593039 -68.888114 
L 346.736751 -68.937286 
L 344.880464 -69.493649 
L 343.024177 -69.496941 
L 341.167889 -69.850303 
L 339.311602 -70.225661 
L 337.455314 -69.722743 
L 335.599027 -69.899318 
L 333.74274 -69.849785 
L 331.886452 -71.23079 
L 330.030165 -71.176237 
L 328.173877 -71.476364 
L 326.31759 -71.162035 
L 324.461302 -72.125688 
L 322.605015 -72.020912 
L 320.748728 -72.381677 
L 318.89244 -72.599342 
L 317.036153 -72.723583 
L 315.179865 -73.641933 
L 313.323578 -74.116019 
L 311.46729 -74.362624 
L 309.611003 -73.717549 
L 307.754716 -74.484909 
L 305.898428 -75.234391 
L 304.042141 -75.172489 
L 302.185853 -75.500236 
L 300.329566 -75.980744 
L 298.473278 -75.963402 
L 296.616991 -75.63471 
L 294.760704 -76.360435 
L 292.904416 -77.106658 
L 291.048129 -76.837958 
L 289.191841 -78.056017 
L 287.335554 -77.884109 
L 285.479266 -77.763358 
L 283.622979 -78.121866 
L 281.766692 -77.667102 
L 279.910404 -78.870031 
L 278.054117 -78.9099 
L 276.197829 -80.009056 
L 274.341542 -80.173379 
L 272.485254 -81.60531 
L 270.628967 -81.100114 
L 268.77268 -82.687199 
L 266.916392 -83.809445 
L 265.060105 -84.169188 
L 263.203817 -84.38001 
L 261.34753 -85.89208 
L 259.491243 -87.489998 
L 257.634955 -88.157818 
L 255.778668 -89.217219 
L 253.92238 -90.998175 
L 252.066093 -92.915808 
L 250.209805 -93.82497 
L 248.353518 -95.851841 
L 246.497231 -96.030201 
L 244.640943 -99.131068 
L 242.784656 -100.118792 
L 240.928368 -101.476286 
L 239.072081 -104.393718 
L 237.215793 -103.449001 
L 235.359506 -107.476419 
L 233.503219 -107.40384 
L 231.646931 -109.335045 
L 229.790644 -112.709135 
L 227.934356 -113.362153 
L 226.078069 -116.167031 
L 224.221781 -117.012187 
L 222.365494 -118.130463 
L 220.509207 -120.173323 
L 218.652919 -120.675378 
L 216.796632 -123.001342 
L 214.940344 -124.52474 
L 213.084057 -125.432198 
L 211.227769 -127.016716 
L 209.371482 -127.69153 
L 207.515195 -129.65319 
L 205.658907 -130.248779 
L 203.80262 -131.247893 
L 201.946332 -132.096325 
L 200.090045 -133.251529 
L 198.233757 -133.85277 
L 196.37747 -134.909384 
L 194.521183 -135.667505 
L 192.664895 -136.483647 
L 190.808608 -136.29035 
L 188.95232 -137.305521 
L 187.096033 -138.110902 
L 185.239746 -138.876823 
L 183.383458 -139.639555 
L 181.527171 -139.692016 
L 179.670883 -141.937393 
L 177.814596 -142.712716 
L 175.958308 -142.960624 
L 174.102021 -144.922801 
L 172.245734 -146.297762 
L 170.389446 -147.683862 
L 168.533159 -149.627898 
L 166.676871 -153.24374 
L 164.820584 -155.303072 
L 162.964296 -158.948089 
L 161.108009 -162.798489 
L 159.251722 -164.191962 
L 157.395434 -169.499625 
L 155.539147 -173.378847 
L 153.682859 -177.650098 
L 151.826572 -180.751901 
L 149.970284 -185.140257 
L 148.113997 -192.691845 
L 146.25771 -198.0309 
L 144.401422 -202.442088 
L 142.545135 -209.067164 
L 140.688847 -214.201773 
L 138.83256 -219.818383 
L 136.976272 -224.409202 
L 135.119985 -227.790389 
L 133.263698 -232.241766 
L 131.40741 -237.2903 
L 129.551123 -241.107452 
L 127.694835 -246.548923 
L 125.838548 -250.448142 
L 123.98226 -257.334027 
L 122.125973 -263.576662 
L 120.269686 -273.828372 
L 118.413398 -280.398441 
L 116.557111 -289.285391 
L 114.700823 -295.285518 
L 112.844536 -303.114231 
L 110.988249 -310.56791 
L 109.131961 -317.087601 
L 107.275674 -323.758086 
L 105.419386 -328.105901 
L 103.563099 -331.823583 
L 101.706811 -334.149459 
L 99.850524 -337.782433 
L 97.994237 -339.049444 
L 96.137949 -344.098639 
L 94.281662 -344.878396 
L 92.425374 -345.611834 
L 90.569087 -348.080766 
L 88.712799 -344.422788 
L 86.856512 -347.432863 
L 85.000225 -348.449321 
L 83.143937 -346.888522 
L 81.28765 -352.427825 
L 79.431362 -354.584216 
L 77.575075 -352.143523 
L 75.718787 -361.134384 
L 73.8625 -341.45625 
z
"/>
    </defs>
    <g clip-path="url(#p67dcd7ad6a)">
     <use xlink:href="#mffa02d567e" x="0" y="356.254688" style="fill: #0d9188; fill-opacity: 0.3"/>
    </g>
   </g>
   <g id="matplotlib.axis_1">
    <g id="xtick_1">
     <g id="line2d_1">
      <defs>
       <path id="m4c896fadfd" d="M 0 0 
L 0 8 
" style="stroke: #000000; stroke-width: 2"/>
      </defs>
      <g>
       <use xlink:href="#m4c896fadfd" x="73.8625" y="291.998438" style="stroke: #000000; stroke-width: 2"/>
      </g>
     </g>
     <g id="text_1">
      <!-- 0 -->
      <g transform="translate(67.5 318.695313) scale(0.2 -0.2)">
       <defs>
        <path id="DejaVuSans-30" d="M 2034 4250 
Q 1547 4250 1301 3770 
Q 1056 3291 1056 2328 
Q 1056 1369 1301 889 
Q 1547 409 2034 409 
Q 2525 409 2770 889 
Q 3016 1369 3016 2328 
Q 3016 3291 2770 3770 
Q 2525 4250 2034 4250 
z
M 2034 4750 
Q 2819 4750 3233 4129 
Q 3647 3509 3647 2328 
Q 3647 1150 3233 529 
Q 2819 -91 2034 -91 
Q 1250 -91 836 529 
Q 422 1150 422 2328 
Q 422 3509 836 4129 
Q 1250 4750 2034 4750 
z
" transform="scale(0.015625)"/>
       </defs>
       <use xlink:href="#DejaVuSans-30"/>
      </g>
     </g>
    </g>
    <g id="xtick_2">
     <g id="line2d_2">
      <g>
       <use xlink:href="#m4c896fadfd" x="166.8625" y="291.998438" style="stroke: #000000; stroke-width: 2"/>
      </g>
     </g>
     <g id="text_2">
      <!-- 5 -->
      <g transform="translate(160.5 318.695313) scale(0.2 -0.2)">
       <defs>
        <path id="DejaVuSans-35" d="M 691 4666 
L 3169 4666 
L 3169 4134 
L 1269 4134 
L 1269 2991 
Q 1406 3038 1543 3061 
Q 1681 3084 1819 3084 
Q 2600 3084 3056 2656 
Q 3513 2228 3513 1497 
Q 3513 744 3044 326 
Q 2575 -91 1722 -91 
Q 1428 -91 1123 -41 
Q 819 9 494 109 
L 494 744 
Q 775 591 1075 516 
Q 1375 441 1709 441 
Q 2250 441 2565 725 
Q 2881 1009 2881 1497 
Q 2881 1984 2565 2268 
Q 2250 2553 1709 2553 
Q 1456 2553 1204 2497 
Q 953 2441 691 2322 
L 691 4666 
z
" transform="scale(0.015625)"/>
       </defs>
       <use xlink:href="#DejaVuSans-35"/>
      </g>
     </g>
    </g>
    <g id="xtick_3">
     <g id="line2d_3">
      <g>
       <use xlink:href="#m4c896fadfd" x="259.8625" y="291.998438" style="stroke: #000000; stroke-width: 2"/>
      </g>
     </g>
     <g id="text_3">
      <!-- 10 -->
      <g transform="translate(247.1375 318.695313) scale(0.2 -0.2)">
       <defs>
        <path id="DejaVuSans-31" d="M 794 531 
L 1825 531 
L 1825 4091 
L 703 3866 
L 703 4441 
L 1819 4666 
L 2450 4666 
L 2450 531 
L 3481 531 
L 3481 0 
L 794 0 
L 794 531 
z
" transform="scale(0.015625)"/>
       </defs>
       <use xlink:href="#DejaVuSans-31"/>
       <use xlink:href="#DejaVuSans-30" x="63.623047"/>
      </g>
     </g>
    </g>
    <g id="xtick_4">
     <g id="line2d_4">
      <g>
       <use xlink:href="#m4c896fadfd" x="352.8625" y="291.998438" style="stroke: #000000; stroke-width: 2"/>
      </g>
     </g>
     <g id="text_4">
      <!-- 15 -->
      <g transform="translate(340.1375 318.695313) scale(0.2 -0.2)">
       <use xlink:href="#DejaVuSans-31"/>
       <use xlink:href="#DejaVuSans-35" x="63.623047"/>
      </g>
     </g>
    </g>
    <g id="text_5">
     <!-- Spatial frequency (µm$^{-1}$) -->
     <g transform="translate(87.5625 344.854688) scale(0.2 -0.2)">
      <defs>
       <path id="DejaVuSans-53" d="M 3425 4513 
L 3425 3897 
Q 3066 4069 2747 4153 
Q 2428 4238 2131 4238 
Q 1616 4238 1336 4038 
Q 1056 3838 1056 3469 
Q 1056 3159 1242 3001 
Q 1428 2844 1947 2747 
L 2328 2669 
Q 3034 2534 3370 2195 
Q 3706 1856 3706 1288 
Q 3706 609 3251 259 
Q 2797 -91 1919 -91 
Q 1588 -91 1214 -16 
Q 841 59 441 206 
L 441 856 
Q 825 641 1194 531 
Q 1563 422 1919 422 
Q 2459 422 2753 634 
Q 3047 847 3047 1241 
Q 3047 1584 2836 1778 
Q 2625 1972 2144 2069 
L 1759 2144 
Q 1053 2284 737 2584 
Q 422 2884 422 3419 
Q 422 4038 858 4394 
Q 1294 4750 2059 4750 
Q 2388 4750 2728 4690 
Q 3069 4631 3425 4513 
z
" transform="scale(0.015625)"/>
       <path id="DejaVuSans-70" d="M 1159 525 
L 1159 -1331 
L 581 -1331 
L 581 3500 
L 1159 3500 
L 1159 2969 
Q 1341 3281 1617 3432 
Q 1894 3584 2278 3584 
Q 2916 3584 3314 3078 
Q 3713 2572 3713 1747 
Q 3713 922 3314 415 
Q 2916 -91 2278 -91 
Q 1894 -91 1617 61 
Q 1341 213 1159 525 
z
M 3116 1747 
Q 3116 2381 2855 2742 
Q 2594 3103 2138 3103 
Q 1681 3103 1420 2742 
Q 1159 2381 1159 1747 
Q 1159 1113 1420 752 
Q 1681 391 2138 391 
Q 2594 391 2855 752 
Q 3116 1113 3116 1747 
z
" transform="scale(0.015625)"/>
       <path id="DejaVuSans-61" d="M 2194 1759 
Q 1497 1759 1228 1600 
Q 959 1441 959 1056 
Q 959 750 1161 570 
Q 1363 391 1709 391 
Q 2188 391 2477 730 
Q 2766 1069 2766 1631 
L 2766 1759 
L 2194 1759 
z
M 3341 1997 
L 3341 0 
L 2766 0 
L 2766 531 
Q 2569 213 2275 61 
Q 1981 -91 1556 -91 
Q 1019 -91 701 211 
Q 384 513 384 1019 
Q 384 1609 779 1909 
Q 1175 2209 1959 2209 
L 2766 2209 
L 2766 2266 
Q 2766 2663 2505 2880 
Q 2244 3097 1772 3097 
Q 1472 3097 1187 3025 
Q 903 2953 641 2809 
L 641 3341 
Q 956 3463 1253 3523 
Q 1550 3584 1831 3584 
Q 2591 3584 2966 3190 
Q 3341 2797 3341 1997 
z
" transform="scale(0.015625)"/>
       <path id="DejaVuSans-74" d="M 1172 4494 
L 1172 3500 
L 2356 3500 
L 2356 3053 
L 1172 3053 
L 1172 1153 
Q 1172 725 1289 603 
Q 1406 481 1766 481 
L 2356 481 
L 2356 0 
L 1766 0 
Q 1100 0 847 248 
Q 594 497 594 1153 
L 594 3053 
L 172 3053 
L 172 3500 
L 594 3500 
L 594 4494 
L 1172 4494 
z
" transform="scale(0.015625)"/>
       <path id="DejaVuSans-69" d="M 603 3500 
L 1178 3500 
L 1178 0 
L 603 0 
L 603 3500 
z
M 603 4863 
L 1178 4863 
L 1178 4134 
L 603 4134 
L 603 4863 
z
" transform="scale(0.015625)"/>
       <path id="DejaVuSans-6c" d="M 603 4863 
L 1178 4863 
L 1178 0 
L 603 0 
L 603 4863 
z
" transform="scale(0.015625)"/>
       <path id="DejaVuSans-20" transform="scale(0.015625)"/>
       <path id="DejaVuSans-66" d="M 2375 4863 
L 2375 4384 
L 1825 4384 
Q 1516 4384 1395 4259 
Q 1275 4134 1275 3809 
L 1275 3500 
L 2222 3500 
L 2222 3053 
L 1275 3053 
L 1275 0 
L 697 0 
L 697 3053 
L 147 3053 
L 147 3500 
L 697 3500 
L 697 3744 
Q 697 4328 969 4595 
Q 1241 4863 1831 4863 
L 2375 4863 
z
" transform="scale(0.015625)"/>
       <path id="DejaVuSans-72" d="M 2631 2963 
Q 2534 3019 2420 3045 
Q 2306 3072 2169 3072 
Q 1681 3072 1420 2755 
Q 1159 2438 1159 1844 
L 1159 0 
L 581 0 
L 581 3500 
L 1159 3500 
L 1159 2956 
Q 1341 3275 1631 3429 
Q 1922 3584 2338 3584 
Q 2397 3584 2469 3576 
Q 2541 3569 2628 3553 
L 2631 2963 
z
" transform="scale(0.015625)"/>
       <path id="DejaVuSans-65" d="M 3597 1894 
L 3597 1613 
L 953 1613 
Q 991 1019 1311 708 
Q 1631 397 2203 397 
Q 2534 397 2845 478 
Q 3156 559 3463 722 
L 3463 178 
Q 3153 47 2828 -22 
Q 2503 -91 2169 -91 
Q 1331 -91 842 396 
Q 353 884 353 1716 
Q 353 2575 817 3079 
Q 1281 3584 2069 3584 
Q 2775 3584 3186 3129 
Q 3597 2675 3597 1894 
z
M 3022 2063 
Q 3016 2534 2758 2815 
Q 2500 3097 2075 3097 
Q 1594 3097 1305 2825 
Q 1016 2553 972 2059 
L 3022 2063 
z
" transform="scale(0.015625)"/>
       <path id="DejaVuSans-71" d="M 947 1747 
Q 947 1113 1208 752 
Q 1469 391 1925 391 
Q 2381 391 2643 752 
Q 2906 1113 2906 1747 
Q 2906 2381 2643 2742 
Q 2381 3103 1925 3103 
Q 1469 3103 1208 2742 
Q 947 2381 947 1747 
z
M 2906 525 
Q 2725 213 2448 61 
Q 2172 -91 1784 -91 
Q 1150 -91 751 415 
Q 353 922 353 1747 
Q 353 2572 751 3078 
Q 1150 3584 1784 3584 
Q 2172 3584 2448 3432 
Q 2725 3281 2906 2969 
L 2906 3500 
L 3481 3500 
L 3481 -1331 
L 2906 -1331 
L 2906 525 
z
" transform="scale(0.015625)"/>
       <path id="DejaVuSans-75" d="M 544 1381 
L 544 3500 
L 1119 3500 
L 1119 1403 
Q 1119 906 1312 657 
Q 1506 409 1894 409 
Q 2359 409 2629 706 
Q 2900 1003 2900 1516 
L 2900 3500 
L 3475 3500 
L 3475 0 
L 2900 0 
L 2900 538 
Q 2691 219 2414 64 
Q 2138 -91 1772 -91 
Q 1169 -91 856 284 
Q 544 659 544 1381 
z
M 1991 3584 
L 1991 3584 
z
" transform="scale(0.015625)"/>
       <path id="DejaVuSans-6e" d="M 3513 2113 
L 3513 0 
L 2938 0 
L 2938 2094 
Q 2938 2591 2744 2837 
Q 2550 3084 2163 3084 
Q 1697 3084 1428 2787 
Q 1159 2491 1159 1978 
L 1159 0 
L 581 0 
L 581 3500 
L 1159 3500 
L 1159 2956 
Q 1366 3272 1645 3428 
Q 1925 3584 2291 3584 
Q 2894 3584 3203 3211 
Q 3513 2838 3513 2113 
z
" transform="scale(0.015625)"/>
       <path id="DejaVuSans-63" d="M 3122 3366 
L 3122 2828 
Q 2878 2963 2633 3030 
Q 2388 3097 2138 3097 
Q 1578 3097 1268 2742 
Q 959 2388 959 1747 
Q 959 1106 1268 751 
Q 1578 397 2138 397 
Q 2388 397 2633 464 
Q 2878 531 3122 666 
L 3122 134 
Q 2881 22 2623 -34 
Q 2366 -91 2075 -91 
Q 1284 -91 818 406 
Q 353 903 353 1747 
Q 353 2603 823 3093 
Q 1294 3584 2113 3584 
Q 2378 3584 2631 3529 
Q 2884 3475 3122 3366 
z
" transform="scale(0.015625)"/>
       <path id="DejaVuSans-79" d="M 2059 -325 
Q 1816 -950 1584 -1140 
Q 1353 -1331 966 -1331 
L 506 -1331 
L 506 -850 
L 844 -850 
Q 1081 -850 1212 -737 
Q 1344 -625 1503 -206 
L 1606 56 
L 191 3500 
L 800 3500 
L 1894 763 
L 2988 3500 
L 3597 3500 
L 2059 -325 
z
" transform="scale(0.015625)"/>
       <path id="DejaVuSans-28" d="M 1984 4856 
Q 1566 4138 1362 3434 
Q 1159 2731 1159 2009 
Q 1159 1288 1364 580 
Q 1569 -128 1984 -844 
L 1484 -844 
Q 1016 -109 783 600 
Q 550 1309 550 2009 
Q 550 2706 781 3412 
Q 1013 4119 1484 4856 
L 1984 4856 
z
" transform="scale(0.015625)"/>
       <path id="DejaVuSans-b5" d="M 544 -1331 
L 544 3500 
L 1119 3500 
L 1119 1325 
Q 1119 872 1334 640 
Q 1550 409 1972 409 
Q 2434 409 2667 671 
Q 2900 934 2900 1459 
L 2900 3500 
L 3475 3500 
L 3475 806 
Q 3475 619 3529 530 
Q 3584 441 3700 441 
Q 3728 441 3778 458 
Q 3828 475 3916 513 
L 3916 50 
Q 3788 -22 3673 -56 
Q 3559 -91 3450 -91 
Q 3234 -91 3106 31 
Q 2978 153 2931 403 
Q 2775 156 2548 32 
Q 2322 -91 2016 -91 
Q 1697 -91 1473 31 
Q 1250 153 1119 397 
L 1119 -1331 
L 544 -1331 
z
" transform="scale(0.015625)"/>
       <path id="DejaVuSans-6d" d="M 3328 2828 
Q 3544 3216 3844 3400 
Q 4144 3584 4550 3584 
Q 5097 3584 5394 3201 
Q 5691 2819 5691 2113 
L 5691 0 
L 5113 0 
L 5113 2094 
Q 5113 2597 4934 2840 
Q 4756 3084 4391 3084 
Q 3944 3084 3684 2787 
Q 3425 2491 3425 1978 
L 3425 0 
L 2847 0 
L 2847 2094 
Q 2847 2600 2669 2842 
Q 2491 3084 2119 3084 
Q 1678 3084 1418 2786 
Q 1159 2488 1159 1978 
L 1159 0 
L 581 0 
L 581 3500 
L 1159 3500 
L 1159 2956 
Q 1356 3278 1631 3431 
Q 1906 3584 2284 3584 
Q 2666 3584 2933 3390 
Q 3200 3197 3328 2828 
z
" transform="scale(0.015625)"/>
       <path id="DejaVuSans-2212" d="M 678 2272 
L 4684 2272 
L 4684 1741 
L 678 1741 
L 678 2272 
z
" transform="scale(0.015625)"/>
       <path id="DejaVuSans-29" d="M 513 4856 
L 1013 4856 
Q 1481 4119 1714 3412 
Q 1947 2706 1947 2009 
Q 1947 1309 1714 600 
Q 1481 -109 1013 -844 
L 513 -844 
Q 928 -128 1133 580 
Q 1338 1288 1338 2009 
Q 1338 2731 1133 3434 
Q 928 4138 513 4856 
z
" transform="scale(0.015625)"/>
      </defs>
      <use xlink:href="#DejaVuSans-53" transform="translate(0 0.684375)"/>
      <use xlink:href="#DejaVuSans-70" transform="translate(63.476562 0.684375)"/>
      <use xlink:href="#DejaVuSans-61" transform="translate(126.953125 0.684375)"/>
      <use xlink:href="#DejaVuSans-74" transform="translate(188.232422 0.684375)"/>
      <use xlink:href="#DejaVuSans-69" transform="translate(227.441406 0.684375)"/>
      <use xlink:href="#DejaVuSans-61" transform="translate(255.224609 0.684375)"/>
      <use xlink:href="#DejaVuSans-6c" transform="translate(316.503906 0.684375)"/>
      <use xlink:href="#DejaVuSans-20" transform="translate(344.287109 0.684375)"/>
      <use xlink:href="#DejaVuSans-66" transform="translate(376.074219 0.684375)"/>
      <use xlink:href="#DejaVuSans-72" transform="translate(411.279297 0.684375)"/>
      <use xlink:href="#DejaVuSans-65" transform="translate(452.392578 0.684375)"/>
      <use xlink:href="#DejaVuSans-71" transform="translate(513.916016 0.684375)"/>
      <use xlink:href="#DejaVuSans-75" transform="translate(577.392578 0.684375)"/>
      <use xlink:href="#DejaVuSans-65" transform="translate(640.771484 0.684375)"/>
      <use xlink:href="#DejaVuSans-6e" transform="translate(702.294922 0.684375)"/>
      <use xlink:href="#DejaVuSans-63" transform="translate(765.673828 0.684375)"/>
      <use xlink:href="#DejaVuSans-79" transform="translate(820.654297 0.684375)"/>
      <use xlink:href="#DejaVuSans-20" transform="translate(879.833984 0.684375)"/>
      <use xlink:href="#DejaVuSans-28" transform="translate(911.621094 0.684375)"/>
      <use xlink:href="#DejaVuSans-b5" transform="translate(950.634766 0.684375)"/>
      <use xlink:href="#DejaVuSans-6d" transform="translate(1014.257812 0.684375)"/>
      <use xlink:href="#DejaVuSans-2212" transform="translate(1112.626953 38.965625) scale(0.7)"/>
      <use xlink:href="#DejaVuSans-31" transform="translate(1171.279297 38.965625) scale(0.7)"/>
      <use xlink:href="#DejaVuSans-29" transform="translate(1218.549805 0.684375)"/>
     </g>
    </g>
   </g>
   <g id="matplotlib.axis_2">
    <g id="ytick_1">
     <g id="line2d_5">
      <defs>
       <path id="m393b87f94f" d="M 0 0 
L -8 0 
" style="stroke: #000000; stroke-width: 2"/>
      </defs>
      <g>
       <use xlink:href="#m393b87f94f" x="73.8625" y="291.998438" style="stroke: #000000; stroke-width: 2"/>
      </g>
     </g>
     <g id="text_6">
      <!-- 0.0 -->
      <g transform="translate(30.55625 299.596875) scale(0.2 -0.2)">
       <defs>
        <path id="DejaVuSans-2e" d="M 684 794 
L 1344 794 
L 1344 0 
L 684 0 
L 684 794 
z
" transform="scale(0.015625)"/>
       </defs>
       <use xlink:href="#DejaVuSans-30"/>
       <use xlink:href="#DejaVuSans-2e" x="63.623047"/>
       <use xlink:href="#DejaVuSans-30" x="95.410156"/>
      </g>
     </g>
    </g>
    <g id="ytick_2">
     <g id="line2d_6">
      <g>
       <use xlink:href="#m393b87f94f" x="73.8625" y="236.558438" style="stroke: #000000; stroke-width: 2"/>
      </g>
     </g>
     <g id="text_7">
      <!-- 0.2 -->
      <g transform="translate(30.55625 244.156875) scale(0.2 -0.2)">
       <defs>
        <path id="DejaVuSans-32" d="M 1228 531 
L 3431 531 
L 3431 0 
L 469 0 
L 469 531 
Q 828 903 1448 1529 
Q 2069 2156 2228 2338 
Q 2531 2678 2651 2914 
Q 2772 3150 2772 3378 
Q 2772 3750 2511 3984 
Q 2250 4219 1831 4219 
Q 1534 4219 1204 4116 
Q 875 4013 500 3803 
L 500 4441 
Q 881 4594 1212 4672 
Q 1544 4750 1819 4750 
Q 2544 4750 2975 4387 
Q 3406 4025 3406 3419 
Q 3406 3131 3298 2873 
Q 3191 2616 2906 2266 
Q 2828 2175 2409 1742 
Q 1991 1309 1228 531 
z
" transform="scale(0.015625)"/>
       </defs>
       <use xlink:href="#DejaVuSans-30"/>
       <use xlink:href="#DejaVuSans-2e" x="63.623047"/>
       <use xlink:href="#DejaVuSans-32" x="95.410156"/>
      </g>
     </g>
    </g>
    <g id="ytick_3">
     <g id="line2d_7">
      <g>
       <use xlink:href="#m393b87f94f" x="73.8625" y="181.118438" style="stroke: #000000; stroke-width: 2"/>
      </g>
     </g>
     <g id="text_8">
      <!-- 0.4 -->
      <g transform="translate(30.55625 188.716875) scale(0.2 -0.2)">
       <defs>
        <path id="DejaVuSans-34" d="M 2419 4116 
L 825 1625 
L 2419 1625 
L 2419 4116 
z
M 2253 4666 
L 3047 4666 
L 3047 1625 
L 3713 1625 
L 3713 1100 
L 3047 1100 
L 3047 0 
L 2419 0 
L 2419 1100 
L 313 1100 
L 313 1709 
L 2253 4666 
z
" transform="scale(0.015625)"/>
       </defs>
       <use xlink:href="#DejaVuSans-30"/>
       <use xlink:href="#DejaVuSans-2e" x="63.623047"/>
       <use xlink:href="#DejaVuSans-34" x="95.410156"/>
      </g>
     </g>
    </g>
    <g id="ytick_4">
     <g id="line2d_8">
      <g>
       <use xlink:href="#m393b87f94f" x="73.8625" y="125.678438" style="stroke: #000000; stroke-width: 2"/>
      </g>
     </g>
     <g id="text_9">
      <!-- 0.6 -->
      <g transform="translate(30.55625 133.276875) scale(0.2 -0.2)">
       <defs>
        <path id="DejaVuSans-36" d="M 2113 2584 
Q 1688 2584 1439 2293 
Q 1191 2003 1191 1497 
Q 1191 994 1439 701 
Q 1688 409 2113 409 
Q 2538 409 2786 701 
Q 3034 994 3034 1497 
Q 3034 2003 2786 2293 
Q 2538 2584 2113 2584 
z
M 3366 4563 
L 3366 3988 
Q 3128 4100 2886 4159 
Q 2644 4219 2406 4219 
Q 1781 4219 1451 3797 
Q 1122 3375 1075 2522 
Q 1259 2794 1537 2939 
Q 1816 3084 2150 3084 
Q 2853 3084 3261 2657 
Q 3669 2231 3669 1497 
Q 3669 778 3244 343 
Q 2819 -91 2113 -91 
Q 1303 -91 875 529 
Q 447 1150 447 2328 
Q 447 3434 972 4092 
Q 1497 4750 2381 4750 
Q 2619 4750 2861 4703 
Q 3103 4656 3366 4563 
z
" transform="scale(0.015625)"/>
       </defs>
       <use xlink:href="#DejaVuSans-30"/>
       <use xlink:href="#DejaVuSans-2e" x="63.623047"/>
       <use xlink:href="#DejaVuSans-36" x="95.410156"/>
      </g>
     </g>
    </g>
    <g id="ytick_5">
     <g id="line2d_9">
      <g>
       <use xlink:href="#m393b87f94f" x="73.8625" y="70.238438" style="stroke: #000000; stroke-width: 2"/>
      </g>
     </g>
     <g id="text_10">
      <!-- 0.8 -->
      <g transform="translate(30.55625 77.836875) scale(0.2 -0.2)">
       <defs>
        <path id="DejaVuSans-38" d="M 2034 2216 
Q 1584 2216 1326 1975 
Q 1069 1734 1069 1313 
Q 1069 891 1326 650 
Q 1584 409 2034 409 
Q 2484 409 2743 651 
Q 3003 894 3003 1313 
Q 3003 1734 2745 1975 
Q 2488 2216 2034 2216 
z
M 1403 2484 
Q 997 2584 770 2862 
Q 544 3141 544 3541 
Q 544 4100 942 4425 
Q 1341 4750 2034 4750 
Q 2731 4750 3128 4425 
Q 3525 4100 3525 3541 
Q 3525 3141 3298 2862 
Q 3072 2584 2669 2484 
Q 3125 2378 3379 2068 
Q 3634 1759 3634 1313 
Q 3634 634 3220 271 
Q 2806 -91 2034 -91 
Q 1263 -91 848 271 
Q 434 634 434 1313 
Q 434 1759 690 2068 
Q 947 2378 1403 2484 
z
M 1172 3481 
Q 1172 3119 1398 2916 
Q 1625 2713 2034 2713 
Q 2441 2713 2670 2916 
Q 2900 3119 2900 3481 
Q 2900 3844 2670 4047 
Q 2441 4250 2034 4250 
Q 1625 4250 1398 4047 
Q 1172 3844 1172 3481 
z
" transform="scale(0.015625)"/>
       </defs>
       <use xlink:href="#DejaVuSans-30"/>
       <use xlink:href="#DejaVuSans-2e" x="63.623047"/>
       <use xlink:href="#DejaVuSans-38" x="95.410156"/>
      </g>
     </g>
    </g>
    <g id="ytick_6">
     <g id="line2d_10">
      <g>
       <use xlink:href="#m393b87f94f" x="73.8625" y="14.798438" style="stroke: #000000; stroke-width: 2"/>
      </g>
     </g>
     <g id="text_11">
      <!-- 1.0 -->
      <g transform="translate(30.55625 22.396875) scale(0.2 -0.2)">
       <use xlink:href="#DejaVuSans-31"/>
       <use xlink:href="#DejaVuSans-2e" x="63.623047"/>
       <use xlink:href="#DejaVuSans-30" x="95.410156"/>
      </g>
     </g>
    </g>
    <g id="text_12">
     <!-- Correlation -->
     <g transform="translate(22.396875 208.535938) rotate(-90) scale(0.2 -0.2)">
      <defs>
       <path id="DejaVuSans-43" d="M 4122 4306 
L 4122 3641 
Q 3803 3938 3442 4084 
Q 3081 4231 2675 4231 
Q 1875 4231 1450 3742 
Q 1025 3253 1025 2328 
Q 1025 1406 1450 917 
Q 1875 428 2675 428 
Q 3081 428 3442 575 
Q 3803 722 4122 1019 
L 4122 359 
Q 3791 134 3420 21 
Q 3050 -91 2638 -91 
Q 1578 -91 968 557 
Q 359 1206 359 2328 
Q 359 3453 968 4101 
Q 1578 4750 2638 4750 
Q 3056 4750 3426 4639 
Q 3797 4528 4122 4306 
z
" transform="scale(0.015625)"/>
       <path id="DejaVuSans-6f" d="M 1959 3097 
Q 1497 3097 1228 2736 
Q 959 2375 959 1747 
Q 959 1119 1226 758 
Q 1494 397 1959 397 
Q 2419 397 2687 759 
Q 2956 1122 2956 1747 
Q 2956 2369 2687 2733 
Q 2419 3097 1959 3097 
z
M 1959 3584 
Q 2709 3584 3137 3096 
Q 3566 2609 3566 1747 
Q 3566 888 3137 398 
Q 2709 -91 1959 -91 
Q 1206 -91 779 398 
Q 353 888 353 1747 
Q 353 2609 779 3096 
Q 1206 3584 1959 3584 
z
" transform="scale(0.015625)"/>
      </defs>
      <use xlink:href="#DejaVuSans-43"/>
      <use xlink:href="#DejaVuSans-6f" x="69.824219"/>
      <use xlink:href="#DejaVuSans-72" x="131.005859"/>
      <use xlink:href="#DejaVuSans-72" x="170.369141"/>
      <use xlink:href="#DejaVuSans-65" x="209.232422"/>
      <use xlink:href="#DejaVuSans-6c" x="270.755859"/>
      <use xlink:href="#DejaVuSans-61" x="298.539062"/>
      <use xlink:href="#DejaVuSans-74" x="359.818359"/>
      <use xlink:href="#DejaVuSans-69" x="399.027344"/>
      <use xlink:href="#DejaVuSans-6f" x="426.810547"/>
      <use xlink:href="#DejaVuSans-6e" x="487.992188"/>
     </g>
    </g>
   </g>
   <g id="line2d_11">
    <path d="M 73.8625 14.798438 
L 75.718787 31.746693 
L 77.575075 37.585516 
L 79.431362 40.89501 
L 81.28765 42.632473 
L 83.143937 46.421553 
L 85.000225 47.865698 
L 86.856512 52.235548 
L 88.712799 54.006251 
L 90.569087 57.057174 
L 94.281662 68.297896 
L 96.137949 68.886688 
L 97.994237 76.298398 
L 99.850524 77.201652 
L 101.706811 80.060243 
L 105.419386 84.744676 
L 107.275674 86.404029 
L 110.988249 93.999102 
L 112.844536 97.873716 
L 114.700823 102.781458 
L 116.557111 105.727151 
L 118.413398 111.958676 
L 120.269686 116.964431 
L 122.125973 122.504338 
L 123.98226 126.392432 
L 125.838548 128.91312 
L 129.551123 136.022645 
L 133.263698 142.590691 
L 135.119985 145.140881 
L 136.976272 147.995353 
L 138.83256 149.490125 
L 142.545135 156.783897 
L 144.401422 159.818472 
L 146.25771 164.40756 
L 148.113997 166.832924 
L 149.970284 172.471713 
L 151.826572 176.211433 
L 157.395434 189.066147 
L 161.108009 196.213532 
L 162.964296 201.536425 
L 164.820584 205.619063 
L 166.676871 209.366502 
L 168.533159 214.34294 
L 172.245734 222.645189 
L 174.102021 227.33693 
L 175.958308 231.112342 
L 179.670883 237.460726 
L 181.527171 240.865533 
L 183.383458 243.359377 
L 188.95232 251.847584 
L 190.808608 254.176129 
L 192.664895 255.498598 
L 194.521183 257.716013 
L 196.37747 259.473067 
L 198.233757 260.979817 
L 200.090045 262.735412 
L 201.946332 263.906114 
L 203.80262 265.481271 
L 205.658907 266.602191 
L 211.227769 270.445495 
L 213.084057 271.604349 
L 214.940344 273.106946 
L 218.652919 275.091302 
L 220.509207 276.138835 
L 222.365494 277.371251 
L 227.934356 279.484027 
L 231.646931 280.800701 
L 233.503219 281.645826 
L 237.215793 282.50733 
L 240.928368 283.560374 
L 244.640943 284.332496 
L 246.497231 284.920697 
L 248.353518 285.006124 
L 255.778668 285.895011 
L 257.634955 286.205993 
L 259.491243 286.361753 
L 261.34753 286.648964 
L 263.203817 287.060057 
L 265.060105 287.008546 
L 268.77268 287.500849 
L 272.485254 287.927912 
L 276.197829 288.112927 
L 278.054117 288.442695 
L 279.910404 288.391257 
L 281.766692 288.726943 
L 283.622979 288.692942 
L 285.479266 288.986922 
L 289.191841 289.259538 
L 291.048129 289.478969 
L 302.185853 290.182833 
L 304.042141 290.056509 
L 305.898428 290.338209 
L 307.754716 290.283099 
L 309.611003 290.683815 
L 313.323578 290.706696 
L 318.89244 290.994663 
L 322.605015 290.905852 
L 324.461302 291.07664 
L 326.31759 290.82555 
L 328.173877 290.922699 
L 330.030165 290.87906 
L 331.886452 290.703856 
L 333.74274 290.976653 
L 335.599027 290.729429 
L 339.311602 290.784407 
L 341.167889 291.048676 
L 343.024177 291.116237 
L 344.880464 291.026071 
L 348.593039 291.146961 
L 350.449326 290.506021 
L 350.449326 290.506021 
" clip-path="url(#p67dcd7ad6a)" style="fill: none; stroke: #0000cd; stroke-width: 2; stroke-linecap: square"/>
   </g>
   <g id="line2d_12">
    <path d="M 73.8625 14.798438 
L 75.718787 21.663842 
L 77.575075 22.56859 
L 79.431362 24.021511 
L 81.28765 24.715192 
L 83.143937 25.552871 
L 85.000225 26.665279 
L 86.856512 27.540792 
L 88.712799 29.310438 
L 90.569087 31.528645 
L 92.425374 32.908269 
L 94.281662 35.255777 
L 96.137949 35.989897 
L 99.850524 42.262027 
L 101.706811 46.957085 
L 103.563099 51.102113 
L 105.419386 55.937295 
L 107.275674 62.053168 
L 109.131961 69.011864 
L 110.988249 74.144394 
L 112.844536 84.00176 
L 116.557111 99.832138 
L 118.413398 109.158949 
L 122.125973 124.057278 
L 123.98226 130.062712 
L 125.838548 136.680426 
L 127.694835 140.967569 
L 129.551123 146.345431 
L 131.40741 149.721977 
L 133.263698 153.47993 
L 135.119985 157.514199 
L 136.976272 159.96789 
L 138.83256 163.196329 
L 140.688847 167.901629 
L 142.545135 172.087599 
L 144.401422 177.49744 
L 146.25771 180.747649 
L 148.113997 185.496493 
L 149.970284 191.362801 
L 151.826572 195.849116 
L 153.682859 199.318127 
L 155.539147 203.440283 
L 157.395434 206.999114 
L 159.251722 211.395154 
L 161.108009 213.868437 
L 164.820584 220.507732 
L 166.676871 222.449641 
L 168.533159 225.557079 
L 172.245734 229.293185 
L 174.102021 230.77832 
L 175.958308 232.53099 
L 179.670883 234.103498 
L 181.527171 236.228991 
L 183.383458 236.507044 
L 185.239746 237.335955 
L 187.096033 237.804115 
L 188.95232 239.018022 
L 190.808608 240.00555 
L 192.664895 240.207288 
L 194.521183 241.118138 
L 196.37747 241.76768 
L 198.233757 242.885794 
L 200.090045 243.69876 
L 201.946332 244.825325 
L 203.80262 245.751739 
L 205.658907 246.839486 
L 207.515195 247.762058 
L 209.371482 249.336822 
L 211.227769 250.345291 
L 213.084057 251.835681 
L 214.940344 253.097486 
L 216.796632 254.099031 
L 218.652919 256.195317 
L 220.509207 256.864062 
L 222.365494 258.694912 
L 224.221781 259.848586 
L 226.078069 260.624194 
L 227.934356 262.803517 
L 229.790644 263.321859 
L 231.646931 265.569961 
L 233.503219 267.175995 
L 235.359506 267.265473 
L 237.215793 270.107706 
L 239.072081 269.937955 
L 240.928368 271.707001 
L 242.784656 272.763545 
L 244.640943 273.587177 
L 246.497231 275.761451 
L 248.353518 275.619826 
L 250.209805 277.369537 
L 252.066093 278.04309 
L 255.778668 280.547116 
L 257.634955 280.927163 
L 259.491243 281.817209 
L 261.34753 282.553569 
L 263.203817 283.444766 
L 266.916392 284.30748 
L 268.77268 285.012856 
L 270.628967 285.561509 
L 272.485254 285.71089 
L 274.341542 286.24252 
L 276.197829 286.47103 
L 278.054117 286.94396 
L 279.910404 287.101821 
L 281.766692 287.533537 
L 283.622979 287.527763 
L 287.335554 287.822643 
L 289.191841 287.854569 
L 291.048129 288.179897 
L 292.904416 288.260523 
L 296.616991 288.723317 
L 298.473278 288.683623 
L 300.329566 288.781528 
L 304.042141 289.192478 
L 305.898428 289.216753 
L 309.611003 289.612655 
L 311.46729 289.58714 
L 326.31759 290.557847 
L 337.455314 291.1926 
L 339.311602 291.125249 
L 343.024177 291.328869 
L 350.449326 291.363289 
L 350.449326 291.363289 
" clip-path="url(#p67dcd7ad6a)" style="fill: none; stroke: #0d9188; stroke-width: 2; stroke-linecap: square"/>
   </g>
   <g id="patch_3">
    <path d="M 73.8625 291.998438 
L 73.8625 14.798438 
" style="fill: none; stroke: #000000; stroke-width: 2; stroke-linejoin: miter; stroke-linecap: square"/>
   </g>
   <g id="patch_4">
    <path d="M 73.8625 291.998438 
L 352.8625 291.998438 
" style="fill: none; stroke: #000000; stroke-width: 2; stroke-linejoin: miter; stroke-linecap: square"/>
   </g>
  </g>
 </g>
 <defs>
  <clipPath id="p67dcd7ad6a">
   <rect x="73.8625" y="14.798438" width="279" height="277.2"/>
  </clipPath>
 </defs>
</svg>
