<?xml version="1.0" encoding="utf-8" standalone="no"?>
<!DOCTYPE svg PUBLIC "-//W3C//DTD SVG 1.1//EN"
  "http://www.w3.org/Graphics/SVG/1.1/DTD/svg11.dtd">
<svg xmlns:xlink="http://www.w3.org/1999/xlink" width="117.849375pt" height="379.059609pt" viewBox="0 0 117.849375 379.059609" xmlns="http://www.w3.org/2000/svg" version="1.1">
 <metadata>
  <rdf:RDF xmlns:dc="http://purl.org/dc/elements/1.1/" xmlns:cc="http://creativecommons.org/ns#" xmlns:rdf="http://www.w3.org/1999/02/22-rdf-syntax-ns#">
   <cc:Work>
    <dc:type rdf:resource="http://purl.org/dc/dcmitype/StillImage"/>
    <dc:date>2026-04-21T14:42:07.898139</dc:date>
    <dc:format>image/svg+xml</dc:format>
    <dc:creator>
     <cc:Agent>
      <dc:title>Matplotlib v3.9.1, https://matplotlib.org/</dc:title>
     </cc:Agent>
    </dc:creator>
   </cc:Work>
  </rdf:RDF>
 </metadata>
 <defs>
  <style type="text/css">*{stroke-linejoin: round; stroke-linecap: butt}</style>
 </defs>
 <g id="figure_1">
  <g id="patch_1">
   <path d="M 0 379.059609 
L 117.849375 379.059609 
L 117.849375 0 
L 0 0 
z
" style="fill: #ffffff"/>
  </g>
  <g id="axes_1">
   <g id="patch_2">
    <path d="M 40.123125 71.099297 
L 104.923125 71.099297 
L 104.923125 10.619297 
L 40.123125 10.619297 
z
" style="fill: #ffffff"/>
   </g>
   <g id="matplotlib.axis_1">
    <g id="xtick_1">
     <g id="line2d_1">
      <defs>
       <path id="mc683adc83e" d="M 0 0 
L 0 2.4 
" style="stroke: #000000; stroke-width: 1.2"/>
      </defs>
      <g>
       <use xlink:href="#mc683adc83e" x="40.123125" y="71.099297" style="stroke: #000000; stroke-width: 1.2"/>
      </g>
     </g>
     <g id="text_1">
      <!-- 0 -->
      <g transform="translate(37.26 83.837891) scale(0.09 -0.09)">
       <defs>
        <path id="DejaVuSans-30" d="M 2034 4250 
Q 1547 4250 1301 3770 
Q 1056 3291 1056 2328 
Q 1056 1369 1301 889 
Q 1547 409 2034 409 
Q 2525 409 2770 889 
Q 3016 1369 3016 2328 
Q 3016 3291 2770 3770 
Q 2525 4250 2034 4250 
z
M 2034 4750 
Q 2819 4750 3233 4129 
Q 3647 3509 3647 2328 
Q 3647 1150 3233 529 
Q 2819 -91 2034 -91 
Q 1250 -91 836 529 
Q 422 1150 422 2328 
Q 422 3509 836 4129 
Q 1250 4750 2034 4750 
z
" transform="scale(0.015625)"/>
       </defs>
       <use xlink:href="#DejaVuSans-30"/>
      </g>
     </g>
    </g>
    <g id="xtick_2">
     <g id="line2d_2">
      <g>
       <use xlink:href="#mc683adc83e" x="61.723125" y="71.099297" style="stroke: #000000; stroke-width: 1.2"/>
      </g>
     </g>
     <g id="text_2">
      <!-- 5 -->
      <g transform="translate(58.86 83.837891) scale(0.09 -0.09)">
       <defs>
        <path id="DejaVuSans-35" d="M 691 4666 
L 3169 4666 
L 3169 4134 
L 1269 4134 
L 1269 2991 
Q 1406 3038 1543 3061 
Q 1681 3084 1819 3084 
Q 2600 3084 3056 2656 
Q 3513 2228 3513 1497 
Q 3513 744 3044 326 
Q 2575 -91 1722 -91 
Q 1428 -91 1123 -41 
Q 819 9 494 109 
L 494 744 
Q 775 591 1075 516 
Q 1375 441 1709 441 
Q 2250 441 2565 725 
Q 2881 1009 2881 1497 
Q 2881 1984 2565 2268 
Q 2250 2553 1709 2553 
Q 1456 2553 1204 2497 
Q 953 2441 691 2322 
L 691 4666 
z
" transform="scale(0.015625)"/>
       </defs>
       <use xlink:href="#DejaVuSans-35"/>
      </g>
     </g>
    </g>
    <g id="xtick_3">
     <g id="line2d_3">
      <g>
       <use xlink:href="#mc683adc83e" x="83.323125" y="71.099297" style="stroke: #000000; stroke-width: 1.2"/>
      </g>
     </g>
     <g id="text_3">
      <!-- 10 -->
      <g transform="translate(77.596875 83.837891) scale(0.09 -0.09)">
       <defs>
        <path id="DejaVuSans-31" d="M 794 531 
L 1825 531 
L 1825 4091 
L 703 3866 
L 703 4441 
L 1819 4666 
L 2450 4666 
L 2450 531 
L 3481 531 
L 3481 0 
L 794 0 
L 794 531 
z
" transform="scale(0.015625)"/>
       </defs>
       <use xlink:href="#DejaVuSans-31"/>
       <use xlink:href="#DejaVuSans-30" x="63.623047"/>
      </g>
     </g>
    </g>
    <g id="xtick_4">
     <g id="line2d_4">
      <g>
       <use xlink:href="#mc683adc83e" x="104.923125" y="71.099297" style="stroke: #000000; stroke-width: 1.2"/>
      </g>
     </g>
     <g id="text_4">
      <!-- 15 -->
      <g transform="translate(99.196875 83.837891) scale(0.09 -0.09)">
       <use xlink:href="#DejaVuSans-31"/>
       <use xlink:href="#DejaVuSans-35" x="63.623047"/>
      </g>
     </g>
    </g>
   </g>
   <g id="matplotlib.axis_2">
    <g id="ytick_1">
     <g id="line2d_5">
      <defs>
       <path id="m3f46fde82f" d="M 0 0 
L -2.4 0 
" style="stroke: #000000; stroke-width: 1.2"/>
      </defs>
      <g>
       <use xlink:href="#m3f46fde82f" x="40.123125" y="71.099297" style="stroke: #000000; stroke-width: 1.2"/>
      </g>
     </g>
     <g id="text_5">
      <!-- 0.0 -->
      <g transform="translate(19.910313 74.518594) scale(0.09 -0.09)">
       <defs>
        <path id="DejaVuSans-2e" d="M 684 794 
L 1344 794 
L 1344 0 
L 684 0 
L 684 794 
z
" transform="scale(0.015625)"/>
       </defs>
       <use xlink:href="#DejaVuSans-30"/>
       <use xlink:href="#DejaVuSans-2e" x="63.623047"/>
       <use xlink:href="#DejaVuSans-30" x="95.410156"/>
      </g>
     </g>
    </g>
    <g id="ytick_2">
     <g id="line2d_6">
      <g>
       <use xlink:href="#m3f46fde82f" x="40.123125" y="40.859297" style="stroke: #000000; stroke-width: 1.2"/>
      </g>
     </g>
     <g id="text_6">
      <!-- 0.5 -->
      <g transform="translate(19.910313 44.278594) scale(0.09 -0.09)">
       <use xlink:href="#DejaVuSans-30"/>
       <use xlink:href="#DejaVuSans-2e" x="63.623047"/>
       <use xlink:href="#DejaVuSans-35" x="95.410156"/>
      </g>
     </g>
    </g>
    <g id="ytick_3">
     <g id="line2d_7">
      <g>
       <use xlink:href="#m3f46fde82f" x="40.123125" y="10.619297" style="stroke: #000000; stroke-width: 1.2"/>
      </g>
     </g>
     <g id="text_7">
      <!-- 1.0 -->
      <g transform="translate(19.910313 14.038594) scale(0.09 -0.09)">
       <use xlink:href="#DejaVuSans-31"/>
       <use xlink:href="#DejaVuSans-2e" x="63.623047"/>
       <use xlink:href="#DejaVuSans-30" x="95.410156"/>
      </g>
     </g>
    </g>
    <g id="text_8">
     <!-- Correlation -->
     <g transform="translate(14.038594 65.671172) rotate(-90) scale(0.09 -0.09)">
      <defs>
       <path id="DejaVuSans-43" d="M 4122 4306 
L 4122 3641 
Q 3803 3938 3442 4084 
Q 3081 4231 2675 4231 
Q 1875 4231 1450 3742 
Q 1025 3253 1025 2328 
Q 1025 1406 1450 917 
Q 1875 428 2675 428 
Q 3081 428 3442 575 
Q 3803 722 4122 1019 
L 4122 359 
Q 3791 134 3420 21 
Q 3050 -91 2638 -91 
Q 1578 -91 968 557 
Q 359 1206 359 2328 
Q 359 3453 968 4101 
Q 1578 4750 2638 4750 
Q 3056 4750 3426 4639 
Q 3797 4528 4122 4306 
z
" transform="scale(0.015625)"/>
       <path id="DejaVuSans-6f" d="M 1959 3097 
Q 1497 3097 1228 2736 
Q 959 2375 959 1747 
Q 959 1119 1226 758 
Q 1494 397 1959 397 
Q 2419 397 2687 759 
Q 2956 1122 2956 1747 
Q 2956 2369 2687 2733 
Q 2419 3097 1959 3097 
z
M 1959 3584 
Q 2709 3584 3137 3096 
Q 3566 2609 3566 1747 
Q 3566 888 3137 398 
Q 2709 -91 1959 -91 
Q 1206 -91 779 398 
Q 353 888 353 1747 
Q 353 2609 779 3096 
Q 1206 3584 1959 3584 
z
" transform="scale(0.015625)"/>
       <path id="DejaVuSans-72" d="M 2631 2963 
Q 2534 3019 2420 3045 
Q 2306 3072 2169 3072 
Q 1681 3072 1420 2755 
Q 1159 2438 1159 1844 
L 1159 0 
L 581 0 
L 581 3500 
L 1159 3500 
L 1159 2956 
Q 1341 3275 1631 3429 
Q 1922 3584 2338 3584 
Q 2397 3584 2469 3576 
Q 2541 3569 2628 3553 
L 2631 2963 
z
" transform="scale(0.015625)"/>
       <path id="DejaVuSans-65" d="M 3597 1894 
L 3597 1613 
L 953 1613 
Q 991 1019 1311 708 
Q 1631 397 2203 397 
Q 2534 397 2845 478 
Q 3156 559 3463 722 
L 3463 178 
Q 3153 47 2828 -22 
Q 2503 -91 2169 -91 
Q 1331 -91 842 396 
Q 353 884 353 1716 
Q 353 2575 817 3079 
Q 1281 3584 2069 3584 
Q 2775 3584 3186 3129 
Q 3597 2675 3597 1894 
z
M 3022 2063 
Q 3016 2534 2758 2815 
Q 2500 3097 2075 3097 
Q 1594 3097 1305 2825 
Q 1016 2553 972 2059 
L 3022 2063 
z
" transform="scale(0.015625)"/>
       <path id="DejaVuSans-6c" d="M 603 4863 
L 1178 4863 
L 1178 0 
L 603 0 
L 603 4863 
z
" transform="scale(0.015625)"/>
       <path id="DejaVuSans-61" d="M 2194 1759 
Q 1497 1759 1228 1600 
Q 959 1441 959 1056 
Q 959 750 1161 570 
Q 1363 391 1709 391 
Q 2188 391 2477 730 
Q 2766 1069 2766 1631 
L 2766 1759 
L 2194 1759 
z
M 3341 1997 
L 3341 0 
L 2766 0 
L 2766 531 
Q 2569 213 2275 61 
Q 1981 -91 1556 -91 
Q 1019 -91 701 211 
Q 384 513 384 1019 
Q 384 1609 779 1909 
Q 1175 2209 1959 2209 
L 2766 2209 
L 2766 2266 
Q 2766 2663 2505 2880 
Q 2244 3097 1772 3097 
Q 1472 3097 1187 3025 
Q 903 2953 641 2809 
L 641 3341 
Q 956 3463 1253 3523 
Q 1550 3584 1831 3584 
Q 2591 3584 2966 3190 
Q 3341 2797 3341 1997 
z
" transform="scale(0.015625)"/>
       <path id="DejaVuSans-74" d="M 1172 4494 
L 1172 3500 
L 2356 3500 
L 2356 3053 
L 1172 3053 
L 1172 1153 
Q 1172 725 1289 603 
Q 1406 481 1766 481 
L 2356 481 
L 2356 0 
L 1766 0 
Q 1100 0 847 248 
Q 594 497 594 1153 
L 594 3053 
L 172 3053 
L 172 3500 
L 594 3500 
L 594 4494 
L 1172 4494 
z
" transform="scale(0.015625)"/>
       <path id="DejaVuSans-69" d="M 603 3500 
L 1178 3500 
L 1178 0 
L 603 0 
L 603 3500 
z
M 603 4863 
L 1178 4863 
L 1178 4134 
L 603 4134 
L 603 4863 
z
" transform="scale(0.015625)"/>
       <path id="DejaVuSans-6e" d="M 3513 2113 
L 3513 0 
L 2938 0 
L 2938 2094 
Q 2938 2591 2744 2837 
Q 2550 3084 2163 3084 
Q 1697 3084 1428 2787 
Q 1159 2491 1159 1978 
L 1159 0 
L 581 0 
L 581 3500 
L 1159 3500 
L 1159 2956 
Q 1366 3272 1645 3428 
Q 1925 3584 2291 3584 
Q 2894 3584 3203 3211 
Q 3513 2838 3513 2113 
z
" transform="scale(0.015625)"/>
      </defs>
      <use xlink:href="#DejaVuSans-43"/>
      <use xlink:href="#DejaVuSans-6f" x="69.824219"/>
      <use xlink:href="#DejaVuSans-72" x="131.005859"/>
      <use xlink:href="#DejaVuSans-72" x="170.369141"/>
      <use xlink:href="#DejaVuSans-65" x="209.232422"/>
      <use xlink:href="#DejaVuSans-6c" x="270.755859"/>
      <use xlink:href="#DejaVuSans-61" x="298.539062"/>
      <use xlink:href="#DejaVuSans-74" x="359.818359"/>
      <use xlink:href="#DejaVuSans-69" x="399.027344"/>
      <use xlink:href="#DejaVuSans-6f" x="426.810547"/>
      <use xlink:href="#DejaVuSans-6e" x="487.992188"/>
     </g>
    </g>
   </g>
   <g id="line2d_8">
    <path d="M 40.123125 10.619297 
L 40.363125 11.575673 
L 40.603125 12.404877 
L 40.723125 11.72211 
L 40.843125 12.547712 
L 41.083125 11.228274 
L 41.203125 11.912318 
L 41.443125 11.324834 
L 41.683125 11.545157 
L 41.803125 11.318539 
L 41.923125 11.508527 
L 42.043125 11.994448 
L 42.163125 11.475856 
L 42.283125 11.974661 
L 42.523125 11.707295 
L 42.643125 12.169517 
L 42.883125 12.232265 
L 43.003125 12.011186 
L 43.363125 12.377262 
L 43.483125 11.958649 
L 43.723125 12.508763 
L 43.963125 12.053326 
L 44.083125 12.539267 
L 44.323125 12.196047 
L 44.443125 12.324306 
L 44.563125 13.116776 
L 44.683125 13.008645 
L 44.803125 13.078464 
L 44.923125 12.668512 
L 45.043125 13.039605 
L 45.283125 12.817711 
L 45.523125 13.253182 
L 45.883125 12.11768 
L 46.363125 12.672278 
L 46.483125 12.629266 
L 46.603125 12.390652 
L 46.843125 12.452061 
L 46.963125 12.93509 
L 47.323125 12.857546 
L 47.563125 13.139618 
L 47.803125 12.645981 
L 47.923125 12.979642 
L 48.043125 12.607855 
L 48.163125 12.921104 
L 48.283125 12.919813 
L 48.403125 12.795228 
L 48.523125 13.234721 
L 48.763125 13.018127 
L 49.243125 14.731659 
L 49.483125 13.851775 
L 49.723125 13.462413 
L 49.843125 13.938055 
L 50.083125 13.433745 
L 50.203125 13.421353 
L 50.443125 14.45999 
L 50.563125 14.504512 
L 50.683125 14.154346 
L 50.803125 14.333636 
L 50.923125 14.288672 
L 51.163125 15.736302 
L 51.523125 15.497073 
L 51.763125 14.278044 
L 52.003125 15.094437 
L 52.123125 14.871471 
L 52.363125 15.467958 
L 52.483125 16.260446 
L 52.603125 16.282233 
L 52.723125 17.289612 
L 52.843125 16.514377 
L 52.963125 17.192567 
L 53.203125 15.933858 
L 53.563125 18.024091 
L 53.683125 17.471151 
L 53.803125 17.590832 
L 53.923125 17.539926 
L 54.163125 19.042242 
L 54.283125 18.337482 
L 54.403125 19.523891 
L 54.523125 19.299373 
L 54.883125 20.896788 
L 55.003125 20.174098 
L 55.123125 20.346241 
L 55.363125 20.79421 
L 55.483125 20.870938 
L 55.723125 19.777638 
L 55.843125 20.733964 
L 55.963125 20.771781 
L 56.323125 23.98607 
L 56.563125 21.585932 
L 56.683125 23.342104 
L 56.803125 21.68754 
L 56.923125 21.5823 
L 57.163125 23.864707 
L 57.283125 24.050979 
L 57.403125 23.063095 
L 57.523125 26.062258 
L 57.643125 24.399536 
L 57.763125 25.195238 
L 57.883125 25.081154 
L 58.003125 25.225802 
L 58.243125 23.780378 
L 58.483125 26.21976 
L 58.603125 24.788642 
L 58.843125 27.57183 
L 58.963125 26.632642 
L 59.203125 28.446385 
L 59.443125 29.333574 
L 59.563125 30.607625 
L 59.683125 28.513544 
L 59.803125 29.450964 
L 59.923125 29.19588 
L 60.283125 32.70058 
L 60.403125 30.616014 
L 60.643125 32.394249 
L 60.883125 32.91851 
L 61.003125 32.044669 
L 61.123125 34.346113 
L 61.243125 33.450974 
L 61.363125 33.841224 
L 61.483125 38.314974 
L 61.723125 34.975396 
L 61.843125 36.747617 
L 61.963125 36.258209 
L 62.083125 38.284964 
L 62.203125 37.144874 
L 62.323125 37.319901 
L 62.443125 36.683651 
L 62.563125 37.6002 
L 62.683125 36.727853 
L 63.043125 41.843254 
L 63.283125 39.875156 
L 63.403125 39.025738 
L 63.523125 42.347799 
L 63.643125 39.76255 
L 63.763125 39.905644 
L 63.883125 41.446773 
L 64.003125 40.356368 
L 64.123125 42.169315 
L 64.243125 40.972284 
L 64.483125 44.337464 
L 64.723125 43.294896 
L 64.843125 44.380447 
L 65.083125 47.663483 
L 65.203125 46.812519 
L 65.323125 47.543076 
L 65.443125 47.059544 
L 65.563125 47.213689 
L 65.683125 46.552705 
L 65.923125 50.31049 
L 66.043125 48.197006 
L 66.163125 48.214297 
L 66.283125 47.364874 
L 66.523125 51.539156 
L 66.763125 51.061593 
L 66.883125 50.455473 
L 67.123125 51.745741 
L 67.363125 52.679143 
L 67.483125 52.18517 
L 67.603125 53.452278 
L 67.723125 52.816363 
L 67.843125 53.722573 
L 67.963125 52.614035 
L 68.083125 52.701738 
L 68.203125 54.1113 
L 68.323125 53.186945 
L 68.443125 54.865615 
L 68.563125 53.524721 
L 68.803125 55.790407 
L 68.923125 55.27714 
L 69.043125 56.164477 
L 69.163125 55.920777 
L 69.763125 57.836635 
L 69.883125 57.093858 
L 70.003125 57.52197 
L 70.243125 57.339093 
L 70.363125 58.928679 
L 70.483125 58.509158 
L 70.603125 59.039647 
L 70.723125 58.731509 
L 70.843125 60.679135 
L 71.083125 59.310009 
L 71.323125 60.191674 
L 71.443125 60.166007 
L 71.563125 59.458397 
L 71.683125 59.826025 
L 71.923125 61.29523 
L 72.043125 62.03175 
L 72.163125 60.988098 
L 72.403125 61.765655 
L 72.643125 60.868897 
L 72.883125 63.272839 
L 73.003125 62.756829 
L 73.123125 61.711316 
L 73.243125 62.89965 
L 73.363125 62.793559 
L 73.483125 63.17313 
L 73.723125 62.338849 
L 73.843125 62.814297 
L 73.963125 62.64526 
L 74.083125 62.683667 
L 74.203125 63.51993 
L 74.323125 63.552463 
L 74.563125 64.55984 
L 74.683125 64.492217 
L 74.923125 63.36039 
L 75.163125 64.446787 
L 75.283125 64.122411 
L 75.403125 64.649827 
L 75.643125 63.788741 
L 75.763125 64.410035 
L 75.883125 64.113165 
L 76.003125 64.116812 
L 76.123125 63.299091 
L 76.363125 64.760678 
L 76.483125 64.248819 
L 76.723125 65.800746 
L 76.843125 65.300827 
L 76.963125 65.613423 
L 77.203125 65.030712 
L 77.443125 65.769601 
L 77.563125 65.908955 
L 77.803125 65.354344 
L 78.043125 65.701055 
L 78.163125 65.74723 
L 78.283125 66.482598 
L 78.403125 66.40418 
L 78.523125 66.950743 
L 78.643125 66.881136 
L 78.763125 66.553165 
L 78.883125 66.585057 
L 79.003125 66.980702 
L 79.243125 66.213906 
L 79.483125 66.385821 
L 79.723125 67.063934 
L 79.843125 66.390214 
L 79.963125 66.400364 
L 80.083125 66.6029 
L 80.203125 66.105485 
L 80.323125 66.845915 
L 80.443125 66.690126 
L 80.563125 66.797762 
L 80.683125 66.619217 
L 80.923125 67.003344 
L 81.043125 66.867873 
L 81.283125 66.977261 
L 81.403125 66.238323 
L 81.643125 67.534702 
L 81.883125 66.981648 
L 82.003125 67.421911 
L 82.123125 66.795833 
L 82.243125 67.627351 
L 82.363125 67.206808 
L 82.843125 67.653786 
L 82.963125 67.058651 
L 83.203125 67.590738 
L 83.323125 67.650833 
L 83.443125 67.554843 
L 83.683125 67.872397 
L 83.803125 67.537617 
L 83.923125 67.582564 
L 84.043125 67.329292 
L 84.283125 67.970594 
L 84.403125 68.001925 
L 84.523125 67.86117 
L 84.763125 68.218046 
L 84.883125 67.816128 
L 85.003125 68.229584 
L 85.243125 68.076819 
L 85.483125 67.625688 
L 85.723125 68.058275 
L 85.963125 67.649016 
L 86.083125 68.19539 
L 86.203125 68.066092 
L 86.323125 67.739883 
L 86.443125 68.333878 
L 86.683125 67.901714 
L 87.043125 67.970981 
L 87.163125 68.308884 
L 87.523125 68.037612 
L 87.643125 68.176437 
L 88.003125 67.951511 
L 88.123125 68.26063 
L 88.243125 67.714758 
L 88.363125 67.691936 
L 88.483125 67.992272 
L 88.603125 67.705707 
L 88.843125 67.998758 
L 88.963125 67.936542 
L 89.083125 68.186134 
L 89.203125 67.973257 
L 89.443125 68.276891 
L 89.563125 68.007872 
L 89.683125 68.012907 
L 89.923125 68.387108 
L 90.163125 68.346488 
L 90.403125 68.028425 
L 90.523125 68.341917 
L 90.643125 68.28958 
L 90.763125 68.404085 
L 91.003125 68.191498 
L 91.123125 68.340682 
L 91.603125 67.968565 
L 91.723125 68.302321 
L 91.963125 68.234652 
L 92.203125 68.612988 
L 92.323125 68.259989 
L 92.443125 68.426545 
L 92.563125 68.367043 
L 92.683125 68.776895 
L 92.803125 68.183533 
L 93.043125 68.754655 
L 93.163125 68.684665 
L 93.283125 68.448382 
L 93.763125 68.862649 
L 93.883125 68.368035 
L 94.003125 68.658289 
L 94.123125 68.263136 
L 94.603125 68.775758 
L 94.843125 68.591682 
L 95.083125 68.987104 
L 95.323125 68.562548 
L 95.443125 68.902296 
L 95.563125 68.751716 
L 95.683125 68.945003 
L 95.923125 68.679431 
L 96.043125 68.774549 
L 96.163125 68.522721 
L 96.763125 69.215273 
L 96.883125 69.223458 
L 97.003125 69.504242 
L 97.243125 68.711627 
L 97.363125 68.795438 
L 97.483125 69.043291 
L 97.963125 68.773087 
L 98.203125 68.955309 
L 98.323125 68.890419 
L 98.443125 69.186326 
L 98.563125 69.121529 
L 98.803125 69.18592 
L 99.163125 69.102623 
L 99.283125 68.850072 
L 99.403125 69.134515 
L 99.523125 69.036407 
L 99.763125 69.477494 
L 99.883125 69.433098 
L 100.123125 68.884843 
L 100.363125 69.462265 
L 100.483125 69.244109 
L 100.723125 69.339287 
L 100.963125 69.57448 
L 101.203125 69.268744 
L 101.323125 69.402954 
L 101.443125 69.245152 
L 101.803125 69.446075 
L 102.283125 69.639835 
L 102.403125 69.319179 
L 102.643125 69.749733 
L 102.763125 69.737106 
L 102.883125 69.871701 
L 103.123125 69.664893 
L 103.363125 69.77304 
L 103.603125 69.926348 
L 103.723125 69.668674 
L 103.963125 69.987954 
L 104.203125 70.11187 
L 104.323125 70.197019 
L 104.443125 70.028143 
L 104.683125 70.016135 
L 104.803125 70.251626 
L 105.043125 70.061366 
L 105.163125 70.071184 
L 105.403125 70.333511 
L 105.763125 70.097538 
L 106.003125 70.246071 
L 106.243125 70.281522 
L 107.443125 70.484444 
L 107.923125 70.438824 
L 108.283125 70.776018 
L 108.763125 70.580089 
L 109.483125 70.889516 
L 109.603125 70.758548 
L 109.843125 70.960636 
L 109.963125 70.949795 
L 110.083125 70.779168 
L 110.203125 70.998518 
L 110.563125 70.924125 
L 110.803125 70.942406 
L 110.923125 70.830675 
L 111.403125 71.099297 
L 111.643125 70.94711 
L 111.763125 70.983854 
L 111.883125 70.877743 
L 112.003125 70.572029 
L 112.003125 70.572029 
" clip-path="url(#p0b0308d820)" style="fill: none; stroke: #33c4b8; stroke-linecap: square"/>
   </g>
   <g id="line2d_9">
    <path d="M 40.123125 10.619297 
L 40.363125 11.677084 
L 40.603125 12.350005 
L 40.723125 11.729492 
L 40.843125 12.371868 
L 41.083125 11.256428 
L 41.203125 12.004906 
L 41.323125 11.443731 
L 41.443125 11.442325 
L 41.563125 11.648311 
L 41.803125 11.392773 
L 42.043125 11.813956 
L 42.163125 11.699349 
L 42.283125 12.003392 
L 42.523125 11.878381 
L 42.643125 12.035114 
L 42.763125 12.006061 
L 42.883125 12.164941 
L 43.003125 12.09242 
L 43.123125 12.347881 
L 43.363125 12.292299 
L 43.483125 12.015734 
L 43.723125 12.532044 
L 43.843125 12.696414 
L 43.963125 12.336412 
L 44.083125 12.562196 
L 44.203125 12.394653 
L 44.803125 12.999184 
L 44.923125 12.672903 
L 45.043125 13.291258 
L 45.283125 12.854982 
L 45.523125 13.065118 
L 45.643125 13.07693 
L 45.883125 12.128652 
L 46.123125 12.561386 
L 46.243125 13.052925 
L 46.603125 12.518325 
L 46.963125 13.083452 
L 47.083125 12.985463 
L 47.203125 12.664128 
L 47.323125 12.699155 
L 47.563125 13.074228 
L 47.683125 13.025798 
L 47.923125 13.249598 
L 48.043125 13.091198 
L 48.163125 13.397588 
L 48.283125 13.317639 
L 48.403125 13.09128 
L 48.523125 13.669406 
L 48.643125 13.394169 
L 48.763125 13.618113 
L 48.883125 14.258994 
L 49.003125 13.734635 
L 49.123125 13.956471 
L 49.243125 14.740875 
L 49.483125 14.420396 
L 49.723125 14.813493 
L 49.843125 14.236947 
L 49.963125 14.269901 
L 50.083125 14.794768 
L 50.203125 14.360948 
L 50.323125 15.087811 
L 50.563125 14.501996 
L 50.923125 15.253269 
L 51.043125 15.54278 
L 51.163125 17.000427 
L 51.283125 16.917461 
L 51.403125 16.181275 
L 51.643125 16.848692 
L 51.763125 15.364401 
L 52.003125 16.170994 
L 52.123125 15.217396 
L 52.363125 16.114489 
L 52.483125 17.982434 
L 52.603125 18.007697 
L 52.723125 19.381068 
L 52.963125 18.393192 
L 53.083125 18.572593 
L 53.203125 17.658128 
L 53.323125 18.979904 
L 53.443125 18.900931 
L 53.683125 20.890981 
L 53.923125 19.40707 
L 54.043125 20.152941 
L 54.163125 22.008913 
L 54.283125 21.718416 
L 54.403125 23.386188 
L 54.523125 22.463151 
L 54.643125 22.750504 
L 54.763125 23.452235 
L 54.883125 23.363785 
L 55.123125 23.647045 
L 55.243125 24.234778 
L 55.363125 24.117559 
L 55.603125 22.685691 
L 55.723125 24.289906 
L 55.843125 23.840305 
L 55.963125 24.522856 
L 56.323125 28.070901 
L 56.443125 26.110687 
L 56.563125 26.338813 
L 56.683125 26.247708 
L 57.163125 28.580969 
L 57.283125 28.461869 
L 57.523125 32.582113 
L 57.763125 30.008629 
L 57.883125 30.088124 
L 58.003125 31.853032 
L 58.123125 30.052049 
L 58.243125 30.123978 
L 58.483125 32.281712 
L 58.603125 32.187702 
L 58.843125 35.526464 
L 58.963125 35.826578 
L 59.203125 37.435721 
L 59.323125 35.368767 
L 59.563125 37.732404 
L 59.683125 36.994329 
L 59.803125 39.300921 
L 59.923125 38.31657 
L 60.043125 41.128132 
L 60.163125 40.5472 
L 60.283125 40.528836 
L 60.403125 40.625356 
L 60.523125 41.22769 
L 60.643125 43.180915 
L 60.763125 42.643959 
L 60.883125 43.526125 
L 61.003125 42.428597 
L 61.243125 44.163449 
L 61.363125 43.813659 
L 61.483125 47.061686 
L 61.843125 45.240593 
L 62.323125 49.205066 
L 62.443125 50.006253 
L 62.563125 52.325681 
L 62.683125 51.300561 
L 62.803125 51.241757 
L 63.043125 53.776228 
L 63.163125 50.497093 
L 63.283125 53.349994 
L 63.403125 52.819603 
L 63.643125 55.046147 
L 63.763125 54.528013 
L 64.003125 55.561272 
L 64.243125 55.219991 
L 64.363125 55.526997 
L 64.603125 57.574033 
L 64.963125 59.199157 
L 65.083125 58.780905 
L 65.203125 59.708844 
L 65.323125 59.425654 
L 65.443125 59.952467 
L 65.563125 59.691184 
L 65.923125 61.97796 
L 66.043125 61.779492 
L 66.283125 62.15666 
L 66.523125 63.042613 
L 66.883125 63.191335 
L 67.003125 63.6154 
L 67.123125 64.820466 
L 67.243125 64.735038 
L 67.363125 64.834988 
L 67.483125 64.732504 
L 67.723125 65.822366 
L 67.843125 65.861534 
L 67.963125 65.722423 
L 68.083125 65.854209 
L 68.323125 66.365647 
L 68.563125 66.617503 
L 68.683125 66.530608 
L 68.803125 67.469671 
L 68.923125 67.076068 
L 69.043125 67.752135 
L 69.163125 67.766245 
L 69.283125 68.283586 
L 69.403125 68.16058 
L 69.643125 68.305688 
L 69.763125 68.414135 
L 69.883125 68.240459 
L 70.123125 68.48877 
L 70.603125 69.277743 
L 70.723125 69.051893 
L 70.963125 69.166329 
L 71.083125 69.217205 
L 71.323125 69.653091 
L 71.563125 69.53847 
L 72.043125 69.862883 
L 72.163125 69.823015 
L 72.523125 70.147334 
L 72.643125 70.013671 
L 72.883125 70.140883 
L 73.483125 70.322182 
L 73.603125 70.259962 
L 73.963125 70.448302 
L 74.443125 70.500148 
L 74.683125 70.646031 
L 74.803125 70.582242 
L 75.163125 70.653932 
L 75.523125 70.629542 
L 75.883125 70.514369 
L 76.003125 70.11731 
L 76.123125 69.084482 
L 76.363125 70.601641 
L 76.723125 70.824948 
L 77.323125 70.907321 
L 79.603125 71.024772 
L 80.683125 71.045241 
L 81.643125 71.065857 
L 84.883125 71.092199 
L 94.243125 71.080405 
L 96.283125 71.088017 
L 98.923125 71.083684 
L 101.323125 71.083109 
L 105.403125 71.079395 
L 111.043125 71.065485 
L 112.003125 70.862228 
L 112.003125 70.862228 
" clip-path="url(#p0b0308d820)" style="fill: none; stroke: #b626aa; stroke-linecap: square"/>
   </g>
   <g id="patch_3">
    <path d="M 40.123125 71.099297 
L 40.123125 10.619297 
" style="fill: none; stroke: #000000; stroke-width: 1.2; stroke-linejoin: miter; stroke-linecap: square"/>
   </g>
   <g id="patch_4">
    <path d="M 40.123125 71.099297 
L 104.923125 71.099297 
" style="fill: none; stroke: #000000; stroke-width: 1.2; stroke-linejoin: miter; stroke-linecap: square"/>
   </g>
  </g>
  <g id="axes_2">
   <g id="patch_5">
    <path d="M 40.123125 161.819297 
L 104.923125 161.819297 
L 104.923125 101.339297 
L 40.123125 101.339297 
z
" style="fill: #ffffff"/>
   </g>
   <g id="matplotlib.axis_3">
    <g id="xtick_5">
     <g id="line2d_10">
      <g>
       <use xlink:href="#mc683adc83e" x="40.123125" y="161.819297" style="stroke: #000000; stroke-width: 1.2"/>
      </g>
     </g>
     <g id="text_9">
      <!-- 0 -->
      <g transform="translate(37.26 174.557891) scale(0.09 -0.09)">
       <use xlink:href="#DejaVuSans-30"/>
      </g>
     </g>
    </g>
    <g id="xtick_6">
     <g id="line2d_11">
      <g>
       <use xlink:href="#mc683adc83e" x="61.723125" y="161.819297" style="stroke: #000000; stroke-width: 1.2"/>
      </g>
     </g>
     <g id="text_10">
      <!-- 5 -->
      <g transform="translate(58.86 174.557891) scale(0.09 -0.09)">
       <use xlink:href="#DejaVuSans-35"/>
      </g>
     </g>
    </g>
    <g id="xtick_7">
     <g id="line2d_12">
      <g>
       <use xlink:href="#mc683adc83e" x="83.323125" y="161.819297" style="stroke: #000000; stroke-width: 1.2"/>
      </g>
     </g>
     <g id="text_11">
      <!-- 10 -->
      <g transform="translate(77.596875 174.557891) scale(0.09 -0.09)">
       <use xlink:href="#DejaVuSans-31"/>
       <use xlink:href="#DejaVuSans-30" x="63.623047"/>
      </g>
     </g>
    </g>
    <g id="xtick_8">
     <g id="line2d_13">
      <g>
       <use xlink:href="#mc683adc83e" x="104.923125" y="161.819297" style="stroke: #000000; stroke-width: 1.2"/>
      </g>
     </g>
     <g id="text_12">
      <!-- 15 -->
      <g transform="translate(99.196875 174.557891) scale(0.09 -0.09)">
       <use xlink:href="#DejaVuSans-31"/>
       <use xlink:href="#DejaVuSans-35" x="63.623047"/>
      </g>
     </g>
    </g>
   </g>
   <g id="matplotlib.axis_4">
    <g id="ytick_4">
     <g id="line2d_14">
      <g>
       <use xlink:href="#m3f46fde82f" x="40.123125" y="161.819297" style="stroke: #000000; stroke-width: 1.2"/>
      </g>
     </g>
     <g id="text_13">
      <!-- 0.0 -->
      <g transform="translate(19.910313 165.238594) scale(0.09 -0.09)">
       <use xlink:href="#DejaVuSans-30"/>
       <use xlink:href="#DejaVuSans-2e" x="63.623047"/>
       <use xlink:href="#DejaVuSans-30" x="95.410156"/>
      </g>
     </g>
    </g>
    <g id="ytick_5">
     <g id="line2d_15">
      <g>
       <use xlink:href="#m3f46fde82f" x="40.123125" y="131.579297" style="stroke: #000000; stroke-width: 1.2"/>
      </g>
     </g>
     <g id="text_14">
      <!-- 0.5 -->
      <g transform="translate(19.910313 134.998594) scale(0.09 -0.09)">
       <use xlink:href="#DejaVuSans-30"/>
       <use xlink:href="#DejaVuSans-2e" x="63.623047"/>
       <use xlink:href="#DejaVuSans-35" x="95.410156"/>
      </g>
     </g>
    </g>
    <g id="ytick_6">
     <g id="line2d_16">
      <g>
       <use xlink:href="#m3f46fde82f" x="40.123125" y="101.339297" style="stroke: #000000; stroke-width: 1.2"/>
      </g>
     </g>
     <g id="text_15">
      <!-- 1.0 -->
      <g transform="translate(19.910313 104.758594) scale(0.09 -0.09)">
       <use xlink:href="#DejaVuSans-31"/>
       <use xlink:href="#DejaVuSans-2e" x="63.623047"/>
       <use xlink:href="#DejaVuSans-30" x="95.410156"/>
      </g>
     </g>
    </g>
    <g id="text_16">
     <!-- Correlation -->
     <g transform="translate(14.038594 156.391172) rotate(-90) scale(0.09 -0.09)">
      <use xlink:href="#DejaVuSans-43"/>
      <use xlink:href="#DejaVuSans-6f" x="69.824219"/>
      <use xlink:href="#DejaVuSans-72" x="131.005859"/>
      <use xlink:href="#DejaVuSans-72" x="170.369141"/>
      <use xlink:href="#DejaVuSans-65" x="209.232422"/>
      <use xlink:href="#DejaVuSans-6c" x="270.755859"/>
      <use xlink:href="#DejaVuSans-61" x="298.539062"/>
      <use xlink:href="#DejaVuSans-74" x="359.818359"/>
      <use xlink:href="#DejaVuSans-69" x="399.027344"/>
      <use xlink:href="#DejaVuSans-6f" x="426.810547"/>
      <use xlink:href="#DejaVuSans-6e" x="487.992188"/>
     </g>
    </g>
   </g>
   <g id="line2d_17">
    <path d="M 40.123125 101.339297 
L 40.363125 102.177117 
L 40.603125 102.970279 
L 40.723125 102.38594 
L 40.843125 103.245572 
L 41.083125 102.130657 
L 41.203125 103.134677 
L 41.443125 102.177639 
L 41.563125 102.341149 
L 41.803125 102.117779 
L 42.043125 102.593103 
L 42.163125 102.559999 
L 42.283125 102.73578 
L 42.523125 102.446619 
L 42.763125 103.110854 
L 42.883125 103.04307 
L 43.003125 102.938853 
L 43.243125 103.045211 
L 43.363125 102.961776 
L 43.483125 102.619504 
L 43.843125 103.900055 
L 44.083125 103.052489 
L 44.203125 103.225188 
L 44.323125 103.129928 
L 44.563125 103.717524 
L 44.803125 103.512306 
L 44.923125 103.504152 
L 45.043125 104.18948 
L 45.163125 103.375083 
L 45.403125 103.999881 
L 45.643125 103.511619 
L 45.763125 103.487677 
L 45.883125 102.917533 
L 46.243125 103.710842 
L 46.363125 103.763542 
L 46.603125 103.331857 
L 47.083125 104.119829 
L 47.203125 103.753349 
L 47.443125 103.80067 
L 47.563125 104.320561 
L 47.683125 103.784186 
L 47.803125 104.151782 
L 48.043125 103.615471 
L 48.163125 104.11197 
L 48.283125 104.073691 
L 48.523125 104.757531 
L 48.643125 104.2869 
L 48.883125 105.280011 
L 49.003125 104.762943 
L 49.243125 105.602176 
L 49.363125 105.514834 
L 49.483125 106.162803 
L 49.723125 105.78999 
L 49.843125 105.309356 
L 49.963125 105.436515 
L 50.083125 106.316332 
L 50.203125 105.188168 
L 50.563125 106.242346 
L 50.683125 105.739435 
L 50.803125 105.847548 
L 51.163125 107.866311 
L 51.283125 107.522903 
L 51.403125 107.652992 
L 51.523125 108.424082 
L 51.763125 107.728434 
L 51.883125 108.211364 
L 52.003125 107.995688 
L 52.123125 108.205645 
L 52.243125 107.618338 
L 52.483125 109.72866 
L 52.723125 109.528018 
L 52.843125 109.641099 
L 52.963125 110.846949 
L 53.083125 109.9747 
L 53.203125 110.235542 
L 53.323125 111.251346 
L 53.443125 110.718128 
L 53.563125 112.691999 
L 53.683125 111.826127 
L 53.803125 112.846731 
L 53.923125 111.443539 
L 54.043125 113.112973 
L 54.163125 112.09447 
L 54.523125 114.616047 
L 54.643125 113.936898 
L 54.883125 115.715606 
L 55.003125 115.334244 
L 55.123125 116.136354 
L 55.363125 114.665026 
L 55.483125 115.508217 
L 55.843125 115.121625 
L 55.963125 116.314322 
L 56.083125 115.613247 
L 56.323125 117.902678 
L 56.443125 118.329696 
L 56.803125 116.411787 
L 56.923125 117.065429 
L 57.163125 119.079723 
L 57.283125 118.505824 
L 57.403125 120.797316 
L 57.523125 120.095695 
L 57.643125 120.188328 
L 57.763125 119.692344 
L 58.003125 120.87736 
L 58.123125 119.286311 
L 58.243125 120.394611 
L 58.363125 120.414289 
L 58.723125 122.910483 
L 58.843125 121.81424 
L 59.083125 124.869606 
L 59.203125 122.31402 
L 59.323125 122.443575 
L 59.443125 125.582186 
L 59.683125 123.235021 
L 59.923125 125.057714 
L 60.043125 125.248529 
L 60.283125 128.206364 
L 60.523125 127.358183 
L 60.643125 128.904467 
L 60.763125 125.644135 
L 60.883125 127.588031 
L 61.003125 127.626597 
L 61.483125 131.675226 
L 61.603125 129.090096 
L 61.723125 129.212032 
L 61.843125 128.151545 
L 61.963125 128.507544 
L 62.083125 128.428615 
L 62.323125 129.441349 
L 62.443125 129.505355 
L 62.563125 132.04248 
L 62.683125 131.150342 
L 62.803125 131.294752 
L 63.043125 135.309355 
L 63.163125 133.326175 
L 63.283125 133.983987 
L 63.403125 131.068107 
L 63.643125 134.385566 
L 63.763125 133.049882 
L 63.883125 134.36337 
L 64.123125 131.323861 
L 64.243125 133.152171 
L 64.363125 133.274585 
L 64.723125 137.156619 
L 64.963125 137.292736 
L 65.083125 137.446596 
L 65.203125 136.26281 
L 65.323125 138.73009 
L 65.683125 135.818624 
L 65.803125 139.749115 
L 65.923125 138.772591 
L 66.043125 138.891281 
L 66.163125 139.547244 
L 66.403125 141.832917 
L 66.523125 141.64802 
L 66.643125 140.703657 
L 66.763125 140.732011 
L 66.883125 140.163478 
L 67.123125 142.184698 
L 67.243125 141.981938 
L 67.483125 140.883998 
L 67.603125 142.080975 
L 67.723125 141.51988 
L 67.963125 142.52662 
L 68.083125 142.961809 
L 68.203125 142.883174 
L 68.323125 142.47742 
L 68.563125 143.69733 
L 68.683125 143.215822 
L 68.803125 143.333553 
L 68.923125 143.817252 
L 69.043125 142.723795 
L 69.163125 144.191468 
L 69.523125 143.394004 
L 69.763125 144.910137 
L 69.883125 144.834973 
L 70.003125 144.66067 
L 70.123125 144.114028 
L 70.243125 144.087387 
L 70.363125 144.996731 
L 70.483125 144.980104 
L 70.723125 146.011609 
L 70.963125 145.301001 
L 71.203125 146.364814 
L 71.323125 146.032529 
L 71.443125 147.112264 
L 71.563125 146.061728 
L 71.683125 147.56092 
L 71.923125 146.686233 
L 72.043125 148.259918 
L 72.163125 147.446341 
L 72.283125 147.854246 
L 72.403125 146.809236 
L 72.523125 147.821524 
L 72.643125 147.309345 
L 72.883125 148.865372 
L 73.003125 148.263806 
L 73.123125 148.312643 
L 73.243125 148.149129 
L 73.363125 148.628503 
L 73.483125 147.794354 
L 73.603125 147.759483 
L 74.083125 149.792073 
L 74.203125 150.039758 
L 74.323125 149.989868 
L 74.443125 149.518219 
L 74.563125 149.652958 
L 74.683125 149.546143 
L 74.803125 149.804128 
L 74.923125 149.331172 
L 75.043125 149.32332 
L 75.163125 150.339406 
L 75.283125 149.51508 
L 75.403125 149.471086 
L 75.523125 150.632369 
L 75.643125 149.768654 
L 75.763125 151.195939 
L 76.123125 148.74614 
L 76.363125 151.077149 
L 76.483125 150.528324 
L 76.603125 150.686997 
L 76.723125 151.734412 
L 76.843125 150.363795 
L 76.963125 152.265404 
L 77.203125 150.762336 
L 77.563125 152.690724 
L 77.683125 152.07638 
L 77.803125 150.501959 
L 78.043125 151.99936 
L 78.163125 151.9423 
L 78.283125 152.940563 
L 78.403125 151.603276 
L 78.523125 152.779185 
L 78.763125 151.88931 
L 78.883125 152.360084 
L 79.003125 151.843006 
L 79.243125 152.169586 
L 79.483125 153.606957 
L 79.603125 152.541837 
L 79.843125 152.946195 
L 79.963125 152.06648 
L 80.083125 153.57878 
L 80.443125 152.776498 
L 80.563125 153.566472 
L 80.683125 152.835695 
L 80.803125 153.141504 
L 80.923125 152.416631 
L 81.043125 153.11857 
L 81.283125 152.907219 
L 81.403125 153.370782 
L 81.523125 153.268685 
L 81.643125 154.532388 
L 81.763125 153.676108 
L 82.003125 154.575411 
L 82.123125 153.318397 
L 82.363125 154.380604 
L 82.483125 153.945357 
L 82.603125 154.590951 
L 82.723125 154.556905 
L 82.843125 154.398055 
L 82.963125 155.03263 
L 83.203125 154.433645 
L 83.323125 154.491192 
L 83.443125 154.201667 
L 83.563125 154.898901 
L 83.683125 154.83195 
L 83.803125 155.156266 
L 84.043125 154.341738 
L 84.163125 155.019409 
L 84.283125 154.88929 
L 84.403125 154.135904 
L 84.643125 154.727154 
L 84.763125 155.390597 
L 84.883125 154.412677 
L 85.123125 155.627545 
L 85.243125 155.679443 
L 85.363125 155.591647 
L 85.483125 154.979817 
L 85.603125 155.798819 
L 85.963125 155.422536 
L 86.203125 155.103893 
L 86.323125 155.668396 
L 86.563125 155.288595 
L 86.683125 156.291388 
L 86.803125 156.301163 
L 86.923125 155.836593 
L 87.043125 156.361611 
L 87.163125 156.068883 
L 87.283125 156.239419 
L 87.523125 155.746165 
L 87.643125 156.447839 
L 87.763125 156.404004 
L 87.883125 156.177988 
L 88.003125 156.362344 
L 88.123125 156.324001 
L 88.243125 157.082604 
L 88.363125 157.034507 
L 88.483125 157.227041 
L 88.603125 157.113956 
L 88.723125 156.73759 
L 88.963125 157.395523 
L 89.203125 157.051654 
L 89.323125 157.566101 
L 89.563125 156.691653 
L 89.683125 157.083818 
L 89.803125 157.044636 
L 90.043125 157.249612 
L 90.163125 157.947996 
L 90.403125 157.291795 
L 90.523125 157.653685 
L 90.883125 157.282198 
L 91.003125 157.788938 
L 91.243125 157.700235 
L 91.363125 157.813201 
L 91.483125 157.667455 
L 91.603125 158.245909 
L 91.723125 158.030498 
L 91.843125 158.103736 
L 91.963125 157.488756 
L 92.083125 157.561799 
L 92.203125 158.515657 
L 92.323125 158.063505 
L 92.443125 158.187359 
L 92.563125 158.519952 
L 92.683125 158.125546 
L 92.803125 158.472428 
L 92.923125 158.357515 
L 93.043125 158.540787 
L 93.163125 158.413077 
L 93.403125 158.709364 
L 93.643125 157.798963 
L 93.763125 158.419431 
L 93.883125 158.215248 
L 94.123125 158.673229 
L 94.243125 158.154037 
L 94.603125 158.676725 
L 94.843125 159.145483 
L 95.083125 158.734212 
L 95.443125 159.351098 
L 95.563125 158.712196 
L 95.683125 159.057268 
L 95.803125 158.607176 
L 96.043125 159.361822 
L 96.163125 159.121663 
L 96.283125 159.038905 
L 96.523125 159.799599 
L 96.643125 159.55586 
L 96.763125 159.725112 
L 96.883125 159.360691 
L 97.003125 159.95908 
L 97.243125 159.477078 
L 97.603125 159.721312 
L 97.723125 159.66508 
L 97.843125 159.930509 
L 98.083125 159.43552 
L 98.203125 159.888544 
L 98.323125 159.605488 
L 98.443125 159.621396 
L 98.563125 159.95614 
L 98.803125 159.808206 
L 98.923125 160.115407 
L 99.043125 160.047861 
L 99.283125 159.420741 
L 99.643125 160.308014 
L 99.883125 159.96075 
L 100.003125 160.050955 
L 100.243125 159.90488 
L 100.363125 159.972187 
L 100.483125 160.261537 
L 100.603125 160.000765 
L 100.723125 160.169499 
L 100.843125 160.538415 
L 101.203125 160.370447 
L 101.443125 160.431622 
L 101.683125 160.258565 
L 101.803125 160.331062 
L 101.923125 160.184419 
L 102.283125 160.491791 
L 102.403125 160.641399 
L 102.523125 160.601938 
L 102.643125 160.718361 
L 103.123125 160.309824 
L 103.243125 160.540795 
L 103.363125 160.489035 
L 103.603125 160.71052 
L 103.843125 160.696809 
L 103.963125 160.905161 
L 104.083125 160.828895 
L 104.203125 160.960252 
L 104.443125 160.725217 
L 104.683125 160.887068 
L 104.803125 160.823527 
L 105.043125 161.018404 
L 105.163125 160.796451 
L 105.883125 161.026416 
L 106.003125 160.872827 
L 106.603125 161.143747 
L 106.843125 161.09744 
L 106.963125 161.109075 
L 107.083125 160.954325 
L 107.443125 161.397382 
L 107.803125 161.127741 
L 108.163125 161.453129 
L 108.643125 161.137685 
L 108.763125 161.375046 
L 108.883125 161.184909 
L 109.123125 161.400614 
L 109.363125 161.43429 
L 109.483125 161.615208 
L 109.603125 161.335369 
L 109.723125 161.534616 
L 110.203125 161.485326 
L 110.323125 161.546353 
L 110.443125 161.819297 
L 110.683125 161.554918 
L 110.923125 161.670343 
L 111.043125 161.370928 
L 111.403125 161.661596 
L 111.523125 161.394284 
L 111.643125 161.566165 
L 111.883125 161.550888 
L 112.003125 161.713087 
L 112.003125 161.713087 
" clip-path="url(#p04cca76d89)" style="fill: none; stroke: #33c4b8; stroke-linecap: square"/>
   </g>
   <g id="patch_6">
    <path d="M 40.123125 161.819297 
L 40.123125 101.339297 
" style="fill: none; stroke: #000000; stroke-width: 1.2; stroke-linejoin: miter; stroke-linecap: square"/>
   </g>
   <g id="patch_7">
    <path d="M 40.123125 161.819297 
L 104.923125 161.819297 
" style="fill: none; stroke: #000000; stroke-width: 1.2; stroke-linejoin: miter; stroke-linecap: square"/>
   </g>
  </g>
  <g id="axes_3">
   <g id="patch_8">
    <path d="M 40.123125 252.539297 
L 104.923125 252.539297 
L 104.923125 192.059297 
L 40.123125 192.059297 
z
" style="fill: #ffffff"/>
   </g>
   <g id="matplotlib.axis_5">
    <g id="xtick_9">
     <g id="line2d_18">
      <g>
       <use xlink:href="#mc683adc83e" x="40.123125" y="252.539297" style="stroke: #000000; stroke-width: 1.2"/>
      </g>
     </g>
     <g id="text_17">
      <!-- 0 -->
      <g transform="translate(37.26 265.277891) scale(0.09 -0.09)">
       <use xlink:href="#DejaVuSans-30"/>
      </g>
     </g>
    </g>
    <g id="xtick_10">
     <g id="line2d_19">
      <g>
       <use xlink:href="#mc683adc83e" x="61.723125" y="252.539297" style="stroke: #000000; stroke-width: 1.2"/>
      </g>
     </g>
     <g id="text_18">
      <!-- 5 -->
      <g transform="translate(58.86 265.277891) scale(0.09 -0.09)">
       <use xlink:href="#DejaVuSans-35"/>
      </g>
     </g>
    </g>
    <g id="xtick_11">
     <g id="line2d_20">
      <g>
       <use xlink:href="#mc683adc83e" x="83.323125" y="252.539297" style="stroke: #000000; stroke-width: 1.2"/>
      </g>
     </g>
     <g id="text_19">
      <!-- 10 -->
      <g transform="translate(77.596875 265.277891) scale(0.09 -0.09)">
       <use xlink:href="#DejaVuSans-31"/>
       <use xlink:href="#DejaVuSans-30" x="63.623047"/>
      </g>
     </g>
    </g>
    <g id="xtick_12">
     <g id="line2d_21">
      <g>
       <use xlink:href="#mc683adc83e" x="104.923125" y="252.539297" style="stroke: #000000; stroke-width: 1.2"/>
      </g>
     </g>
     <g id="text_20">
      <!-- 15 -->
      <g transform="translate(99.196875 265.277891) scale(0.09 -0.09)">
       <use xlink:href="#DejaVuSans-31"/>
       <use xlink:href="#DejaVuSans-35" x="63.623047"/>
      </g>
     </g>
    </g>
   </g>
   <g id="matplotlib.axis_6">
    <g id="ytick_7">
     <g id="line2d_22">
      <g>
       <use xlink:href="#m3f46fde82f" x="40.123125" y="252.539297" style="stroke: #000000; stroke-width: 1.2"/>
      </g>
     </g>
     <g id="text_21">
      <!-- 0.0 -->
      <g transform="translate(19.910313 255.958594) scale(0.09 -0.09)">
       <use xlink:href="#DejaVuSans-30"/>
       <use xlink:href="#DejaVuSans-2e" x="63.623047"/>
       <use xlink:href="#DejaVuSans-30" x="95.410156"/>
      </g>
     </g>
    </g>
    <g id="ytick_8">
     <g id="line2d_23">
      <g>
       <use xlink:href="#m3f46fde82f" x="40.123125" y="222.299297" style="stroke: #000000; stroke-width: 1.2"/>
      </g>
     </g>
     <g id="text_22">
      <!-- 0.5 -->
      <g transform="translate(19.910313 225.718594) scale(0.09 -0.09)">
       <use xlink:href="#DejaVuSans-30"/>
       <use xlink:href="#DejaVuSans-2e" x="63.623047"/>
       <use xlink:href="#DejaVuSans-35" x="95.410156"/>
      </g>
     </g>
    </g>
    <g id="ytick_9">
     <g id="line2d_24">
      <g>
       <use xlink:href="#m3f46fde82f" x="40.123125" y="192.059297" style="stroke: #000000; stroke-width: 1.2"/>
      </g>
     </g>
     <g id="text_23">
      <!-- 1.0 -->
      <g transform="translate(19.910313 195.478594) scale(0.09 -0.09)">
       <use xlink:href="#DejaVuSans-31"/>
       <use xlink:href="#DejaVuSans-2e" x="63.623047"/>
       <use xlink:href="#DejaVuSans-30" x="95.410156"/>
      </g>
     </g>
    </g>
    <g id="text_24">
     <!-- Correlation -->
     <g transform="translate(14.038594 247.111172) rotate(-90) scale(0.09 -0.09)">
      <use xlink:href="#DejaVuSans-43"/>
      <use xlink:href="#DejaVuSans-6f" x="69.824219"/>
      <use xlink:href="#DejaVuSans-72" x="131.005859"/>
      <use xlink:href="#DejaVuSans-72" x="170.369141"/>
      <use xlink:href="#DejaVuSans-65" x="209.232422"/>
      <use xlink:href="#DejaVuSans-6c" x="270.755859"/>
      <use xlink:href="#DejaVuSans-61" x="298.539062"/>
      <use xlink:href="#DejaVuSans-74" x="359.818359"/>
      <use xlink:href="#DejaVuSans-69" x="399.027344"/>
      <use xlink:href="#DejaVuSans-6f" x="426.810547"/>
      <use xlink:href="#DejaVuSans-6e" x="487.992188"/>
     </g>
    </g>
   </g>
   <g id="line2d_25">
    <path d="M 40.123125 192.059297 
L 40.363125 193.021361 
L 40.483125 195.173527 
L 40.723125 194.676645 
L 40.843125 196.449537 
L 41.083125 193.622596 
L 41.203125 194.528162 
L 41.443125 193.259434 
L 41.683125 192.718074 
L 41.923125 192.673962 
L 42.043125 192.884951 
L 42.163125 192.686288 
L 42.403125 192.929288 
L 42.523125 192.723295 
L 42.763125 193.057791 
L 43.003125 192.934178 
L 43.123125 193.070847 
L 43.243125 192.985851 
L 43.363125 193.194073 
L 43.603125 192.944361 
L 43.843125 193.415744 
L 44.083125 192.973685 
L 44.203125 192.931428 
L 44.323125 193.160007 
L 44.443125 193.076431 
L 44.683125 193.634509 
L 44.923125 193.34641 
L 45.043125 193.618588 
L 45.283125 193.594245 
L 45.763125 193.451716 
L 46.003125 193.30111 
L 46.123125 193.6197 
L 46.363125 193.456229 
L 46.483125 193.720093 
L 46.603125 193.436432 
L 46.723125 193.703773 
L 46.843125 193.613844 
L 46.963125 193.959307 
L 47.203125 193.530108 
L 47.323125 193.883883 
L 47.443125 193.632882 
L 47.683125 193.755281 
L 47.923125 193.984749 
L 48.043125 193.751775 
L 48.163125 194.403465 
L 48.403125 194.190433 
L 48.643125 194.553335 
L 48.763125 194.554588 
L 49.123125 195.519342 
L 49.363125 195.576847 
L 49.483125 195.907095 
L 49.603125 195.392606 
L 49.723125 195.577376 
L 49.963125 195.325675 
L 50.203125 195.926891 
L 50.323125 195.97874 
L 50.443125 196.560072 
L 50.683125 196.278938 
L 50.803125 196.585665 
L 50.923125 196.20532 
L 51.163125 198.259618 
L 51.403125 197.803107 
L 51.523125 198.756675 
L 51.763125 196.976161 
L 52.003125 197.879862 
L 52.123125 198.366827 
L 52.243125 198.001136 
L 52.723125 201.073781 
L 52.843125 200.408238 
L 52.963125 201.984921 
L 53.083125 201.177939 
L 53.203125 201.150234 
L 53.323125 202.683683 
L 53.443125 202.224373 
L 53.683125 204.048084 
L 53.803125 203.277821 
L 53.923125 204.137081 
L 54.043125 203.118498 
L 54.163125 204.789582 
L 54.283125 204.033508 
L 54.403125 207.516022 
L 54.523125 205.721551 
L 54.643125 206.322859 
L 54.763125 208.856058 
L 54.883125 207.405612 
L 55.123125 207.894012 
L 55.363125 207.011048 
L 55.483125 206.59064 
L 55.723125 207.585721 
L 55.843125 208.111221 
L 56.323125 213.622021 
L 56.563125 210.457838 
L 56.683125 212.299771 
L 56.803125 211.436204 
L 57.403125 215.692899 
L 57.523125 218.608307 
L 57.643125 214.781887 
L 57.763125 218.653381 
L 58.003125 217.546636 
L 58.123125 217.535364 
L 58.243125 215.762169 
L 58.363125 215.726172 
L 58.483125 217.73807 
L 58.603125 217.821492 
L 58.723125 220.842741 
L 58.843125 220.025943 
L 59.083125 222.374996 
L 59.203125 221.201086 
L 59.323125 222.279274 
L 59.443125 222.338288 
L 59.563125 221.97701 
L 59.803125 224.576006 
L 59.923125 223.303896 
L 60.043125 225.27219 
L 60.163125 224.975754 
L 60.403125 226.737395 
L 60.523125 227.209087 
L 60.643125 225.601674 
L 60.763125 228.856392 
L 60.883125 228.697618 
L 61.003125 228.839609 
L 61.123125 229.424548 
L 61.243125 228.853555 
L 61.483125 233.071186 
L 61.603125 231.066926 
L 61.723125 231.487712 
L 61.843125 231.337601 
L 62.083125 234.111904 
L 62.203125 231.753842 
L 62.323125 231.805122 
L 62.443125 232.499558 
L 62.563125 231.997806 
L 62.803125 234.329065 
L 62.923125 234.013538 
L 63.043125 235.920367 
L 63.163125 234.249688 
L 63.283125 234.532215 
L 63.763125 237.292694 
L 63.883125 236.371959 
L 64.003125 236.950983 
L 64.123125 235.583035 
L 64.483125 239.035546 
L 64.603125 238.484311 
L 64.723125 238.875528 
L 65.083125 241.309067 
L 65.203125 240.091958 
L 65.323125 240.344418 
L 65.443125 239.526195 
L 65.683125 239.833459 
L 65.923125 242.340011 
L 66.163125 241.904665 
L 66.283125 241.090825 
L 66.643125 244.996956 
L 66.883125 243.068412 
L 67.003125 243.253638 
L 67.243125 244.74149 
L 67.363125 244.633972 
L 67.483125 243.994301 
L 67.603125 244.987514 
L 67.723125 244.796797 
L 67.843125 245.550858 
L 67.963125 245.394676 
L 68.083125 244.543169 
L 68.203125 245.136865 
L 68.323125 244.871988 
L 68.443125 245.883474 
L 68.563125 245.793362 
L 68.683125 245.049541 
L 68.803125 246.236857 
L 68.923125 245.497689 
L 69.283125 246.26436 
L 69.403125 245.876486 
L 69.523125 247.263989 
L 69.763125 246.81152 
L 70.003125 247.503222 
L 70.123125 246.522665 
L 70.963125 248.495941 
L 71.083125 247.749332 
L 71.203125 248.25232 
L 71.323125 248.215558 
L 71.563125 247.82151 
L 71.803125 249.24501 
L 71.923125 248.877963 
L 72.043125 249.014507 
L 72.163125 248.638471 
L 72.283125 249.189 
L 72.523125 248.789937 
L 72.643125 248.939738 
L 72.883125 249.666432 
L 73.003125 249.923439 
L 73.123125 249.660043 
L 73.243125 250.047737 
L 73.363125 249.947759 
L 73.483125 250.066977 
L 73.603125 249.984979 
L 73.723125 249.55085 
L 73.843125 250.314786 
L 74.083125 249.786645 
L 74.683125 250.698494 
L 74.803125 250.617492 
L 74.923125 250.392438 
L 75.163125 250.699491 
L 75.283125 250.442982 
L 75.403125 250.732339 
L 75.643125 250.416009 
L 75.763125 250.434535 
L 76.003125 251.027281 
L 76.243125 250.161102 
L 76.363125 250.712239 
L 76.483125 250.454735 
L 76.603125 250.533404 
L 76.723125 251.261401 
L 76.843125 250.772338 
L 76.963125 251.158541 
L 77.203125 250.984522 
L 77.323125 251.498817 
L 77.563125 251.130886 
L 77.683125 251.143253 
L 77.803125 250.896852 
L 77.923125 251.249768 
L 78.163125 251.019255 
L 78.283125 251.36314 
L 78.523125 251.268771 
L 78.643125 251.549264 
L 78.763125 251.461896 
L 78.883125 251.748169 
L 79.003125 251.386316 
L 79.483125 251.431136 
L 79.723125 251.878948 
L 79.843125 251.447672 
L 79.963125 251.653258 
L 80.203125 251.27723 
L 80.563125 251.931379 
L 80.683125 251.69432 
L 80.803125 251.864103 
L 80.923125 251.800719 
L 81.043125 251.902698 
L 81.403125 251.156755 
L 81.643125 251.725814 
L 81.763125 251.874075 
L 81.883125 251.820073 
L 82.003125 252.021136 
L 82.123125 251.330719 
L 82.363125 251.954509 
L 82.603125 251.987732 
L 82.723125 251.765339 
L 83.083125 251.909426 
L 83.203125 251.79404 
L 83.563125 252.191907 
L 84.163125 251.86205 
L 84.283125 251.669923 
L 84.403125 252.024712 
L 84.523125 251.627621 
L 84.763125 252.20209 
L 84.883125 251.878859 
L 85.003125 252.096342 
L 85.123125 252.012063 
L 85.363125 252.279766 
L 85.483125 251.575639 
L 85.603125 251.923657 
L 85.723125 251.654011 
L 85.843125 251.767727 
L 85.963125 251.641902 
L 86.083125 252.073066 
L 86.203125 252.087233 
L 86.323125 251.980278 
L 86.443125 252.300639 
L 86.563125 252.024476 
L 86.803125 251.987133 
L 87.043125 251.899935 
L 87.283125 252.18591 
L 87.643125 252.224274 
L 87.763125 251.997957 
L 87.883125 252.130608 
L 88.003125 252.004019 
L 88.123125 251.637457 
L 88.243125 251.828497 
L 88.363125 251.637397 
L 88.603125 251.834022 
L 88.843125 252.277006 
L 88.963125 252.092943 
L 89.083125 252.133659 
L 89.203125 251.897178 
L 89.323125 252.144813 
L 89.683125 251.889103 
L 89.923125 252.147412 
L 90.163125 252.042707 
L 90.283125 251.823024 
L 90.643125 252.375312 
L 90.763125 252.282549 
L 91.003125 252.048843 
L 91.483125 252.079498 
L 91.723125 252.317625 
L 91.963125 252.134385 
L 92.083125 252.084563 
L 92.203125 252.18873 
L 92.323125 252.02479 
L 92.563125 252.260761 
L 92.803125 252.146946 
L 92.923125 252.025568 
L 93.043125 252.166564 
L 93.163125 252.121399 
L 93.283125 252.353745 
L 93.643125 252.064837 
L 93.763125 252.535487 
L 94.003125 252.331363 
L 94.123125 251.958636 
L 94.363125 252.376355 
L 94.483125 251.987665 
L 94.723125 252.290639 
L 94.843125 252.302909 
L 94.963125 252.192525 
L 95.203125 252.490661 
L 95.323125 252.302732 
L 95.443125 252.431268 
L 95.803125 252.008891 
L 95.923125 252.162832 
L 96.043125 251.907514 
L 96.403125 252.40585 
L 96.523125 252.220902 
L 96.883125 252.245874 
L 97.003125 252.539297 
L 97.243125 252.236725 
L 97.363125 252.190495 
L 97.603125 252.29497 
L 97.723125 252.086959 
L 97.843125 252.387071 
L 98.323125 252.055707 
L 98.803125 252.417872 
L 98.923125 252.151376 
L 99.043125 252.482828 
L 99.283125 252.148005 
L 99.523125 252.30412 
L 99.883125 252.319198 
L 100.003125 252.192672 
L 100.123125 251.796685 
L 100.483125 252.029596 
L 100.603125 251.849146 
L 100.723125 252.281869 
L 100.843125 252.157442 
L 101.083125 252.302399 
L 101.323125 252.244722 
L 101.563125 252.129893 
L 101.803125 252.391684 
L 102.043125 252.053924 
L 102.283125 252.538874 
L 102.403125 252.283852 
L 102.643125 252.433983 
L 103.243125 252.266778 
L 103.363125 252.30252 
L 103.483125 252.155288 
L 103.603125 252.221453 
L 103.843125 251.820073 
L 104.083125 252.527867 
L 104.443125 252.084061 
L 104.803125 252.314527 
L 104.923125 252.264657 
L 105.163125 252.495885 
L 105.403125 252.173402 
L 105.523125 252.37976 
L 105.643125 252.301583 
L 105.883125 252.423893 
L 106.123125 252.184133 
L 106.363125 252.226866 
L 106.483125 252.377982 
L 106.603125 252.220225 
L 106.723125 252.274538 
L 106.843125 252.174891 
L 106.963125 252.32427 
L 107.323125 252.198218 
L 107.443125 252.216386 
L 107.563125 252.041604 
L 107.683125 252.109128 
L 107.803125 251.925719 
L 108.283125 252.473029 
L 108.403125 252.163938 
L 108.643125 252.408588 
L 108.763125 252.224266 
L 108.883125 252.417507 
L 109.123125 252.170992 
L 109.243125 252.225004 
L 109.363125 252.144036 
L 109.483125 252.297274 
L 109.723125 252.228093 
L 109.843125 252.283544 
L 110.083125 252.020301 
L 110.203125 252.297385 
L 110.323125 252.231949 
L 110.443125 252.421946 
L 110.563125 252.177593 
L 110.803125 252.353359 
L 110.923125 251.984571 
L 111.043125 252.297248 
L 111.283125 252.210655 
L 111.403125 252.354291 
L 111.643125 252.262455 
L 111.763125 252.466751 
L 112.003125 252.034056 
L 112.003125 252.034056 
" clip-path="url(#p994e75c6fe)" style="fill: none; stroke: #33c4b8; stroke-linecap: square"/>
   </g>
   <g id="line2d_26">
    <path d="M 40.123125 192.059297 
L 40.363125 194.130218 
L 40.483125 198.029501 
L 40.603125 197.023579 
L 40.723125 200.433806 
L 40.843125 200.512707 
L 41.083125 196.186983 
L 41.203125 198.070083 
L 41.323125 197.34348 
L 41.563125 194.198751 
L 41.683125 194.381601 
L 41.803125 193.974114 
L 41.923125 194.423406 
L 42.163125 193.566046 
L 42.283125 194.467868 
L 42.403125 194.443624 
L 42.523125 193.325747 
L 42.763125 194.120641 
L 42.883125 193.835315 
L 43.003125 193.92012 
L 43.123125 194.360984 
L 43.243125 194.077983 
L 43.363125 194.480674 
L 43.483125 194.026749 
L 43.603125 194.033004 
L 43.843125 195.598494 
L 44.083125 194.089143 
L 44.323125 194.290731 
L 44.443125 194.509891 
L 44.563125 195.340081 
L 44.683125 194.90364 
L 44.803125 195.265846 
L 44.923125 194.731911 
L 45.043125 195.390712 
L 45.163125 195.40104 
L 45.283125 195.287621 
L 45.403125 194.85117 
L 45.643125 195.387264 
L 45.883125 194.642774 
L 46.003125 194.806849 
L 46.123125 194.641771 
L 46.483125 195.856058 
L 46.603125 195.279159 
L 46.723125 195.511021 
L 46.843125 195.133176 
L 47.083125 196.32319 
L 47.203125 195.431098 
L 47.323125 196.829228 
L 47.443125 195.949756 
L 47.563125 196.622408 
L 47.683125 196.470672 
L 47.803125 195.880619 
L 47.923125 195.867628 
L 48.043125 195.552183 
L 48.163125 196.253359 
L 48.283125 196.167629 
L 48.523125 197.370449 
L 48.643125 197.138592 
L 48.763125 197.179603 
L 48.883125 197.687286 
L 49.003125 197.673954 
L 49.123125 198.767718 
L 49.243125 198.177808 
L 49.363125 199.249964 
L 49.483125 199.24329 
L 49.723125 198.82263 
L 49.843125 199.187196 
L 49.963125 198.515049 
L 50.083125 199.233706 
L 50.203125 199.060894 
L 50.323125 198.664722 
L 50.443125 199.671588 
L 50.563125 199.073748 
L 50.683125 200.493684 
L 50.803125 199.612772 
L 50.923125 200.706279 
L 51.163125 204.306632 
L 51.403125 202.50764 
L 51.523125 204.43228 
L 51.763125 201.886322 
L 51.883125 202.127589 
L 52.003125 203.95991 
L 52.123125 202.99686 
L 52.363125 204.658013 
L 52.483125 206.947713 
L 52.603125 206.539625 
L 52.723125 207.743791 
L 52.843125 207.370206 
L 52.963125 210.434048 
L 53.323125 207.553422 
L 53.443125 208.622186 
L 53.563125 212.232167 
L 53.683125 210.268174 
L 53.923125 211.682281 
L 54.043125 210.844882 
L 54.163125 213.721745 
L 54.283125 213.079711 
L 54.403125 213.099257 
L 54.643125 214.719459 
L 54.763125 219.029303 
L 55.003125 215.845325 
L 55.123125 216.41494 
L 55.243125 219.12216 
L 55.363125 218.650685 
L 55.483125 217.470253 
L 55.603125 217.739393 
L 55.723125 217.669563 
L 55.843125 218.161065 
L 56.083125 220.603616 
L 56.203125 224.019612 
L 56.323125 223.701553 
L 56.443125 222.101619 
L 56.683125 225.698075 
L 57.043125 223.711411 
L 57.163125 224.065039 
L 57.283125 226.908685 
L 57.403125 225.851079 
L 57.523125 229.504427 
L 57.643125 227.501947 
L 57.763125 228.353905 
L 58.003125 227.587688 
L 58.123125 227.420489 
L 58.243125 226.460499 
L 58.483125 229.170731 
L 58.723125 232.275361 
L 58.843125 231.226871 
L 58.963125 231.762839 
L 59.203125 234.778276 
L 59.323125 233.226631 
L 59.563125 236.46958 
L 59.683125 235.261621 
L 59.803125 236.394884 
L 59.923125 235.911836 
L 60.043125 237.783602 
L 60.283125 237.244903 
L 60.403125 237.305002 
L 60.523125 237.17735 
L 60.763125 239.078925 
L 61.003125 238.262747 
L 61.123125 239.692429 
L 61.363125 239.821261 
L 61.483125 241.63799 
L 61.603125 240.654417 
L 61.843125 241.822826 
L 61.963125 241.166802 
L 62.203125 243.237832 
L 62.323125 241.835048 
L 62.683125 243.764359 
L 62.803125 243.120237 
L 63.043125 245.012404 
L 63.163125 243.897893 
L 63.283125 244.56651 
L 63.403125 243.499339 
L 63.523125 245.374218 
L 63.643125 244.091391 
L 63.763125 244.353965 
L 63.883125 245.158276 
L 64.003125 245.062069 
L 64.123125 245.38416 
L 64.243125 244.892803 
L 64.483125 246.981315 
L 64.603125 246.229642 
L 64.963125 247.440681 
L 65.083125 247.118494 
L 65.203125 247.576394 
L 65.443125 247.370231 
L 65.563125 247.276631 
L 65.803125 248.534558 
L 66.163125 248.180142 
L 66.763125 249.112739 
L 66.883125 248.956856 
L 67.243125 249.574567 
L 67.363125 249.730734 
L 67.483125 249.538038 
L 67.603125 249.860998 
L 67.723125 249.705018 
L 68.323125 250.192568 
L 68.443125 250.503522 
L 68.563125 250.117044 
L 68.683125 250.2805 
L 68.803125 250.647154 
L 68.923125 250.420938 
L 69.163125 250.621964 
L 69.283125 250.574201 
L 69.403125 250.401185 
L 69.763125 250.894144 
L 70.003125 250.941792 
L 70.363125 251.172931 
L 70.483125 251.178517 
L 70.723125 251.317668 
L 71.443125 251.502353 
L 71.563125 251.410039 
L 72.283125 251.724474 
L 72.763125 251.871164 
L 74.323125 252.158276 
L 74.803125 252.203461 
L 76.723125 252.344419 
L 78.283125 252.43027 
L 112.003125 252.530431 
L 112.003125 252.530431 
" clip-path="url(#p994e75c6fe)" style="fill: none; stroke: #b626aa; stroke-linecap: square"/>
   </g>
   <g id="patch_9">
    <path d="M 40.123125 252.539297 
L 40.123125 192.059297 
" style="fill: none; stroke: #000000; stroke-width: 1.2; stroke-linejoin: miter; stroke-linecap: square"/>
   </g>
   <g id="patch_10">
    <path d="M 40.123125 252.539297 
L 104.923125 252.539297 
" style="fill: none; stroke: #000000; stroke-width: 1.2; stroke-linejoin: miter; stroke-linecap: square"/>
   </g>
  </g>
  <g id="axes_4">
   <g id="patch_11">
    <path d="M 40.123125 343.259297 
L 104.923125 343.259297 
L 104.923125 282.779297 
L 40.123125 282.779297 
z
" style="fill: #ffffff"/>
   </g>
   <g id="matplotlib.axis_7">
    <g id="xtick_13">
     <g id="line2d_27">
      <g>
       <use xlink:href="#mc683adc83e" x="40.123125" y="343.259297" style="stroke: #000000; stroke-width: 1.2"/>
      </g>
     </g>
     <g id="text_25">
      <!-- 0 -->
      <g transform="translate(37.26 355.997891) scale(0.09 -0.09)">
       <use xlink:href="#DejaVuSans-30"/>
      </g>
     </g>
    </g>
    <g id="xtick_14">
     <g id="line2d_28">
      <g>
       <use xlink:href="#mc683adc83e" x="61.723125" y="343.259297" style="stroke: #000000; stroke-width: 1.2"/>
      </g>
     </g>
     <g id="text_26">
      <!-- 5 -->
      <g transform="translate(58.86 355.997891) scale(0.09 -0.09)">
       <use xlink:href="#DejaVuSans-35"/>
      </g>
     </g>
    </g>
    <g id="xtick_15">
     <g id="line2d_29">
      <g>
       <use xlink:href="#mc683adc83e" x="83.323125" y="343.259297" style="stroke: #000000; stroke-width: 1.2"/>
      </g>
     </g>
     <g id="text_27">
      <!-- 10 -->
      <g transform="translate(77.596875 355.997891) scale(0.09 -0.09)">
       <use xlink:href="#DejaVuSans-31"/>
       <use xlink:href="#DejaVuSans-30" x="63.623047"/>
      </g>
     </g>
    </g>
    <g id="xtick_16">
     <g id="line2d_30">
      <g>
       <use xlink:href="#mc683adc83e" x="104.923125" y="343.259297" style="stroke: #000000; stroke-width: 1.2"/>
      </g>
     </g>
     <g id="text_28">
      <!-- 15 -->
      <g transform="translate(99.196875 355.997891) scale(0.09 -0.09)">
       <use xlink:href="#DejaVuSans-31"/>
       <use xlink:href="#DejaVuSans-35" x="63.623047"/>
      </g>
     </g>
    </g>
    <g id="text_29">
     <!-- Spatial freq. (µm$^{-1}$) -->
     <g transform="translate(28.108125 369.969609) scale(0.09 -0.09)">
      <defs>
       <path id="DejaVuSans-53" d="M 3425 4513 
L 3425 3897 
Q 3066 4069 2747 4153 
Q 2428 4238 2131 4238 
Q 1616 4238 1336 4038 
Q 1056 3838 1056 3469 
Q 1056 3159 1242 3001 
Q 1428 2844 1947 2747 
L 2328 2669 
Q 3034 2534 3370 2195 
Q 3706 1856 3706 1288 
Q 3706 609 3251 259 
Q 2797 -91 1919 -91 
Q 1588 -91 1214 -16 
Q 841 59 441 206 
L 441 856 
Q 825 641 1194 531 
Q 1563 422 1919 422 
Q 2459 422 2753 634 
Q 3047 847 3047 1241 
Q 3047 1584 2836 1778 
Q 2625 1972 2144 2069 
L 1759 2144 
Q 1053 2284 737 2584 
Q 422 2884 422 3419 
Q 422 4038 858 4394 
Q 1294 4750 2059 4750 
Q 2388 4750 2728 4690 
Q 3069 4631 3425 4513 
z
" transform="scale(0.015625)"/>
       <path id="DejaVuSans-70" d="M 1159 525 
L 1159 -1331 
L 581 -1331 
L 581 3500 
L 1159 3500 
L 1159 2969 
Q 1341 3281 1617 3432 
Q 1894 3584 2278 3584 
Q 2916 3584 3314 3078 
Q 3713 2572 3713 1747 
Q 3713 922 3314 415 
Q 2916 -91 2278 -91 
Q 1894 -91 1617 61 
Q 1341 213 1159 525 
z
M 3116 1747 
Q 3116 2381 2855 2742 
Q 2594 3103 2138 3103 
Q 1681 3103 1420 2742 
Q 1159 2381 1159 1747 
Q 1159 1113 1420 752 
Q 1681 391 2138 391 
Q 2594 391 2855 752 
Q 3116 1113 3116 1747 
z
" transform="scale(0.015625)"/>
       <path id="DejaVuSans-20" transform="scale(0.015625)"/>
       <path id="DejaVuSans-66" d="M 2375 4863 
L 2375 4384 
L 1825 4384 
Q 1516 4384 1395 4259 
Q 1275 4134 1275 3809 
L 1275 3500 
L 2222 3500 
L 2222 3053 
L 1275 3053 
L 1275 0 
L 697 0 
L 697 3053 
L 147 3053 
L 147 3500 
L 697 3500 
L 697 3744 
Q 697 4328 969 4595 
Q 1241 4863 1831 4863 
L 2375 4863 
z
" transform="scale(0.015625)"/>
       <path id="DejaVuSans-71" d="M 947 1747 
Q 947 1113 1208 752 
Q 1469 391 1925 391 
Q 2381 391 2643 752 
Q 2906 1113 2906 1747 
Q 2906 2381 2643 2742 
Q 2381 3103 1925 3103 
Q 1469 3103 1208 2742 
Q 947 2381 947 1747 
z
M 2906 525 
Q 2725 213 2448 61 
Q 2172 -91 1784 -91 
Q 1150 -91 751 415 
Q 353 922 353 1747 
Q 353 2572 751 3078 
Q 1150 3584 1784 3584 
Q 2172 3584 2448 3432 
Q 2725 3281 2906 2969 
L 2906 3500 
L 3481 3500 
L 3481 -1331 
L 2906 -1331 
L 2906 525 
z
" transform="scale(0.015625)"/>
       <path id="DejaVuSans-28" d="M 1984 4856 
Q 1566 4138 1362 3434 
Q 1159 2731 1159 2009 
Q 1159 1288 1364 580 
Q 1569 -128 1984 -844 
L 1484 -844 
Q 1016 -109 783 600 
Q 550 1309 550 2009 
Q 550 2706 781 3412 
Q 1013 4119 1484 4856 
L 1984 4856 
z
" transform="scale(0.015625)"/>
       <path id="DejaVuSans-b5" d="M 544 -1331 
L 544 3500 
L 1119 3500 
L 1119 1325 
Q 1119 872 1334 640 
Q 1550 409 1972 409 
Q 2434 409 2667 671 
Q 2900 934 2900 1459 
L 2900 3500 
L 3475 3500 
L 3475 806 
Q 3475 619 3529 530 
Q 3584 441 3700 441 
Q 3728 441 3778 458 
Q 3828 475 3916 513 
L 3916 50 
Q 3788 -22 3673 -56 
Q 3559 -91 3450 -91 
Q 3234 -91 3106 31 
Q 2978 153 2931 403 
Q 2775 156 2548 32 
Q 2322 -91 2016 -91 
Q 1697 -91 1473 31 
Q 1250 153 1119 397 
L 1119 -1331 
L 544 -1331 
z
" transform="scale(0.015625)"/>
       <path id="DejaVuSans-6d" d="M 3328 2828 
Q 3544 3216 3844 3400 
Q 4144 3584 4550 3584 
Q 5097 3584 5394 3201 
Q 5691 2819 5691 2113 
L 5691 0 
L 5113 0 
L 5113 2094 
Q 5113 2597 4934 2840 
Q 4756 3084 4391 3084 
Q 3944 3084 3684 2787 
Q 3425 2491 3425 1978 
L 3425 0 
L 2847 0 
L 2847 2094 
Q 2847 2600 2669 2842 
Q 2491 3084 2119 3084 
Q 1678 3084 1418 2786 
Q 1159 2488 1159 1978 
L 1159 0 
L 581 0 
L 581 3500 
L 1159 3500 
L 1159 2956 
Q 1356 3278 1631 3431 
Q 1906 3584 2284 3584 
Q 2666 3584 2933 3390 
Q 3200 3197 3328 2828 
z
" transform="scale(0.015625)"/>
       <path id="DejaVuSans-2212" d="M 678 2272 
L 4684 2272 
L 4684 1741 
L 678 1741 
L 678 2272 
z
" transform="scale(0.015625)"/>
       <path id="DejaVuSans-29" d="M 513 4856 
L 1013 4856 
Q 1481 4119 1714 3412 
Q 1947 2706 1947 2009 
Q 1947 1309 1714 600 
Q 1481 -109 1013 -844 
L 513 -844 
Q 928 -128 1133 580 
Q 1338 1288 1338 2009 
Q 1338 2731 1133 3434 
Q 928 4138 513 4856 
z
" transform="scale(0.015625)"/>
      </defs>
      <use xlink:href="#DejaVuSans-53" transform="translate(0 0.684375)"/>
      <use xlink:href="#DejaVuSans-70" transform="translate(63.476562 0.684375)"/>
      <use xlink:href="#DejaVuSans-61" transform="translate(126.953125 0.684375)"/>
      <use xlink:href="#DejaVuSans-74" transform="translate(188.232422 0.684375)"/>
      <use xlink:href="#DejaVuSans-69" transform="translate(227.441406 0.684375)"/>
      <use xlink:href="#DejaVuSans-61" transform="translate(255.224609 0.684375)"/>
      <use xlink:href="#DejaVuSans-6c" transform="translate(316.503906 0.684375)"/>
      <use xlink:href="#DejaVuSans-20" transform="translate(344.287109 0.684375)"/>
      <use xlink:href="#DejaVuSans-66" transform="translate(376.074219 0.684375)"/>
      <use xlink:href="#DejaVuSans-72" transform="translate(411.279297 0.684375)"/>
      <use xlink:href="#DejaVuSans-65" transform="translate(452.392578 0.684375)"/>
      <use xlink:href="#DejaVuSans-71" transform="translate(513.916016 0.684375)"/>
      <use xlink:href="#DejaVuSans-2e" transform="translate(577.392578 0.684375)"/>
      <use xlink:href="#DejaVuSans-20" transform="translate(609.179688 0.684375)"/>
      <use xlink:href="#DejaVuSans-28" transform="translate(640.966797 0.684375)"/>
      <use xlink:href="#DejaVuSans-b5" transform="translate(679.980469 0.684375)"/>
      <use xlink:href="#DejaVuSans-6d" transform="translate(743.603516 0.684375)"/>
      <use xlink:href="#DejaVuSans-2212" transform="translate(841.972656 38.965625) scale(0.7)"/>
      <use xlink:href="#DejaVuSans-31" transform="translate(900.625 38.965625) scale(0.7)"/>
      <use xlink:href="#DejaVuSans-29" transform="translate(947.895508 0.684375)"/>
     </g>
    </g>
   </g>
   <g id="matplotlib.axis_8">
    <g id="ytick_10">
     <g id="line2d_31">
      <g>
       <use xlink:href="#m3f46fde82f" x="40.123125" y="343.259297" style="stroke: #000000; stroke-width: 1.2"/>
      </g>
     </g>
     <g id="text_30">
      <!-- 0.0 -->
      <g transform="translate(19.910313 346.678594) scale(0.09 -0.09)">
       <use xlink:href="#DejaVuSans-30"/>
       <use xlink:href="#DejaVuSans-2e" x="63.623047"/>
       <use xlink:href="#DejaVuSans-30" x="95.410156"/>
      </g>
     </g>
    </g>
    <g id="ytick_11">
     <g id="line2d_32">
      <g>
       <use xlink:href="#m3f46fde82f" x="40.123125" y="313.019297" style="stroke: #000000; stroke-width: 1.2"/>
      </g>
     </g>
     <g id="text_31">
      <!-- 0.5 -->
      <g transform="translate(19.910313 316.438594) scale(0.09 -0.09)">
       <use xlink:href="#DejaVuSans-30"/>
       <use xlink:href="#DejaVuSans-2e" x="63.623047"/>
       <use xlink:href="#DejaVuSans-35" x="95.410156"/>
      </g>
     </g>
    </g>
    <g id="ytick_12">
     <g id="line2d_33">
      <g>
       <use xlink:href="#m3f46fde82f" x="40.123125" y="282.779297" style="stroke: #000000; stroke-width: 1.2"/>
      </g>
     </g>
     <g id="text_32">
      <!-- 1.0 -->
      <g transform="translate(19.910313 286.198594) scale(0.09 -0.09)">
       <use xlink:href="#DejaVuSans-31"/>
       <use xlink:href="#DejaVuSans-2e" x="63.623047"/>
       <use xlink:href="#DejaVuSans-30" x="95.410156"/>
      </g>
     </g>
    </g>
    <g id="text_33">
     <!-- Correlation -->
     <g transform="translate(14.038594 337.831172) rotate(-90) scale(0.09 -0.09)">
      <use xlink:href="#DejaVuSans-43"/>
      <use xlink:href="#DejaVuSans-6f" x="69.824219"/>
      <use xlink:href="#DejaVuSans-72" x="131.005859"/>
      <use xlink:href="#DejaVuSans-72" x="170.369141"/>
      <use xlink:href="#DejaVuSans-65" x="209.232422"/>
      <use xlink:href="#DejaVuSans-6c" x="270.755859"/>
      <use xlink:href="#DejaVuSans-61" x="298.539062"/>
      <use xlink:href="#DejaVuSans-74" x="359.818359"/>
      <use xlink:href="#DejaVuSans-69" x="399.027344"/>
      <use xlink:href="#DejaVuSans-6f" x="426.810547"/>
      <use xlink:href="#DejaVuSans-6e" x="487.992188"/>
     </g>
    </g>
   </g>
   <g id="line2d_34">
    <path d="M 40.123125 282.779297 
L 40.363125 283.865865 
L 40.603125 284.765755 
L 40.723125 283.972221 
L 40.843125 284.758187 
L 41.083125 283.626951 
L 41.203125 284.37747 
L 41.443125 283.614202 
L 41.563125 283.858613 
L 41.803125 283.739429 
L 42.043125 284.466136 
L 42.163125 284.203167 
L 42.283125 284.467247 
L 42.523125 284.123136 
L 42.763125 284.694267 
L 43.123125 284.673142 
L 43.243125 284.542154 
L 43.483125 284.53557 
L 43.603125 284.364537 
L 43.843125 285.199262 
L 44.083125 284.443149 
L 44.323125 284.535164 
L 44.443125 284.621508 
L 44.563125 285.201128 
L 44.803125 285.219812 
L 44.923125 285.349444 
L 45.163125 285.251674 
L 45.283125 285.310034 
L 45.403125 285.14247 
L 45.523125 285.355371 
L 45.643125 285.200741 
L 45.883125 284.340374 
L 46.003125 284.972879 
L 46.123125 284.836637 
L 46.483125 285.460787 
L 46.603125 285.160488 
L 46.723125 285.243351 
L 46.843125 284.7369 
L 46.963125 285.562999 
L 47.083125 285.413571 
L 47.203125 285.058316 
L 47.323125 285.586473 
L 47.443125 285.41024 
L 47.563125 285.547029 
L 47.803125 285.052852 
L 47.923125 285.678448 
L 48.043125 285.021746 
L 48.283125 285.783425 
L 48.403125 285.836399 
L 48.523125 286.378932 
L 48.643125 286.338118 
L 48.763125 285.952251 
L 48.883125 286.870556 
L 49.003125 286.421167 
L 49.123125 286.770241 
L 49.243125 286.580247 
L 49.483125 287.363313 
L 49.603125 286.92666 
L 49.963125 287.183635 
L 50.083125 286.597318 
L 50.683125 287.689728 
L 50.923125 287.897217 
L 51.163125 289.37305 
L 51.283125 289.362916 
L 51.403125 288.663949 
L 51.523125 289.884914 
L 51.643125 289.47767 
L 51.763125 288.453014 
L 52.003125 289.0166 
L 52.123125 288.251535 
L 52.243125 288.556208 
L 52.483125 291.61244 
L 52.603125 291.240879 
L 52.723125 291.738494 
L 52.843125 290.926471 
L 52.963125 292.645672 
L 53.203125 291.202149 
L 53.323125 293.395202 
L 53.443125 292.524297 
L 53.563125 293.650193 
L 53.683125 292.796378 
L 53.803125 293.025182 
L 53.923125 294.493396 
L 54.043125 294.20769 
L 54.283125 295.806201 
L 54.403125 296.331489 
L 54.523125 295.623959 
L 54.763125 298.824855 
L 55.123125 296.456933 
L 55.363125 299.039563 
L 55.603125 297.918793 
L 55.723125 298.637613 
L 55.843125 297.194052 
L 56.083125 301.021713 
L 56.203125 301.533014 
L 56.323125 303.551791 
L 56.563125 300.618578 
L 56.803125 302.487829 
L 56.923125 303.22685 
L 57.043125 303.24927 
L 57.283125 304.591554 
L 57.403125 303.419913 
L 57.523125 306.977414 
L 57.643125 305.778939 
L 57.763125 307.58449 
L 57.883125 305.753983 
L 58.003125 307.304961 
L 58.123125 306.98415 
L 58.243125 304.373641 
L 58.483125 308.700098 
L 58.603125 308.669041 
L 58.723125 309.017289 
L 58.843125 308.453356 
L 59.083125 313.121424 
L 59.203125 310.50594 
L 59.563125 312.492832 
L 59.683125 310.681264 
L 59.803125 313.584184 
L 59.923125 312.652216 
L 60.043125 313.685926 
L 60.163125 313.384613 
L 60.403125 316.2387 
L 60.523125 315.352733 
L 60.763125 316.135297 
L 61.123125 318.191731 
L 61.243125 318.060115 
L 61.363125 318.118584 
L 61.483125 320.264581 
L 61.603125 319.836651 
L 61.723125 317.896961 
L 62.203125 322.09551 
L 62.323125 320.482153 
L 62.443125 322.173691 
L 62.563125 321.258457 
L 62.803125 323.620008 
L 62.923125 323.584106 
L 63.043125 325.906712 
L 63.163125 322.543617 
L 63.283125 323.206638 
L 63.403125 321.798114 
L 63.523125 325.568935 
L 63.763125 324.568841 
L 63.883125 325.268591 
L 64.123125 323.449084 
L 64.243125 325.240701 
L 64.363125 325.116281 
L 64.603125 326.946718 
L 64.843125 328.600647 
L 64.963125 327.855679 
L 65.083125 328.107494 
L 65.203125 328.09318 
L 65.323125 329.208058 
L 65.443125 327.629838 
L 65.563125 327.918219 
L 65.683125 328.539192 
L 65.803125 329.80746 
L 65.923125 329.340885 
L 66.043125 329.454888 
L 66.163125 329.225514 
L 66.283125 328.577558 
L 66.523125 330.319517 
L 66.643125 330.256047 
L 66.883125 329.482184 
L 67.363125 331.72436 
L 67.483125 330.759785 
L 67.603125 331.420612 
L 67.723125 330.943013 
L 67.843125 331.63978 
L 67.963125 330.880869 
L 68.083125 330.842176 
L 68.203125 332.281695 
L 68.323125 332.323114 
L 68.443125 333.147777 
L 68.563125 332.860825 
L 68.683125 331.66046 
L 68.803125 332.74778 
L 68.923125 332.623829 
L 69.043125 333.03949 
L 69.163125 332.561508 
L 69.403125 332.835895 
L 69.523125 332.928116 
L 69.763125 333.930454 
L 70.003125 333.585526 
L 70.123125 332.655481 
L 70.243125 332.971889 
L 70.363125 333.891872 
L 70.483125 333.637345 
L 70.603125 333.748218 
L 70.843125 334.817552 
L 70.963125 334.374801 
L 71.083125 334.387517 
L 71.323125 335.085252 
L 71.443125 335.343876 
L 71.563125 334.815574 
L 71.683125 335.697118 
L 71.803125 335.694285 
L 71.923125 335.939843 
L 72.163125 335.27584 
L 72.283125 335.613825 
L 72.403125 335.581505 
L 72.523125 336.137339 
L 72.643125 335.186533 
L 73.003125 336.981484 
L 73.123125 336.741806 
L 73.243125 337.02698 
L 73.363125 336.68711 
L 73.483125 337.081912 
L 73.723125 336.764817 
L 73.843125 337.666507 
L 73.963125 337.173776 
L 74.083125 337.376639 
L 74.203125 337.261443 
L 74.323125 337.710799 
L 74.443125 337.560092 
L 74.683125 338.149921 
L 74.923125 338.073841 
L 75.043125 338.345665 
L 75.283125 337.937611 
L 75.403125 338.426629 
L 75.763125 338.097645 
L 76.003125 338.872039 
L 76.123125 337.594123 
L 76.483125 339.166243 
L 76.603125 339.237295 
L 76.723125 339.564852 
L 76.843125 339.270035 
L 77.203125 339.525402 
L 77.443125 339.686566 
L 77.683125 339.787507 
L 77.803125 339.783238 
L 77.923125 340.153518 
L 78.043125 339.928232 
L 78.283125 340.335417 
L 78.523125 340.510306 
L 78.643125 340.647614 
L 78.763125 340.476265 
L 78.883125 340.924441 
L 79.123125 340.999187 
L 79.603125 341.068807 
L 79.723125 341.179029 
L 79.843125 341.041719 
L 79.963125 341.293924 
L 80.203125 341.16908 
L 80.563125 341.66302 
L 80.923125 341.406719 
L 81.283125 341.739629 
L 81.403125 341.547694 
L 81.643125 341.843133 
L 81.763125 341.822008 
L 82.003125 341.968182 
L 82.123125 341.733969 
L 82.483125 341.989025 
L 83.083125 342.296858 
L 83.203125 342.283729 
L 83.563125 342.475464 
L 83.683125 342.363582 
L 84.163125 342.486492 
L 87.883125 342.94021 
L 92.443125 343.136784 
L 93.523125 343.151879 
L 111.883125 343.20218 
L 112.003125 343.108102 
L 112.003125 343.108102 
" clip-path="url(#pc3b3b80757)" style="fill: none; stroke: #33c4b8; stroke-linecap: square"/>
   </g>
   <g id="line2d_35">
    <path d="M 40.123125 282.779297 
L 40.363125 283.825673 
L 40.603125 284.929378 
L 40.723125 284.01595 
L 40.843125 285.654489 
L 41.083125 283.901196 
L 41.203125 284.581184 
L 41.443125 283.74422 
L 41.683125 283.864319 
L 41.803125 283.595884 
L 42.043125 284.288801 
L 42.163125 283.947954 
L 42.283125 284.339082 
L 42.523125 283.88185 
L 42.763125 284.386211 
L 43.123125 284.407511 
L 43.243125 284.269196 
L 43.363125 284.607485 
L 43.603125 284.419821 
L 43.723125 285.12201 
L 43.843125 285.038864 
L 44.083125 284.361522 
L 44.203125 284.242564 
L 44.323125 284.515108 
L 44.443125 284.497311 
L 44.563125 284.95763 
L 44.683125 284.874846 
L 44.803125 285.154889 
L 44.923125 284.833705 
L 45.163125 285.413624 
L 45.283125 285.383472 
L 45.523125 285.141507 
L 45.643125 285.24239 
L 45.883125 284.65306 
L 46.003125 284.581476 
L 46.243125 285.302864 
L 46.483125 284.993071 
L 46.603125 284.952109 
L 46.723125 285.280204 
L 46.843125 284.938377 
L 46.963125 285.434735 
L 47.083125 285.270536 
L 47.443125 285.934536 
L 47.683125 285.238868 
L 47.923125 285.80182 
L 48.043125 285.580485 
L 48.163125 286.116311 
L 48.283125 285.649728 
L 48.403125 285.845044 
L 48.523125 286.303472 
L 48.643125 286.122615 
L 48.763125 286.286083 
L 48.883125 286.731815 
L 49.003125 286.685926 
L 49.123125 287.147519 
L 49.243125 287.117334 
L 49.483125 288.029692 
L 49.723125 287.145195 
L 49.843125 287.581492 
L 49.963125 287.267806 
L 50.083125 287.742773 
L 50.203125 286.956956 
L 50.443125 287.743611 
L 50.683125 287.911361 
L 51.283125 290.613026 
L 51.403125 289.596745 
L 51.523125 290.101304 
L 51.643125 289.262946 
L 51.763125 289.213746 
L 52.003125 291.173592 
L 52.123125 290.280981 
L 52.243125 290.25631 
L 52.483125 293.00005 
L 52.603125 292.266445 
L 52.723125 293.595145 
L 52.843125 292.893985 
L 52.963125 294.942125 
L 53.083125 293.528501 
L 53.203125 293.430626 
L 53.323125 295.205808 
L 53.443125 293.889146 
L 53.563125 296.103254 
L 53.803125 295.760816 
L 53.923125 296.010624 
L 54.043125 295.275367 
L 54.163125 298.322618 
L 54.283125 297.647511 
L 54.523125 298.90168 
L 54.643125 299.352427 
L 54.763125 301.356029 
L 54.883125 301.030117 
L 55.003125 301.760015 
L 55.123125 301.000833 
L 55.243125 302.058371 
L 55.483125 301.206679 
L 55.603125 301.137468 
L 55.723125 300.055817 
L 55.843125 300.064972 
L 56.323125 306.154406 
L 56.443125 306.069726 
L 56.563125 304.754539 
L 56.683125 307.080653 
L 56.803125 305.246582 
L 56.923125 305.652339 
L 57.283125 308.817743 
L 57.403125 308.692612 
L 57.523125 312.067714 
L 57.643125 308.750441 
L 57.763125 308.90324 
L 58.123125 311.895017 
L 58.243125 310.340742 
L 58.483125 312.097298 
L 58.603125 311.239101 
L 58.843125 313.955426 
L 58.963125 314.43894 
L 59.083125 315.451717 
L 59.203125 313.966964 
L 59.563125 318.438855 
L 59.683125 316.826976 
L 60.043125 319.997325 
L 60.163125 319.670515 
L 60.283125 321.214626 
L 60.403125 320.457863 
L 60.523125 321.006861 
L 60.643125 319.853527 
L 60.763125 321.820308 
L 60.883125 320.765488 
L 61.243125 323.138138 
L 61.363125 322.497488 
L 61.483125 326.63785 
L 61.603125 324.015915 
L 61.843125 325.341832 
L 61.963125 326.050845 
L 62.083125 325.821326 
L 62.203125 326.960622 
L 62.323125 326.642612 
L 62.563125 328.788171 
L 62.683125 329.447956 
L 62.803125 328.244626 
L 63.043125 331.746978 
L 63.163125 329.575613 
L 63.283125 329.594265 
L 63.403125 330.134944 
L 63.523125 331.226922 
L 63.643125 331.148399 
L 63.763125 330.806142 
L 63.883125 331.554719 
L 64.003125 331.259544 
L 64.123125 332.083153 
L 64.243125 331.305597 
L 64.843125 334.75975 
L 64.963125 334.857912 
L 65.083125 334.437717 
L 65.323125 335.063977 
L 65.443125 334.762185 
L 65.563125 335.154202 
L 65.803125 337.055059 
L 65.923125 336.912112 
L 66.043125 337.297274 
L 66.163125 337.216762 
L 66.283125 336.757111 
L 66.403125 337.028469 
L 66.643125 337.806422 
L 66.763125 338.018045 
L 67.003125 337.864 
L 67.243125 338.430889 
L 67.363125 338.63569 
L 67.483125 338.560176 
L 67.603125 338.990374 
L 67.843125 338.529851 
L 68.083125 338.882549 
L 68.323125 339.436087 
L 68.443125 339.728272 
L 68.563125 339.72477 
L 68.683125 339.565645 
L 68.803125 340.058734 
L 68.923125 339.516388 
L 69.163125 340.247413 
L 69.283125 340.210367 
L 69.403125 339.924466 
L 69.763125 340.59925 
L 69.883125 340.42713 
L 70.363125 341.025002 
L 70.603125 341.32266 
L 70.723125 341.210128 
L 70.843125 341.314097 
L 70.963125 341.091432 
L 71.323125 341.742053 
L 71.563125 341.372218 
L 72.043125 341.906465 
L 72.283125 341.616153 
L 72.523125 342.04386 
L 72.643125 341.874555 
L 73.123125 342.230359 
L 73.363125 342.286478 
L 73.603125 342.337367 
L 73.723125 342.275294 
L 73.963125 342.442702 
L 74.203125 342.468773 
L 74.323125 342.361471 
L 74.923125 342.58309 
L 75.283125 342.54284 
L 75.523125 342.637219 
L 76.003125 342.590154 
L 76.123125 342.269538 
L 76.363125 342.677186 
L 76.843125 342.845755 
L 87.283125 343.221227 
L 89.443125 343.233867 
L 94.603125 343.252484 
L 103.483125 343.25697 
L 110.443125 343.248728 
L 112.003125 343.17442 
L 112.003125 343.17442 
" clip-path="url(#pc3b3b80757)" style="fill: none; stroke: #b626aa; stroke-linecap: square"/>
   </g>
   <g id="patch_12">
    <path d="M 40.123125 343.259297 
L 40.123125 282.779297 
" style="fill: none; stroke: #000000; stroke-width: 1.2; stroke-linejoin: miter; stroke-linecap: square"/>
   </g>
   <g id="patch_13">
    <path d="M 40.123125 343.259297 
L 104.923125 343.259297 
" style="fill: none; stroke: #000000; stroke-width: 1.2; stroke-linejoin: miter; stroke-linecap: square"/>
   </g>
  </g>
 </g>
 <defs>
  <clipPath id="p0b0308d820">
   <rect x="40.123125" y="10.619297" width="64.8" height="60.48"/>
  </clipPath>
  <clipPath id="p04cca76d89">
   <rect x="40.123125" y="101.339297" width="64.8" height="60.48"/>
  </clipPath>
  <clipPath id="p994e75c6fe">
   <rect x="40.123125" y="192.059297" width="64.8" height="60.48"/>
  </clipPath>
  <clipPath id="pc3b3b80757">
   <rect x="40.123125" y="282.779297" width="64.8" height="60.48"/>
  </clipPath>
 </defs>
</svg>
