<?xml version="1.0" encoding="utf-8" standalone="no"?>
<!DOCTYPE svg PUBLIC "-//W3C//DTD SVG 1.1//EN"
  "http://www.w3.org/Graphics/SVG/1.1/DTD/svg11.dtd">
<svg xmlns:xlink="http://www.w3.org/1999/xlink" width="454.970312pt" height="552.29pt" viewBox="0 0 454.970312 552.29" xmlns="http://www.w3.org/2000/svg" version="1.1">
 <metadata>
  <rdf:RDF xmlns:dc="http://purl.org/dc/elements/1.1/" xmlns:cc="http://creativecommons.org/ns#" xmlns:rdf="http://www.w3.org/1999/02/22-rdf-syntax-ns#">
   <cc:Work>
    <dc:type rdf:resource="http://purl.org/dc/dcmitype/StillImage"/>
    <dc:date>2026-04-20T21:56:40.617292</dc:date>
    <dc:format>image/svg+xml</dc:format>
    <dc:creator>
     <cc:Agent>
      <dc:title>Matplotlib v3.9.1, https://matplotlib.org/</dc:title>
     </cc:Agent>
    </dc:creator>
   </cc:Work>
  </rdf:RDF>
 </metadata>
 <defs>
  <style type="text/css">*{stroke-linejoin: round; stroke-linecap: butt}</style>
 </defs>
 <g id="figure_1">
  <g id="patch_1">
   <path d="M 0 552.29 
L 454.970312 552.29 
L 454.970312 0 
L 0 0 
z
" style="fill: #ffffff"/>
  </g>
  <g id="axes_1">
   <g id="patch_2">
    <path d="M 85.070313 486.038437 
L 447.770312 486.038437 
L 447.770312 14.798437 
L 85.070313 14.798437 
z
" style="fill: #ffffff"/>
   </g>
   <g id="PathCollection_1">
    <defs>
     <path id="C0_0_555e1824d2" d="M 0 2.236068 
C 0.593012 2.236068 1.161816 2.000462 1.581139 1.581139 
C 2.000462 1.161816 2.236068 0.593012 2.236068 -0 
C 2.236068 -0.593012 2.000462 -1.161816 1.581139 -1.581139 
C 1.161816 -2.000462 0.593012 -2.236068 0 -2.236068 
C -0.593012 -2.236068 -1.161816 -2.000462 -1.581139 -1.581139 
C -2.000462 -1.161816 -2.236068 -0.593012 -2.236068 0 
C -2.236068 0.593012 -2.000462 1.161816 -1.581139 1.581139 
C -1.161816 2.000462 -0.593012 2.236068 0 2.236068 
z
"/>
    </defs>
    <g clip-path="url(#pe075f48033)">
     <use xlink:href="#C0_0_555e1824d2" x="127.226942" y="420.605174" style="fill: #8b0000"/>
    </g>
    <g clip-path="url(#pe075f48033)">
     <use xlink:href="#C0_0_555e1824d2" x="126.575305" y="439.100801" style="fill: #8b0000"/>
    </g>
    <g clip-path="url(#pe075f48033)">
     <use xlink:href="#C0_0_555e1824d2" x="127.453645" y="252.577496" style="fill: #8b0000"/>
    </g>
    <g clip-path="url(#pe075f48033)">
     <use xlink:href="#C0_0_555e1824d2" x="125.356297" y="385.857587" style="fill: #8b0000"/>
    </g>
    <g clip-path="url(#pe075f48033)">
     <use xlink:href="#C0_0_555e1824d2" x="128.033806" y="322.862623" style="fill: #8b0000"/>
    </g>
    <g clip-path="url(#pe075f48033)">
     <use xlink:href="#C0_0_555e1824d2" x="125.219066" y="353.949321" style="fill: #8b0000"/>
    </g>
    <g clip-path="url(#pe075f48033)">
     <use xlink:href="#C0_0_555e1824d2" x="125.934417" y="367.180441" style="fill: #8b0000"/>
    </g>
    <g clip-path="url(#pe075f48033)">
     <use xlink:href="#C0_0_555e1824d2" x="128.93452" y="380.02203" style="fill: #8b0000"/>
    </g>
    <g clip-path="url(#pe075f48033)">
     <use xlink:href="#C0_0_555e1824d2" x="126.366631" y="321.439948" style="fill: #8b0000"/>
    </g>
    <g clip-path="url(#pe075f48033)">
     <use xlink:href="#C0_0_555e1824d2" x="127.146412" y="-85.516603" style="fill: #8b0000"/>
    </g>
    <g clip-path="url(#pe075f48033)">
     <use xlink:href="#C0_0_555e1824d2" x="126.035229" y="372.425676" style="fill: #8b0000"/>
    </g>
    <g clip-path="url(#pe075f48033)">
     <use xlink:href="#C0_0_555e1824d2" x="127.565051" y="408.900837" style="fill: #8b0000"/>
    </g>
    <g clip-path="url(#pe075f48033)">
     <use xlink:href="#C0_0_555e1824d2" x="125.373486" y="366.015001" style="fill: #8b0000"/>
    </g>
    <g clip-path="url(#pe075f48033)">
     <use xlink:href="#C0_0_555e1824d2" x="126.801559" y="433.93624" style="fill: #8b0000"/>
    </g>
    <g clip-path="url(#pe075f48033)">
     <use xlink:href="#C0_0_555e1824d2" x="127.318391" y="338.785506" style="fill: #8b0000"/>
    </g>
    <g clip-path="url(#pe075f48033)">
     <use xlink:href="#C0_0_555e1824d2" x="126.346458" y="328.828247" style="fill: #8b0000"/>
    </g>
    <g clip-path="url(#pe075f48033)">
     <use xlink:href="#C0_0_555e1824d2" x="128.138118" y="371.052321" style="fill: #8b0000"/>
    </g>
    <g clip-path="url(#pe075f48033)">
     <use xlink:href="#C0_0_555e1824d2" x="128.098191" y="380.843509" style="fill: #8b0000"/>
    </g>
    <g clip-path="url(#pe075f48033)">
     <use xlink:href="#C0_0_555e1824d2" x="125.859467" y="341.07104" style="fill: #8b0000"/>
    </g>
   </g>
   <g id="PathCollection_2">
    <defs>
     <path id="C1_0_3e292f9d17" d="M 0 2.236068 
C 0.593012 2.236068 1.161816 2.000462 1.581139 1.581139 
C 2.000462 1.161816 2.236068 0.593012 2.236068 -0 
C 2.236068 -0.593012 2.000462 -1.161816 1.581139 -1.581139 
C 1.161816 -2.000462 0.593012 -2.236068 0 -2.236068 
C -0.593012 -2.236068 -1.161816 -2.000462 -1.581139 -1.581139 
C -2.000462 -1.161816 -2.236068 -0.593012 -2.236068 0 
C -2.236068 0.593012 -2.000462 1.161816 -1.581139 1.581139 
C -1.161816 2.000462 -0.593012 2.236068 0 2.236068 
z
"/>
    </defs>
    <g clip-path="url(#pe075f48033)">
     <use xlink:href="#C1_0_3e292f9d17" x="229.00065" y="367.155417" style="fill: #0000cd"/>
    </g>
    <g clip-path="url(#pe075f48033)">
     <use xlink:href="#C1_0_3e292f9d17" x="226.665403" y="305.118404" style="fill: #0000cd"/>
    </g>
    <g clip-path="url(#pe075f48033)">
     <use xlink:href="#C1_0_3e292f9d17" x="228.377359" y="330.724801" style="fill: #0000cd"/>
    </g>
    <g clip-path="url(#pe075f48033)">
     <use xlink:href="#C1_0_3e292f9d17" x="227.422896" y="357.989537" style="fill: #0000cd"/>
    </g>
    <g clip-path="url(#pe075f48033)">
     <use xlink:href="#C1_0_3e292f9d17" x="229.470401" y="416.499737" style="fill: #0000cd"/>
    </g>
    <g clip-path="url(#pe075f48033)">
     <use xlink:href="#C1_0_3e292f9d17" x="230.78031" y="342.882163" style="fill: #0000cd"/>
    </g>
    <g clip-path="url(#pe075f48033)">
     <use xlink:href="#C1_0_3e292f9d17" x="228.597819" y="331.813876" style="fill: #0000cd"/>
    </g>
    <g clip-path="url(#pe075f48033)">
     <use xlink:href="#C1_0_3e292f9d17" x="228.291005" y="263.918714" style="fill: #0000cd"/>
    </g>
    <g clip-path="url(#pe075f48033)">
     <use xlink:href="#C1_0_3e292f9d17" x="227.632319" y="282.136366" style="fill: #0000cd"/>
    </g>
    <g clip-path="url(#pe075f48033)">
     <use xlink:href="#C1_0_3e292f9d17" x="226.470314" y="-92.409507" style="fill: #0000cd"/>
    </g>
    <g clip-path="url(#pe075f48033)">
     <use xlink:href="#C1_0_3e292f9d17" x="230.024634" y="404.487322" style="fill: #0000cd"/>
    </g>
    <g clip-path="url(#pe075f48033)">
     <use xlink:href="#C1_0_3e292f9d17" x="228.644099" y="365.63396" style="fill: #0000cd"/>
    </g>
    <g clip-path="url(#pe075f48033)">
     <use xlink:href="#C1_0_3e292f9d17" x="228.346463" y="373.111613" style="fill: #0000cd"/>
    </g>
    <g clip-path="url(#pe075f48033)">
     <use xlink:href="#C1_0_3e292f9d17" x="227.781995" y="382.969172" style="fill: #0000cd"/>
    </g>
    <g clip-path="url(#pe075f48033)">
     <use xlink:href="#C1_0_3e292f9d17" x="227.115576" y="302.749404" style="fill: #0000cd"/>
    </g>
    <g clip-path="url(#pe075f48033)">
     <use xlink:href="#C1_0_3e292f9d17" x="228.158124" y="444.434065" style="fill: #0000cd"/>
    </g>
    <g clip-path="url(#pe075f48033)">
     <use xlink:href="#C1_0_3e292f9d17" x="228.657697" y="338.718688" style="fill: #0000cd"/>
    </g>
    <g clip-path="url(#pe075f48033)">
     <use xlink:href="#C1_0_3e292f9d17" x="229.497722" y="380.487793" style="fill: #0000cd"/>
    </g>
    <g clip-path="url(#pe075f48033)">
     <use xlink:href="#C1_0_3e292f9d17" x="229.151852" y="373.755788" style="fill: #0000cd"/>
    </g>
    <g clip-path="url(#pe075f48033)">
     <use xlink:href="#C1_0_3e292f9d17" x="228.668003" y="347.189038" style="fill: #0000cd"/>
    </g>
   </g>
   <g id="PathCollection_3">
    <defs>
     <path id="C2_0_78608836aa" d="M 0 2.236068 
C 0.593012 2.236068 1.161816 2.000462 1.581139 1.581139 
C 2.000462 1.161816 2.236068 0.593012 2.236068 -0 
C 2.236068 -0.593012 2.000462 -1.161816 1.581139 -1.581139 
C 1.161816 -2.000462 0.593012 -2.236068 0 -2.236068 
C -0.593012 -2.236068 -1.161816 -2.000462 -1.581139 -1.581139 
C -2.000462 -1.161816 -2.236068 -0.593012 -2.236068 0 
C -2.236068 0.593012 -2.000462 1.161816 -1.581139 1.581139 
C -1.161816 2.000462 -0.593012 2.236068 0 2.236068 
z
"/>
    </defs>
    <g clip-path="url(#pe075f48033)">
     <use xlink:href="#C2_0_78608836aa" x="327.484165" y="282.828624" style="fill: #228b22"/>
    </g>
    <g clip-path="url(#pe075f48033)">
     <use xlink:href="#C2_0_78608836aa" x="331.266974" y="354.717703" style="fill: #228b22"/>
    </g>
    <g clip-path="url(#pe075f48033)">
     <use xlink:href="#C2_0_78608836aa" x="332.215968" y="322.452609" style="fill: #228b22"/>
    </g>
    <g clip-path="url(#pe075f48033)">
     <use xlink:href="#C2_0_78608836aa" x="329.555895" y="410.288798" style="fill: #228b22"/>
    </g>
    <g clip-path="url(#pe075f48033)">
     <use xlink:href="#C2_0_78608836aa" x="330.873872" y="423.922178" style="fill: #228b22"/>
    </g>
    <g clip-path="url(#pe075f48033)">
     <use xlink:href="#C2_0_78608836aa" x="331.8951" y="282.90264" style="fill: #228b22"/>
    </g>
    <g clip-path="url(#pe075f48033)">
     <use xlink:href="#C2_0_78608836aa" x="329.876762" y="369.350422" style="fill: #228b22"/>
    </g>
    <g clip-path="url(#pe075f48033)">
     <use xlink:href="#C2_0_78608836aa" x="329.364152" y="308.722583" style="fill: #228b22"/>
    </g>
    <g clip-path="url(#pe075f48033)">
     <use xlink:href="#C2_0_78608836aa" x="327.656282" y="425.526284" style="fill: #228b22"/>
    </g>
    <g clip-path="url(#pe075f48033)">
     <use xlink:href="#C2_0_78608836aa" x="332.248915" y="278.463662" style="fill: #228b22"/>
    </g>
    <g clip-path="url(#pe075f48033)">
     <use xlink:href="#C2_0_78608836aa" x="328.580451" y="298.377663" style="fill: #228b22"/>
    </g>
    <g clip-path="url(#pe075f48033)">
     <use xlink:href="#C2_0_78608836aa" x="328.890667" y="285.838756" style="fill: #228b22"/>
    </g>
    <g clip-path="url(#pe075f48033)">
     <use xlink:href="#C2_0_78608836aa" x="329.355261" y="412.416984" style="fill: #228b22"/>
    </g>
    <g clip-path="url(#pe075f48033)">
     <use xlink:href="#C2_0_78608836aa" x="329.258709" y="378.712335" style="fill: #228b22"/>
    </g>
    <g clip-path="url(#pe075f48033)">
     <use xlink:href="#C2_0_78608836aa" x="327.72366" y="369.179998" style="fill: #228b22"/>
    </g>
    <g clip-path="url(#pe075f48033)">
     <use xlink:href="#C2_0_78608836aa" x="332.083559" y="378.774531" style="fill: #228b22"/>
    </g>
    <g clip-path="url(#pe075f48033)">
     <use xlink:href="#C2_0_78608836aa" x="328.815169" y="349.341773" style="fill: #228b22"/>
    </g>
    <g clip-path="url(#pe075f48033)">
     <use xlink:href="#C2_0_78608836aa" x="328.904531" y="375.51867" style="fill: #228b22"/>
    </g>
    <g clip-path="url(#pe075f48033)">
     <use xlink:href="#C2_0_78608836aa" x="328.498657" y="390.840892" style="fill: #228b22"/>
    </g>
    <g clip-path="url(#pe075f48033)">
     <use xlink:href="#C2_0_78608836aa" x="330.455801" y="367.219542" style="fill: #228b22"/>
    </g>
   </g>
   <g id="PathCollection_4">
    <defs>
     <path id="C3_0_3e0fab4a72" d="M 0 2.236068 
C 0.593012 2.236068 1.161816 2.000462 1.581139 1.581139 
C 2.000462 1.161816 2.236068 0.593012 2.236068 -0 
C 2.236068 -0.593012 2.000462 -1.161816 1.581139 -1.581139 
C 1.161816 -2.000462 0.593012 -2.236068 0 -2.236068 
C -0.593012 -2.236068 -1.161816 -2.000462 -1.581139 -1.581139 
C -2.000462 -1.161816 -2.236068 -0.593012 -2.236068 0 
C -2.236068 0.593012 -2.000462 1.161816 -1.581139 1.581139 
C -1.161816 2.000462 -0.593012 2.236068 0 2.236068 
z
"/>
    </defs>
    <g clip-path="url(#pe075f48033)">
     <use xlink:href="#C3_0_3e0fab4a72" x="406.342844" y="285.449269"/>
    </g>
    <g clip-path="url(#pe075f48033)">
     <use xlink:href="#C3_0_3e0fab4a72" x="405.752839" y="368.325276"/>
    </g>
    <g clip-path="url(#pe075f48033)">
     <use xlink:href="#C3_0_3e0fab4a72" x="404.346548" y="394.02929"/>
    </g>
    <g clip-path="url(#pe075f48033)">
     <use xlink:href="#C3_0_3e0fab4a72" x="405.353406" y="296.012342"/>
    </g>
    <g clip-path="url(#pe075f48033)">
     <use xlink:href="#C3_0_3e0fab4a72" x="405.76819" y="314.807662"/>
    </g>
    <g clip-path="url(#pe075f48033)">
     <use xlink:href="#C3_0_3e0fab4a72" x="408.194049" y="371.995346"/>
    </g>
    <g clip-path="url(#pe075f48033)">
     <use xlink:href="#C3_0_3e0fab4a72" x="403.52347" y="388.191101"/>
    </g>
    <g clip-path="url(#pe075f48033)">
     <use xlink:href="#C3_0_3e0fab4a72" x="405.488843" y="296.680815"/>
    </g>
    <g clip-path="url(#pe075f48033)">
     <use xlink:href="#C3_0_3e0fab4a72" x="403.82518" y="465.807288"/>
    </g>
    <g clip-path="url(#pe075f48033)">
     <use xlink:href="#C3_0_3e0fab4a72" x="408.199867" y="72.458361"/>
    </g>
    <g clip-path="url(#pe075f48033)">
     <use xlink:href="#C3_0_3e0fab4a72" x="406.958788" y="327.143883"/>
    </g>
    <g clip-path="url(#pe075f48033)">
     <use xlink:href="#C3_0_3e0fab4a72" x="403.706376" y="338.748466"/>
    </g>
    <g clip-path="url(#pe075f48033)">
     <use xlink:href="#C3_0_3e0fab4a72" x="407.106013" y="338.064745"/>
    </g>
    <g clip-path="url(#pe075f48033)">
     <use xlink:href="#C3_0_3e0fab4a72" x="405.812135" y="311.060434"/>
    </g>
    <g clip-path="url(#pe075f48033)">
     <use xlink:href="#C3_0_3e0fab4a72" x="404.322792" y="411.137653"/>
    </g>
    <g clip-path="url(#pe075f48033)">
     <use xlink:href="#C3_0_3e0fab4a72" x="404.111523" y="263.246695"/>
    </g>
    <g clip-path="url(#pe075f48033)">
     <use xlink:href="#C3_0_3e0fab4a72" x="405.811994" y="444.120243"/>
    </g>
    <g clip-path="url(#pe075f48033)">
     <use xlink:href="#C3_0_3e0fab4a72" x="406.579473" y="426.585753"/>
    </g>
    <g clip-path="url(#pe075f48033)">
     <use xlink:href="#C3_0_3e0fab4a72" x="405.566108" y="454.926532"/>
    </g>
   </g>
   <g id="matplotlib.axis_1">
    <g id="xtick_1">
     <g id="line2d_1">
      <defs>
       <path id="mdac7603db2" d="M 0 0 
L 0 8 
" style="stroke: #000000; stroke-width: 2"/>
      </defs>
      <g>
       <use xlink:href="#mdac7603db2" x="126.920313" y="486.038437" style="stroke: #000000; stroke-width: 2"/>
      </g>
     </g>
     <g id="text_1">
      <!-- 025 -->
      <g transform="translate(107.832813 512.735312) scale(0.2 -0.2)">
       <defs>
        <path id="DejaVuSans-30" d="M 2034 4250 
Q 1547 4250 1301 3770 
Q 1056 3291 1056 2328 
Q 1056 1369 1301 889 
Q 1547 409 2034 409 
Q 2525 409 2770 889 
Q 3016 1369 3016 2328 
Q 3016 3291 2770 3770 
Q 2525 4250 2034 4250 
z
M 2034 4750 
Q 2819 4750 3233 4129 
Q 3647 3509 3647 2328 
Q 3647 1150 3233 529 
Q 2819 -91 2034 -91 
Q 1250 -91 836 529 
Q 422 1150 422 2328 
Q 422 3509 836 4129 
Q 1250 4750 2034 4750 
z
" transform="scale(0.015625)"/>
        <path id="DejaVuSans-32" d="M 1228 531 
L 3431 531 
L 3431 0 
L 469 0 
L 469 531 
Q 828 903 1448 1529 
Q 2069 2156 2228 2338 
Q 2531 2678 2651 2914 
Q 2772 3150 2772 3378 
Q 2772 3750 2511 3984 
Q 2250 4219 1831 4219 
Q 1534 4219 1204 4116 
Q 875 4013 500 3803 
L 500 4441 
Q 881 4594 1212 4672 
Q 1544 4750 1819 4750 
Q 2544 4750 2975 4387 
Q 3406 4025 3406 3419 
Q 3406 3131 3298 2873 
Q 3191 2616 2906 2266 
Q 2828 2175 2409 1742 
Q 1991 1309 1228 531 
z
" transform="scale(0.015625)"/>
        <path id="DejaVuSans-35" d="M 691 4666 
L 3169 4666 
L 3169 4134 
L 1269 4134 
L 1269 2991 
Q 1406 3038 1543 3061 
Q 1681 3084 1819 3084 
Q 2600 3084 3056 2656 
Q 3513 2228 3513 1497 
Q 3513 744 3044 326 
Q 2575 -91 1722 -91 
Q 1428 -91 1123 -41 
Q 819 9 494 109 
L 494 744 
Q 775 591 1075 516 
Q 1375 441 1709 441 
Q 2250 441 2565 725 
Q 2881 1009 2881 1497 
Q 2881 1984 2565 2268 
Q 2250 2553 1709 2553 
Q 1456 2553 1204 2497 
Q 953 2441 691 2322 
L 691 4666 
z
" transform="scale(0.015625)"/>
       </defs>
       <use xlink:href="#DejaVuSans-30"/>
       <use xlink:href="#DejaVuSans-32" x="63.623047"/>
       <use xlink:href="#DejaVuSans-35" x="127.246094"/>
      </g>
     </g>
    </g>
    <g id="xtick_2">
     <g id="line2d_2">
      <g>
       <use xlink:href="#mdac7603db2" x="228.374858" y="486.038437" style="stroke: #000000; stroke-width: 2"/>
      </g>
     </g>
     <g id="text_2">
      <!-- 05 -->
      <g transform="translate(215.649858 512.735312) scale(0.2 -0.2)">
       <use xlink:href="#DejaVuSans-30"/>
       <use xlink:href="#DejaVuSans-35" x="63.623047"/>
      </g>
     </g>
    </g>
    <g id="xtick_3">
     <g id="line2d_3">
      <g>
       <use xlink:href="#mdac7603db2" x="329.829403" y="486.038437" style="stroke: #000000; stroke-width: 2"/>
      </g>
     </g>
     <g id="text_3">
      <!-- 075 -->
      <g transform="translate(310.741903 512.735312) scale(0.2 -0.2)">
       <defs>
        <path id="DejaVuSans-37" d="M 525 4666 
L 3525 4666 
L 3525 4397 
L 1831 0 
L 1172 0 
L 2766 4134 
L 525 4134 
L 525 4666 
z
" transform="scale(0.015625)"/>
       </defs>
       <use xlink:href="#DejaVuSans-30"/>
       <use xlink:href="#DejaVuSans-37" x="63.623047"/>
       <use xlink:href="#DejaVuSans-35" x="127.246094"/>
      </g>
     </g>
    </g>
    <g id="xtick_4">
     <g id="line2d_4">
      <g>
       <use xlink:href="#mdac7603db2" x="405.920313" y="486.038437" style="stroke: #000000; stroke-width: 2"/>
      </g>
     </g>
     <g id="text_4">
      <!-- GT -->
      <g transform="translate(392.426563 512.735312) scale(0.2 -0.2)">
       <defs>
        <path id="DejaVuSans-47" d="M 3809 666 
L 3809 1919 
L 2778 1919 
L 2778 2438 
L 4434 2438 
L 4434 434 
Q 4069 175 3628 42 
Q 3188 -91 2688 -91 
Q 1594 -91 976 548 
Q 359 1188 359 2328 
Q 359 3472 976 4111 
Q 1594 4750 2688 4750 
Q 3144 4750 3555 4637 
Q 3966 4525 4313 4306 
L 4313 3634 
Q 3963 3931 3569 4081 
Q 3175 4231 2741 4231 
Q 1884 4231 1454 3753 
Q 1025 3275 1025 2328 
Q 1025 1384 1454 906 
Q 1884 428 2741 428 
Q 3075 428 3337 486 
Q 3600 544 3809 666 
z
" transform="scale(0.015625)"/>
        <path id="DejaVuSans-54" d="M -19 4666 
L 3928 4666 
L 3928 4134 
L 2272 4134 
L 2272 0 
L 1638 0 
L 1638 4134 
L -19 4134 
L -19 4666 
z
" transform="scale(0.015625)"/>
       </defs>
       <use xlink:href="#DejaVuSans-47"/>
       <use xlink:href="#DejaVuSans-54" x="73.865234"/>
      </g>
     </g>
    </g>
    <g id="text_5">
     <!-- Sampling -->
     <g transform="translate(207.910547 539.890781) scale(0.25 -0.25)">
      <defs>
       <path id="DejaVuSans-53" d="M 3425 4513 
L 3425 3897 
Q 3066 4069 2747 4153 
Q 2428 4238 2131 4238 
Q 1616 4238 1336 4038 
Q 1056 3838 1056 3469 
Q 1056 3159 1242 3001 
Q 1428 2844 1947 2747 
L 2328 2669 
Q 3034 2534 3370 2195 
Q 3706 1856 3706 1288 
Q 3706 609 3251 259 
Q 2797 -91 1919 -91 
Q 1588 -91 1214 -16 
Q 841 59 441 206 
L 441 856 
Q 825 641 1194 531 
Q 1563 422 1919 422 
Q 2459 422 2753 634 
Q 3047 847 3047 1241 
Q 3047 1584 2836 1778 
Q 2625 1972 2144 2069 
L 1759 2144 
Q 1053 2284 737 2584 
Q 422 2884 422 3419 
Q 422 4038 858 4394 
Q 1294 4750 2059 4750 
Q 2388 4750 2728 4690 
Q 3069 4631 3425 4513 
z
" transform="scale(0.015625)"/>
       <path id="DejaVuSans-61" d="M 2194 1759 
Q 1497 1759 1228 1600 
Q 959 1441 959 1056 
Q 959 750 1161 570 
Q 1363 391 1709 391 
Q 2188 391 2477 730 
Q 2766 1069 2766 1631 
L 2766 1759 
L 2194 1759 
z
M 3341 1997 
L 3341 0 
L 2766 0 
L 2766 531 
Q 2569 213 2275 61 
Q 1981 -91 1556 -91 
Q 1019 -91 701 211 
Q 384 513 384 1019 
Q 384 1609 779 1909 
Q 1175 2209 1959 2209 
L 2766 2209 
L 2766 2266 
Q 2766 2663 2505 2880 
Q 2244 3097 1772 3097 
Q 1472 3097 1187 3025 
Q 903 2953 641 2809 
L 641 3341 
Q 956 3463 1253 3523 
Q 1550 3584 1831 3584 
Q 2591 3584 2966 3190 
Q 3341 2797 3341 1997 
z
" transform="scale(0.015625)"/>
       <path id="DejaVuSans-6d" d="M 3328 2828 
Q 3544 3216 3844 3400 
Q 4144 3584 4550 3584 
Q 5097 3584 5394 3201 
Q 5691 2819 5691 2113 
L 5691 0 
L 5113 0 
L 5113 2094 
Q 5113 2597 4934 2840 
Q 4756 3084 4391 3084 
Q 3944 3084 3684 2787 
Q 3425 2491 3425 1978 
L 3425 0 
L 2847 0 
L 2847 2094 
Q 2847 2600 2669 2842 
Q 2491 3084 2119 3084 
Q 1678 3084 1418 2786 
Q 1159 2488 1159 1978 
L 1159 0 
L 581 0 
L 581 3500 
L 1159 3500 
L 1159 2956 
Q 1356 3278 1631 3431 
Q 1906 3584 2284 3584 
Q 2666 3584 2933 3390 
Q 3200 3197 3328 2828 
z
" transform="scale(0.015625)"/>
       <path id="DejaVuSans-70" d="M 1159 525 
L 1159 -1331 
L 581 -1331 
L 581 3500 
L 1159 3500 
L 1159 2969 
Q 1341 3281 1617 3432 
Q 1894 3584 2278 3584 
Q 2916 3584 3314 3078 
Q 3713 2572 3713 1747 
Q 3713 922 3314 415 
Q 2916 -91 2278 -91 
Q 1894 -91 1617 61 
Q 1341 213 1159 525 
z
M 3116 1747 
Q 3116 2381 2855 2742 
Q 2594 3103 2138 3103 
Q 1681 3103 1420 2742 
Q 1159 2381 1159 1747 
Q 1159 1113 1420 752 
Q 1681 391 2138 391 
Q 2594 391 2855 752 
Q 3116 1113 3116 1747 
z
" transform="scale(0.015625)"/>
       <path id="DejaVuSans-6c" d="M 603 4863 
L 1178 4863 
L 1178 0 
L 603 0 
L 603 4863 
z
" transform="scale(0.015625)"/>
       <path id="DejaVuSans-69" d="M 603 3500 
L 1178 3500 
L 1178 0 
L 603 0 
L 603 3500 
z
M 603 4863 
L 1178 4863 
L 1178 4134 
L 603 4134 
L 603 4863 
z
" transform="scale(0.015625)"/>
       <path id="DejaVuSans-6e" d="M 3513 2113 
L 3513 0 
L 2938 0 
L 2938 2094 
Q 2938 2591 2744 2837 
Q 2550 3084 2163 3084 
Q 1697 3084 1428 2787 
Q 1159 2491 1159 1978 
L 1159 0 
L 581 0 
L 581 3500 
L 1159 3500 
L 1159 2956 
Q 1366 3272 1645 3428 
Q 1925 3584 2291 3584 
Q 2894 3584 3203 3211 
Q 3513 2838 3513 2113 
z
" transform="scale(0.015625)"/>
       <path id="DejaVuSans-67" d="M 2906 1791 
Q 2906 2416 2648 2759 
Q 2391 3103 1925 3103 
Q 1463 3103 1205 2759 
Q 947 2416 947 1791 
Q 947 1169 1205 825 
Q 1463 481 1925 481 
Q 2391 481 2648 825 
Q 2906 1169 2906 1791 
z
M 3481 434 
Q 3481 -459 3084 -895 
Q 2688 -1331 1869 -1331 
Q 1566 -1331 1297 -1286 
Q 1028 -1241 775 -1147 
L 775 -588 
Q 1028 -725 1275 -790 
Q 1522 -856 1778 -856 
Q 2344 -856 2625 -561 
Q 2906 -266 2906 331 
L 2906 616 
Q 2728 306 2450 153 
Q 2172 0 1784 0 
Q 1141 0 747 490 
Q 353 981 353 1791 
Q 353 2603 747 3093 
Q 1141 3584 1784 3584 
Q 2172 3584 2450 3431 
Q 2728 3278 2906 2969 
L 2906 3500 
L 3481 3500 
L 3481 434 
z
" transform="scale(0.015625)"/>
      </defs>
      <use xlink:href="#DejaVuSans-53"/>
      <use xlink:href="#DejaVuSans-61" x="63.476562"/>
      <use xlink:href="#DejaVuSans-6d" x="124.755859"/>
      <use xlink:href="#DejaVuSans-70" x="222.167969"/>
      <use xlink:href="#DejaVuSans-6c" x="285.644531"/>
      <use xlink:href="#DejaVuSans-69" x="313.427734"/>
      <use xlink:href="#DejaVuSans-6e" x="341.210938"/>
      <use xlink:href="#DejaVuSans-67" x="404.589844"/>
     </g>
    </g>
   </g>
   <g id="matplotlib.axis_2">
    <g id="ytick_1">
     <g id="line2d_5">
      <defs>
       <path id="mcad15fa815" d="M 0 0 
L -8 0 
" style="stroke: #000000; stroke-width: 2"/>
      </defs>
      <g>
       <use xlink:href="#mcad15fa815" x="85.070313" y="486.038437" style="stroke: #000000; stroke-width: 2"/>
      </g>
     </g>
     <g id="text_6">
      <!-- 40 -->
      <g transform="translate(48.120313 493.636875) scale(0.2 -0.2)">
       <defs>
        <path id="DejaVuSans-34" d="M 2419 4116 
L 825 1625 
L 2419 1625 
L 2419 4116 
z
M 2253 4666 
L 3047 4666 
L 3047 1625 
L 3713 1625 
L 3713 1100 
L 3047 1100 
L 3047 0 
L 2419 0 
L 2419 1100 
L 313 1100 
L 313 1709 
L 2253 4666 
z
" transform="scale(0.015625)"/>
       </defs>
       <use xlink:href="#DejaVuSans-34"/>
       <use xlink:href="#DejaVuSans-30" x="63.623047"/>
      </g>
     </g>
    </g>
    <g id="ytick_2">
     <g id="line2d_6">
      <g>
       <use xlink:href="#mcad15fa815" x="85.070313" y="433.678437" style="stroke: #000000; stroke-width: 2"/>
      </g>
     </g>
     <g id="text_7">
      <!-- 50 -->
      <g transform="translate(48.120313 441.276875) scale(0.2 -0.2)">
       <use xlink:href="#DejaVuSans-35"/>
       <use xlink:href="#DejaVuSans-30" x="63.623047"/>
      </g>
     </g>
    </g>
    <g id="ytick_3">
     <g id="line2d_7">
      <g>
       <use xlink:href="#mcad15fa815" x="85.070313" y="381.318437" style="stroke: #000000; stroke-width: 2"/>
      </g>
     </g>
     <g id="text_8">
      <!-- 60 -->
      <g transform="translate(48.120313 388.916875) scale(0.2 -0.2)">
       <defs>
        <path id="DejaVuSans-36" d="M 2113 2584 
Q 1688 2584 1439 2293 
Q 1191 2003 1191 1497 
Q 1191 994 1439 701 
Q 1688 409 2113 409 
Q 2538 409 2786 701 
Q 3034 994 3034 1497 
Q 3034 2003 2786 2293 
Q 2538 2584 2113 2584 
z
M 3366 4563 
L 3366 3988 
Q 3128 4100 2886 4159 
Q 2644 4219 2406 4219 
Q 1781 4219 1451 3797 
Q 1122 3375 1075 2522 
Q 1259 2794 1537 2939 
Q 1816 3084 2150 3084 
Q 2853 3084 3261 2657 
Q 3669 2231 3669 1497 
Q 3669 778 3244 343 
Q 2819 -91 2113 -91 
Q 1303 -91 875 529 
Q 447 1150 447 2328 
Q 447 3434 972 4092 
Q 1497 4750 2381 4750 
Q 2619 4750 2861 4703 
Q 3103 4656 3366 4563 
z
" transform="scale(0.015625)"/>
       </defs>
       <use xlink:href="#DejaVuSans-36"/>
       <use xlink:href="#DejaVuSans-30" x="63.623047"/>
      </g>
     </g>
    </g>
    <g id="ytick_4">
     <g id="line2d_8">
      <g>
       <use xlink:href="#mcad15fa815" x="85.070313" y="328.958437" style="stroke: #000000; stroke-width: 2"/>
      </g>
     </g>
     <g id="text_9">
      <!-- 70 -->
      <g transform="translate(48.120313 336.556875) scale(0.2 -0.2)">
       <use xlink:href="#DejaVuSans-37"/>
       <use xlink:href="#DejaVuSans-30" x="63.623047"/>
      </g>
     </g>
    </g>
    <g id="ytick_5">
     <g id="line2d_9">
      <g>
       <use xlink:href="#mcad15fa815" x="85.070313" y="276.598437" style="stroke: #000000; stroke-width: 2"/>
      </g>
     </g>
     <g id="text_10">
      <!-- 80 -->
      <g transform="translate(48.120313 284.196875) scale(0.2 -0.2)">
       <defs>
        <path id="DejaVuSans-38" d="M 2034 2216 
Q 1584 2216 1326 1975 
Q 1069 1734 1069 1313 
Q 1069 891 1326 650 
Q 1584 409 2034 409 
Q 2484 409 2743 651 
Q 3003 894 3003 1313 
Q 3003 1734 2745 1975 
Q 2488 2216 2034 2216 
z
M 1403 2484 
Q 997 2584 770 2862 
Q 544 3141 544 3541 
Q 544 4100 942 4425 
Q 1341 4750 2034 4750 
Q 2731 4750 3128 4425 
Q 3525 4100 3525 3541 
Q 3525 3141 3298 2862 
Q 3072 2584 2669 2484 
Q 3125 2378 3379 2068 
Q 3634 1759 3634 1313 
Q 3634 634 3220 271 
Q 2806 -91 2034 -91 
Q 1263 -91 848 271 
Q 434 634 434 1313 
Q 434 1759 690 2068 
Q 947 2378 1403 2484 
z
M 1172 3481 
Q 1172 3119 1398 2916 
Q 1625 2713 2034 2713 
Q 2441 2713 2670 2916 
Q 2900 3119 2900 3481 
Q 2900 3844 2670 4047 
Q 2441 4250 2034 4250 
Q 1625 4250 1398 4047 
Q 1172 3844 1172 3481 
z
" transform="scale(0.015625)"/>
       </defs>
       <use xlink:href="#DejaVuSans-38"/>
       <use xlink:href="#DejaVuSans-30" x="63.623047"/>
      </g>
     </g>
    </g>
    <g id="ytick_6">
     <g id="line2d_10">
      <g>
       <use xlink:href="#mcad15fa815" x="85.070313" y="224.238437" style="stroke: #000000; stroke-width: 2"/>
      </g>
     </g>
     <g id="text_11">
      <!-- 90 -->
      <g transform="translate(48.120313 231.836875) scale(0.2 -0.2)">
       <defs>
        <path id="DejaVuSans-39" d="M 703 97 
L 703 672 
Q 941 559 1184 500 
Q 1428 441 1663 441 
Q 2288 441 2617 861 
Q 2947 1281 2994 2138 
Q 2813 1869 2534 1725 
Q 2256 1581 1919 1581 
Q 1219 1581 811 2004 
Q 403 2428 403 3163 
Q 403 3881 828 4315 
Q 1253 4750 1959 4750 
Q 2769 4750 3195 4129 
Q 3622 3509 3622 2328 
Q 3622 1225 3098 567 
Q 2575 -91 1691 -91 
Q 1453 -91 1209 -44 
Q 966 3 703 97 
z
M 1959 2075 
Q 2384 2075 2632 2365 
Q 2881 2656 2881 3163 
Q 2881 3666 2632 3958 
Q 2384 4250 1959 4250 
Q 1534 4250 1286 3958 
Q 1038 3666 1038 3163 
Q 1038 2656 1286 2365 
Q 1534 2075 1959 2075 
z
" transform="scale(0.015625)"/>
       </defs>
       <use xlink:href="#DejaVuSans-39"/>
       <use xlink:href="#DejaVuSans-30" x="63.623047"/>
      </g>
     </g>
    </g>
    <g id="ytick_7">
     <g id="line2d_11">
      <g>
       <use xlink:href="#mcad15fa815" x="85.070313" y="171.878437" style="stroke: #000000; stroke-width: 2"/>
      </g>
     </g>
     <g id="text_12">
      <!-- 100 -->
      <g transform="translate(35.395313 179.476875) scale(0.2 -0.2)">
       <defs>
        <path id="DejaVuSans-31" d="M 794 531 
L 1825 531 
L 1825 4091 
L 703 3866 
L 703 4441 
L 1819 4666 
L 2450 4666 
L 2450 531 
L 3481 531 
L 3481 0 
L 794 0 
L 794 531 
z
" transform="scale(0.015625)"/>
       </defs>
       <use xlink:href="#DejaVuSans-31"/>
       <use xlink:href="#DejaVuSans-30" x="63.623047"/>
       <use xlink:href="#DejaVuSans-30" x="127.246094"/>
      </g>
     </g>
    </g>
    <g id="ytick_8">
     <g id="line2d_12">
      <g>
       <use xlink:href="#mcad15fa815" x="85.070313" y="119.518437" style="stroke: #000000; stroke-width: 2"/>
      </g>
     </g>
     <g id="text_13">
      <!-- 110 -->
      <g transform="translate(35.395313 127.116875) scale(0.2 -0.2)">
       <use xlink:href="#DejaVuSans-31"/>
       <use xlink:href="#DejaVuSans-31" x="63.623047"/>
       <use xlink:href="#DejaVuSans-30" x="127.246094"/>
      </g>
     </g>
    </g>
    <g id="ytick_9">
     <g id="line2d_13">
      <g>
       <use xlink:href="#mcad15fa815" x="85.070313" y="67.158437" style="stroke: #000000; stroke-width: 2"/>
      </g>
     </g>
     <g id="text_14">
      <!-- 120 -->
      <g transform="translate(35.395313 74.756875) scale(0.2 -0.2)">
       <use xlink:href="#DejaVuSans-31"/>
       <use xlink:href="#DejaVuSans-32" x="63.623047"/>
       <use xlink:href="#DejaVuSans-30" x="127.246094"/>
      </g>
     </g>
    </g>
    <g id="ytick_10">
     <g id="line2d_14">
      <g>
       <use xlink:href="#mcad15fa815" x="85.070313" y="14.798437" style="stroke: #000000; stroke-width: 2"/>
      </g>
     </g>
     <g id="text_15">
      <!-- 130 -->
      <g transform="translate(35.395313 22.396875) scale(0.2 -0.2)">
       <defs>
        <path id="DejaVuSans-33" d="M 2597 2516 
Q 3050 2419 3304 2112 
Q 3559 1806 3559 1356 
Q 3559 666 3084 287 
Q 2609 -91 1734 -91 
Q 1441 -91 1130 -33 
Q 819 25 488 141 
L 488 750 
Q 750 597 1062 519 
Q 1375 441 1716 441 
Q 2309 441 2620 675 
Q 2931 909 2931 1356 
Q 2931 1769 2642 2001 
Q 2353 2234 1838 2234 
L 1294 2234 
L 1294 2753 
L 1863 2753 
Q 2328 2753 2575 2939 
Q 2822 3125 2822 3475 
Q 2822 3834 2567 4026 
Q 2313 4219 1838 4219 
Q 1578 4219 1281 4162 
Q 984 4106 628 3988 
L 628 4550 
Q 988 4650 1302 4700 
Q 1616 4750 1894 4750 
Q 2613 4750 3031 4423 
Q 3450 4097 3450 3541 
Q 3450 3153 3228 2886 
Q 3006 2619 2597 2516 
z
" transform="scale(0.015625)"/>
       </defs>
       <use xlink:href="#DejaVuSans-31"/>
       <use xlink:href="#DejaVuSans-33" x="63.623047"/>
       <use xlink:href="#DejaVuSans-30" x="127.246094"/>
      </g>
     </g>
    </g>
    <g id="text_16">
     <!-- FWHM -->
     <g transform="translate(26.196094 290.152812) rotate(-90) scale(0.25 -0.25)">
      <defs>
       <path id="DejaVuSans-46" d="M 628 4666 
L 3309 4666 
L 3309 4134 
L 1259 4134 
L 1259 2759 
L 3109 2759 
L 3109 2228 
L 1259 2228 
L 1259 0 
L 628 0 
L 628 4666 
z
" transform="scale(0.015625)"/>
       <path id="DejaVuSans-57" d="M 213 4666 
L 850 4666 
L 1831 722 
L 2809 4666 
L 3519 4666 
L 4500 722 
L 5478 4666 
L 6119 4666 
L 4947 0 
L 4153 0 
L 3169 4050 
L 2175 0 
L 1381 0 
L 213 4666 
z
" transform="scale(0.015625)"/>
       <path id="DejaVuSans-48" d="M 628 4666 
L 1259 4666 
L 1259 2753 
L 3553 2753 
L 3553 4666 
L 4184 4666 
L 4184 0 
L 3553 0 
L 3553 2222 
L 1259 2222 
L 1259 0 
L 628 0 
L 628 4666 
z
" transform="scale(0.015625)"/>
       <path id="DejaVuSans-4d" d="M 628 4666 
L 1569 4666 
L 2759 1491 
L 3956 4666 
L 4897 4666 
L 4897 0 
L 4281 0 
L 4281 4097 
L 3078 897 
L 2444 897 
L 1241 4097 
L 1241 0 
L 628 0 
L 628 4666 
z
" transform="scale(0.015625)"/>
      </defs>
      <use xlink:href="#DejaVuSans-46"/>
      <use xlink:href="#DejaVuSans-57" x="57.519531"/>
      <use xlink:href="#DejaVuSans-48" x="156.396484"/>
      <use xlink:href="#DejaVuSans-4d" x="231.591797"/>
     </g>
    </g>
   </g>
   <g id="patch_3">
    <path d="M 101.556676 383.350548 
L 152.283949 383.350548 
L 152.283949 333.806876 
L 101.556676 333.806876 
L 101.556676 383.350548 
L 101.556676 383.350548 
z
" clip-path="url(#pe075f48033)" style="fill: none; stroke: #8b0000; stroke-width: 2; stroke-linejoin: miter"/>
   </g>
   <g id="line2d_15">
    <path d="M 126.920313 383.350548 
L 126.920313 439.100801 
" clip-path="url(#pe075f48033)" style="fill: none; stroke-dasharray: 4.2,4.2; stroke-dashoffset: 0; stroke: #8b0000; stroke-width: 1.4"/>
   </g>
   <g id="line2d_16">
    <path d="M 126.920313 333.806876 
L 126.920313 321.439948 
" clip-path="url(#pe075f48033)" style="fill: none; stroke-dasharray: 4.2,4.2; stroke-dashoffset: 0; stroke: #8b0000; stroke-width: 1.4"/>
   </g>
   <g id="line2d_17">
    <path d="M 114.238494 439.100801 
L 139.602131 439.100801 
" clip-path="url(#pe075f48033)" style="fill: none; stroke: #8b0000; stroke-width: 2; stroke-linecap: square"/>
   </g>
   <g id="line2d_18">
    <path d="M 114.238494 321.439948 
L 139.602131 321.439948 
" clip-path="url(#pe075f48033)" style="fill: none; stroke: #8b0000; stroke-width: 2; stroke-linecap: square"/>
   </g>
   <g id="patch_4">
    <path d="M 203.011222 375.438789 
L 253.738494 375.438789 
L 253.738494 324.323202 
L 203.011222 324.323202 
L 203.011222 375.438789 
L 203.011222 375.438789 
z
" clip-path="url(#pe075f48033)" style="fill: none; stroke: #0000cd; stroke-width: 2; stroke-linejoin: miter"/>
   </g>
   <g id="line2d_19">
    <path d="M 228.374858 375.438789 
L 228.374858 444.434065 
" clip-path="url(#pe075f48033)" style="fill: none; stroke-dasharray: 4.2,4.2; stroke-dashoffset: 0; stroke: #0000cd; stroke-width: 1.4"/>
   </g>
   <g id="line2d_20">
    <path d="M 228.374858 324.323202 
L 228.374858 263.918714 
" clip-path="url(#pe075f48033)" style="fill: none; stroke-dasharray: 4.2,4.2; stroke-dashoffset: 0; stroke: #0000cd; stroke-width: 1.4"/>
   </g>
   <g id="line2d_21">
    <path d="M 215.69304 444.434065 
L 241.056676 444.434065 
" clip-path="url(#pe075f48033)" style="fill: none; stroke: #0000cd; stroke-width: 2; stroke-linecap: square"/>
   </g>
   <g id="line2d_22">
    <path d="M 215.69304 263.918714 
L 241.056676 263.918714 
" clip-path="url(#pe075f48033)" style="fill: none; stroke: #0000cd; stroke-width: 2; stroke-linecap: square"/>
   </g>
   <g id="patch_5">
    <path d="M 304.465767 381.791122 
L 355.19304 381.791122 
L 355.19304 306.136353 
L 304.465767 306.136353 
L 304.465767 381.791122 
L 304.465767 381.791122 
z
" clip-path="url(#pe075f48033)" style="fill: none; stroke: #228b22; stroke-width: 2; stroke-linejoin: miter"/>
   </g>
   <g id="line2d_23">
    <path d="M 329.829403 381.791122 
L 329.829403 425.526284 
" clip-path="url(#pe075f48033)" style="fill: none; stroke-dasharray: 4.2,4.2; stroke-dashoffset: 0; stroke: #228b22; stroke-width: 1.4"/>
   </g>
   <g id="line2d_24">
    <path d="M 329.829403 306.136353 
L 329.829403 278.463662 
" clip-path="url(#pe075f48033)" style="fill: none; stroke-dasharray: 4.2,4.2; stroke-dashoffset: 0; stroke: #228b22; stroke-width: 1.4"/>
   </g>
   <g id="line2d_25">
    <path d="M 317.147585 425.526284 
L 342.511222 425.526284 
" clip-path="url(#pe075f48033)" style="fill: none; stroke: #228b22; stroke-width: 2; stroke-linecap: square"/>
   </g>
   <g id="line2d_26">
    <path d="M 317.147585 278.463662 
L 342.511222 278.463662 
" clip-path="url(#pe075f48033)" style="fill: none; stroke: #228b22; stroke-width: 2; stroke-linecap: square"/>
   </g>
   <g id="patch_6">
    <path d="M 380.556676 402.583471 
L 431.283949 402.583471 
L 431.283949 303.870624 
L 380.556676 303.870624 
L 380.556676 402.583471 
L 380.556676 402.583471 
z
" clip-path="url(#pe075f48033)" style="fill: none; stroke: #000000; stroke-width: 2; stroke-linejoin: miter"/>
   </g>
   <g id="line2d_27">
    <path d="M 405.920313 402.583471 
L 405.920313 465.807288 
" clip-path="url(#pe075f48033)" style="fill: none; stroke-dasharray: 4.2,4.2; stroke-dashoffset: 0; stroke: #000000; stroke-width: 1.4"/>
   </g>
   <g id="line2d_28">
    <path d="M 405.920313 303.870624 
L 405.920313 263.246695 
" clip-path="url(#pe075f48033)" style="fill: none; stroke-dasharray: 4.2,4.2; stroke-dashoffset: 0; stroke: #000000; stroke-width: 1.4"/>
   </g>
   <g id="line2d_29">
    <path d="M 393.238494 465.807288 
L 418.602131 465.807288 
" clip-path="url(#pe075f48033)" style="fill: none; stroke: #000000; stroke-width: 2; stroke-linecap: square"/>
   </g>
   <g id="line2d_30">
    <path d="M 393.238494 263.246695 
L 418.602131 263.246695 
" clip-path="url(#pe075f48033)" style="fill: none; stroke: #000000; stroke-width: 2; stroke-linecap: square"/>
   </g>
   <g id="line2d_31">
    <path d="M 101.556676 367.180441 
L 152.283949 367.180441 
" clip-path="url(#pe075f48033)" style="fill: none; stroke: #000000; stroke-opacity: 0"/>
   </g>
   <g id="line2d_32">
    <path d="M 203.011222 352.589288 
L 253.738494 352.589288 
" clip-path="url(#pe075f48033)" style="fill: none; stroke: #000000; stroke-opacity: 0"/>
   </g>
   <g id="line2d_33">
    <path d="M 304.465767 368.19977 
L 355.19304 368.19977 
" clip-path="url(#pe075f48033)" style="fill: none; stroke: #000000; stroke-opacity: 0"/>
   </g>
   <g id="line2d_34">
    <path d="M 380.556676 338.748466 
L 431.283949 338.748466 
" clip-path="url(#pe075f48033)" style="fill: none; stroke: #000000; stroke-opacity: 0"/>
   </g>
   <g id="patch_7">
    <path d="M 85.070313 486.038437 
L 85.070313 14.798437 
" style="fill: none; stroke: #000000; stroke-width: 2; stroke-linejoin: miter; stroke-linecap: square"/>
   </g>
   <g id="patch_8">
    <path d="M 85.070313 486.038437 
L 447.770313 486.038437 
" style="fill: none; stroke: #000000; stroke-width: 2; stroke-linejoin: miter; stroke-linecap: square"/>
   </g>
   <g id="line2d_35">
    <path d="M 101.556676 342.101958 
L 152.283949 342.101958 
" clip-path="url(#pe075f48033)" style="fill: none; stroke: #8b0000; stroke-width: 2; stroke-linecap: square"/>
   </g>
   <g id="line2d_36">
    <path d="M 203.011222 330.968318 
L 253.738494 330.968318 
" clip-path="url(#pe075f48033)" style="fill: none; stroke: #0000cd; stroke-width: 2; stroke-linecap: square"/>
   </g>
   <g id="line2d_37">
    <path d="M 304.465767 353.269832 
L 355.19304 353.269832 
" clip-path="url(#pe075f48033)" style="fill: none; stroke: #228b22; stroke-width: 2; stroke-linecap: square"/>
   </g>
   <g id="line2d_38">
    <path d="M 380.556676 345.72585 
L 431.283949 345.72585 
" clip-path="url(#pe075f48033)" style="fill: none; stroke: #000000; stroke-width: 2; stroke-linecap: square"/>
   </g>
  </g>
 </g>
 <defs>
  <clipPath id="pe075f48033">
   <rect x="85.070313" y="14.798437" width="362.7" height="471.24"/>
  </clipPath>
 </defs>
</svg>
