<?xml version="1.0" encoding="utf-8" standalone="no"?>
<!DOCTYPE svg PUBLIC "-//W3C//DTD SVG 1.1//EN"
  "http://www.w3.org/Graphics/SVG/1.1/DTD/svg11.dtd">
<svg xmlns:xlink="http://www.w3.org/1999/xlink" width="194.1875pt" height="175.513203pt" viewBox="0 0 194.1875 175.513203" xmlns="http://www.w3.org/2000/svg" version="1.1">
 <metadata>
  <rdf:RDF xmlns:dc="http://purl.org/dc/elements/1.1/" xmlns:cc="http://creativecommons.org/ns#" xmlns:rdf="http://www.w3.org/1999/02/22-rdf-syntax-ns#">
   <cc:Work>
    <dc:type rdf:resource="http://purl.org/dc/dcmitype/StillImage"/>
    <dc:date>2026-04-20T16:35:44.684116</dc:date>
    <dc:format>image/svg+xml</dc:format>
    <dc:creator>
     <cc:Agent>
      <dc:title>Matplotlib v3.9.1, https://matplotlib.org/</dc:title>
     </cc:Agent>
    </dc:creator>
   </cc:Work>
  </rdf:RDF>
 </metadata>
 <defs>
  <style type="text/css">*{stroke-linejoin: round; stroke-linecap: butt}</style>
 </defs>
 <g id="figure_1">
  <g id="patch_1">
   <path d="M 0 175.513203 
L 194.1875 175.513203 
L 194.1875 0 
L 0 0 
z
" style="fill: #ffffff"/>
  </g>
  <g id="axes_1">
   <g id="patch_2">
    <path d="M 61.071875 123.778828 
L 172.671875 123.778828 
L 172.671875 12.898828 
L 61.071875 12.898828 
z
" style="fill: #ffffff"/>
   </g>
   <g id="matplotlib.axis_1">
    <g id="xtick_1">
     <g id="line2d_1">
      <defs>
       <path id="m7d66aced61" d="M 0 0 
L 0 8 
" style="stroke: #000000; stroke-width: 2"/>
      </defs>
      <g>
       <use xlink:href="#m7d66aced61" x="61.071875" y="123.778828" style="stroke: #000000; stroke-width: 2"/>
      </g>
     </g>
     <g id="text_1">
      <!-- 0 -->
      <g transform="translate(56.3 146.676484) scale(0.15 -0.15)">
       <defs>
        <path id="DejaVuSans-30" d="M 2034 4250 
Q 1547 4250 1301 3770 
Q 1056 3291 1056 2328 
Q 1056 1369 1301 889 
Q 1547 409 2034 409 
Q 2525 409 2770 889 
Q 3016 1369 3016 2328 
Q 3016 3291 2770 3770 
Q 2525 4250 2034 4250 
z
M 2034 4750 
Q 2819 4750 3233 4129 
Q 3647 3509 3647 2328 
Q 3647 1150 3233 529 
Q 2819 -91 2034 -91 
Q 1250 -91 836 529 
Q 422 1150 422 2328 
Q 422 3509 836 4129 
Q 1250 4750 2034 4750 
z
" transform="scale(0.015625)"/>
       </defs>
       <use xlink:href="#DejaVuSans-30"/>
      </g>
     </g>
    </g>
    <g id="xtick_2">
     <g id="line2d_2">
      <g>
       <use xlink:href="#m7d66aced61" x="116.871875" y="123.778828" style="stroke: #000000; stroke-width: 2"/>
      </g>
     </g>
     <g id="text_2">
      <!-- 250 -->
      <g transform="translate(102.55625 146.676484) scale(0.15 -0.15)">
       <defs>
        <path id="DejaVuSans-32" d="M 1228 531 
L 3431 531 
L 3431 0 
L 469 0 
L 469 531 
Q 828 903 1448 1529 
Q 2069 2156 2228 2338 
Q 2531 2678 2651 2914 
Q 2772 3150 2772 3378 
Q 2772 3750 2511 3984 
Q 2250 4219 1831 4219 
Q 1534 4219 1204 4116 
Q 875 4013 500 3803 
L 500 4441 
Q 881 4594 1212 4672 
Q 1544 4750 1819 4750 
Q 2544 4750 2975 4387 
Q 3406 4025 3406 3419 
Q 3406 3131 3298 2873 
Q 3191 2616 2906 2266 
Q 2828 2175 2409 1742 
Q 1991 1309 1228 531 
z
" transform="scale(0.015625)"/>
        <path id="DejaVuSans-35" d="M 691 4666 
L 3169 4666 
L 3169 4134 
L 1269 4134 
L 1269 2991 
Q 1406 3038 1543 3061 
Q 1681 3084 1819 3084 
Q 2600 3084 3056 2656 
Q 3513 2228 3513 1497 
Q 3513 744 3044 326 
Q 2575 -91 1722 -91 
Q 1428 -91 1123 -41 
Q 819 9 494 109 
L 494 744 
Q 775 591 1075 516 
Q 1375 441 1709 441 
Q 2250 441 2565 725 
Q 2881 1009 2881 1497 
Q 2881 1984 2565 2268 
Q 2250 2553 1709 2553 
Q 1456 2553 1204 2497 
Q 953 2441 691 2322 
L 691 4666 
z
" transform="scale(0.015625)"/>
       </defs>
       <use xlink:href="#DejaVuSans-32"/>
       <use xlink:href="#DejaVuSans-35" x="63.623047"/>
       <use xlink:href="#DejaVuSans-30" x="127.246094"/>
      </g>
     </g>
    </g>
    <g id="xtick_3">
     <g id="line2d_3">
      <g>
       <use xlink:href="#m7d66aced61" x="172.671875" y="123.778828" style="stroke: #000000; stroke-width: 2"/>
      </g>
     </g>
     <g id="text_3">
      <!-- 500 -->
      <g transform="translate(158.35625 146.676484) scale(0.15 -0.15)">
       <use xlink:href="#DejaVuSans-35"/>
       <use xlink:href="#DejaVuSans-30" x="63.623047"/>
       <use xlink:href="#DejaVuSans-30" x="127.246094"/>
      </g>
     </g>
    </g>
    <g id="text_4">
     <!-- x (nm) -->
     <g transform="translate(92.138281 165.193672) scale(0.15 -0.15)">
      <defs>
       <path id="DejaVuSans-78" d="M 3513 3500 
L 2247 1797 
L 3578 0 
L 2900 0 
L 1881 1375 
L 863 0 
L 184 0 
L 1544 1831 
L 300 3500 
L 978 3500 
L 1906 2253 
L 2834 3500 
L 3513 3500 
z
" transform="scale(0.015625)"/>
       <path id="DejaVuSans-20" transform="scale(0.015625)"/>
       <path id="DejaVuSans-28" d="M 1984 4856 
Q 1566 4138 1362 3434 
Q 1159 2731 1159 2009 
Q 1159 1288 1364 580 
Q 1569 -128 1984 -844 
L 1484 -844 
Q 1016 -109 783 600 
Q 550 1309 550 2009 
Q 550 2706 781 3412 
Q 1013 4119 1484 4856 
L 1984 4856 
z
" transform="scale(0.015625)"/>
       <path id="DejaVuSans-6e" d="M 3513 2113 
L 3513 0 
L 2938 0 
L 2938 2094 
Q 2938 2591 2744 2837 
Q 2550 3084 2163 3084 
Q 1697 3084 1428 2787 
Q 1159 2491 1159 1978 
L 1159 0 
L 581 0 
L 581 3500 
L 1159 3500 
L 1159 2956 
Q 1366 3272 1645 3428 
Q 1925 3584 2291 3584 
Q 2894 3584 3203 3211 
Q 3513 2838 3513 2113 
z
" transform="scale(0.015625)"/>
       <path id="DejaVuSans-6d" d="M 3328 2828 
Q 3544 3216 3844 3400 
Q 4144 3584 4550 3584 
Q 5097 3584 5394 3201 
Q 5691 2819 5691 2113 
L 5691 0 
L 5113 0 
L 5113 2094 
Q 5113 2597 4934 2840 
Q 4756 3084 4391 3084 
Q 3944 3084 3684 2787 
Q 3425 2491 3425 1978 
L 3425 0 
L 2847 0 
L 2847 2094 
Q 2847 2600 2669 2842 
Q 2491 3084 2119 3084 
Q 1678 3084 1418 2786 
Q 1159 2488 1159 1978 
L 1159 0 
L 581 0 
L 581 3500 
L 1159 3500 
L 1159 2956 
Q 1356 3278 1631 3431 
Q 1906 3584 2284 3584 
Q 2666 3584 2933 3390 
Q 3200 3197 3328 2828 
z
" transform="scale(0.015625)"/>
       <path id="DejaVuSans-29" d="M 513 4856 
L 1013 4856 
Q 1481 4119 1714 3412 
Q 1947 2706 1947 2009 
Q 1947 1309 1714 600 
Q 1481 -109 1013 -844 
L 513 -844 
Q 928 -128 1133 580 
Q 1338 1288 1338 2009 
Q 1338 2731 1133 3434 
Q 928 4138 513 4856 
z
" transform="scale(0.015625)"/>
      </defs>
      <use xlink:href="#DejaVuSans-78"/>
      <use xlink:href="#DejaVuSans-20" x="59.179688"/>
      <use xlink:href="#DejaVuSans-28" x="90.966797"/>
      <use xlink:href="#DejaVuSans-6e" x="129.980469"/>
      <use xlink:href="#DejaVuSans-6d" x="193.359375"/>
      <use xlink:href="#DejaVuSans-29" x="290.771484"/>
     </g>
    </g>
   </g>
   <g id="matplotlib.axis_2">
    <g id="ytick_1">
     <g id="line2d_4">
      <defs>
       <path id="m1df90d3d4c" d="M 0 0 
L -8 0 
" style="stroke: #000000; stroke-width: 2"/>
      </defs>
      <g>
       <use xlink:href="#m1df90d3d4c" x="61.071875" y="123.778828" style="stroke: #000000; stroke-width: 2"/>
      </g>
     </g>
     <g id="text_5">
      <!-- 0.0 -->
      <g transform="translate(25.717187 129.477656) scale(0.15 -0.15)">
       <defs>
        <path id="DejaVuSans-2e" d="M 684 794 
L 1344 794 
L 1344 0 
L 684 0 
L 684 794 
z
" transform="scale(0.015625)"/>
       </defs>
       <use xlink:href="#DejaVuSans-30"/>
       <use xlink:href="#DejaVuSans-2e" x="63.623047"/>
       <use xlink:href="#DejaVuSans-30" x="95.410156"/>
      </g>
     </g>
    </g>
    <g id="ytick_2">
     <g id="line2d_5">
      <g>
       <use xlink:href="#m1df90d3d4c" x="61.071875" y="68.338828" style="stroke: #000000; stroke-width: 2"/>
      </g>
     </g>
     <g id="text_6">
      <!-- 0.5 -->
      <g transform="translate(25.717187 74.037656) scale(0.15 -0.15)">
       <use xlink:href="#DejaVuSans-30"/>
       <use xlink:href="#DejaVuSans-2e" x="63.623047"/>
       <use xlink:href="#DejaVuSans-35" x="95.410156"/>
      </g>
     </g>
    </g>
    <g id="ytick_3">
     <g id="line2d_6">
      <g>
       <use xlink:href="#m1df90d3d4c" x="61.071875" y="12.898828" style="stroke: #000000; stroke-width: 2"/>
      </g>
     </g>
     <g id="text_7">
      <!-- 1.0 -->
      <g transform="translate(25.717187 18.597656) scale(0.15 -0.15)">
       <defs>
        <path id="DejaVuSans-31" d="M 794 531 
L 1825 531 
L 1825 4091 
L 703 3866 
L 703 4441 
L 1819 4666 
L 2450 4666 
L 2450 531 
L 3481 531 
L 3481 0 
L 794 0 
L 794 531 
z
" transform="scale(0.015625)"/>
       </defs>
       <use xlink:href="#DejaVuSans-31"/>
       <use xlink:href="#DejaVuSans-2e" x="63.623047"/>
       <use xlink:href="#DejaVuSans-30" x="95.410156"/>
      </g>
     </g>
    </g>
    <g id="text_8">
     <!-- Norm. Intensity -->
     <g transform="translate(18.597656 126.207187) rotate(-90) scale(0.15 -0.15)">
      <defs>
       <path id="DejaVuSans-4e" d="M 628 4666 
L 1478 4666 
L 3547 763 
L 3547 4666 
L 4159 4666 
L 4159 0 
L 3309 0 
L 1241 3903 
L 1241 0 
L 628 0 
L 628 4666 
z
" transform="scale(0.015625)"/>
       <path id="DejaVuSans-6f" d="M 1959 3097 
Q 1497 3097 1228 2736 
Q 959 2375 959 1747 
Q 959 1119 1226 758 
Q 1494 397 1959 397 
Q 2419 397 2687 759 
Q 2956 1122 2956 1747 
Q 2956 2369 2687 2733 
Q 2419 3097 1959 3097 
z
M 1959 3584 
Q 2709 3584 3137 3096 
Q 3566 2609 3566 1747 
Q 3566 888 3137 398 
Q 2709 -91 1959 -91 
Q 1206 -91 779 398 
Q 353 888 353 1747 
Q 353 2609 779 3096 
Q 1206 3584 1959 3584 
z
" transform="scale(0.015625)"/>
       <path id="DejaVuSans-72" d="M 2631 2963 
Q 2534 3019 2420 3045 
Q 2306 3072 2169 3072 
Q 1681 3072 1420 2755 
Q 1159 2438 1159 1844 
L 1159 0 
L 581 0 
L 581 3500 
L 1159 3500 
L 1159 2956 
Q 1341 3275 1631 3429 
Q 1922 3584 2338 3584 
Q 2397 3584 2469 3576 
Q 2541 3569 2628 3553 
L 2631 2963 
z
" transform="scale(0.015625)"/>
       <path id="DejaVuSans-49" d="M 628 4666 
L 1259 4666 
L 1259 0 
L 628 0 
L 628 4666 
z
" transform="scale(0.015625)"/>
       <path id="DejaVuSans-74" d="M 1172 4494 
L 1172 3500 
L 2356 3500 
L 2356 3053 
L 1172 3053 
L 1172 1153 
Q 1172 725 1289 603 
Q 1406 481 1766 481 
L 2356 481 
L 2356 0 
L 1766 0 
Q 1100 0 847 248 
Q 594 497 594 1153 
L 594 3053 
L 172 3053 
L 172 3500 
L 594 3500 
L 594 4494 
L 1172 4494 
z
" transform="scale(0.015625)"/>
       <path id="DejaVuSans-65" d="M 3597 1894 
L 3597 1613 
L 953 1613 
Q 991 1019 1311 708 
Q 1631 397 2203 397 
Q 2534 397 2845 478 
Q 3156 559 3463 722 
L 3463 178 
Q 3153 47 2828 -22 
Q 2503 -91 2169 -91 
Q 1331 -91 842 396 
Q 353 884 353 1716 
Q 353 2575 817 3079 
Q 1281 3584 2069 3584 
Q 2775 3584 3186 3129 
Q 3597 2675 3597 1894 
z
M 3022 2063 
Q 3016 2534 2758 2815 
Q 2500 3097 2075 3097 
Q 1594 3097 1305 2825 
Q 1016 2553 972 2059 
L 3022 2063 
z
" transform="scale(0.015625)"/>
       <path id="DejaVuSans-73" d="M 2834 3397 
L 2834 2853 
Q 2591 2978 2328 3040 
Q 2066 3103 1784 3103 
Q 1356 3103 1142 2972 
Q 928 2841 928 2578 
Q 928 2378 1081 2264 
Q 1234 2150 1697 2047 
L 1894 2003 
Q 2506 1872 2764 1633 
Q 3022 1394 3022 966 
Q 3022 478 2636 193 
Q 2250 -91 1575 -91 
Q 1294 -91 989 -36 
Q 684 19 347 128 
L 347 722 
Q 666 556 975 473 
Q 1284 391 1588 391 
Q 1994 391 2212 530 
Q 2431 669 2431 922 
Q 2431 1156 2273 1281 
Q 2116 1406 1581 1522 
L 1381 1569 
Q 847 1681 609 1914 
Q 372 2147 372 2553 
Q 372 3047 722 3315 
Q 1072 3584 1716 3584 
Q 2034 3584 2315 3537 
Q 2597 3491 2834 3397 
z
" transform="scale(0.015625)"/>
       <path id="DejaVuSans-69" d="M 603 3500 
L 1178 3500 
L 1178 0 
L 603 0 
L 603 3500 
z
M 603 4863 
L 1178 4863 
L 1178 4134 
L 603 4134 
L 603 4863 
z
" transform="scale(0.015625)"/>
       <path id="DejaVuSans-79" d="M 2059 -325 
Q 1816 -950 1584 -1140 
Q 1353 -1331 966 -1331 
L 506 -1331 
L 506 -850 
L 844 -850 
Q 1081 -850 1212 -737 
Q 1344 -625 1503 -206 
L 1606 56 
L 191 3500 
L 800 3500 
L 1894 763 
L 2988 3500 
L 3597 3500 
L 2059 -325 
z
" transform="scale(0.015625)"/>
      </defs>
      <use xlink:href="#DejaVuSans-4e"/>
      <use xlink:href="#DejaVuSans-6f" x="74.804688"/>
      <use xlink:href="#DejaVuSans-72" x="135.986328"/>
      <use xlink:href="#DejaVuSans-6d" x="175.349609"/>
      <use xlink:href="#DejaVuSans-2e" x="272.761719"/>
      <use xlink:href="#DejaVuSans-20" x="304.548828"/>
      <use xlink:href="#DejaVuSans-49" x="336.335938"/>
      <use xlink:href="#DejaVuSans-6e" x="365.828125"/>
      <use xlink:href="#DejaVuSans-74" x="429.207031"/>
      <use xlink:href="#DejaVuSans-65" x="468.416016"/>
      <use xlink:href="#DejaVuSans-6e" x="529.939453"/>
      <use xlink:href="#DejaVuSans-73" x="593.318359"/>
      <use xlink:href="#DejaVuSans-69" x="645.417969"/>
      <use xlink:href="#DejaVuSans-74" x="673.201172"/>
      <use xlink:href="#DejaVuSans-79" x="712.410156"/>
     </g>
    </g>
   </g>
   <g id="line2d_7">
    <defs>
     <path id="mecccaf6c15" d="M 0 2 
C 0.530406 2 1.03916 1.789267 1.414214 1.414214 
C 1.789267 1.03916 2 0.530406 2 0 
C 2 -0.530406 1.789267 -1.03916 1.414214 -1.414214 
C 1.03916 -1.789267 0.530406 -2 0 -2 
C -0.530406 -2 -1.03916 -1.789267 -1.414214 -1.414214 
C -1.789267 -1.03916 -2 -0.530406 -2 0 
C -2 0.530406 -1.789267 1.03916 -1.414214 1.414214 
C -1.03916 1.789267 -0.530406 2 0 2 
z
" style="stroke: #000000"/>
    </defs>
    <g clip-path="url(#p90b60dfa8b)">
     <use xlink:href="#mecccaf6c15" x="61.071875" y="123.778828" style="stroke: #000000"/>
     <use xlink:href="#mecccaf6c15" x="67.321475" y="101.777948" style="stroke: #000000"/>
     <use xlink:href="#mecccaf6c15" x="73.571075" y="109.936602" style="stroke: #000000"/>
     <use xlink:href="#mecccaf6c15" x="79.820675" y="113.660965" style="stroke: #000000"/>
     <use xlink:href="#mecccaf6c15" x="86.070275" y="119.309317" style="stroke: #000000"/>
     <use xlink:href="#mecccaf6c15" x="92.319875" y="103.625972" style="stroke: #000000"/>
     <use xlink:href="#mecccaf6c15" x="98.569475" y="106.973962" style="stroke: #000000"/>
     <use xlink:href="#mecccaf6c15" x="104.819075" y="88.539299" style="stroke: #000000"/>
     <use xlink:href="#mecccaf6c15" x="111.068675" y="50.268761" style="stroke: #000000"/>
     <use xlink:href="#mecccaf6c15" x="117.318275" y="18.442828" style="stroke: #000000"/>
     <use xlink:href="#mecccaf6c15" x="123.567875" y="72.34975" style="stroke: #000000"/>
     <use xlink:href="#mecccaf6c15" x="129.817475" y="84.575991" style="stroke: #000000"/>
     <use xlink:href="#mecccaf6c15" x="136.067075" y="77.724628" style="stroke: #000000"/>
     <use xlink:href="#mecccaf6c15" x="142.316675" y="94.498417" style="stroke: #000000"/>
     <use xlink:href="#mecccaf6c15" x="148.566275" y="115.492415" style="stroke: #000000"/>
     <use xlink:href="#mecccaf6c15" x="154.815875" y="123.356876" style="stroke: #000000"/>
     <use xlink:href="#mecccaf6c15" x="161.065475" y="98.039083" style="stroke: #000000"/>
     <use xlink:href="#mecccaf6c15" x="167.315075" y="109.509125" style="stroke: #000000"/>
     <use xlink:href="#mecccaf6c15" x="173.564675" y="111.667916" style="stroke: #000000"/>
    </g>
   </g>
   <g id="line2d_8">
    <path d="M 61.071875 111.362717 
L 62.208166 111.293879 
L 63.344457 111.220692 
L 64.480748 111.142785 
L 65.617039 111.059746 
L 66.75333 110.971118 
L 67.88962 110.876392 
L 69.025911 110.775 
L 70.162202 110.666308 
L 71.298493 110.549604 
L 72.434784 110.42409 
L 73.571075 110.288864 
L 74.707366 110.14291 
L 75.843657 109.985076 
L 76.979948 109.814053 
L 78.116239 109.62835 
L 79.25253 109.426261 
L 80.38882 109.205831 
L 81.525111 108.964806 
L 82.661402 108.700586 
L 83.797693 108.410151 
L 84.933984 108.089986 
L 86.070275 107.735981 
L 87.206566 107.343307 
L 88.342857 106.906268 
L 89.479148 106.418112 
L 90.615439 105.870792 
L 91.75173 105.254678 
L 92.88802 104.558179 
L 94.024311 103.767272 
L 95.160602 102.864904 
L 96.296893 101.830227 
L 97.433184 100.637632 
L 98.569475 99.255514 
L 99.705766 97.644731 
L 100.842057 95.756689 
L 101.978348 93.531049 
L 103.114639 90.893132 
L 104.25093 87.751331 
L 105.38722 83.995318 
L 106.523511 79.496836 
L 107.659802 74.116671 
L 108.796093 67.724587 
L 109.932384 60.243308 
L 111.068675 51.730982 
L 112.204966 42.510171 
L 113.341257 33.317147 
L 114.477548 25.36744 
L 115.613839 20.157849 
L 116.75013 18.915736 
L 117.88642 21.964083 
L 119.022711 28.531324 
L 120.159002 37.190285 
L 121.295293 46.516824 
L 122.431584 55.496537 
L 123.567875 63.587125 
L 124.704166 70.597881 
L 125.840457 76.541871 
L 126.976748 81.526611 
L 128.113039 85.689865 
L 129.24933 89.167629 
L 130.38562 92.080848 
L 131.521911 94.531706 
L 132.658202 96.604256 
L 133.794493 98.366696 
L 134.930784 99.874021 
L 136.067075 101.170512 
L 137.203366 102.291865 
L 138.339657 103.266943 
L 139.475948 104.119178 
L 140.612239 104.867685 
L 141.74853 105.528132 
L 142.88482 106.113435 
L 144.021111 106.634292 
L 145.157402 107.099614 
L 146.293693 107.516857 
L 147.429984 107.892298 
L 148.566275 108.231238 
L 149.702566 108.538181 
L 150.838857 108.81697 
L 151.975148 109.070895 
L 153.111439 109.302787 
L 154.24773 109.515091 
L 155.38402 109.709925 
L 156.520311 109.889134 
L 157.656602 110.054327 
L 158.792893 110.206914 
L 159.929184 110.348132 
L 161.065475 110.479074 
L 162.201766 110.600705 
L 163.338057 110.713879 
L 164.474348 110.819357 
L 165.610639 110.917815 
L 166.74693 111.009859 
L 167.88322 111.09603 
L 169.019511 111.176813 
L 170.155802 111.252647 
L 171.292093 111.323925 
L 172.428384 111.391003 
L 173.564675 111.454202 
" clip-path="url(#p90b60dfa8b)" style="fill: none; stroke: #ffa500; stroke-width: 2; stroke-linecap: square"/>
   </g>
   <g id="patch_3">
    <path d="M 61.071875 123.778828 
L 61.071875 12.898828 
" style="fill: none; stroke: #000000; stroke-width: 2; stroke-linejoin: miter; stroke-linecap: square"/>
   </g>
   <g id="patch_4">
    <path d="M 61.071875 123.778828 
L 172.671875 123.778828 
" style="fill: none; stroke: #000000; stroke-width: 2; stroke-linejoin: miter; stroke-linecap: square"/>
   </g>
   <g id="text_9">
    <!-- 66nm -->
    <g style="fill: #ffa500" transform="translate(109.810375 87.763508) scale(0.1 -0.1)">
     <defs>
      <path id="DejaVuSans-36" d="M 2113 2584 
Q 1688 2584 1439 2293 
Q 1191 2003 1191 1497 
Q 1191 994 1439 701 
Q 1688 409 2113 409 
Q 2538 409 2786 701 
Q 3034 994 3034 1497 
Q 3034 2003 2786 2293 
Q 2538 2584 2113 2584 
z
M 3366 4563 
L 3366 3988 
Q 3128 4100 2886 4159 
Q 2644 4219 2406 4219 
Q 1781 4219 1451 3797 
Q 1122 3375 1075 2522 
Q 1259 2794 1537 2939 
Q 1816 3084 2150 3084 
Q 2853 3084 3261 2657 
Q 3669 2231 3669 1497 
Q 3669 778 3244 343 
Q 2819 -91 2113 -91 
Q 1303 -91 875 529 
Q 447 1150 447 2328 
Q 447 3434 972 4092 
Q 1497 4750 2381 4750 
Q 2619 4750 2861 4703 
Q 3103 4656 3366 4563 
z
" transform="scale(0.015625)"/>
     </defs>
     <use xlink:href="#DejaVuSans-36"/>
     <use xlink:href="#DejaVuSans-36" x="63.623047"/>
     <use xlink:href="#DejaVuSans-6e" x="127.246094"/>
     <use xlink:href="#DejaVuSans-6d" x="190.625"/>
    </g>
   </g>
   <g id="patch_5">
    <path d="M 120.804755 76.675508 
Q 116.505884 76.675508 112.207012 76.675508 
" style="fill: none; stroke: #ffa500; stroke-linecap: round"/>
    <path d="M 116.804755 74.675508 
L 120.804755 76.675508 
L 116.804755 78.675508 
" style="fill: none; stroke: #ffa500; stroke-linecap: round"/>
    <path d="M 116.207012 78.675508 
L 112.207012 76.675508 
L 116.207012 74.675508 
" style="fill: none; stroke: #ffa500; stroke-linecap: round"/>
   </g>
  </g>
 </g>
 <defs>
  <clipPath id="p90b60dfa8b">
   <rect x="61.071875" y="12.898828" width="111.6" height="110.88"/>
  </clipPath>
 </defs>
</svg>
